/* XPM */
static char *Screen_Shot_2023_01_16_at_6_07_31_PM_removebg_preview1673889227[] = {
/* columns rows colors chars-per-pixel */
"60 60 229 2 ",
"   c #0D0D0E",
".  c #0E0F11",
"X  c #0C1119",
"o  c #121213",
"O  c #181617",
"+  c #1A1915",
"@  c #221A0E",
"#  c #251E14",
"$  c #31300A",
"%  c #242414",
"&  c #2B2618",
"*  c #382817",
"=  c #3C3617",
"-  c #0E1332",
";  c #241B29",
":  c #2B1D35",
">  c #192434",
",  c #182830",
"<  c #292429",
"1  c #332A2C",
"2  c #313326",
"3  c #2D2739",
"4  c #352B32",
"5  c #382E35",
"6  c #33223E",
"7  c #382D39",
"8  c #393235",
"9  c #3C333A",
"0  c #383438",
"q  c #4B3315",
"w  c #663D1E",
"e  c #4A3A22",
"r  c #413535",
"t  c #40353C",
"y  c #41383D",
"u  c #4B4A06",
"i  c #41410F",
"p  c #54500E",
"a  c #474611",
"s  c #54482C",
"d  c #744625",
"f  c #6B542F",
"g  c #72652B",
"h  c #090E42",
"j  c #051955",
"k  c #18165D",
"l  c #072647",
"z  c #122F4C",
"x  c #032E5D",
"c  c #2C2F4F",
"v  c #382644",
"b  c #3E284C",
"n  c #3D3543",
"m  c #151470",
"M  c #231F66",
"N  c #0C3064",
"B  c #033C76",
"V  c #322D6A",
"C  c #442D4D",
"Z  c #443B42",
"A  c #493D46",
"S  c #443848",
"D  c #442C53",
"F  c #482F59",
"G  c #493555",
"H  c #4A315C",
"J  c #513552",
"K  c #542F66",
"L  c #4D3361",
"P  c #513564",
"I  c #543B65",
"U  c #54366B",
"Y  c #56396A",
"T  c #593B6E",
"R  c #5C3D73",
"E  c #603F76",
"W  c #20444A",
"Q  c #184A6B",
"!  c #314C6D",
"~  c #4A4146",
"^  c #45474A",
"/  c #4C434A",
"(  c #55474A",
")  c #53494F",
"_  c #4F4554",
"`  c #554B53",
"'  c #584E56",
"]  c #52425C",
"[  c #574B5B",
"{  c #594D5A",
"}  c #5B5256",
"|  c #575758",
" . c #5D545A",
".. c #6C5448",
"X. c #60565D",
"o. c #62595E",
"O. c #5B426A",
"+. c #5B4469",
"@. c #5A5865",
"#. c #5E4371",
"$. c #67436B",
"%. c #624B6D",
"&. c #645B61",
"*. c #685F65",
"=. c #645569",
"-. c #695F68",
";. c #644877",
":. c #65437C",
">. c #695175",
",. c #6A6165",
"<. c #6C626A",
"1. c #6A6569",
"2. c #756261",
"3. c #70666C",
"4. c #71696D",
"5. c #716374",
"6. c #756B72",
"7. c #706E74",
"8. c #786E76",
"9. c #7A7175",
"0. c #7D747A",
"q. c #85522B",
"w. c #857B6C",
"e. c #80777D",
"r. c #82797D",
"t. c #96812E",
"y. c #0C0B81",
"u. c #161684",
"i. c #1F2188",
"p. c #014486",
"a. c #024C97",
"s. c #085590",
"d. c #035FAB",
"f. c #015BB6",
"g. c #0D68A6",
"h. c #1575AA",
"j. c #0566BC",
"k. c #2E71AC",
"l. c #6A4684",
"z. c #6C4C82",
"x. c #724C8D",
"c. c #76588A",
"v. c #764D93",
"b. c #784F97",
"n. c #7B5A92",
"m. c #7C519C",
"M. c #58609B",
"N. c #5B7290",
"B. c #7C6889",
"V. c #7F7082",
"C. c #0F72CE",
"Z. c #006CD8",
"A. c #0977D6",
"S. c #0278E7",
"D. c #017DFA",
"F. c #825B9D",
"G. c #826888",
"H. c #817883",
"J. c #857B82",
"K. c #887F84",
"L. c #8A689A",
"P. c #897B98",
"I. c #8256A3",
"U. c #8758AA",
"Y. c #8A5AAD",
"T. c #8857B1",
"R. c #8E5DB3",
"E. c #915FB6",
"W. c #905EB8",
"Q. c #906DA8",
"!. c #9561BC",
"~. c #9969B9",
"^. c #9B65C4",
"/. c #9F68C9",
"(. c #A167C9",
"). c #A16ACD",
"_. c #AA72CB",
"`. c #A76CD5",
"'. c #A86DD6",
"]. c #AF72DE",
"[. c #B576E7",
"{. c #B877EC",
"}. c #C17DF7",
"|. c #C37EF9",
" X c #1F87B5",
".X c #299ABF",
"XX c #7088B7",
"oX c #1B8AC6",
"OX c #1889D7",
"+X c #208FC2",
"@X c #259BCB",
"#X c #2399D8",
"$X c #32AECF",
"%X c #2BA8D7",
"&X c #35B4D5",
"*X c #35B8D4",
"=X c #39BBD1",
"-X c #33B3DA",
";X c #138CE7",
":X c #0888FB",
">X c #239EEA",
",X c #2BABE0",
"<X c #7895D0",
"1X c #73A6F7",
"2X c #8A8185",
"3X c #8D848A",
"4X c #8F8D8E",
"5X c #90878D",
"6X c #938A8E",
"7X c #81839C",
"8X c #918790",
"9X c #958C92",
"0X c #988F95",
"qX c #9B9295",
"wX c #9D939A",
"eX c #9F9898",
"rX c #A0979F",
"tX c #A2999E",
"yX c #8A8FBE",
"uX c #A59BA2",
"iX c #A89FA5",
"pX c #AAA1A6",
"aX c #ADA3AA",
"sX c #B1A7AE",
"dX c #B2A8AF",
"fX c #B5ABB2",
"gX c #AF81D2",
"hX c #C480FC",
"jX c #C981FF",
/* pixels */
"6.9.w.6XqXqX6X6XtXtXtXpXpXaXaXsXaXsXpXpXuXwX0XwX9.9 <.qXqX8XeX3X6.wXuXiXuXwX0X0XrXwX0X0X&.<.5X9XJ.K.2X2X2Xr.w.9.4.~ ,.J.",
"qXtXeXeXuXeXeXeXtXtXtXtXpXeXtXtXtXtXtXtXpXeXeXpX0./ 1.qXeXeXV.< :.L.uXiXiXiXuXuXuXuXrXG.A *.uXuXuXiXpXpXiXtXeXtX9.) 4.6X",
"6X6XqXqXeXeXeXeX6X6X6XqXqXqXqXeX0XqX6X6X0X9X9XwX4.9 o.5X0XB.b R (.l.0XrXuXrX0X9XwXrXwX5.t _ wXaX9XqXqXeXqX6X6XqX1.Z ,.2X",
"6X2X2X2X2X6X2X2X3X3X6XqXtXtXtXeXqXeXqXqXqX9X8X0X4.9 ,.6XB.R : T.Y.K 5X8X9X8X8X8X8X3XeX6.~ Z 5XuX9X6X6X9XqX9XqXtX5.s <.2X",
"6X3XK.K.w.K.0.9.r.r.r.6X6X5X2XK.2X5X5X9XeXqX0XeX3.Z -.8X:.D L /.E 5 e.e.e.H.K.K.3XK.wX0.} A 5XwX3Xr.w.K.6X6X6XqX4.y 2.5X",
"2Xw.9.e.w.w.4.<.<.4.4.r.r.0.8.4.8.0.0.2X9X9X9XqX*.y &.>.U v m.W.D & 3.6.5.8.H.5XK.2XeX5.` / wXtX6Xr.9.2XeXqXqXtX*.y ,.5X",
"w.9.4.4.0.J.r.9.8.4.9.e.J.r.0.8.9.r.r.2X9X9X5XqX,.A [ :.D D [.x.K : e.J.K.K.8X0XK.K.0X3./ ` 0XrX3X9.6.K.9XqX6X6X4./ 3.5X",
"9.4.,.<.9.r.J.w.0.6.6.0.0.9.6.3.9.9.9.0.2X3X2X5Xo.y ;.U D D ^.R F D e.K.K.K.8X9X8XH.3XV.' / 2XrX3Xe.e.3XeX6X6XqX6.~ ,.2X",
"r.9.9.9.9.9.9.9.r.r.0.9.8.6.5.3.6.9.9.0.0.2X5X9Xo.5 :.T C l.v.F v :.H.K.K.K.K.9X8X5X8X-.[ ` 0.0X6Xr.9.6XwX9X5X6X6./ 6.6X",
"J.r.r.r.0.0.9.6.r.r.0.9.6.<.<.6.4.6.9.9.r.J.6X9X} < 6 C ; T.E C F L.H.J.J.K.K.K.K.8X0X<.Z ` 8XwX6Xr.e.2X5X5X2X5X4.y *.5X",
"6XqXqXqXqX9X3X3Xr.r.2X3X9X3XJ.J.2X2X2X3X4X6X0X%.:.U.I.E C :.D K m.8X8X9X0X0XwXwX0X0X0X6.t A 8XK.9X3X2X2X5X0X0XwXe./ *.5X",
",.,.,.,.,.*. . .&.` / _ _ ` ` A ~ / / / ) / #.(._.L.I I U P 6 U [ 0.6.4.5.&.{ ) ) _ &.*.~ 9 &.A ' ' ' ` { &.*.*.6./ X.4.",
"~ ~ ~ ~ Z y 9 y 9 9 Z A Z A A 9 9 9 9 9 9 C ^.P { f J Y P L D : 5 7 7 9 t Z y Z Z t Z _ / 7 A 9 Z Z Z 9 t Z Z n / 7 Z / ",
"Z s Z ~ ~ / / / Z / @._ 7 A [ [  . . . .$.W.{.v.I.b.T v v L D D ) ) ) A Z Z A Z t 9 y 5 9 7 9 Z Z Z A A n Z Z 9 t t S 7 ",
"3X4X0XwXeXuXpXpXfXsXrX<.A &.9XrXuXuXtXuXQ.}.|.}.}.(.:.H x.Y P =.9X9X5X5X5X8X5X5XX.A K.0XuXuXwX0X0X0X0XwXwX0X5X8X2X2X2XJ.",
"0XwXwXrXuXtXuXpXuXrX8X&.A ,.0X9XeX6XqX4XK.;.U.(.[.I.R Y U P [ uXuXuXuXuXiXuX9XK.*.< 3.rXaXaXiXsXaXaXaXsXaXrXwXwXrXwX0XuX",
"0X0XwXrXwXwXwX0X0XuXe.' Z 3.K.9XeXqXeXqXqXqXr.o._ 3 R Y C C 0.4X5X5X6X2X5X6XtX0.X.t X.eXuXtXuXwX6X0XrXtXrXwXwX0X0XwX0X9X",
"0X0X0X0X9X0XwXuXwXuXJ. .A 5.5X0X6XqX6XqXqXqXqXqX6Xr ..f e ( 6XeX0X5X6X2X2X6XuXK.o.9  .qXuXeXeX5XJ.K.5XP.9X8X8XK.8XwX0X0X",
"8X9X9XK.K.K.8XuX0XuXK.X.y 3.3X9XqXqXeXeXeXeXeXqX4.# ` ( 9 s } qX0X5X3X0.2X2XqXr.o.9  .qXuXeX9X2X6.e.e.J.J.H.H.e.K.0X0X8X",
"6XP.K.K.H.J.5X0XwXwXK.X.t -.2X9X6X6X6X6XqX9X2X^ I m.m.z.B.<XXX^ 2X3X3Xr.J.J.4X1.o.8 } wXpXtX9Xr.6.8.H.J.J.e.8.8.H.8X9X3X",
"0XK.J.e.0.0.J.5X0XwXK.=.t -.8X0Xw.6X3X9X0X0X:.).gXQ.yXyXM.! XXXX0.2X2X2X2XJ.6X3.o.9 } tXuXeX6X9.e.J.K.8XK.0.8.e.H.5X8X5X",
"K.e.3.=.=.-.6.e.8X9XK.*.9 *.5X5X9.w.J.2X4X9X8XyX1XN.c k.<XV.Q.Q.F.[ J.r.2XK.6X6.&.9 } eXtX6X3X0.e.K.5X9XK.8.8.e.J.5X8X2X",
"J.8.<.-.&.&.<.8.K.2XK.-.7 &.K.J.o.,.6.8.6.1 O > a.A.N.7X+.v n.'.^.v r.r.K.K.9X9.X.9 X.tXtX6X6X2XK.K.K.0X8XJ.H.H.K.8X5X2X",
"J.e.J.r.0.6.8.H.J.5X5X5.Z &.J.0.,.6.6.8.<.@ X + n yXQ.m.x.D #.(.m.L 6.3X5X2X9X6. .8 X.tXtX9X9X9X9X6X8XuXuX0XK.K.0XwX0X0X",
"<.<.3.-.X.{ ' ' &.&.<.-./ / &.@.} { A A ~ | &.H.P.n.l.b.l.Y v U.`.x.%.*.3.3.*.} *.Z 3.8.X.o.o.*.5.*.&. .` ' / / ` ' &.&.",
"t S A A A A A ( Z 9 / ` Z Z A Z Z Z n A [ Q.n.x.!.I.v.v.L H D v I.%...9 9 9 0 8 ~ < ~ ( 9 y y ~ Z t Z A A n Z / A Z A Z ",
"Z Z S Z t t 7 t A 9 n Z 7 t Z 9 9 n A ~ 7 W.m.E F.^.m.T :.F 3 < ~ t.g ~ y Z ~ ~ ~ 8 A T I +.T O.Y J 7 9 Z 9 t Z n Z Z 9 ",
"e.e.e.J.e.H.H.J.3XJ.0.V.0.H.K.0.J.e.K.3.H |.|.[.U.:.;.x.R < 4 A r.B.R.T &.o.+.l.v.E.[.jXjXjX|.|.|.|.[.).m.O./ 7 &.6.9.5.",
"8X0XwXuXiXiXiXsXrXrXiXaXaXpXiXrX9X5X3X,.F `.`.'.`.R.v.R : . 5 } 4.+.b.;.U I ].jXjX{.(.E.U.U.T.U.Y.!.`.{.|.}.'.I.[ qXuXrX",
"K.K.8X0X0X0X0X9X0XqXwXqX0X9X9X9X9X3X3Xo.m V M M M k k k h X 1 &.' x./.R.R : ).].Y.x.P D n n S S Z D H R b.^.{.jX^.} uXwX",
"K.5X8XwXwXuXrXwXwXuXwX0X0X0XqXeX6X6X3Xo.m i.i.u.u.y.y.y.m O 2 } ,.!.x.F b H v.T D A ' J.eXqXwXwXwX0XJ.<.=.I v.'.hXI.4.9X",
"K.K.5X8X8X5XK.J.V.3X3X0X0X0X6XqXqXeX6XX.- - - > h N j j j < s g w.2.U l.T %.[ ' 4.K.3XeX0X5X9X3X3X3XJ.J.qX` H x.].[.J qX",
"K.K.5X5X5X2Xw.,.<.4.9.r.2X5X9XqXqXqX8X,.. . % u l  Xj.h.g.x & o.~.(.Y.z.3.4.0.r.2X2X6XqXqX6X2Xe.3X2Xr.e.2X_ L T Y.].] uX",
"5X5X2XK.K.K.r.r.4.4.4.w.2X6X9XeX9XqX5X .< o % u l @X+X X#Xp.- T.{.v.5.r.r.r.2X3X6X6X6X2Xr.r.e.4.9.6.o.-.c.x.I E U.m.,.tX",
"6X2Xr.K.r.r.r.6Xr.r.9.9.2X6X6X6X4XqX2X4X| . % u l .X%X%X$Xd.l x.v.=.8X2Xr.9.r.6XqXeXqXr.&.) _ $.:.Y.Y.!.l.Y O.O.=.9.5X6X",
"5X2Xr.2X3X2X2Xr.2Xr.r.r.K.2X2X3X3XqXr.< O . % u l .X*X*X-XA.l S  .r.tX2X2Xr.w.6Xr.,.>.>.m.E.R.R.F.z.%.=.5.,. .y 9.qXr.2X",
"2X3X3X2X3X6Xr.9.r.r.r.r.r.2X2X6X2XqX2X  X . % u l @X=X=X*XA.l n 0.6XtX2X3X2Xr.r.G.B.n.c.>.+. .@.<.9.2X2X6X1.X.y e.9XK.K.",
"2X3X2Xr.r.r.e.4.6.9.r.e.w.r.r.r.2X4X3X  o . i 2 B $X=X=X-XA.N 0 r.6XtX3X3X2Xr.9.J.9.9.2X9XJ.r.2Xr.2X2Xr.3X2.X.y 9.9XK.2X",
"2X2X2Xw.w.0.0.9.9.r.r.e.r.r.r.2X4X0X4X| o + p , h.*X=X=X-XZ.B N 0.2XpXqX6X6X3X2X2XJ.e.K.2XJ.K.2Xr.5X3X2X6X4. .~ 9.9Xr.2X",
"5X3X6X6X2Xe.e.2XK.K.J.2X5X9XqXeX4XeXeX1.o o u ,  X=X=X*X>XC.B x ,.J.pXtXtXtXaXpXpXuXuXeXeXtXtXqXqXeXeX6XqX4.} y 9.9Xr.r.",
"8.r.4.,.<.<.*.*.X.X.,.1.4.9.9.4.4.6.e.o . + p W &X=X%X;Xf.a.i.X 0.5XqX3X4.<.4.8.4.8.9.9.9.9.r.9.e.e.2XK.r.r.*.8 e.9XK.9X",
"/ ) ) / / Z t Z s y Z ~ ~ ~ ~ 9 / y 4 o o % u Q =X=X,XS.OXS.j.x 9 / ) Z t y t ~ y y A Z A ~ / Z t t A / /  .` 9 o.-.( } ",
"y 4 9 y 9 9 A ~ S n 9 9 Z y 9 0 1 r # o . p % s.=X=X*X-X,X:XD.p.< 0 5 5 y y 4 Z 9 8 5 0 8 8 4 4 t 5 4 4 4 9 y 4 8 t < 1 ",
"~ 9 <.2X3Xr.J.V.0.0.0.0.9.0.9.9.e.r.q + . a % Q =X=X=X=X*X:X:Xa.0 1.*.*.3. .9 { 4.<.,.<.<.,.,.4.6.<.5.5.3.6.6.8.8.8.3.=.",
" .A 2XaXfXdXfXiXdXaXaXaXsXsXsXsXsXpXO X % a > g.=X=X=X=X&X:XD.a.z aXaXrXwX4.) 6.8X0X0XwXuXwXrXiXrXrXrXuXuXuXuXiX0X0X0X0X",
"<.~ 0.8XuXuXfXdXrXrXwX0X0X9X9X9XwXeX. . = $ B @X*X=X=X=X-X:XZ.a.B 7.0X8XV.` 9 1.8XrXrXrXiXuXwXiXiXiXwXwXrX9X8XwXuX0XwXK.",
"-.A K.0XsXiXuXwXuXuXuXrXrXwXwXwX4X4X+ $ = , p.C.%X=X=X$X>XS.a.B a.Q V.V.0.[ A 6.V.wXwX8X0X0X3X0X9X0X9X9X0X9X5X0XH.H.8X0.",
"-./ J.3XiXuXwX8X8X8X9X9X8X9X9X0XqXqXs , Q  X@XC.OX%X=X>XD.f.f.Z.Z.Q 0.2XJ. .~ <.6.wXuX0XwXrX0XrX9XwX9X8X0X8XJ.K.K.H.wXK.",
" ./ J.3XpXwX3X0.3X5X6X5X5X3X4X9X9XeXwXQ @X=X=X=X-X-X=X-X%XA.D.S.a.@.9.2X0.X.8 6.9.0XwXeXqX0XrXwXwX8X2X3X8X8XK.K.K.K.9XJ.",
"X./ r.3XpX0X2X0.2X3X2X2Xr.2X2X3X8XeXqX8XN.oX&X=X=X=X*X=X%XoXj.p.@.V.9.2X9.o.8 9.6.6X0X4X0XwXwX9X8XK.K.2X3XK.K.K.K.J.8XJ.",
" ./ r.2XuX0X2X0.r.r.V.J.r.2XJ.2X2XqXqX0X2X' Q g. X@X+Xg.s.N @.0.2X2X2XJ.9.o.r 6.0.0X0X0XwXwX0XK.V.V.J.J.J.J.J.K.K.K.5XH.",
"} ~ r.2XeX6Xr.9.7.9.0.2X2X2XJ.r.2X0XqXqX3Xo.K C k M.P 3 3.0.9.0.2X4X4X2X9.o.r 6.J.wX0X0XqX0XK.V.6.9.0.0.0.V.V.K.5XK.9XH.",
"` ~ 0.2XwX2X6.1.,.1.6.0.2X3X2XK.2X8X9X9X2Xo.T G R [.Y.=.J.r.8.0.w.6X4X2X9.&.9 6.0.4X9X3X9X8X2X7.8.8.8.8.0.0.V.0.K.J.8XH.",
") / 0.J.0X0.1.&.,.*.,.4.0.K.K.K.J.2XK.3XK.o.# + A $.J ( K.J.r.J.2X2X2X2Xw.&.y 4.0.0X9X3X3X2XJ.6.8.8.0.0.8.0.0.0.H.0.3X0.",
"' / J.J.8X9.<.*.1.,.&.,.6.0.J.J.0.J.J.K.J. .q * w q * % J.K.K.K.2X2X2X2X0.&.y 6.J.rXwX8X3XV.V.8.8.0.V.8.6.6.0.0.e.0.2X8.",
"' / r.J.8X0.8.<.6.5.,.,.9.V.0.8.0.0.J.K.J.s p % q g p $ 0.K.K.2X6X2XJ.2Xr.&.y 6.0.wX0X3X2XV.J.0.7.V.J.0.6.7.0.0.J.H.3X0.",
" .Z J.3X3X0X0XJ.8.V.J.J.J.3X3X8X2X9X3X3XK.e * + q d = @ J.2X5X2X3X3XeX3XJ.X.9 6.8XuXuX8X8X9X9X8X2X4X0X5XV.0.J.J.J.0.0.V.",
"*.` 2X0.,.-.-.-.-.<.<.,.<.6.6.6.6.8.5.-.r * q d q.w * # 5.8.9.6.r.,.&.o.9.<.~ ,.0.0.6.5.0.0.5.5.<.6.8.6.,.<.6.<.6.6.6.0.",
"` / ,.' A Z Z / A ~ / A A A / ~ / ) 9 * w d d e = % % # / / / A ) Z s n ' ' Z  ._ Z 0 A ` _ Z A A Z / A A ~ / A ) ` '  .",
"Z 9 Z 0 9 Z 9 A 9 y Z S 9 Z Z n 9 Z r 1 * * # O + o + ; t 9 9 t < 0 9 0 y 9 4 / 9 0 7 Z A 9 7 A n 9 Z A t Z Z 9 0 7 7 9 "
};
