/* XPM */
static char *_0_removebg_preview__1_1673946205[] = {
/* columns rows colors chars-per-pixel */
"60 60 224 2 ",
"   c #0C0C0D",
".  c #0F0F12",
"X  c #121213",
"o  c #1A1716",
"O  c #1A1A13",
"+  c #2C190D",
"@  c #251B14",
"#  c #1B251D",
"$  c #34340B",
"%  c #2A2416",
"&  c #2F2B10",
"*  c #392717",
"=  c #3B3817",
"-  c #0C0D2F",
";  c #1E1D27",
":  c #15173A",
">  c #251C29",
",  c #2D1E38",
"<  c #152429",
"1  c #0D2233",
"2  c #28262A",
"3  c #33292D",
"4  c #282837",
"5  c #342B33",
"6  c #382E35",
"7  c #37243D",
"8  c #382E39",
"9  c #2C3531",
"0  c #3A3235",
"q  c #3C333A",
"w  c #3C383A",
"e  c #513519",
"r  c #633D1F",
"t  c #44382F",
"y  c #40353C",
"u  c #40383D",
"i  c #49490C",
"p  c #515109",
"a  c #595216",
"s  c #665919",
"d  c #53422B",
"f  c #714C28",
"g  c #746728",
"h  c #14144E",
"j  c #061859",
"k  c #211C5F",
"l  c #032D59",
"z  c #143051",
"x  c #352341",
"c  c #3B2846",
"v  c #3F294E",
"b  c #30384A",
"n  c #111275",
"m  c #251E66",
"M  c #083867",
"N  c #033B77",
"B  c #292267",
"V  c #253E7C",
"C  c #412A4E",
"Z  c #443B41",
"A  c #493D47",
"S  c #4A3649",
"D  c #452D54",
"F  c #493655",
"G  c #4C325C",
"H  c #643C52",
"J  c #4C3361",
"K  c #513665",
"L  c #543965",
"P  c #56396A",
"I  c #593C6E",
"U  c #5C3D71",
"Y  c #5F3E7B",
"T  c #613F76",
"R  c #224444",
"E  c #09416F",
"W  c #2D4670",
"Q  c #4A4146",
"!  c #4D444A",
"~  c #55494B",
"^  c #53494F",
"/  c #494C56",
"(  c #534656",
")  c #554B53",
"_  c #584E56",
"`  c #5A4F59",
"'  c #5B5256",
"]  c #5E545A",
"[  c #585859",
"{  c #6B5549",
"}  c #625C53",
"|  c #60565D",
" . c #62595E",
".. c #706659",
"X. c #5A4766",
"o. c #5F5865",
"O. c #5E4174",
"+. c #614C6D",
"@. c #645B61",
"#. c #685F64",
"$. c #635469",
"%. c #695F68",
"&. c #664779",
"*. c #65437C",
"=. c #6A5974",
"-. c #70517D",
";. c #6A6165",
":. c #6C6269",
">. c #70666C",
",. c #72696D",
"<. c #786B68",
"1. c #77706D",
"2. c #736777",
"3. c #756B72",
"4. c #786E76",
"5. c #7A7275",
"6. c #7D747A",
"7. c #7B787A",
"8. c #86522B",
"9. c #816A7D",
"0. c #80777D",
"q. c #82797D",
"w. c #8A8048",
"e. c #0D0D83",
"r. c #151885",
"t. c #1F2289",
"y. c #683F81",
"u. c #014488",
"i. c #034C95",
"p. c #095894",
"a. c #106599",
"s. c #0055A9",
"d. c #005BB5",
"f. c #1575A9",
"g. c #0F6EB1",
"h. c #366AAB",
"j. c #444689",
"k. c #6A4683",
"l. c #694584",
"z. c #6C4B83",
"x. c #724C8D",
"c. c #75568A",
"v. c #764E93",
"b. c #784F98",
"n. c #7B5994",
"m. c #7C539C",
"M. c #4A6A8B",
"N. c #7A6981",
"B. c #7F7991",
"V. c #7F54A0",
"C. c #4B73AD",
"Z. c #6E7FA6",
"A. c #0265C8",
"S. c #0973D0",
"D. c #0773D8",
"F. c #057AEE",
"G. c #017AF4",
"H. c #825B9D",
"J. c #817784",
"K. c #857C82",
"L. c #887F84",
"P. c #846895",
"I. c #887898",
"U. c #8255A4",
"Y. c #865AA8",
"T. c #8A5BAC",
"R. c #8F5EB6",
"E. c #956CAC",
"W. c #9464B7",
"Q. c #9562BC",
"!. c #9C66C5",
"~. c #A169CC",
"^. c #A777CC",
"/. c #A76ED5",
"(. c #AD74D9",
"). c #B173D9",
"_. c #B274E3",
"`. c #B778EA",
"'. c #BD7BF3",
"]. c #C27FF9",
"[. c #1E88B3",
"{. c #228BB3",
"}. c #7D849E",
"|. c #758DB8",
" X c #1888D4",
".X c #2295CC",
"XX c #269DD5",
"oX c #35B4CB",
"OX c #2CA7D4",
"+X c #33B4D5",
"@X c #36B9D3",
"#X c #39BCD2",
"$X c #31B2DA",
"%X c #1186E3",
"&X c #0380FB",
"*X c #128EF6",
"=X c #28A6E2",
"-X c #6193DE",
";X c #8A8185",
":X c #8A8687",
">X c #8D848A",
",X c #908887",
"<X c #90878D",
"1X c #938A8E",
"2X c #938595",
"3X c #938990",
"4X c #958C92",
"5X c #988F95",
"6X c #9A9195",
"7X c #9D949A",
"8X c #A0979F",
"9X c #A2999E",
"0X c #9485B4",
"qX c #A59CA2",
"wX c #A89FA5",
"eX c #A483B9",
"rX c #ABA1A6",
"tX c #ADA4AA",
"yX c #B0A7AD",
"uX c #B2A8AF",
"iX c #B5ABB2",
"pX c #8392C4",
"aX c #82AAF7",
"sX c #C681FF",
/* pixels */
"1.5.;X:X1X6X,X,X9X9X9XrXrXrXtXyXtXyXrXrXwX8X4X8X4.u :.4X6X<X9X1X7X7XqXqXqX7X5X7X7X7X2X7X .:.<X4Xq.;X,X:Xw.B.N.5.<.Q ;.K.",
"6X7X7XqX9X9X9X9X9X9X9X9X9X9X9X9X9X9X9X9X9X9X5.2.H.Q >.6X9X7XtX9XqXqXqXtXwXwXqXqXqXqX9XN.! ;.8XrX9XrXtXrXyXqX7X7X5.~ ,.1X",
"6X8X7X5X6X9X6X6X4X1X4X6X9X4X6X6X4X6X4X1XI.G D !.x.t @.<X6X6XwX7X7X6X5X8XqX7X6X5X7X7X7X,.c ^ 7XtX4X4X6X6X6X4X5X6X:.Z ;.>X",
",Xw.>X>X,X,X,X,X:X:X1X7X9X9X9X9X8X8X5X,XY x x.!.I u @.<X9X6X9X4X4X2X<X1X2X2X<X<X4X>X7X4.! Z >XwX5X1X,X6X6X6X6X7X2.d ;.;X",
",X,X;X;Xq.q.0.<.q.q.q.<X1X<X>XK.;X,X<X-.J C Q.b.8 Z ;.<XwX7X7X<X0.0.0.0.0.6.K.>X>XL.8X6.` A <X7X;Xq.5.L.,X6X4X6X>.u <.,X",
"w.q.5.5.0.0.<...:.>.<.q.q.6.3.3.4.5.+.T C T ~.K % u @.;X6X5X4X>X:.:.2.,.3.4.J.2XL.>X6X3.^ ^ 6X9X1Xq.5.:X6X7X6X6X;.u #.:X",
"I.7.<.1.5.q.q.5.<.3.4.0.K.7.4.4.5.>.*.J x /.U.K 7 Z @.;X9X6X1X:X,.4.6.K.K.L.<X5XL.L.4X,.Q ( 6X7X,X5.1.;X6X4X,X6X4.Q >.<X",
"5.3.;.:.5.q.q.q.5.4.4.6.7.6.3.,.5.+.I J x !.y.J c Z @.;XwX6X;X5.4.5.N.K.L.>X<X3X<XJ.<XN.` ! >X7X1X0.7.1X6X5X,X6X,.Z :.>X",
"7.5.5.4.5.5.5.5.q.q.6.5.5.3.>.,.;.&.U C K U.G D J 8 ,.4X4X7X;X0.5.6.K.L.L.L.>X4X2X>X>X%._ ) 5.6X<Xq.5.<X6X4X>X4X3.! 3.1X",
"K.K.q.q.q.6.5.3.q.q.6.4.3.:.:.2.w , D > V.x.C c n.Z ,.6X4X1Xq.0.K.J.0.K.L.K.L.>X;X2X7X:.Z ( 4X7X1Xq.6.;X4X>X>X>X,.u ;.<X",
"6X6X4X6X6X1X>X;XN.K.L.<X4X>X .O.v.V.l.c T K D m.@.w %.4X4X4X1X4X5X4X<X1X7X7X5X5X5X4X7X3.w A <X;X4X>X;X;X4X4X6X7X7.! ;.>X",
"#.;.;.;.;.@. .] ;.) ! ! ) F Q.(.E.*.P P U , U S #.Q #.0.5.5.5.0.0.6.3.2.%.$._ ) ( ! | #.! q $.A _ ` _ _ ` @.#.;.3.! ' 3.",
"Q Q Q Q Z u u y w w Z Q q R.l.H g S K K J D , 0 Z 6 u Q 0 u Z q 5 8 0 q y Z Z Z u y Z ! ! 0 Q q Z Z Z w y Z u Z ! q Z A ",
"u u Q Q Q ! ! ! Z ! ] ( l.'.v.l.b.Y v x G G D | ' _ } ^ Q ^ _ Q ) ^ ^ A Z Z Z A Z q u 8 c 5 w Z c Z A Z y Z c w c q Z q ",
"1X1X6X6X9X9XrXrXuXtX8X-.'.sXsX'./.x.v l.I P >XrXrXrXrX9X6X6X7X1X1X4X2X>XL.2X1X,X| Q K.7XqXqX6X6X6X5X6X7X7X4X2X4X:X>X;XL.",
"6X6X7X9X9X9XwXwXqXqX2X@.L V.!.'.R.*.U U L $.4X6X6X4X6X9X9X9XrX9XqXqXqXwXwXqX4XL.#.2 >.8XtXtXrXyXuXtXtXyXtXqX6X7X8X8X5X7X",
"5X5X7X8X7X8X7X5X5XqX0._ Z :.K.=.X.L L C >.,X6X6X1X6X,X:X,X6X1X1X<X1X<X:X<X4X7Xq.] u  .6XwX9XwX7X2X5X7XqX7X7X7X5X4X7X5X4X",
"5X5X5X5X4X2X7XqX7XqXK.] A 3.:X4X5.1.{ d 7.6X6X6X,X9X4X1X6X6X6X6X6X<X<X;X;X<XwXL.| q  .6X9X9X6X<XK.L.>X3X4X<X2X>X2X7X5X4X",
"2X3X3XL.L.L.4XqX7XqX;X[ Z :.>X3X3.<.{ t 1.,X7X7X6X6Xw.:X,X1X,X6X6X<X>X0.K.;X6Xq. .0 ' 6XrX6X6XK.4.4.0.K.K.K.K.7.>X4X5X4X",
"2X<X>XL.J.K.>X5X5X7X;X .c ;.5.@.v.b.l.N.pX|.7.4X6X6X7X3X1X,X,X6X<X>X;XK.L.K.<X,. .q ' 7XrX7X4Xq.4.5.J.K.J.6.5.7.K.>X4X<X",
"4XL.J.6.5.6.K.<X7X5XL.@.q $.W.(.E.I.pXM.W C.2X3X5X6X5X5X6X1X,X6X<X;X:XL.;XL.<X:.@.q ' 8XrX6X<X6.7.K.>X<XK.5.4.N.K.<X2X>X",
">X6.>.#.@.#.3.J.2X4XL.#.8 B.0XaX|.b h.-XI.eXE.Y.;X4X6X7X9X6X,X4X<XK.K.q.L.L.1X4. .w | 6X9X1X;X6.J.L.<X3X>X5.4.6.K.<X<X>X",
"0.4.%.%.#.$.:.4.J.<XL.%.2 % 4 p.D.h.}.=.7 z.~.~.$.L.>X>X<X<X,X1X1X;Xq.q.;XL.4X5. .t o.8X9X1X<X;XL.K.<X4X2Xq.7.N.>X4X2X>X",
"K.J.q.J.6.3.4.J.K.>X<X>.+   X 2 Z.E.P.x.F J ~.Y.+.L.K.5.J.:X4X6X6X<X<X;X1X;X4X4.' 0 | 8X9X4X4X6X4X<X3X8XqX5X<XL.4X6X5X4X",
">.,.>.%.$.` ' ` @.$.>.#.) ) 5.I.P.*.x.v.T x v./.v.^ ] @.] $.;.:.:.@. .;.,.>.#.' #.Z :.1. . . . .>.%.o.o./ [ ! Q _ _ @.@.",
"q Z Z A Z A Q ! Z y ! ^ I.P.c.T.V.x.m.K G F c U.-._ A w 5 8 w c q 0 0 u q q 0 6 Q 2 ! ~ 0 Z u Q Z q d ! Q c u ^ S Z Z Z ",
"Z Z S Z y 8 q q A y Z 8 T.m.O.m.!.Y.O.O.G 5 w Q 8.g d Z ) _ w q ! ! Q Q Z Q Q ! ! 0 ! Q u Q u Q Z q c c Z q w Z w Z Z q ",
"6.0.K.K.K.K.J.K.L.J.0.( `.sX_.T.l.O.x.*.c Z q.4Xq.W.&.6XwX;X! Q q.K.K.K.q.q.q.:XL.L.<XK.L.:X6.7.3.4.<.;.3.:.] 8 @.2.4.4.",
"<X4X7X8XqXrXtXtX8X8XwX%./._._._.!.b.z.c 2 q 1X,X=.V.O.2XrX3.0 ' 4X6X9X9XwX9XwXrXwXrXyXrXyXyX7XrX5X8X5X>X5XJ.:.8 7.5XqX8X",
"L.>X4X5X5X5X2X4X5X5X7Xn m B B m k k h h 2 u 5.;.&.W.Q.c.>X .3 @.:X1X7XwXwXwX9X9X9XwX9X7X9XqX7X9X7X7X5X7X8X;.] q 2.7XqX5X",
"L.<X4X6X8X8X7X7X8X8X9Xn r.t.r.r.n e.e.n ; 9 } ;.E.V.=.4.w.>.0  .;X<X9XrX7X6X4X4X6X6X6X8X7X7X7X7X7X2X4X6X9X;.@.c 3.8XwX2X",
"L.>X>X2X4X>X>XL.0.>X1X- : : : h j j j j < a w.1X;X;.7.N.I.:.6 ) q.1X9X9X4Xq.q.K.;X;X,X6X5X,X4X>X>X>XK.K.6X,.:.w =.7XwX8X",
"K.>X>X>X,X;X0.;.:.<.1.. . O p 1 f.g.a.g.N 3 ..q.:X3.5.q.K.;.Z _ q.w.yX2XK.5.q.q.;X;X,X6X6X0XK.7.;X;Xq.q.,X5.| u #.1X6XwX",
">X>X;X;X;XL.q.0.<.,.) 2 . O p 1 {.XXf.=Xi.j.R.n.=.#.5.q.K.;.u ~ 5.;X8X2X;X7.:X>X1X1X1X;Xq.w.6.4.7.q.5.q.1X<.} u <.6X6X8X",
"1Xq.q.;Xq.q.q.,X7.5.:X1.. O p 1 {.$X X@Xg.V Y.].sX`.Q.n.+.( q ) 5.:XqX:XI.N.q.1X6X9X6X;XB.2Xq.q.1.5.5.B.1X3.] u 1.6X:X1X",
":X;X;X;X,X;XL.L.;XL.2 2 . O p 1 {.#X$X@X%Xl x v.m.R./.).'.`.!.z.@.1X7XB.w.0.q.1X,X1X4X,XL.w.q.5.5.q.q.I.1X<.] u 5.6Xq.;X",
",X:X>X;X<X,Xq.5.q.7.  X . O p 1 {.#X#X@X%Xl 2 X.o.X.X.U x.R.(.'.(.Y.2.K.<X;Xq.;X1X1X4X7X3Xq.q.q.;X:X;X2X1X>.' t 0.1Xw.2X",
"L.,XL.q.q.L.5.<.5.5.  . . $ = M {.#X#X#X%XN 8 >X4X;X6.;.o.F G z.T./.`.n.,.;Xq.q.:X;X:X0X<XB.B.w.q.;Xq.w.>X,.] Z 5.4Xq.;X",
";XL.L.q.0.5.5.5.7.7.[ X X i # p.+X#X#X$X%Xu.M q.1X:X;XK.1X>.q ( X.O.T._./.=.6.;X;Xq.B.w.;XK.>X>XK.>X:X:X<X<.| Q 5.1Xq.L.",
"<X,X1X1XL.0.q.;X;Xq.:X< X p # f.#X#X$X=XD.u.M q.6X<X;XK.4X>.q  .7.@.+.k.!.`.T.2.9XwXqX7X7X8X8X7X6X7X7X4X5X>.' u 5.4Xq.;X",
"1.q.,.;.:.:.;.;. .' o . X i 9 OX#X@X%XA.i.E b q.7X4X6X1X>X,.!  .9X1X6X$.I m.`._.z.;.6.6.4.6.q.4.0.q.>X;Xq.q.#.0 q.1XK.4X",
"! ^ ~ ! ! Z w w u 3 X . O i R oX#X$X&XS.D.D.M Z ! ^ ] ' ' ! Q ;.| ~ ! Z y G m._.sXY.w Z Z Q ! u y y A Q ! ' ) q @.%.^ | ",
"Z 5 0 u q q Q Q Q + o . $ $ M oX#X#X=X$X*XG.s.8 0 u u 6 0 0 3 u u q 8 8 Z y c *.!.].k.5 0 6 6 5 y 6 5 5 5 q w 5 8 u 2 3 ",
"A w :.;X;XB.:XN.6.e @   i $ M oX#X#X#X@X*XG.d.4 ] :.:.@.,.,.;.:.#.%.#.#.,.` y ) *.(.'.X.#.:.;.,.2.:.:.2.,.3.4.3.4.4.:.#.",
"] A L.yXiXiXiXrXuXO X O i < p.oX#X#X#X#X*XG.d.4 7.qXtXrXrXrXtXiXwXyXtXqX7X,.( 3.4Xc./.^.4.qX7XwXqX7X7XqXqXqX8XwX5X5X7X4X",
":.Q 6.2X8X8XiXuX7X. . & i l  X#X#X#X#X#X*XF.s.N #.5X5X<X4X>X<X<X6X7X5X>XJ.) q :.<X8X8XQ.eXqX7XwXwXqX8X7X8X5X3X7X8X6X8XK.",
":.A K.5XyXrXqX5XqXO & $ 9 E g.XX#X#X@X=X&Xs.u.u.W 4X<X1X7X6X6X<XL.K.J.K.6._ A ,.0.8X8X3X5X2XI.4X5X5X3X3X5X5X2X5XK.0.<X6.",
";.Q K.>XrXrX7X3X3X= = z a..XS.S.=X#X=X&Xd.s.A.D.u.,X5X5X6X;X>X;XK.4.6.K.0.| ! :.3.7XqX4X8X8X4X8X3X7X5X<X5X2XK.L.K.J.8XK.",
"] ! q.>XtX7X:Xq.>X>Xl [.oX#X#X$X=X@X+X=XS.G.F.d./ ;X7X4X<X7.5.5.q.5.6.L.N.] w 1.5.6X7X7X6X6X8X7X7X<X>X>X2X>XL.L.L.L.5X0.",
"] ! q.;XrX5X;X6.>X;XL.M..X+X#X#X#X#X#X+X.XS.u.b ] ;X5X3X:X;X6.q.q.q.L.I.7.] q 1.3.<X4X4X5X7X8X4X2XJ.L.;X;XL.L.L.L.K.2XJ.",
"] ! 7.>XwX4XK.6.q.q.q.K.q.E f..XOXXXf.p.W / ] 8  .K.4X>X>XK.0.K.;X;X;Xw.5.| u <.6.6X5X6X7X7X2XL.7.J.J.K.q.J.K.L.L.K.4X0.",
"_ ! q.>X9X<XK.5.3.4.0.L.;Xv G 4 j.V F 6X:X@.] 8  .;X4X;XK.7.5.0.;X1X,X;X5. .w 3.K.6X6X5X6X5X>X6.4.5.6.6.7.J.J.L.>XL.4XK.",
"^ Q 0.;X7X;X1.:.;.:.4.7.L.G I C ).W.N.4X:X@.] w @.;X6X;XK.q.5.6.K.>X<X>X5. .u <.7.4X1X>X1X>X;X4.4.4.4.4.6.0.0.J.L.K.2XJ.",
"^ Q q.K.4X6.:.@.#.#.#.,.9.> o y -.L ! >XL.o.$.w ;.>X4X;XL.K.0.0.K.>X:XL.0. .c <.N.4X4X<X>X;XB.3.4.4.6.4.4.6.6.6.0.0.>X6.",
"_ ! K.J.4X5.:.@.,.#.@.#.3.e & r r e % L.K.] ] u :.2X4XK.K.L.K.>X;X;X:X>X7.@.d 2.K.qX6X2X>XK.N.5.4.6.0.6.3.4.2.6.0.6.L.6.",
"_ ! 7.K.2X7.3.,.3.:.%.;.3.s $ & s a $ L.K.@. .q ,.4X4XJ.0.K.K.>X>X:X2Xw.q.@.b 4.6.7X5X<XK.7.K.6.3.0.J.6.3.3.4.0.J.0.<X6.",
"] Z K.>X>X4X4XL.6.J.J.q.u e O * f e % >XL.3.| q 3.7XtX5XK.L.<X>X>X>X6X>XK.] q 4.<XqXqX<X<X5X4X4XL.<X7X<XN.7.K.K.J.7.0.6.",
"#.) K.7.%.#.%.%.%.%.:.| * e r 8.r * % :.%.@.] Z 3.4.6.2.2.4.4.3.K.;.@.@.5.:.Q ;.7.6.2.2.5.B.2.:.:.2.4.3.;.:.3.,.3.3.2.6.",
") ! %.` A Z Z ^ Z Z * e r f d e % @ % ! A Q ! u _ A q Z ! ! ! A ^ Z Z w _ _ Z ] ( Z q Z ( ! Z A A Z A ! A Q ! S ^ ) _ | ",
"Z 8 Z q q Z q A Z Z Z * e % O o o o 2 w q q y 6 q 6 6 q Z 8 q y 3 q w 0 y y 5 Q w q 5 Z A 8 8 A Z q Z Z y Z Z q 0 8 8 8 "
};
