/* XPM */
static char *__removebg_preview__1_1673946203[] = {
/* columns rows colors chars-per-pixel */
"60 60 219 2 ",
"   c #110E0E",
".  c #0F0F12",
"X  c #121213",
"o  c #1E1E14",
"O  c #1A191A",
"+  c #261C0F",
"@  c #241D10",
"#  c #312E0F",
"$  c #282515",
"%  c #382917",
"&  c #373617",
"*  c #0F132C",
"=  c #2A1B33",
"-  c #16282F",
";  c #0A243C",
":  c #2A262A",
">  c #33282D",
",  c #2A2C3A",
"<  c #342B33",
"1  c #382E35",
"2  c #32233B",
"3  c #382E38",
"4  c #393235",
"5  c #363438",
"6  c #3C333A",
"7  c #4D3612",
"8  c #4B351B",
"9  c #653C1E",
"0  c #463534",
"q  c #473D31",
"w  c #40353C",
"e  c #41383D",
"r  c #484808",
"t  c #504F09",
"y  c #454213",
"u  c #585013",
"i  c #706019",
"p  c #564323",
"a  c #724724",
"s  c #736738",
"d  c #091657",
"f  c #19364D",
"g  c #042757",
"h  c #3A2747",
"j  c #303343",
"k  c #1A1964",
"l  c #07087A",
"z  c #161778",
"x  c #063567",
"c  c #0C386B",
"v  c #21376F",
"b  c #443A41",
"n  c #493D47",
"m  c #54374F",
"M  c #432C53",
"N  c #482F59",
"B  c #493356",
"V  c #4B325B",
"C  c #4E3461",
"Z  c #513564",
"A  c #553B66",
"S  c #56396A",
"D  c #593B6C",
"F  c #4A3D76",
"G  c #5C3D72",
"H  c #603F75",
"J  c #2E4753",
"K  c #11466E",
"L  c #0D467B",
"P  c #375272",
"I  c #4A4146",
"U  c #4C434A",
"Y  c #51464F",
"T  c #53494F",
"R  c #434853",
"E  c #554B53",
"W  c #584E56",
"Q  c #564558",
"!  c #5A4F59",
"~  c #5B5356",
"^  c #5E545A",
"/  c #6C5942",
"(  c #60565D",
")  c #62595E",
"_  c #6C645D",
"`  c #594665",
"'  c #5F5A61",
"]  c #5E4272",
"[  c #64486A",
"{  c #645B61",
"}  c #685F64",
"|  c #63536A",
" . c #695F68",
".. c #644976",
"X. c #64437B",
"o. c #6E5E72",
"O. c #715E7B",
"+. c #536278",
"@. c #6A6165",
"#. c #6C6269",
"$. c #686669",
"%. c #70666C",
"&. c #72696D",
"*. c #77706D",
"=. c #6E6171",
"-. c #646C7D",
";. c #716771",
":. c #756B72",
">. c #786E76",
",. c #716278",
"<. c #7A7175",
"1. c #7F7872",
"2. c #7D747A",
"3. c #8B682E",
"4. c #80777D",
"5. c #82797D",
"6. c #968C52",
"7. c #181B83",
"8. c #1F2186",
"9. c #024586",
"0. c #14588F",
"q. c #004C98",
"w. c #0153A8",
"e. c #005CB7",
"r. c #1779A9",
"t. c #0C6BB3",
"y. c #554C96",
"u. c #694683",
"i. c #6C4984",
"p. c #714F81",
"a. c #714C8C",
"s. c #735587",
"d. c #764E94",
"f. c #794F98",
"g. c #795396",
"h. c #7E539D",
"j. c #416290",
"k. c #7A6688",
"l. c #7F7390",
"z. c #7F53A2",
"x. c #577BAE",
"c. c #096DCE",
"v. c #016FDD",
"b. c #097ADE",
"n. c #0779E5",
"m. c #027EF9",
"M. c #81599C",
"N. c #837786",
"B. c #857C82",
"V. c #887F84",
"C. c #876894",
"Z. c #897898",
"A. c #8155A4",
"S. c #875CA9",
"D. c #8D5DB2",
"F. c #905FB3",
"G. c #946FAC",
"H. c #8971A1",
"J. c #9463B7",
"K. c #9563BC",
"L. c #A17ABD",
"P. c #9B65C6",
"I. c #9F68CB",
"U. c #A169CC",
"Y. c #A76ED5",
"T. c #AA74D4",
"R. c #AD71DC",
"E. c #B677E9",
"W. c #BD7BF3",
"Q. c #C17DF6",
"!. c #C27EF9",
"~. c #1A83B8",
"^. c #2086B3",
"/. c #2593B9",
"(. c #5D80B6",
"). c #7282AE",
"_. c #1986C6",
"`. c #1E93CF",
"'. c #1687DC",
"]. c #2799C5",
"[. c #269DD5",
"{. c #30ACCF",
"}. c #37B6CD",
"|. c #2BA8D9",
" X c #30AFDA",
".X c #36B6D5",
"XX c #36B9D4",
"oX c #39BCD1",
"OX c #32B3D9",
"+X c #1791E9",
"@X c #0683FA",
"#X c #108AF8",
"$X c #27A5E4",
"%X c #7293CD",
"&X c #68A2F8",
"*X c #8A8186",
"=X c #8D848A",
"-X c #8F888D",
";X c #908781",
":X c #90878D",
">X c #938A8E",
",X c #918590",
"<X c #958C92",
"1X c #988F95",
"2X c #9A9295",
"3X c #9D939A",
"4X c #A0979F",
"5X c #A2999E",
"6X c #898BAA",
"7X c #A59CA1",
"8X c #A89FA5",
"9X c #ABA1A6",
"0X c #ADA4AA",
"qX c #B0A7AD",
"wX c #B2A8AF",
"eX c #B4ABB1",
"rX c #B9AFB7",
"tX c #B589DA",
"yX c #C782FD",
/* pixels */
"*.<.6.,X,X<X-X>X5X5X5X9X9X9X0XwX9XqX9X9X9X2X<X3X<.6 #.2X2X*X,X-X3X4X7X8X7X3X1X3X3X3X1X1X{ %.:X,XB.*X6.,XZ.*X2.:.&.I @.5.",
"2X5X5X5X8X7X5X3X5X5X5X5X7X5X5X5X5X7X5X5X9X3X3X9X2.U =.<X@.k.G.7X7X7X7X8X8X8X7X7X7X7X3XN.n } 4X8X5X9X9X9X7X3X3X3X<.T &.>X",
">X2X>X2X2X2X3X2X<X>X>X2X2X2X2X2X<X2X>X>X1X<X<X3X*.6 | h G I.u.3X4X1X3X4X7X7X1X<X3X7X3Xo.w Y 5X0X<X2X2X5X2X>X<X2X#.q @.*X",
";X;X*X;X;X>X=X=X=X=X>X2X5X5X5X5X2X5X2X2X2X<X>X1X$.n G h f.F.Z <X,X:X:X:X,X,X:X:X,XV.3X>.U w :X4X<X>X>X<X2X2X2X5X*.I @.*X",
">X*X6.*X6.l.1.<.5.1.B.:X>X>X*XV.=X=X-X<X3X2X1X3X=.H h N U.u.> -X4.4.2.4.4.2.B.=X,XB.4X2.! b :X4X=X5.<.*X>X>X2X2X%.e %.:X",
"6.l.l.<.l.2.*.$.#.&.:.4.5.2.:.;.:.1.2.*X1X1X<X1X] G h d.P.V $ =X#.%.;.>.;.>.N.:X:XV.3X;.T T 1X4X>X2.<.;X2X2X2X2X@.e _ =X",
"l.>.&.&.2.l.2.<.:.:.<.2.B.5.>.<.2.5.2.*X>X1X>Xo.X.V h E.f.Z 2 N.;.:.2.B.B.V.,X3XN.V.,X%.Y Y 1X4X;X1.:.=X2X>X>X2X&.U %.=X",
"2.;.$.$.<.l.6.2.<.>.>.2.2.<.:.%.<.<.<.5.*X*X*XO.S V h P.G C h 2.:.>.2.V.V.:X,X<X:XB.,X4.W Y *X5X-X2.1.>X2X>X>X2X&.I #.=X",
"2.1.<.>.1.<.<.<.2.2.2.<.>.>.#.;.*.>.>.4.4.V.&.G D h H f.N h G N.<.2.N.V.V.V.=X,X,X:X:X .W E 2.1X-X2.2.-X2X<X:X>X:.U :.>X",
"*X2.5.2.2.2.<.:.5.B.2.2.>.#.#.:.:.:.>.4.4.#.< 2 M = A.u.h N M.4.B.N.5.B.B.B.V.V.V.:X1X%.b Y >X4X<XB.2.*X>X:X=X=X&.e @.:X",
"<X<X2X2X1X>X-X=X1.l.*X-X,X=XB.N.5.V.V.;X| a.D.D.u.M X.M C h.<X2X1X<X<X<X3X3X3X3X1X1X3X;.w n <XV.<X-X*X=X>X1X3X3X2.U @.=X",
"@.@.$.$.@.@.^ ^ ) E U Y E E E n I Y U D U.L.C.C Z S Z 2 A ^ <.2.4.>.:.%.#.{ E Y Y Y (  .Y 3 ) U W ~ W E W ) } @.:.U ^ :.",
"I U I I b e 6 6 6 6 b n b n n 6 w 6 h P.Z m / m S Z Z N = 6 b 5 > 3 4 w w e b b b w b Y U 3 n e j n b w w b b h U 6 n n ",
"j p I I I I I U j Y ( E 6 b ! ! ( [ S.yXA.z.A.D h 2 V V B Y ~ I W E Y n b b n n b 3 e 1 6 < 6 j e e n b b b w b 6 6 b 6 ",
"<X-X1X3X3X7X9X9XrXqX5X#.n ' <X4X5XZ.W.yXQ.!.R.a.V a.D A B.3X3X-X,X<X,XV.:X<X>XV.( n B.3X8X7X3X2X1X1X1X3X3X<X,X,X=X-XV.N.",
"1X3X3X7X9X3X9X9X8X5X:X) n #.1X,X2X1X#.g.P.R.h.D Z Z Z =.5X5X0X5X7X8X8X7X8X7X1XB.} : %.4X9X0X9XwXwXqX0XqX8X7X3X3X3X3X3X3X",
"1X1X3X3X3X3X3X1X1X7X4.! b #.=X<X2X2X5X2X>X*.^ u.F h =.l.;X2X>X>X=X-X>X*X>X>X5X2.^ e ^ 3X5X5X5X3X:X3X3X4X3X3X3X3X,X3X3X<X",
"1X3X1X1X,X1X3X7X3X7XB.^ n =.=X<X>X2X2X2X2X2X6.,X/ p k.6.<X2X2X2X1X>X>X*X*X>X7X*X) 6 ) 2X9X3X3X>XB.V.:X<X<X,X=X=X,X3X3X<X",
":X,X,X:XV.V.<X7X3X7XB.( b #.=X<X2X2X2X2X3X>X@.;.E 6 } <.>X>X;X2X1X>X=X5.B.*X3X2.^ 6 ~ 2X9X3X<X*X>.>.2.B.V.N.5.5.V.1X1X>X",
":X:X:XN.B.N.=X1X3X3XV.( w #.=X<X;X2X>X;X;.] z.h.p.l.%X%X*.;X>X2X>X=X*XB.B.B.-X&.) 6 ~ 3X9X3X<X5.>.>.N.B.5.2.<.<.B.:X,X:X",
"1XV.N.2.>.2.B.:X1X3XV.| 6 #.,X1X6.,X-XN.U.tXH.Z.%Xj.` (.6X-X>X1X:X*X*XB.*X*X:X#._ 5 ~ 5X8X2X-X2.2.B.=X>XV.2.>.k.N.:X<X:X",
"V.4.=. .{  .>.4.,X<X*X{ 6 } :X:X>.l.V.N.6X&Xx.j x.%Xl.G.L.C.-X<X>XB.B.5.B.*X>X:.{ 6 ( 3X5X>X*X1.N.B.-X<XV.>.>.2.5.:X:X=X",
"N.>.#.} { { #.>.V.-XV.#.6 { B.N.' $.: O * L b.x.l.` 2 i.U.I.=.-X<XV.B.5.*X*X<X<.) 6 ^ 3X5X>X=X*X*XV.=X<X,XB.2.N.V.,X:XV.",
"4.4.4.B.2.:.:.N.B.=X=X;.b { B.2.@.;.+ . O b 6XH.z.z.V A P.A.O.1X2X-X=X*X-X*X<X>.~ 6 ( 5X7X<X2X<X<X:X,X4X4X<X=XV.3X3X3X<X",
"%.%.#. .{ W W ! } ( %. .U U { { W ^ @.$.N.Z.d.u.d.u.D h d.R.g.#.$.) ) _ #.&.{ ^ } b #.<.( ) ) ) #.} ) ( W W U n W W {  .",
"w b n n n n I U e w Y T e b n b j b C.g.i.D.S.f.d.F B B 2 X.[ / 6 6 w w 6 6 4 4 I : U Y 6 b e I n 6 e Y b b e E n b b b ",
"b n n b w 6 6 6 n 6 b b 6 6 b 4 e 3 K.S.X.f.K.f.` ] V j U ~ 3.s I I I I I b I I U 6 R n e I e I e 6 6 j b 6 w b b w j 6 ",
"2.2.N.5.5.N.5.N.=Xk.2.N.2.N.B.4.B.Q Q.yXW.K.a.X.d.] ' =X5X*XY P.` l.*XB.5.5.V.*XV.B.,Xl.6.=X2.5.>.<.;.} ;. .^ 3 { :.2.>.",
",X<X3X7X8X8X0X0X7X4X7X8X8X0X8X4X1X` P.P.U.U.D.a.D = &.eX0X$.3 g.i.-X3X5X7X5X5X9X9X0XqX9XqXqX5X5X3X3X1X=X1XN.#.1 2.1X7X4X",
"V.=X,X<X1X1X<X<X1X1X3X3X3X<X>X>X1Xz k k k k k d k d W 2.5.Y ] U.F.l.3X9X9X9X5X9X5X7X5X3X5X5X3X5X3X3X1X3X7X .^ 6 >.2X8X1X",
"V.=X<X3X3X7X3X3X3X7X3X1X1X<X1X5X<Xz 8.8.7.7.7.l l l I _ 5._ O.X.:.<X3X9X3X2X<X<X3X2X2X3X5X2X3X3X3X<X<X3X7X .{ b >.3X7X<X",
"V.=X-X,X<X,XV.V.4.=X:X<X3X1X1X2X1X* * * - * x d g d j s 6.#.1 W 5.>X7X3X<X*Xl.l.6.*X=X3X1X=X<X=X-XV.N.2.3X%.#.1 $.3X7X1X",
"V.=X=X=X:X*X2.#.#.&.1.2.*X>X1X1X2X. . o t ; ~.c.r.t.K b @.~ e E 5.V.5X<Xl.l.2.2.=X*X-X2X2X-Xl.2.=X*X4.4.>X:.) e @.>X2X5X",
"-X*X*X*X).6.4.4.&.&.&.<.*X<X1X2X;X, . o t ; /.].~.[.9.j.U.M.` Q &.*X5X>X6.2.*X=X>X<X<X*X6.l.1.<.2.4.1.2.>X&.~ 0 &.2X2X5X",
",XZ.5.V.l.1.Z.6.5.l.>.1.6.-X>X>X2X$.. o t ; /.XX[.OXt.v h.W.Q.W.T.M.s.| { :.5.>X2X3X2X*X4.B.).4.<.1.2.4.>X*.( e >.1X>X>X",
",X6.*X*X=X*X*X).*X6.2.l.l.*X=X;XO X . o t ; /.oXOXOX'.g h i.d.z.P.Y.W.Q.R.h. .B.;X1X<X;XV.6.5.*.<.4.4.B.>X*.( e >.1XZ.6.",
"=X=X=X*X-X=X6.k.5.2.l.6.*X*X*X=X. . . o r ; /.oXoXOX'.g , n > n ! D u.A.U.E.E.J.s.6.2X2X>XV.4.5.6.6XB.V.;X&.~ e 2.<X*X*X",
"*X=X*X2.l.6.2.&.*.2.l.2.l.2.2.*X. . . y & K ].oXoXXXn.c R @.4 W V.5.;.! ` X.h.U.W.S.&.:X:X5.5.5.4.*XB.B.;X&.( e <.<Xl.=X",
"*X*X*XB.l.2.<.<.2.2.2.2.2.5.6.l.$.o   t - t.XXoXoXXX'.q.c @.e ) 5.*X8X2X<X>.[ D z.R.R.s.&.5.*X=X*X=X=X*X<X&.) I <.<X2.l.",
"=X=X-X-X*X2.2.*X).*X*X=X>X<X2X6X$.o X r - ~.oXoXOX+Xc.c c @.w ) 5.V.9X5X4X5X0X*X] X.J.E.P.,.2X2X2X3X3X<X<X&.~ 6 <.1X*X6.",
">.5.&.@.#.%.} @./ ^ @.$.&.<.>.{ X . X t f }.oXOX'.e.q.9.R #.U ( 5X>X2X=X&.&.&.&.-.( D a.E.W.g.( 2.5.=X*X2.5.} 4 5.>X5.1X",
"U E Y U U e e e j p e I I I n : X X $ y J }.oX{.m.b.n.c.c I I @.^ Y U b w e w n e j n B g.T.!.D.1 e I I U ^ W 4 ) } W ~ ",
"e 1 4 e 6 4 I I U j b e w w 6 % X X y # K }.oXoXOXOX#Xm.q.1 > b e 6 1 1 e e < n e 4 1 4 3 H P.!.a.> < < < 5 e < 4 6 : > ",
"I 6 #.=X=X5.V.k.2.2.2.2.2.4.>.7 X . y $ K }.oXoXoX.X#X@Xw.' { #.{ #.#. .#.~ 6 W %.%. .#.;.#...R.Q...{ %.&.:.>.>.>.>.#.} ",
"^ n V.qXrXqXeX8XwXqXqX8XqXqXqXX . o r - 0.oXoXoXoX.X#X@Xw.-.9XeX9XqX0X7X3X;.U >.,X1X3X3X7X4X4XC.I.T.k.5X8X7X4X8X3X1X3X,X",
"#.I 2.>X7X8XwXwX3X3X3X1X<X<X<X  . # y x `.XXoXoXoX.X#Xv.q.L =X:X2X3X3X=X5.W w #.:X4X4X3X7X7X3X7X8XF.L.3X3X1X:X3X4X3X3XV.",
" .U B.1XwX8X7X3X7X7X7X7X3X3X4X@ # & f 9.c.[.oXoXXX+Xn.w.9.q.P -X=X5.l.4.<.W n ;.N.3X4X,X3X<X=X<X<X3X,X,X3X,X,X3XB.N.:X2.",
" .I N.=X8X8X3X,X,X,X<X<X<X<X<X_ : K r.[._.'.$XoX$Xm.e.e.b.v.9.*X*X<.<.5.N.^ I #.:.3X7X<X3X3X3X3X<X3X1X:X3X,XB.B.B.B.3XV.",
"^ U 5.=X0X3X*X5.=X=X>X>X-X-X>X<X+./.XXoXXXOX XXXXX|.'.@Xv.q.:.2.1.<.*.*X2.^ 5 :.<.2X3X3X2X3X4X3X3X,X=X=X,X-XV.B.V.V.<XN.",
"( U 5.=X9X1X*X2.=X*XV.B.B.B.=X:X-X<X_. XXXoXoXoXXX{._.e.0.>.1.4.5.4.l.*X1.^ 4 :.&.>X2X<X1X3X3X1X:XV.V.*X=XV.V.V.V.B.,XN.",
"~ U 5.*X7X<X*X2.5.5.5.B.B.B.B.B.-X1X3Xf 0.^.`._.w.L +.=X*XB.2.*X=X*X*XZ.*.^ 0 :.<.2X1X1X3X3X<XN.l.4.4.N.B.5.B.V.V.B.<X4.",
"~ I 5.*X7X>X5.<.:.<.4.B.*X=XB.5.*X<X2XC V f y.] 2 V.<X*X5.5.<.2.*X:X:X6.<._ e :.N.2X1X1X1X<X=X2.*.<.2.2.2.N.B.N.=XV.<X5.",
"T I l.l.3X*X:.&.#.$.:.4.*X=X*XB.V.>X<XZ B C E.D.Q *X<X*XB.4.>.2.6.:X:X*X2.^ j *.2.<X-X-X>X:X*X<.>.>.>.<.>.2.N.4.*XB.<XN.",
"T I l.6.<X2.$.^ @.@.} &.2.B.*X*XB.=XV.$ + 0 [ M > ;X1X*XV.V.5.B.l.*X:X*X2._ e &.2.3X<X=X=X*XN.&.>.<.2.>.<.2.2.2.4.2.=X2.",
"~ I B.N.<X<.#.@.#.@.{ @.:.2.N.5.2.B.B.7 7 9 9 % $ >X1XB.B.V.B.V.=X=X*X*X2._ e >.B.3X3X,X=XN.l.:.>.2.2.<.>.>.>.2.4.2.=X<.",
"~ U 2.N.<X2.:.#.:.#.#.#.<.2.N.>.2.4.*.t + # i u # ,X<X4.4.B.B.=X,X*XB.*X2.{ e &.2.3X1X-XV.2.N.2.:.k.N.2.;.>.>.2.4.l.=X<.",
"^ I 2.=X=X<X1XV.>.N.4.N.V.=X-X=XV.<Xq & + 8 a 8 + 3X0X3XB.V.:X=X-X-X1X-XB.^ 6 :.>X7X4X,X,X<X<X,X*X>X3X:X2.2.N.B.N.2.2.5.",
"@.E *X2.#.@. . .} #.#.#.#.;.:.:.;.q 8 8 a 3.9 : @ >.>.;.;.>.2.;.2.@.{ { <.#.I $.4.2.;.;.2.4.>.=.#.&.>.>.#.#.;.&.:.;.>.2.",
"E Y @.W I b e Y b I I n n n I b % 9 a a 8 % + + @ b 6 b U U U U Y I 6 6 E ~ e ^ Y b 6 n E U b n n n I I n I U n Y E W ~ ",
"n w j 5 6 e 6 n b b b b 6 b b 6 1 b w 2 w 3 3 1 6 3 3 w b 3 6 w > 6 e 5 e e < I j 6 3 b n 6 3 n 6 6 b b 6 b n 6 6 3 3 6 "
};
