/* XPM */
static char *__removebg_preview__1_1673946203[] = {
/* columns rows colors chars-per-pixel */
"60 60 225 2 ",
"   c #0E0E0F",
".  c #0E0F12",
"X  c #121113",
"o  c #1A1914",
"O  c #1A1919",
"+  c #2F1C0E",
"@  c #231C11",
"#  c #1D261B",
"$  c #30290C",
"%  c #37360A",
"&  c #282415",
"*  c #382A19",
"=  c #393816",
"-  c #0A162D",
";  c #131827",
":  c #211528",
">  c #271E39",
",  c #301F3B",
"<  c #0F212E",
"1  c #0F2130",
"2  c #1B2E34",
"3  c #282527",
"4  c #33292A",
"5  c #352B33",
"6  c #382E35",
"7  c #342538",
"8  c #382E39",
"9  c #283137",
"0  c #373437",
"q  c #393235",
"w  c #3C333A",
"e  c #462E16",
"r  c #563718",
"t  c #623D1C",
"y  c #503920",
"u  c #40353C",
"i  c #41383D",
"p  c #48480D",
"a  c #515008",
"s  c #534818",
"d  c #695B17",
"f  c #50452F",
"g  c #684A2D",
"h  c #744824",
"j  c #75633A",
"k  c #0E0E59",
"l  c #04255A",
"z  c #0D3256",
"x  c #2D2F4C",
"c  c #3B2749",
"v  c #1A1965",
"b  c #08087C",
"n  c #14167B",
"m  c #211D67",
"M  c #033466",
"N  c #0F3462",
"B  c #033C78",
"V  c #443B42",
"C  c #493D47",
"Z  c #45394B",
"A  c #55354C",
"S  c #432C53",
"D  c #472E58",
"F  c #4B3658",
"G  c #4C325C",
"H  c #513A5A",
"J  c #4F3363",
"K  c #523665",
"L  c #553B64",
"P  c #55396A",
"I  c #5A3C6D",
"U  c #5C3C72",
"Y  c #603F76",
"T  c #334453",
"R  c #074066",
"E  c #334D69",
"W  c #4A4146",
"Q  c #4D434A",
"!  c #4D494E",
"~  c #51474F",
"^  c #53494F",
"/  c #5C5248",
"(  c #554B53",
")  c #584E56",
"_  c #574659",
"`  c #5A4F58",
"'  c #5A5256",
"]  c #565359",
"[  c #5E555A",
"{  c #6B5646",
"}  c #60565D",
"|  c #62595E",
" . c #5C4965",
".. c #5C5565",
"X. c #48407C",
"o. c #5A4473",
"O. c #66496A",
"+. c #645B61",
"@. c #685E64",
"#. c #635369",
"$. c #695F69",
"%. c #644677",
"&. c #64447B",
"*. c #6D5A75",
"=. c #5E606C",
"-. c #656266",
";. c #6A6165",
":. c #6C626A",
">. c #70666C",
",. c #72696D",
"<. c #6E6871",
"1. c #756B72",
"2. c #786E76",
"3. c #74647A",
"4. c #747275",
"5. c #7A7276",
"6. c #7D747A",
"7. c #85532B",
"8. c #80777D",
"9. c #82797D",
"0. c #9C862F",
"q. c #8F854F",
"w. c #191C84",
"e. c #1F2186",
"r. c #014284",
"t. c #02498B",
"y. c #0F5A8F",
"u. c #004B97",
"i. c #366096",
"p. c #0053A6",
"a. c #005CB9",
"s. c #0863AD",
"d. c #1775A6",
"f. c #167CBA",
"g. c #6B4786",
"h. c #724C8C",
"j. c #6E5381",
"k. c #755788",
"l. c #764E93",
"z. c #794F9B",
"x. c #7B5397",
"c. c #55659E",
"v. c #7C6A85",
"b. c #7B7997",
"n. c #1075CC",
"m. c #016DD7",
"M. c #0377E8",
"N. c #017EFA",
"B. c #80569D",
"V. c #857C82",
"C. c #847887",
"Z. c #887F84",
"A. c #8D6F90",
"S. c #87699A",
"D. c #897A98",
"F. c #8457A8",
"G. c #895AAC",
"H. c #8D5CB2",
"J. c #925FBD",
"K. c #8B62A9",
"L. c #9171AD",
"P. c #9462BB",
"I. c #976BB8",
"U. c #9A65C3",
"Y. c #9B67C5",
"T. c #9E66CA",
"R. c #9E70C3",
"E. c #A46AC8",
"W. c #A46BD1",
"Q. c #A96FDA",
"!. c #AE72DC",
"~. c #B677E9",
"^. c #BE7CF3",
"/. c #C17DF7",
"(. c #C37FF9",
"). c #1F86AE",
"_. c #2085AE",
"`. c #208DBA",
"'. c #5982BE",
"]. c #748CBE",
"[. c #1B8ACA",
"{. c #188AD6",
"}. c #299FCD",
"|. c #2097D7",
" X c #2DA5CB",
".X c #34AFC5",
"XX c #35B3CC",
"oX c #2CAADA",
"OX c #34B5D5",
"+X c #36B8D3",
"@X c #39BBD2",
"#X c #34B4D8",
"$X c #1187E5",
"%X c #0481FA",
"&X c #1592F2",
"*X c #219FE9",
"=X c #29A6E3",
"-X c #7195CF",
";X c #6AA1F4",
":X c #878686",
">X c #8B8286",
",X c #8D848A",
"<X c #908887",
"1X c #90878D",
"2X c #938A8E",
"3X c #928393",
"4X c #958C92",
"5X c #988F95",
"6X c #9A9295",
"7X c #9D939A",
"8X c #A0979F",
"9X c #A2999E",
"0X c #898AA9",
"qX c #A59CA1",
"wX c #A89FA5",
"eX c #ABA1A6",
"rX c #ADA4AA",
"tX c #B0A7AD",
"yX c #B2A8AF",
"uX c #B5ABB1",
"iX c #B9AFB7",
"pX c #BFB6BB",
"aX c #9C91D7",
"sX c #C581FC",
"dX c #C983FF",
/* pixels */
"1.5.q.0X4X2X2X2X7X9X9XeXrXrXtXyXeXyXeXeXqX7X6X7X5.i @.:.v.2X7X2X7X8X8XqXqX7X5X7X7X7X5X5X+.>.1X2XV.Z.>X>Xq.C.v.4.,.W ;.9.",
"6X9X9X9XqX9X9X9XqX7X9XqX9X9X9XqX9XqX9X9XqX9X7XeXV.C 8 P K.7XtXqXqXqXqXrXwXwXqXqXqXqX7XC.C $.qXqXqXwXeXeXrXqX7X9X5.^ ,.2X",
"2X8X5X5X6X6X6X6X4X2X4X5X6X6X6X6X6X6X2X2X5X2X4X7X*.D J T.h.6XqX7X8X5X5X8XqX8X5X5X7X8X7X>.u Q 8XtX4X6X6X9X6X2X4X6X:.V ;.,X",
"<Xq.,X,X<X<X<X<X:X:X4X7X9X9X7X9X6X7X6X6X6X5X3XZ.U c g.U.P 6X7X6X4X1X1X2X2X3X1X1X2X,X7X3.Q u 1X9X4X2X2X4X6X4X6X9X<.f :.,X",
"<X,X>Xq.>X9.8.1.6.6.q.4X4X2X>XV.:X<X<X5X6X6X5Xk.D c U.h.5 7X7X2X8.8.6.8.8.6.C.1X1XC.7X6.` C 1X8X,X6.b.q.2X6X2X6X:.f :.,X",
">X9.5.8.8.5.,.>.>.>.v.v.6.6.1.1.4.6.6.>X5X5X3.I c g.T.P & 5X5X,X:.:.1.3.1.1.C.1XZ.,X7X>.~ ~ 5X8X2XC.5.>X6X6X6X9X;.i $.,X",
"9.5.,.8.8.9.9.8.1.1.5.6.V.V.2.5.6.9.9.>X2XV.g.J , !.z.P c 3.2X>X1.1.6.9.V.Z.1X5XZ.Z.4X>.Q ^ 7X8X,X5.5.>X6X4X<X4X,.Q ,.1X",
"5.,.;.;.,.8.9.8.5.5.1.6.6.5.1.>.4.5.5.6.>X3.I G , U.&.G c v.V.5.1.2.8.C.,X,X3X2X1XC.1X8.) Q Z.8X<X6.6.<X6X4X2X6X,.W ;.,X",
"9.8.1.5.5.5.5.5.6.9.6.5.5.1.:.1.1.2.1.8.8.*.P S U z.G c P S.:X6.5.6.8.>XZ.Z.,X2X4X,X,X$.) ( 6.5X2X6.6.1X6X5X1X2X,.Q 1.2X",
"9.9.9.9.6.6.5.5.9.9.6.5.3.:.:.1.1.1.2.8.Q , S : z.z.S c G.,X>X6.V.C.C.9.V.C.Z.,XZ.1X7X:.V ~ 4X7X5X9.6.>X1X1X,X,X,.i @.2X",
"6X2X6X6X6X2X<X<X6.V.>X1X4X,XV.C.9.>X*.k.F.H.h.S U J S z.3.5X2X5X5X4X3X4X7X7X5X5X5X4X6X1.u C 4XZ.4X,X>X,X4X5X6X9X6.Q ;.,X",
";.;.;.;.;.-.[ [ +.( W ! ~ ( ( Q C _ E.E.A.H K P P , P _ 5.5.4.6.8.5.1.,.:.+.) ( ~ ~ #.$.Q q +.W ) ) ] ( ` } @.:.1.Q [ 1.",
"f Q Q W i f w c i w V Z V C C w 8 U.Y A j F K K K G , W q w V 0 5 6 w w u i V u V V V Q Q 8 Z 0 V V V u u V f x Q w V Q ",
"V i V W Z Q Q ! V Q [ _ w V ]  .x.(.G.z.F.Y c , G F S ^ C ^ ' W ( ^ ! C V V C C V 8 V 6 w 8 w V u V Z V V V c w w w i c ",
"<X2X5X7X7X9XeXeXyXtX8X:.C ..5X3X~././.(.!.x.D l.I P eX9X6X6X7X1X4X4X3X1X1X2X1X1X} C C.5XqXqX6X7X5X5X5X7X5X4X3X4X,X,X,XZ.",
"6X7X7X9XqXqXeXqXqX8X3X+.V :.5X4X:.B.J.!.F.I L K G 1X6X9X9X9XrX9XqXqXqXqXwXqX4XZ.@.3 >.9XeXrXeXyXuXeXrXtXrXqX7X7X7X7X5X7X",
"5X5X7X7X7X7X7X5X5X7XC.( V >.>X5X8X9X6Xq.8.*.I D 1X5X2Xq.5X5X5X4X,X1X2X>X1X4X7X6.[ w | 7XeX7XqX6X3X5X7X7X8X7X7X6X3X7X5X4X",
"5X5X5X5X4X5X7XqX7XqXV.[ C <.>X5X2X2X7X8X6X2Xj s 9.8X2X<X5X7X4X6X6X2X2X:X>X1XeX>X| w [ 6XqX7X7X2XV.:X1X4X4X2X1X2X4X7X7X4X",
"3X2X3X,XZ.Z.4X8X7XqXV.+.V :.>X4X6X6X7X7X9.9._ V 9.6X<X<X<X2X2X6X6X1X1X6.V.>X7X6.| i [ 6XeX7X6X>X1.5.V.V.V.v.v.6.:X3X5X2X",
"1X1X,XZ.V.C.,X5X7X7XZ.} w :.,X2X2X2X>X*.S.B.h.b.].].5.<X2X<X<X6X2X,X>XV.V.V.1X>.| 0 ' 7XeX7X2X9.1.6.6.V.:X6.2.6.V.4X3X2X",
"4X,XC.5.5.6.V.1X5X7XZ.+.w :.3X5X>X>XI.aXL.D.-Xc.! '.0X,X6X2X2X6X1X>X>X>X>XV.<X,.+.0 ' 9XqX6X<X6.6.V.3X,XV.6.2.6.v.1X2X1X",
",X6.:.@.+.:.1.C.3X4XZ.+.w $.,X4X5.C.0X;X'.c i.-Xb.L.I.K.2X6X1X2X2XV.V.6.>XV.5X1.+.i } 6XqX2X,X5.V.V.,X4X>X6.2.6.:X1X1X,X",
"C.2.:.$.+.| :.2.Z.,XZ.$.q +.V.:X3 o ; R n.'.D. .7 &.R.W. .4X,X2X2X>XV.9.>XV.4X5.} u } 9X9X2X<X>XZ.>X,X5X4XV.6.v.C.4X1X,X",
"9.8.8.C.6.1.3.V.V.,X1X3.V +.V.6.+ . O 0 0XD.z.F.P D Y.G.%.>X4X5X7X,X,X>X2X,X2X1.' q } 9XqX2X6X4X3X,X4X8X7X5X<X>X5X7X5X4X",
":.>.>.:.[ ` ) ' +...>.$.Q Q [ +.-.-.C.D.k.g.z.g.I c g.Q.z.#.@.:.:.+.| ;.,.,.+.[ @.i :.5.| | | +.:.:.-.[ ( ' Q W ] ] | +.",
"u V Z V C C C ! V w ! ^ V V Q c S.S.&.H.H.l.z.P S S 8 g.*.{ w u w q w q w w w q W 3 Q Q 0 i i W W w i Q W w V ( Q c f Z ",
"V C C V u w w w W w x f q w V 4 K.H.&.h.J.z.U U H Z C f 0.j i w Q Q W W V W W W Q u ^ W i W i Q w 0 w c i w w c c f i w ",
"6.6.V.V.9.C.9.C.,XV.9.v.6.C.Z._ ~.dX/.P.l.&.z.&.Z.5X7X<XD.Y.U W 9.9.>X9.9.V.9.,Xq.9.1X9.>X,X6.6.2.6.1.@.1.;.| 0 +.1.5.3.",
"3X4X7XqXwXwXrXwX9X8XeXrXrXrXwX=.U.T.T.W.J.h.U , wXiXpXuX1.x.g.O.5X6X7X9XqXqXqXqXtXtXtXwXrXtX9X9X5X8X5XZ.6XV.:.8 6.7XqXqX",
">X,X3X4X5X5X5X4X5X7X7X5X4X4X3Xn v m v v k k k k 7Xq.2X9.k.I.P.%.>X5X7XeXeXeX9X9XqXwXqX0XqXqX7X9X7X7X5X7X9X:.[ q 1.7XqX5X",
">X,X4X7X7XqX8X7X7X9X8X4X4X4X5XP e.e.e.w.w.w.b b D.5.8.8.C.k.V } V.2X9XeX9X6X5X5X7X6X7X7X7X7X7X7X7X5X4X7X9X@.+.c 1.7XqX2X",
">X>X,X1X4X3XZ.V.v.:X3X4X7X7X4XZ - - > - l l l l ..:.q.1.8.} 5 ( 9.2X9X9X2X9.9.9.Z.>X,X7X6X,X4X,X,X>XV.V.6X,.,.0 :.7XqX5X",
"V.,X1X,X1X>X5.:.:.,.4.9.>X2X<X  X o a < ).n.s.`.B ' 1.4.,.] w Q -.:.>X:XV.6.9.8.>X>X1X6X6X2X9.9.>Xq.b.9.2X4.| i ;.4X6XqX",
",X,X>X>X>X9.9.9.,.,.4.6.>X2X6.0 . X a 1 ).}.d.oXt.X.I.I.I.I.P.Y.T.W.W.z.o.&.%...8.2X2X,X9.9.8.1.9.9.v.9.2X,./ u ,.6X6X9X",
"2XV.9.q.V.9.V.0X9.v.v.6.>X<X:X4.o o a 1 ).#X*XXXy.z G.Q.W.W.~.^.~.^.sXdXsXsXsX~.Q.H.j.+.8.9.9.8.5.5.5.6.2X,.} i 4.5X<X2X",
"1XZ.C.0X1XZ.Z.q.>Xq.9.9.>X:X3 o . o a 1 ).+X+X+Xf.z 7  . ._ F H %.h.x.G.G.G.P.!.~.(.dX~.P.,.9.8.6.9.9.V.2X5.} i 6.5X3Xq.",
",X,X,X,X<X<X9.5.8.9.9.9.9.q.- X X o a < ).@X@X@X$XM 3 -.6.;.q ^ 5.V.9.:.;. ._ I Y l.J.~.dXH.>.9.:X,XV.>X<X>.} i 6.3X>X>X",
">X,X>X6.9.V.8.,.5.5.9.9.6.5.. . X = = M `.@X@X+X$Xw.x 9.<X;.q ' V.<X9X,X0Xq.6.1.O.H K g.E.sXW.1.D.q.V.V.<X,.} i 5.5X9.>X",
">X>X>XV.6.6.5.5.5.8.6.6.6.1.4.; X a # y.OX+X@X+X$Xt.M ] 2X,.0 | V.,X9X6X5X,X,X>X,X9.$. .U P.sXK.5.<X,X,X<X,.| V 5.2X9.>X",
",X<X<X2X>X6.9.>XD.q.:X,X2X1.5.O   p 2 d.@X@XOX*Xn.r.M T 4X,.w | 9.V.rXwXqXqXrXeXeXqX9X9X*.Y H.(.B.9X6X2X6X,.' i 5.5XV.V.",
"1.9.,.;.>.>.-.-.....| >.,.' X X . p 9  X@XXX$Xa.u.t.- ' ,X,.Q } 9X2X6X,X,.,.,.1.,.1.5.8.1.$.%.P./.*.,XZ.V.8.;.0 9.2XV.4X",
"! ( ^ Q Q i i w W V T W W q X X # p T .X@XOX%X{.M.m.R ; ' Q W @.[ ~ ! V i w w W i i V V V W V g.~.W.V C ! ' ( w +.@.( ' ",
"i 5 q u q w W W V w i w u * o   = % z .X@X@XOX+X&X%Xa.- w q 4 V i w 5 8 V w 5 C w q 6 0 6 6 6 6 &.!.P 5 4 u i 5 q w 3 5 ",
"W w :.,X,X9.>Xv.6.6.6.6.8.e @   = % R XX@X@X+X+X&X%Xa.- >.,.-.:.@.;.@.@.1.' w ' >.>.:.:.>.:.@.>.+.k.!...<.3.1.1.2.2.:.@.",
"[ C Z.tXiXyXuXwXyXyXtXtXrXX X @ % 2 y.XX@X@X@X+X&XN.a.l =.eXrXuXwXtXrXqX7X,.^ 1.3X5X5X7XqXqX7XwXqXC.K.I.,XqXqXwX5X5X5X4X",
":.W 6.3X8XqXuXyX7X7X6X6X4X  . $ p z [.@X@X@X@X@X&XM.u.B N 4.2X2X6X7X5X,Xv.) w :.4X8X8X7XqXqX7XqXqXqXv.I.S.1X3X7XqX7X8XC.",
"$.Q V.5XtXwXqX5XqXqXqX7X7X@ & = 2 r.s.[.@X@X+X*X%Xp.e.u.R <.6X1XV.V.V.C.5.) Z 1.6.7X7X4X5X4X3X4X4X5X1Xv.I.3.2X5XC.8.1X6.",
"$.W V.,XrXwX7X2X2X2X4X2X6X4.3 N d. X{.$X=X+XoX%Xa.s.m.M.r...,X>XV.5.5.V.V.[ Q :.1.7XqX3XqXqX5X7X4X7X4X3XC.S.>.Z.V.8.8XZ.",
"[ Q 9.,XeX7X,X6.,X,X2X2X,X2XE [.@X@X@X#XoX@X+XoX|.N.M.p.E 1.1.8.9.5.5.q.b.| q ,.4.6X7X6X6X7X8X5X7X3X:X,X3XC.K.3.,XZ.4X8.",
"} Q 9.,XeX6X>X6.>X>X>XV.V.V.:XE f.OX@X@X@X@X@XoX[.a.r.E 8.9.8.9.9.9.8.>Xv.| q 5.,.2X6X6X5X6X8X5X2XC.>X,X>X>X6.S.v.V.1XC.",
"[ Q 9.>XqX6X>X6.9.9.9.V.V.V.V.5.9 z y._.[.[.s.r.z T 1.,X,XV.8.9.,X,X>X9.5.| u ,.9.6X5X5X7X7X4X:X6.v.V.V.V.V.V.>XZ.Z.4X8.",
") W 9.>X7X2X9.5.1.5.9.V.,X>X>X6.5.H I > g.U > 4 ] 9.4X>XV.8.5.8.>X<X<X>X5.| i 1.v.6X6X5X7X4X,X2.5.5.6.6.6.6.V.V.,XZ.4X9.",
"^ W 6.>X7X>X4.:.:.:.1.6.,X1X,XV.Z.H K S !.P.L 0 +.,X5X>XV.9.5.5.9.1X,X>X8.| w 1.6.4X2X,X5X,X>X1.2.2.5.5.2.6.v.9.Z.V.2XC.",
"^ Q 6.>X6X6.:.| ;.@.;.,.5.9.,XZ.9.4 X 4  .F 4 q ;.,X5XV.Z.V.9.9.>X,X,X:X8.{ i ,.6.5X4X,X,X>XV.1.2.2.6.2.5.6.6.6.C.6.,X6.",
"] Q 9.V.4X5.:.+.>.@.| @.,.8.C.8.1.s $ h r e & q :.,X5X9.V.>XV.,X>X>X:XD.8.+.i 1.>X7X7X1X>XC.v.4.2.6.6.6.3.2.5.6.6.6.Z.6.",
"' Q v.V.4X6.,.,.1.:.:.:.2.8.8.5.,.s $ $ d d % u 1.2X4XC.8.V.V.,X1X>X3Xq.6.| i 4.6.7X5X,X>Xv.C.6.4.v.V.6.,.1.6.6.C.C.,X5.",
"[ V V.,X,X6X5XV.5.8.V.C.C.,X1X1X/ e & e h e & 8 1.7XtX5XV.Z.3X,X<X1X6X1XV.[ w 1.4XqX8X3X2X5X3X4XV.4X5X3X6.6.V.C.8.8.6.8.",
"+.( >X6.:.;.-.@.$.:.:.:.:.,.1.+.* e t 7.g 4 & f 1.2.6.<.,.2.2.3.6.;.| | 5.:.W :.6.6.1.<.6.6.1.<.:.1.5.1.:.:.,.<.1.1.2.6.",
"( Q :.) Q i V ~ V W C C C C & t h h y e & @ & V ) C c i W ! W Q ^ W i i ) ) i [ ( V w Z ' Q c W Z V W W C C ! C ^ ^ ( [ ",
"V q V q w c w C V V V V u V V 6 4 & O O @ 3 8 8 w q q w V w w w 4 q i 0 i u 5 W c w q w W 0 0 W V w V V u V V w w 8 8 8 "
};
