/* XPM */
static char *__removebg_preview__1_1673946204[] = {
/* columns rows colors chars-per-pixel */
"60 60 225 2 ",
"   c #110F0F",
".  c #0F0F12",
"X  c #0E131A",
"o  c #121214",
"O  c #181617",
"+  c #1D1D14",
"@  c #1C1B1A",
"#  c #241E10",
"$  c #281C10",
"%  c #32300E",
"&  c #282416",
"*  c #382918",
"=  c #383718",
"-  c #091424",
";  c #151A27",
":  c #11132F",
">  c #231927",
",  c #2B1C35",
"<  c #301F3B",
"1  c #09253E",
"2  c #142430",
"3  c #292529",
"4  c #33282D",
"5  c #2E2835",
"6  c #352B33",
"7  c #382E35",
"8  c #32233B",
"9  c #382E38",
"0  c #393235",
"q  c #3C333A",
"w  c #393539",
"e  c #4E3419",
"r  c #663E1E",
"t  c #403524",
"y  c #462C3C",
"u  c #40353C",
"i  c #41383D",
"p  c #23413E",
"a  c #4F4E05",
"s  c #42410D",
"d  c #51510C",
"f  c #454313",
"g  c #575012",
"h  c #706718",
"j  c #4B422A",
"k  c #594E2E",
"l  c #724724",
"z  c #6C5A3B",
"x  c #74613B",
"c  c #081657",
"v  c #062546",
"b  c #1A2741",
"n  c #1B344C",
"m  c #052A59",
"M  c #28294C",
"N  c #3B2649",
"B  c #3E3642",
"V  c #191964",
"C  c #07077A",
"Z  c #161779",
"A  c #211D67",
"S  c #0A2967",
"D  c #023467",
"F  c #013C78",
"G  c #443B41",
"H  c #493D47",
"J  c #47364A",
"K  c #432C53",
"L  c #482F57",
"P  c #482F59",
"I  c #493656",
"U  c #4B315C",
"Y  c #573A52",
"T  c #4E3361",
"R  c #4E366D",
"E  c #513664",
"W  c #543967",
"Q  c #563A6A",
"!  c #593B6E",
"~  c #5D3D73",
"^  c #1F4D5C",
"/  c #0D4975",
"(  c #364F6B",
")  c #4A4146",
"_  c #43464D",
"`  c #4D444A",
"'  c #51474F",
"]  c #53494F",
"[  c #4D4F54",
"{  c #564656",
"}  c #554B53",
"|  c #584E56",
" . c #5A4E59",
".. c #5B5256",
"X. c #5E555A",
"o. c #5E5959",
"O. c #6C5A42",
"+. c #655E54",
"@. c #60565D",
"#. c #62595E",
"$. c #6D655B",
"%. c #5B4567",
"&. c #644966",
"*. c #645B61",
"=. c #685E64",
"-. c #635469",
";. c #695E68",
":. c #634974",
">. c #64437B",
",. c #6A5674",
"<. c #725F79",
"1. c #656365",
"2. c #6A6165",
"3. c #6C626A",
"4. c #6B6769",
"5. c #70666C",
"6. c #72696D",
"7. c #746777",
"8. c #756B72",
"9. c #726D71",
"0. c #786E76",
"q. c #777074",
"w. c #7A7175",
"e. c #7D747A",
"r. c #84522B",
"t. c #877C3F",
"y. c #807173",
"u. c #80777D",
"i. c #81797D",
"p. c #A69426",
"a. c #181B83",
"s. c #1F2186",
"d. c #034385",
"f. c #004C98",
"g. c #0F5C94",
"h. c #3F608C",
"j. c #0054A8",
"k. c #005BB6",
"l. c #1171AF",
"z. c #5C4B92",
"x. c #6B4885",
"c. c #724C8D",
"v. c #6E5380",
"b. c #765987",
"n. c #764E94",
"m. c #784E98",
"M. c #785094",
"N. c #7D539C",
"B. c #7D6A8A",
"V. c #7F6B91",
"C. c #7E53A2",
"Z. c #5B7CB0",
"A. c #096ECD",
"S. c #016EDC",
"D. c #0879DD",
"F. c #0376E7",
"G. c #017EFA",
"H. c #81579E",
"J. c #886A8F",
"K. c #857C82",
"L. c #887F84",
"P. c #857788",
"I. c #8A7799",
"U. c #8558A8",
"Y. c #8D5DB1",
"T. c #8967A6",
"R. c #9462BC",
"E. c #9768BA",
"W. c #9973B1",
"Q. c #9C66C7",
"!. c #9F68CB",
"~. c #A166CC",
"^. c #A26BCE",
"/. c #AD71C1",
"(. c #A56CD2",
"). c #AC72D9",
"_. c #B576E7",
"`. c #BC7BF2",
"'. c #C27EF9",
"]. c #1A80AF",
"[. c #1C86B8",
"{. c #2696BB",
"}. c #7384B0",
"|. c #1B86C6",
" X c #1F93CA",
".X c #1587DC",
"XX c #2799C4",
"oX c #259CD6",
"OX c #37B7CE",
"+X c #2EABD9",
"@X c #30AED0",
"#X c #35B6D5",
"$X c #36B8D4",
"%X c #39BCD2",
"&X c #32B4D9",
"*X c #128CEA",
"=X c #0A87FB",
"-X c #26A5E4",
";X c #7293CD",
":X c #67A2F8",
">X c #8B8186",
",X c #8D848A",
"<X c #908887",
"1X c #90878D",
"2X c #93898E",
"3X c #958C92",
"4X c #968A95",
"5X c #988F95",
"6X c #969595",
"7X c #9A9195",
"8X c #9D939A",
"9X c #A0979F",
"0X c #A2999E",
"qX c #8789AD",
"wX c #A38DAF",
"eX c #A59CA1",
"rX c #A89FA5",
"tX c #ABA1A6",
"yX c #ADA4AA",
"uX c #B0A7AD",
"iX c #B2A8AF",
"pX c #B5ABB1",
"aX c #B9AFB7",
"sX c #B489D9",
"dX c #C681FE",
/* pixels */
"8.w.i.<X<X<X7X<X0X0X0XtXtXtXyXiXtXiXtXtXeX8X5X8Xw.q ] >X7X3X8X2X8X8XeXeXeX8X5X8X9X9X4X5X*.3.1X4XK.L.<X>XL.i.y.w.6.j 3.L.",
"7X0X0X0XeX0X0X0X0X0X0X0XrX0X0X0X0X0X0X0XrX0X0XtX-.> >.U.8X8XyXeXeXeXeXtXyXrXeXeX9XrX8XB.H =.eXeXeXrXtXtXrX0X0X0Xy.] 8.2X",
"2X2X7X7X7X7X7X7X2X2X3X7X6X7X7X7X3X7X3X2X5X2X3Xb.K ~ !.x.6X6XtX8X8X8X8X8XeX9X4X4X8X8X8X6.q ' 9XyX3X7X8X8X7X<X<X7X6.i 2.>X",
"<X<X<X>X<X<X<X<X,X,X2X7X0X0X0X0X7X0X7X7X7X5X<.~ 8 N.Y.E 0X8X8X3X4X1X,X3X4X,X1X1X3X,X8Xw.` G ,XeX3X<X<X5X7X7X7X0X8.i 4.>X",
"<X<XL.>X<Xi.y.w.e.i.L.<X3X1X>X>X,X<X<X2X8X,X>.K P Q.>.6 0X8X8X<XK.e.e.i.B.e.P.,X,XL.9Xe. .H ,X8X<Xu.w.L.<X3X3X7X5.i 5.<X",
"<Xy.w.w.y.y.w.$.6.4.6.i.e.e.8.8.8.e.e.>X5X,.! N m.Q.P & 0X7X2X,X3.3.7.8.8.8.K.,XL.,X6X6.] ] 8X0X<Xi.y.<X0X7X7X7X2.i 2.<X",
"i.w.9.q.y.i.i.y.8.8.w.e.>Xe.0.0.e.u.i.>X,.>.P N _.n.E < 3X8X2X,X8.8.e.K.>X>X1X8XL.L.4X6.` ] 5X8X<Xw.q.L.7X3X2X7X8.) 6.,X",
"y.$.4.$.w.i.i.i.w.q.q.e.e.w.8.5.w.e.w.e.,.! P N Q.~ P K P.3X>Xe.8.8.e.K.>X>X,X4X,XK.,XB.| ` ,X0X<Xe.u.<X7X3X<X7X6.) 3.>X",
"i.w.w.w.w.w.w.w.i.i.e.q.0.8.3.8.8.w.w.3.~ Q N >.n.K N ~ J.6X,Xe.0.e.K.>X>X>X,X1X4X,X,X;.| { e.5X2Xe.e.<X8X3X1X3X8.` 8.2X",
">Xi.i.y.i.e.w.8.i.i.e.w.7.3.3.8.8.8.3.3 N K > U.x.N P U.5X3XK.i.K.K.B.i.K.K.L.,XL.1X8X3.G } 1X8X3XK.e.>X1X1X,X,X5.i =.1X",
"3X7X6X6X7X3X1X,XB.K.L.1X4X,XK.K.K.;.c.Y.U.x.K >.K E N.7.3X3X2X3X8X3X2X3X8X5X8X5X5X4X8X8.q H 3XL.3X,X>X,X1X5X5X8Xu.` =.>X",
"2.2.$.4.2.*.X.o.+.{ ) ' ' { } H %.~./.J.U E Q E < Q J u.w.e.w.e.e.0.8.6.3.*.| } ' ' @.3.) q *.) |  .| |  .*.;.*.8.` X.8.",
") ) ) ) G i q q q B G J B ) G B Q.T Y z Y Q E T P , j i 0 i G 0 6 6 q q u G G G G q G ` ` 9 J q B G G q G G G G ` q J ) ",
"H j G ) ) ` ) ` q ' @.} B G :.Y.`.U.H.C.! N N U P U @.] ) ] | ) { { ' ) G G G H G q G 9 q 6 q G G G H G G B u B q q G q ",
",X3X3X8X8X8XtXtXpXiX8X4.G *.V.`.'.'.'.(.x.U c.Q E 8XtX0X6X7X8X1X2X4X1X1X1X2X1X,X@.H K.8XeXeX6X7X5X5X8X8X5X4X1X2X,X,XL.P.",
"5X8X8XeX0XtXtXtXtX8X3X*.H 3.4X:.m.Q.).C.! W E T -.3X7X0X0XrXyX0XrXeXeXeXeXeX5XL.=.3 5.8XyXyXyXuXyXyXtXuXyXeX8X8X8X8X5XeX",
"5X5X8X8X8X8X8X4X5X0Xu. .G 5.,X3X1X8.-.G ! ! K -.,X7X2X>X<X7X7X<X,X1X3X,X2X2X0Xi.X.u #.8XtX8XeX8X3X5X8X9X9X8X8X5X3X8X5X3X",
"5X5X5X5X4X5X8XeX8XeXP.X.H 5.,X3X4X3X3X..O.x e $.<X0X3X<X2X6X7X6X5X2X2XK.>X2XeXL.@.q X.7XeX8X8X2XP.L.1X1X4X4X1XL.2X8X8X4X",
"1X4X1X,XL.,X4XeX8XeXP.@.G 3.,X3X7X3X4.0 Y { i #.q.6X2X<X2X2X<X7X6X2X<Xe.K.>X6Xu.@.q X.7XtX8X7XK.8.w.e.P.P.u.K.e.L.5X5X1X",
"1X,X>XP.K.K.,X5X8X8XL.X.i ;.,X3Xi.{ Q U.H.v.P.;X}.1.<X>X<X<X<X7X1X,X,XK.K.K.2X6.#.0 X.6XtX8X3Xi.8.w.K.K.K.e.e.w.K.1X3X1X",
"5XL.P.e.e.e.P.1X5X8XL.*.i ;.1X5X,.(.sXI.I.qXh.( }.qXL.5X7X2X2X7X1X>X>X>X>X>X<X5.=.q ..8XrX7X<Xe.u.K.,X,XL.e.0.e.K.2X4X1X",
",Xe.3.=.*.;.8.u.1X4XL.*.q =.1X1XL.qX:XZ.n Z.;XV.W.E.U.P.0X7X<X2X2XK.K.e.K.K.3X8.#.q +.7XeX2X,Xe.K.L.,X3X>Xw.0.e.K.L.4XL.",
"i.8.3.;.*.*.3.w.L.,XL.3.q *.>Xq O ; d.D.Z.I.%.M c.^.Q.{ 1X1X<X<X3X>XK.e.>X>X2Xw.#.u @.9X0X2X,X>XL.L.1X4X1XP.e.P.L.4X1XL.",
"i.B.K.K.e.8.8.i.P.,X,X7.i *.y.# X @ ) }.T.C.N.I W Q.U.%.u.1X4X7X7X1X,X,X2X>X5X8...0 @.0XeX3X5X3X4X,X3X9X9X4X,XL.5X8X5X4X",
"5.6.3.3.*. .|  .*.#.5.3.` ` @.1.4.P.I.b.>.n.x.Q N n.).n. .-.=.3.2.*.*.2.6.5.=...=.i 4.w.@.#.@.1.3.;.=.X.{ | ` ) | | *.=.",
"i G H J G H ) ` i u ` } B G { T.b.x.R.U.m.n.E L K 5 n.:.O.9 q i q 0 q q q q 0 0 ) 4 ) ` q i i ) H q B H H B i } J G G G ",
"G H G G B 9 q q H q q G 0 q < R.Y.>.M.R.M.~ >.P 8 6 k p.z  .q q ` ` ) ) i ) ) ` ` q ] ) i ) i ) q 0 B G G q q B G u i u ",
"e.e.K.K.K.K.K.K.,Xi.B.K.e.K.N '.dX`.R.c.:.n.~ , 1.8Xw.P.Q.7.` H i.i.>Xi.i.K.i.,X>Xi.<Xi.L.,Xe.i.w.w.8.*.8.3.X.0 *.8.0.0.",
"1X4X5XeXeXrXrXuX0X0XrXtXrXeXN Q.Q.!.^.Y.x.%., o pXpXi.J.n.x.G } 3X8X8X0XeXeXeXtXtXuXuXtXuXuX0X0X5X9X4X,X5XB.4.0 y.5XeX9X",
"L.,X4X5X5X5X5X4X6X8X8X8X5X1XZ A V A V V V V c ; 7Xi.o.B.Q.Y.J @.>X3X0XtXtXtX0X0X0X0X0X8X0X0X8X0X8X8X5X8X9X3.@.0 8.9XeX5X",
"L.1X4X5X8XeX8X8X8X8X9X5X5X,XZ s.s.a.a.C C C C O k k +.J.B. .7 X.K.2X0XtX0X7X3X3X7X7X7X0X8X8X8X8X8X4X3X5XeX;.*.G 6.0XrX3X",
"L.,X,X1X4X1XL.L.B.,X1X4X5X,X- : : > 1 S c m m 2 h p.t.+.*.@.7 } i.2X0X0X2Xi.i.i.>X>X<X7X7X,X3X,X,X,XK.K.7X5.3.9 4.7XrX3X",
"P.,X<X,X<XL.y.4.2.6.w.u.>Xi.    + a 1 [.A.l.l.D O j  .1.8.o.q ) -.%.:.:.%.:.:.%.-.;.8.L.2X2XK.e.>X>Xi.i.2Xw.#.i 2.2X7X0X",
",X,X>X>X>X>Xi.i.6.6.9.e.>X4.0   + a 1 {.XX].-X/ b x.Y.E.W.T.Y.^.`.dXdXdXdXdX'.'.`.`.(.^.R.b.4.8.i.i.e.y.<X6...u 6.7X0X0X",
"<XL.i.>Xi.i.i.<Xi.y.w.y.e.6X1.  + a 1 {.@X-X@Xg.R `.dXdX).(.^.^.^.^.!.^.^.^.^.(.^._.`.dXdXdX_.;.8.w.w.u.2Xq.@.u 6.7X<X<X",
"<XL.L.>X<X>XL.L.<Xi.i.i.q.@ O   + a 1 {.%X$X$XA.M :.c.c.>.&.I %.-.,.,.%.%.{ %.I P ~ n.U.^.`.dX(.$.i.i.L.2X8.+.u y.7Xi.>X",
",X>X>X,X,X<Xi.w.y.i.i.i.q.    . + a 1 {.%X%X&XD.m , N I  .} 6 ` e.2X0X>X2X>Xi.<X1X0.*.U ! N._.`.v.,XL.i.<X4...u u.3Xi.<X",
">X<X>Xi.i.i.u.4.y.y.i.i.1.  o . = = / {.%X$X$X.XF - 3 1.1X1.0 ..>X<X8X<X<XL.e.e.<XL.,Xy.-.Q Y.'.~.*.L.L.<X4.@.G w.3Xi.>X",
">X>X>XK.i.e.e.w.i.w.y.y.4.1.O o d 2 l.$X%X%X$XD.d.D ; K.2X5.q #.K.>XeX3X2X2X<X>XL.i.i.i.i.! x.(.dX,.>X>X3X8.#.) w.3Xi.L.",
",X<X<X2X>Xe.i.>X>X>X}.>X4.1.O o d 2 ].%X%X&X.XA.F m X >X3X4.q *.e.>XtXtX8XeXyXtXrXrX0X9X0XP.W H.dXx.2X3X3X6...q w.3XL.L.",
"8.K.6.2.6.3.2.2.+.o.*.3.O o . o a p @X%X&X*Xk.f.d.- o.2X,X6.` @.0X2X7X,X6.5.6.8.6.8.w.e.w.e.W H.`.x.K.>Xe.i.2.0 i.3XK.2X",
"' } ` ` ) i i w j p G G o o o & s ^ OX%X+XF.D.*XA.D B ....` ) =.X.' ` H i i i H i i G H H ) H H.dXx.G ` ' ..| 0 #.2.] ..",
"i 6 0 i q 0 ) ) ) G i B $ o . f % / OX%X$X&X&X=XG.f.X 0 q 0 5 G i q 7 7 G q 6 G i 0 7 0 0 7 6 H.!.K 6 6 5 q i 6 0 q 4 4 ",
") q 3.,X,XK.>XB.u.e.w.e.e + o f & / %X%X$X%X$X=XG.j.; *.3.6.1.4.=.2.=.=.5. .q | 5.3.;.3.5.3.=.R.7.5.5.5.6.8.q.8.w.w.4.1.",
"X.H L.yXaXiXpXrXiXuXuXuX  o & e b j.%X%X%X%X%X=XG.j.v _ tXtXyXpXtXuXyXeX5X5.' 8.4X5X5X5XeX9X5XwX9X9X8XeXrX9X9XrX5X5X5X4X",
"3.) e.3X9XeXpXiX9X8X6X6X    % s D oX%X%X%X%X%X=XS.f.F v 0.1X2X1X5X8X5X,XK.| G ;.,X9XeX9XeXeXc.eXeXeX9X8X8X5X3X8XeX8X8XL.",
";.) P.5XuXrX9X6X9X9X0X0X+ % = 1 d.l.oX%X%X#X*XG.f.d.f.D _ 8X7X<XL.K.K.K.e.| H 6.B.8X9X1X5X4Xb.3X3X8X4X3X8X4X1X7X>XB.1Xe.",
"3.) K.,XyXrX8X4X1X4X2X6X+.3 ^ ].oX|..X-X$X-XG.k.k.S.S.F [ >X,X>XL.0.w.K.i.@.) 4.q.8XeX5X8XeXL.8X3X8X4X1X5X1XK.K.K.K.8XL.",
"X.` i.,XyX8X>Xi.,X,X2X2X,X( XX%X%X%X#X+X%X#X+X.X=XS.f.n 0.K.q.e.e.w.w.i.i...0 8.8.7X8X5X5X8XeX5X5X4X,X,X3X,XL.P.,XK.3XK.",
"X.` i.,XtX6X>Xe.>X>X>XK.B.9./ [.&X$X%XOX%X$X@X|.k.F v e.,XK.e.i.K.i.u.>Xu.+.0 8.8.2X6X5X8X5X8X5X1XL.P.,X,XL.L.>X>XK.,XB.",
"X.` i.>XeX5XL.e.i.K.i.i.>X}.O.; n g.{. X|.g.d.m 1 _ e.,X,XK.e.>X>X,X>XK.w.@.i q.e.7X7X5X8X8X4XL.P.u.K.K.K.K.K.L.>XK.2XB.",
"..) e.,X0X2Xi.w.8.w.i.K.>X>Xi.w R T M z.R 2 X 4 ..>X3X>XK.e.w.e.>X<X<X>Xw.+.i 6.i.8X7X5X5X5X,X0.8.0.0.e.e.e.K.L.<X>X3XK.",
"} ) e.L.8X>X8.4.3.3.8.u.>X<X<X2.U K E _.R.K 0 0 =.,X3X>XK.i.w.w.L.<X<X>Xy.#.i 6.e.2X2X,X2X1X>Xq.8.q.e.w.0.B.e.i.>XK.2XK.",
"} ` e.K.3Xe.3.#.2.=.2.6.u.i.>X2.& # y &.I > j i =.,X3X>XL.K.u.K.i.>X<X>Xy.2.i 6.u.7X3X,X1X>XK.9.w.0.e.w.0.e.e.e.i.e.,Xe.",
"| ) K.K.3Xw.3.=.5.=.*.=.8.u.u...e % r e e & ` B 3.1X4XK.K.>XP.,X>X>XL.>Xe.*.i 8.>X6X6X2X>XB.B.w.0.e.B.w.8.0.w.e.B.e.,Xw.",
"..` e.K.3Xe.8.5.8.3.2.3.0.e.u.j g $ % h g % ` B 8.1X3XK.u.K.L.L.<X>XL.>Xi.*.i 8.B.8X6X<X>Xi.e.B.8.B.K.w.7.8.w.e.K.e.,Xe.",
"@.G K.,X,X4X4XL.0.B.i.i.L.L.u.4 t $ e l = # ' q 6.8XyX5XL.L.1X,X<X,X7X<Xi.#.q 8.2XeX9X1X2X3X3X1X>X2X8X,Xe.e.K.P.B.e.e.e.",
"*.| L.e.3.=.2.2.;.3.3.4.3.6.t e e l r.r * & ` G 8.e.0.8.5.0.0.8.i.3.*.*.w.3.) 3.e.e.8.7.e.B.8.9.4.6.w.8.3.3.8.5.8.8.w.e.",
"} ` ;.| ) G G ' G ) ` H u * r l l e * # # # B B  .G q G ` ` ` H ] ) G q | | i X.} H 9 H } ` B G H G ` H H ) ` H ] ] | X.",
"G q G 0 q G q J G G G G u 0 4 & & @ + O @ 3 w 9 q 9 9 u G 9 q i 4 w q 0 i u 6 ) q 0 9 B H B 9 H B q G G q G H q q 9 9 w "
};
