/* XPM */
static char *__removebg_preview__1_1673946204[] = {
/* columns rows colors chars-per-pixel */
"60 60 233 2 ",
"   c #0D0D0E",
".  c #1C150D",
"X  c #060D17",
"o  c #0F0F12",
"O  c #121214",
"+  c #191512",
"@  c #1B1D17",
"#  c #231F0E",
"$  c #241F13",
"%  c #252108",
"&  c #353509",
"*  c #272113",
"=  c #2C2C13",
"-  c #372A17",
";  c #3B3616",
":  c #0A1035",
">  c #16173A",
",  c #25172D",
"<  c #2B1D37",
"1  c #09233D",
"2  c #2A2428",
"3  c #33292B",
"4  c #313329",
"5  c #2F2737",
"6  c #342B32",
"7  c #382E35",
"8  c #33263B",
"9  c #382E38",
"0  c #393235",
"q  c #3C333A",
"w  c #3A383B",
"e  c #4E3116",
"r  c #633A1E",
"t  c #483629",
"y  c #40353C",
"u  c #41383D",
"i  c #3E4214",
"p  c #474709",
"a  c #53500E",
"s  c #4A4414",
"d  c #6A4F1C",
"f  c #524534",
"g  c #754725",
"h  c #68532A",
"j  c #071550",
"k  c #1C1959",
"l  c #0A2949",
"z  c #1B3045",
"x  c #042A53",
"c  c #06345C",
"v  c #372645",
"b  c #392646",
"n  c #3E284C",
"m  c #0C1365",
"M  c #241D65",
"N  c #053666",
"B  c #023E7C",
"V  c #292267",
"C  c #323666",
"Z  c #443B42",
"A  c #493D47",
"S  c #473B4B",
"D  c #422C52",
"F  c #482E59",
"G  c #483555",
"H  c #4B315B",
"J  c #503A59",
"K  c #562E65",
"L  c #4E3361",
"P  c #523665",
"I  c #553A64",
"U  c #54376B",
"Y  c #56396B",
"T  c #593C6E",
"R  c #553875",
"E  c #5D3E73",
"W  c #603F76",
"Q  c #364152",
"!  c #0F4872",
"~  c #375173",
"^  c #206474",
"/  c #4A4146",
"(  c #4C434A",
")  c #4A4749",
"_  c #534849",
"`  c #53494F",
"'  c #4E4154",
"]  c #514456",
"[  c #554B53",
"{  c #584E56",
"}  c #5A4F59",
"|  c #5C5356",
" . c #5E545A",
".. c #59575C",
"X. c #6C5349",
"o. c #60565D",
"O. c #62595E",
"+. c #776A58",
"@. c #5B4764",
"#. c #595B6A",
"$. c #544A76",
"%. c #645B61",
"&. c #685F64",
"*. c #635768",
"=. c #64546C",
"-. c #695F6A",
";. c #614375",
":. c #674F70",
">. c #64437C",
",. c #68497A",
"<. c #6B5874",
"1. c #5C6373",
"2. c #676267",
"3. c #6A6165",
"4. c #6C626A",
"5. c #796B62",
"6. c #70666C",
"7. c #72696D",
"8. c #6F6870",
"9. c #726475",
"0. c #756B72",
"q. c #786E76",
"w. c #7A7175",
"e. c #737079",
"r. c #7D747A",
"t. c #89662B",
"y. c #8D6E6C",
"u. c #80777D",
"i. c #82797D",
"p. c #978C4A",
"a. c #0E1083",
"s. c #101284",
"d. c #1E2187",
"f. c #024689",
"g. c #034B94",
"h. c #0F5394",
"j. c #196D90",
"k. c #0157AA",
"l. c #015BB7",
"z. c #1879AB",
"x. c #0966B3",
"c. c #2277A6",
"v. c #4A4A8E",
"b. c #6A4684",
"n. c #6A4882",
"m. c #6E498A",
"M. c #714B8D",
"N. c #6E5181",
"B. c #75558A",
"V. c #754E94",
"C. c #794F9A",
"Z. c #795595",
"A. c #7B529B",
"S. c #5C6D8C",
"D. c #7B718B",
"F. c #0167C9",
"G. c #0A73D1",
"H. c #0173E4",
"J. c #0B7EE2",
"K. c #007CF8",
"L. c #805D8D",
"P. c #83599B",
"I. c #807780",
"U. c #857C82",
"Y. c #887F84",
"T. c #88699B",
"R. c #8A7899",
"E. c #8255A2",
"W. c #8A5AAD",
"Q. c #8F5EB4",
"!. c #905FB4",
"~. c #926EAD",
"^. c #9164B4",
"/. c #9462BB",
"(. c #A07BB6",
"). c #9B65C4",
"_. c #9D67C9",
"`. c #A269CD",
"'. c #A76ED6",
"]. c #AC75D0",
"[. c #AC71DA",
"{. c #B274E4",
"}. c #B777EB",
"|. c #BA79EE",
" X c #BE7BF3",
".X c #C07DF7",
"XX c #C37EFA",
"oX c #1881BB",
"OX c #248EBA",
"+X c #71809C",
"@X c #1A8BCD",
"#X c #279CC4",
"$X c #259DD8",
"%X c #2EA9CD",
"&X c #30AAC7",
"*X c #29A4D4",
"=X c #2DACDE",
"-X c #30AFD9",
";X c #2FB0DE",
":X c #35B5D6",
">X c #34B5D7",
",X c #39BCD1",
"<X c #1A8FE0",
"1X c #1D97ED",
"2X c #0383FE",
"3X c #2AAAE2",
"4X c #7390C9",
"5X c #7BA7F0",
"6X c #8A8185",
"7X c #8D848A",
"8X c #908887",
"9X c #90878D",
"0X c #938A8E",
"qX c #928497",
"wX c #958C92",
"eX c #988F95",
"rX c #9A9295",
"tX c #9D939A",
"yX c #A0979F",
"uX c #A2999E",
"iX c #8C81A5",
"pX c #A59CA2",
"aX c #A89FA5",
"sX c #ABA1A6",
"dX c #ADA4AA",
"fX c #AEAEAF",
"gX c #B0A7AD",
"hX c #B2A8AF",
"jX c #B4ABB1",
"kX c #B9AFB7",
"lX c #8894C8",
"zX c #C681FD",
"xX c #C983FF",
/* pixels */
"0.w.6X7X0X0X0X0XuXuXuXsXsXdXdXhXdXhXsXsXaXtXwXtXw.u 4.rX0X) S 0.eXpXpXpXpXtXeXtXyXtXeXeX%.4.9XwXU.Y.8X6X6Xi.i.w.7./ 3.i.",
"rXuXtXpXpXuXuXuXuXuXuXuXuXuXuXuXuXuXuXuXpXuXuXsXi./ 6.*.2 >.C...pXpXpXaXdXaXpXpXyXaXyXI.A &.yXaXuXsXdXsXuXuXuXuXw.) 7.0X",
"0XtXeXeXrXrXrXrX0X0XwXrXuXwXrXeXwXwXwX0XwXwX0XtX7.w ,.n W _.>.*.yXeXeXyXpXyXeXqXtXpXtX4.y ] yXgXwXrXuXrXrX8X8XrX4./ 3.6X",
"8Xp.7X7X8X8X8X8X7X8X0XeXuXuXuXuXuXuXrXrXtXwX0XrX4.J T < ).A.P 9.wX9X8XqXqX9X9X9XqXY.tXq.A Z 8XuXwX8X8XwXrXrXrXuX6.f 4.8X",
"0X8XR.p.p.6Xw.w.r.i.p.qXwX9X6XY.6X8X8XwXtXrXwXuX*.W D U `.U y 9Xu.u.u.I.u.u.I.7X9XY.yXu.} Z 9XyX6Xu.u.Y.8X0XrXrX6.u 6.8X",
"p.r.D.r.D.D.0.2.6.7.S.I.i.r.0.7.0.w.u.Y.wXwXwXtX;.K b W.W.b ; Y.-.4.0.0.9.q.U.8XY.Y.eX0.` ` eXyX8Xi.w.6XuXrXrXrX3.u &.6X",
"D.D.7.0.r.D.r.r.0.0.w.r.U.r.r.q.u.i.i.6XwXwX9X9.W n U {.W L , <.0.0.r.I.Y.Y.qXeXY.Y.qX6.A _ eXyX8Xw.5.Y.rX0X8XrX0./ 6.9X",
"r.8.2.7.e.D.p.i.w.0.w.r.r.r.0.6.0.w.w.u.6X7X6XN.P n T /.W F D <.0.q.u.Y.Y.7X9XwX9XI.9Xi.} ' 8XyX8Xu.u.7XuXwX0XeX0./ 4.6X",
"r.w.w.w.w.w.w.w.i.i.r.w.q.0.9.6.0.w.w.r.r.6Xq.b.P n m.m.H v M.<.q.r.U.Y.Y.Y.7X0X0X9X8X-.[ [ r.eX0Xu.w.8XtXwX9XwX0.) 0.9X",
"6Xr.i.i.i.r.w.0.i.i.r.w.0.4.4.0.7.0.w.w.i.0.6 b D < !.T n P E.u.U.I.I.U.Y.U.Y.7XY.9XeX6.Z ` wXtXwXU.r.7X9X7X7X8X6.u 3.9X",
"0XrXrXrXrX0X7X7XI.U.Y.9XwX7XU.I.6X6X6X7X@.;.P.C.T n b.n Y A.9.qXeXeX9XwXtXeXtXeXeXeXrX0.y S 0X6XwX7XY.7XwXwXrXtXu.( 3.7X",
"3.3.2.2.3.%.o. .%.[ ( ( ] [ [ ( / ) ) ,.`.].P.E Y T H b ;.J w.r.r.r.0.6.-.*.{ [ ` ' *.&.( 0 O.) { } { [ | O.3.3.0./  .0.",
") / Q / Z u u y w w Z S Z A A q q 0 G ).K X.h F Y P H D , 9 Z 0 6 7 q q y Z Z Z Z y Z ` ( 9 A w Z Z Z y y Z Z n ( q Z / ",
"n f f ) / ) ( ( y ' o.[ q Z } }  .@._.[.>.A.M.U b b P D S ` | S [ ` ` A Z Z A A Z 9 y 9 q 6 q n Z Z S Z y Z y q n q Z 0 ",
"8X0XwXrXuXuXsXsXjXgXtX4.A *.wXtXaX^.XXXX.X|./.Y H b.Y Y 9XrXtX8XwXwXqX7X9X9X0XY.o.( U.eXaXpXtXrXeXeXeXyXeXqXwXwX6X0X6X6X",
"rXrXuXuXuXuXpXsXaXyX9X*.A 4.wXwXeX-.m.Q.[.}.E.E E T P -.uXpXsXpXpXpXpXpXaXpXwXY.&.2 6.yXsXdXsXgXgXdXaXhXdXpXtXtXtXtXeXtX",
"eXeXtXtXyXtXtXeXeXpXI.} Z 6.Y.wXrXrXrX6.*.] n P H G ..8X8XrXrX8X8X9XwX7X9X0XtXr...y O.tXsXuXuXtXqXeXyXyXpXtXtXeXeXtXeXwX",
"eXeXeXeX0XeXyXpXtXpXU. .A 9.7XeXwXwXrXrXrXrXO.y.X.5.w.0X0XrXrXrXwXwX0X6X7X9XsX6XO.w ..rXuXtXtX0XU.Y.8XwXqX0X9X7X9XtXeXwX",
"qX0XqX8XY.Y.qXyXtXpXU.o.Z 4.Y.eXrXrXrXrXtX6X) +.f ` %.r.0X0X8XrXwX0X7Xr.U.6XrXr.O.y | tXsXtXwX6X0.w.u.I.U.I.u.u.Y.eXwXwX",
"0X9XY.Y.I.U.8XeXeXtXY.o.y 3.7XwXrX8X8Xw.Z P C.V.,.D.4X+XO.8X8XrX0X7X7Xi.U.U.9X7.O.0 | tXsXuX0Xi.q.w.U.U.I.r.w.w.I.9XwX9X",
"eXY.I.u.q.u.U.9XeXtXY.*.y -.0XeXp.iX2.;.`.].T.iX4X~ ~ 4X+Xw.8XrX9X6X6X6X6XY.8X7.O.w | tXaXrX0Xw.u.I.9X9XU.r.q.D.U.9XeXqX",
"Y.I.4.-.&.-.0.u.qXeXY.%.q &.9X9Xe.e.r.R.lX5XS.Q c.4XR.(.(.L.6.8X9XU.U.i.Y.Y.wX0.O.y o.rXuX0X7Xr.I.Y.9X0XY.r.q.r.I.9X9X6X",
"I.q.4.-.*.O.4.q.Y.7XY.-.9 %.Y.i.%.2.2 2 z l.G.S.~.] D P.'.W.( 9XwXY.U.i.Y.Y.wXw.o.y o.uXuX0X0X6XY.Y.9XqX9XU.r.I.Y.9X9X7X",
"U.u.I.I.r.0.q.I.U.7X9X7.Z %.Y.u.4.X.O o @ Q lX~.E.m.b M.).V.@.9XtX8X7X7X9X6XwX0.| 0 o.uXpX0XrX0XwX9XwXyXpXqX7X7XeXtXeXwX",
"6.6.6.-.o.} { } *.o.6.-.( ( *...}  .`  .U.R.B.>.A.M.P n ).).m.*.-.%.O.3.7.6.&.| &.u 4.q.O.O.O.O.6.&.*. .[ { / S { { ..#.",
"y Z A S A A A ' Z y ` ` Z Z A Z n :.R.D.V.^.M.C.M.H H n F W.@._ q q q y 0 w 0 7 / 2 ) ` w u u / Z y Z A Z Z u [ ) n / f ",
"Z Z Z Z y y y y A 9 Z Z 9 y Z q 0 D /.m.;.^.).C.T ;.D 6 Z | t.h / ( / A Z A / / _ q _ / u / f Q y q w Z Z q w Z n f Z 9 ",
"u.u.I.U.I.i.i.i.7XI.r.u.r.I.Y.r.2.;.zXXX`.A.;.;.M.T 5 3.tX6XL.T.=.r.Y.U.i.i.Y.6XU.U.8Xi.Y.6Xr.r.q.q.0.&.0.-.o.9 %.9.q.q.",
"0XeXtXpXaXaXaXgXpXyXpXdXdXsXaXuX2.R {.{.{.[.!.P.T , ) jXdX{ E V.>.*.pXpXpXpXpXsXaXgXdXsXgXgXtXpXeXyXeX6XeXI.6.7 e.eXpXyX",
"Y.Y.0XeXeXeXeXqXwXrXtXtXeXwXwXwX$.m V V V M k k j : / 8X6X( m.).W.$.-.aXsXsXuXpXuXaXrXU.U.U.D.8XeXtXeXtXyX-.o.q e.tXpXtX",
"Y.qXwXeXyXyXyXeXtXuXtXeXeXeXrXtX#.d.d.d.s.s.a.a.a.m w 3.i.o.).M.F n v ( ;.V.V.V.V.Z./.{.{.{.{.`.A.Z.<.U.pX-.o.Z 9.yXaXtX",
"Y.Y.9X9X9X9X7XY.D.7X9XwXtXwXwXtXw.: > > > j m j j j f +.p.+.A U C._.}.}.zXzX X|.|.|.|.|.|.|.zXxXxXxX|._.-.6.4.9 9.tXpXiX",
"Y.7X8X7XqX7Xr.2.6.7.w.i.6X0XrXwX|     = & c @Xk.z.g.l f y.^.'. XxXXX}.`.Q.A.b.n.>.,.,.N.N.,.V./.{..XxXxXQ.{ O.u 3.wXrXuX",
"8X7X6XY.R.p.D.i.7.7.0.r.6X0XrXrXQ @   & p c %XoXOX@Xx V.XXzXXX{.).P.>.Y P J } *.8.4.3.%. ...[ ] ;.E.{.zXXXV.| y 7.rXrXuX",
"8XY.i.Y.i.i.i.8Xi.D.e.r.6X8X0X8XfX)   = p c &X*X*X-XN ;.'.).V.>.J :.9.0.D.D.i.0XeXtXrX6Xi.Y.U.6.] @.n.[.xX_.` u q.tX8XwX",
"8X6XY.6X8X6X6Xi.6Xp.D.r.p.6X8X8X5 @   & i c &X>X>X;Xg.v @.I n / 7.0XuX6Xp.i.i.8X7XwXrX8X6Xi.i.u.0.} ;.`.XXm.| u e.qXR.p.",
"7X8X7X6X8X8Xi.w.i.i.D.p.D.8X7X8X  O X = i c &X,X,X-Xx.1 8 ) 6 [ i.0XuX6X7X6Xi.6X0XwXrXrX8XY.i.i.i.@.V.{.[.` | u r.wX6Xp.",
"6X7XY.u.i.Y.u.7.w.D.D.r.D.D.U.i.o O @ i 4 ! &X,X,X;XF.c 6 %.0 | 6X7XuX8X0Xi.u.u.8Xi.6X8X8Xi.i.i.] :.`. X*.3.o.u w.wXi.6X",
"Y.Y.Y.U.u.w.w.w.w.i.r.r.i.i.6Xr.w O @ a 1 oX>X,X,X=XF.d.x 3.q O.i.6XaXrXwX8X8X6X6Xi.i.Y.6X6X6X[ Y /.}.<.i.7.o./ w.0Xi.6X",
"8X8X9XwXY.u.i.6Xp.U.6X6X0XwXrXwX..O # p l OX,X,X>X1Xl.! x ..w O.i.Y.sXuXuXuXgXsXsXaXuXtXuXwX*.E /.`.<.U.eX7.| u w.rX6Xi.",
"0.u.7.&.6.6.3.3.1.#.2.4.7.w.w.6 O O @ p ^ >X,X=XJ.k.g.N X %.) o.uXwXrX7X7.6.7.0.7.0.i.w.7.*.B.`.Z.*.i.6Xi.i.&.0 i.wXU.wX",
"_ [ ` ( / u u u Z n u A / / Z   o O = i ^ ,X,X$XH.G.H.k.l Z A 3. .( _ Z y y y A u y Z Z A @.T S 0 y / / ) | { 0 O.&.[ } ",
"Z 6 9 Z w 0 S S / Z w w u y w . O O a @ j.,X,X>X3X3X2XH.B 2 3 Z Z 0 7 7 u u 6 Z y 0 7 0 q 7 3 7 q 9 6 6 6 y u 6 0 y 2 3 ",
"A q 6.Y.8Xi.Y.r.r.e.r.r.r.r.w.e O o a @ j.,X,X,X,X;X2XK.! ` %.4.&.-.&.&.6...y { 6.6.&.4.9.4.3.6.0.9.4.9.9.7.q.0.q.q.6.&.",
" .S Y.gXkXgXjXaXhXgXdXdXgXgXgX+ O = i l z.,X,X,X,X-X2XK.g.#.sXjXaXgXdXpXrX7.` 0.9XeXqXtXuXpXtXaXpXtXpXpXpXpXpXaXeXeXeXeX",
"4./ r.9XpXpXhXhXtXtXtXeXwXwXeXO X p = f.$X,X,X,X,X-XK.G.g.N q.9XeXtXeX7XD.| y 4.7XpXpXyXpXpXtXaXpXaXtXtXpXeX0XeXpXeXyXY.",
"&.( Y.eXgXaXpXeXpXpXpXpXtXtXeX@ * ; z g.G.>X,X,X>X1XH.g.B f.#.0XY.U.U.i.u.[ A 9.D.tXtX9XeXeX7XeXeXeXwX9XeXqXqXeXY.I.9Xw.",
"4.S U.7XdXpXtXwXqX9XwXwXwXqXeX& = ! z.$Xx.<X;X,X1XK.k.l.H.F.~ 6XY.w.r.U.i.O./ 6.7.tXpXeXtXpXeXtX0XtXeXqXeX0XU.Y.U.I.tXY.",
" .( u.9XdXtX6Xi.7X8X9X9X9X9X0XwX! #X,X,X>X3X;X,X=X$XJ.K.H.g.2.r.r.w.w.i.i.o.0 5.w.rXtXtXrXtXyXeXtX9X7X7X9XqXY.U.Y.Y.qXU.",
"o.) u.8XaXeX6Xu.6X6X6XY.6XU.7XqX9Xz.*X,X,X,X,X,X,X>X@Xl.h.8.r.U.i.i.i.6Xu.o.0 w.0.9XwXwXeXtXtXeXqXY.Y.Y.7XY.Y.Y.Y.I.wXI.",
"| ) i.6XpXwXY.r.i.U.i.U.D.i.p.7X7X0X1.! oX#X*X@Xx.f.~ #.Y.i.i.U.7X7X6Xi.w.O.y 5.r.rXrXeXtXtXwXY.I.u.U.U.I.U.U.Y.Y.Y.eXI.",
"{ ( u.6XuX0Xi.w.0.w.r.6X8X6XD.D.6XeX6XU v C v.C 5 #.6X6Xi.i.y.u.6X7X8X6Xw.O.u 0.U.rXeXeXeXwX7Xr.q.q.r.r.I.I.I.U.8X6XqXI.",
"[ / r.Y.tXY.0.6.4.4.0.r.Y.7XY.Y.6X9XwXb.v m.{.P.A 7XeX6XY.u.w.r.6X9X9X6Xw.3.u 7.w.wX9X9XwX9XY.0.q.q.q.r.q.r.I.I.Y.Y.0XI.",
"[ ) r.U.wXi.4.O.3.&.3.6.r.Y.6XY.U.6X0.* O I ;.J ( 7XwX6XY.U.I.I.D.7X7X6Xr.O.u 7.i.wXwX7X7X7XI.0.q.q.r.w.r.r.r.w.I.r.Y.I.",
"{ / U.U.wXw.4.%.4.&.%.4.0.r.U.U.r.U._ - e r e - 3 9XeXU.U.Y.Y.Y.6X8XqX6Xi.O.u 7.U.uXtX9XY.U.I.r.q.r.I.w.q.w.q.r.u.r.Y.q.",
"{ ) r.U.wXu.7.7.0.4.4.4.q.r.r.q.r.r.s a % a d a & 9XwXI.u.U.Y.7X8X6XD.p.i.O.u w.D.tXeX7XY.D.I.r.9.I.I.w.0.9.q.I.U.I.9Xr.",
"*.Z U.8X7XwXeXY.r.u.I.U.Y.7X7X9X7XY.t - + e g - * eXdXtXU.Y.9XY.8X8XrX8XU.o.q 0.9XpXyX9X9XwXwX9XY.9XeX9Xr.r.U.U.U.D.u.r.",
"O.[ U.u.4.&.-.&.&.-.6.4.6.7.0.0.0.4 - e g t.r * * D.r.6.0.q.q.q.r.2.%.%.q.4./ 4.u.r.0.9.r.D.0.9.6.9.q.q.4.4.7.4.0.0.q.w.",
"[ ' -.{ S Z Z _ Z A S A A S / 0 - r g g r ; $ $ $ Z 0 Z ( ( ( A ) f n u [ { Z  .] Z q S [ ( Z A A Z S ( A S ( A [ ` [ o.",
"u q y q w u y A u Z Z Z y u Z u - - - $ + + + O 3 9 9 w Z 9 q w 3 0 w w Z w 6 ) w 0 7 Z A 0 9 S Z y u Z y Z Z y 0 9 7 q "
};
