/* XPM */
static char *__removebg_preview__1_1673946204[] = {
/* columns rows colors chars-per-pixel */
"60 60 237 2 ",
"   c #0E0E0F",
".  c #0F0F12",
"X  c #121214",
"o  c #191513",
"O  c #1A1A15",
"+  c #231C13",
"@  c #1E261B",
"#  c #302D0E",
"$  c #35360D",
"%  c #292616",
"&  c #362A18",
"*  c #383A15",
"=  c #01032D",
"-  c #0E1A26",
";  c #141638",
":  c #221828",
">  c #301F3C",
",  c #07223D",
"<  c #282528",
"1  c #32272D",
"2  c #232D32",
"3  c #352C33",
"4  c #382E35",
"5  c #31243B",
"6  c #382E38",
"7  c #3A3235",
"8  c #373739",
"9  c #3C333A",
"0  c #462C15",
"q  c #503515",
"w  c #673E1F",
"e  c #4F3B22",
"r  c #40353C",
"t  c #41383D",
"y  c #3C4014",
"u  c #49470B",
"i  c #52510A",
"p  c #554A16",
"a  c #67511C",
"s  c #514B32",
"d  c #56453A",
"f  c #724C2C",
"g  c #071548",
"h  c #000157",
"j  c #06185A",
"k  c #1B1758",
"l  c #06284C",
"z  c #102E52",
"x  c #362442",
"c  c #382546",
"v  c #3C274A",
"b  c #302D4B",
"n  c #3E294C",
"m  c #221D68",
"M  c #033668",
"N  c #103760",
"B  c #013E7A",
"V  c #292267",
"C  c #313869",
"Z  c #412B4F",
"A  c #443B41",
"S  c #493D47",
"D  c #44354D",
"F  c #463B4A",
"G  c #452D56",
"H  c #542C5E",
"J  c #4A3755",
"K  c #4C325D",
"L  c #513D5C",
"P  c #4E3460",
"I  c #523665",
"U  c #543867",
"Y  c #55396A",
"T  c #593D6E",
"R  c #5E3D75",
"E  c #603F76",
"W  c #10446D",
"Q  c #084470",
"!  c #354863",
"~  c #1B607D",
"^  c #4A4146",
"/  c #4D444A",
"(  c #4D4A4C",
")  c #51474F",
"_  c #53494F",
"`  c #5A514C",
"'  c #4C4655",
"]  c #544557",
"[  c #554B53",
"{  c #584E56",
"}  c #5A4E5A",
"|  c #5B5356",
" . c #5A5659",
".. c #5E545A",
"X. c #6A584E",
"o. c #60565D",
"O. c #62595E",
"+. c #73645B",
"@. c #5C4768",
"#. c #5B5964",
"$. c #484E71",
"%. c #5E4173",
"&. c #624C6A",
"*. c #635667",
"=. c #645B61",
"-. c #685F64",
";. c #695D6B",
":. c #634376",
">. c #654C73",
",. c #64427C",
"<. c #6C5676",
"1. c #70597D",
"2. c #5B606F",
"3. c #676066",
"4. c #6A6065",
"5. c #6C626A",
"6. c #70666C",
"7. c #71696D",
"8. c #77706D",
"9. c #6C6672",
"0. c #756B72",
"q. c #746B74",
"w. c #786E76",
"e. c #7A7176",
"r. c #757179",
"t. c #7D747A",
"y. c #84632A",
"u. c #81744A",
"i. c #85756D",
"p. c #80777D",
"a. c #82797D",
"s. c #0E1083",
"d. c #0F1284",
"f. c #1E2188",
"g. c #014487",
"h. c #0F5588",
"j. c #014A95",
"k. c #015299",
"l. c #385A87",
"z. c #237A93",
"x. c #0155A8",
"c. c #005CB8",
"v. c #1673AD",
"b. c #49498D",
"n. c #694583",
"m. c #6A4885",
"M. c #6E4A89",
"N. c #704C8B",
"B. c #6E5280",
"V. c #765887",
"C. c #744C91",
"Z. c #7A4F9A",
"A. c #795393",
"S. c #7B519A",
"D. c #796187",
"F. c #71748E",
"G. c #7F53A0",
"H. c #0971CD",
"J. c #006DDA",
"K. c #2470CD",
"L. c #0376E4",
"P. c #007BF5",
"I. c #81559F",
"U. c #817983",
"Y. c #857C82",
"T. c #887F84",
"R. c #85669A",
"E. c #897691",
"W. c #897597",
"Q. c #8658A8",
"!. c #8F5EB4",
"~. c #905EB5",
"^. c #915FB8",
"/. c #8B64A7",
"(. c #9361B7",
"). c #9462BB",
"_. c #9970B3",
"`. c #9A65C2",
"'. c #9E68C8",
"]. c #A26ACE",
"[. c #A976C6",
"{. c #A86DD6",
"}. c #A874D1",
"|. c #AE72DC",
" X c #AF72E0",
".X c #B274E2",
"XX c #B877EC",
"oX c #BD7BF3",
"OX c #C37FF9",
"+X c #1B81B0",
"@X c #2182A9",
"#X c #218AB5",
"$X c #708ABC",
"%X c #1A88C9",
"&X c #1583D1",
"*X c #279BC7",
"=X c #2297D8",
"-X c #2EA5C7",
";X c #34B2CC",
":X c #2BA7D6",
">X c #30AFD9",
",X c #35B7D4",
"<X c #39BCD1",
"1X c #32B3D9",
"2X c #1A94EB",
"3X c #0281FF",
"4X c #28A6E3",
"5X c #2BA9E1",
"6X c #7A96CE",
"7X c #5F96E3",
"8X c #8B8185",
"9X c #8D848A",
"0X c #908887",
"qX c #90878D",
"wX c #938A8E",
"eX c #8F8194",
"rX c #918790",
"tX c #958C92",
"yX c #988F95",
"uX c #959395",
"iX c #9A9195",
"pX c #9D939A",
"aX c #A0979F",
"sX c #A2999E",
"dX c #9083A6",
"fX c #A59CA1",
"gX c #A89FA5",
"hX c #ABA1A6",
"jX c #ADA3AA",
"kX c #AFAFAF",
"lX c #B0A7AD",
"zX c #B2A8AF",
"xX c #B5ACB2",
"cX c #BFB6BB",
"vX c #8997D0",
"bX c #C681FE",
"nX c #C882FF",
/* pixels */
"8.e.i.0XwX0XwX0XsXsXsXhXhXhXhXzXjXzXhXhXsXpXuXpXe.9 4.yX0.e.pX0XpXfXfXfXfXpXyXpXpXpXyXyX=.6.qXrXY.T.0X8Xa.a.i.e.7.^ 4.Y.",
"iXsXsXsXhXsXsXhXsXsXsXsXsXsXsXsXsXsXsXsXhXsXsXhXa.^ [ 5 m.A.pXfXfXfXfXgXjXgXfXfXfXfXpXU.S -.aXgXsXgXjXsXhXsXsXsX8.( 7.wX",
"wXiXiXiXiXiXiXiXtXwXtXiXsXiXiXiXtXiXtXwXiXwXwXpX7.:.v C.).R tXpXpXyXyXaXfXaXyXyXaXaXpX6.r ) aXhXyXiXsXsXiXwXwXiX5.^ 4.8X",
"0X8X8X8X0X0X0X0X8X0XwXiXsXsXsXsXpXpXiXiXiXiXwXpX&.U > ].C.I sXuXtXqXqXrXE.tXqXqXwXE.pXw./ r qXsXtXwX0XwXiXiXiXsX5.d 5.9X",
"0X0XT.T.0XY.i.e.a.p.a.qXwXqXT.T.8X0XqXwXpXpXyXD.R v ,.'.K r pXwXp.p.p.p.p.p.Y.T.qXT.aXp.} t qXaX8Xp.i.T.0XwXwXiX5.d 5.0X",
"8Xa.e.e.i.8.8.5.6.7.8.p.a.t.w.7.w.e.t.8XiXwXtX:.P x `.G.5 q wX9X5.5.6.w.0.w.U.qX8XE.pX6._ _ yXaXwXa.e.8XsXiXiXsX4.r =.9X",
"i.e.8.8.t.a.t.t.0.7.w.a.Y.a.t.w.p.p.a.T.wXtX&.E x n. X%.P : tX9X7.w.p.Y.Y.T.rXpXT.T.tX6.S _ yXaXqXe.8.T.iXtX0XiX0./ 6.qX",
"e.8.4.7.8.a.a.t.e.0.0.t.t.t.0.7.e.e.e.p.8X9Xn.U x n.!.Y G n 8Xe.0.w.p.E.T.T.qXrX9Xa.wXp.} ) qXaXqXp.p.wXyXtX0XiX7.^ 5.8X",
"t.e.8.e.e.e.e.e.a.a.t.e.w.q.6.7.0.e.e.t.t...n.P c Z.%.I > /.8Xt.w.t.U.T.T.T.T.yXrXqX9X5.{ [ t.yX0Xt.e.9XiXtXwXtX0./ 0.wX",
"T.a.a.a.a.t.e.0.a.a.t.e.q.6.;.0.7.0.e.t.[ : n c n ^.I v R W.Y.t.T.Y.U.Y.T.T.T.T.T.rXyX5.A ) tXpXtXT.p.8XwXwX8X9X7.t =.wX",
"iXuXiXiXiXwXqX8XU.U.T.qXrX9XU.U.T.8X..J n.G.C.U n M.c R R.tXwXuXyXrXwXtXyXpXpXpXyXyXpX0.r S tXT.tX8X8X9XwXtXiXpXt./ 4.9X",
"4.4.4.4.4.=.o...O.[ / / [ [ [ / ^ 8 C.}.[.A.T U R n v %.e.e.e.t.t.t.0.6.;.=.{ ) [ / o.;.^ 9 O.^ { { { [ { O.4.-.w./ ..0.",
"d ^ / ^ t t t r r 9 A S A F S 9 4 T ^.H X.f K U I K Z 6 7 9 A 7 3 4 r r r t A t A A A / ( 4 S 9 A A A 9 A A A n ^ 9 A S ",
"^ 9 A ^ / / / / A / ..[ 9 A | | @.{.{.R Q.,.P x v I Z [ ^ _ | ^ _ ] / S A A S A A 6 A 4 n 3 9 t A A F A 9 A A r c 9 A 9 ",
"9XwXuXpXsXsXhXhXzXjXaX5.F =.tXW.`.bXOXoXoX(.K Y ,.I @.fXiXiXpXqXtXtXtXT.qXtXwXqXo./ U.pXfXfXyXpXtXyXpXpXpXyXeXrX0X9X9XT.",
"uXiXpXsXsXsXfXhXgXaXrX*.S 5.yXtX;.M.^. X XS.T :.Y I 0.sXsXfXjXsXfXgXfXfXgXfXyX8XO.: 6.aXjXjXgXlXzXjXjXlXgXfXpXpXpXsXuXpX",
"tXyXpXpXpXpXyXyXyXfXa.{ A 6.T.tXpXwX;.@.F c T G G =.0X8X0XiXuX0X0XwXwX8XwXtXaXp.o.r O.pXfXsXfXpXrXpXpXfXaXpXpXpXtXpXyXtX",
"yXyXyXyXtXyXpXfXpXfXY...A q.9XyXtXwXiXiX0XO.+.X.+.a.uX0XwXuXiXiXtXwXwXT.8XwXfXT.o.9 ..iXsXsXsX0XY.T.T.qXrXrXqXT.rXpXpXtX",
"rXrXtXqXE.9XtXfXyXfXT...A 5.8XtXiXuXiXiXa._ O.d ` O.a.0XwXwX0XiXtXwX0Xa.Y.8XiXa.O.9 ..iXfXpXyXT.w.w.p.Y.T.U.a.p.T.yXyXwX",
"rXqXT.T.p.Y.qXyXpXpXT.*.r ;.8XtXwXwXe.^ T S.C.,.W.6XF.O.0X0X0XiXwX0X8XF.T.Y.qX7.O.7 | pXhXpXtXa.0.p.U.Y.p.p.w.w.U.qXtXwX",
"yXT.U.p.t.p.Y.qXyXpXT.=.r ;.tXyXT.O.N.}.[.R.dX6X! l.$XF.a.wXwXiXqX8X9X8X8XY.qX5.O.9 | sXgXiX0Xa.p.Y.T.rXY.p.w.p.U.qXrXwX",
"T.p.5.;.=.;.7.p.eXyXT.=.9 -.qXqXe.t.dXvX6X2.W 7X$XeX_._.V.e.wXwXqXY.a.a.8X8XtX0.4.9 o.iXsXwX8Xt.U.Y.E.tXE.w.w.p.Y.qXrXT.",
"p.w.5.;.=.o.;.w.T.9XT.;.9 o.T.Y.O.< % N J.K.F.W.F H Q. XS./ 0XwXtX8XY.t.8XY.tXe.o.7 o.sXsXwX0X8XT.T.wXyXqXY.p.U.T.wXrXqX",
"Y.p.U.a.p.0.w.U.U.qX9X0.A =.Y.t.0 % . X $.dXF.Q.,.c S.`.M.L T.tXuXqXqX9X0X9XtXw.| 7 o.sXsXtXiXtXtXqXwXsXfXyXT.T.yXaXyXrX",
"6.6.6.;.o.} { { =.*.6.;./ / =.*. .[ #.U.W.V.n.S.m.K Z ].).n.&.4.5.=.=.3.6.5.=.| =.t 6.e.o.O.#.-.6.-.=...{  ./ / [ { *.-.",
"r A S S S S S ) r r / _ A A ^ t D.W.D.A.!.M.S.m.J K v I Q.&.d t 9 9 9 9 9 9 9 6 / 1 / / 7 t t ^ A r A ^ F c t _ F A A t ",
"A D A A r r r 6 S r t t 7 r A 6 U (.M.,.).`.N.T R v 3 8 | y.s 9 ^ ^ ^ ^ t 9 F ] L F ] J J S 9 S t r 9 r A 9 9 t A A A 9 ",
"p.p.p.Y.U.p.Y.a.qXp.p.F.t.U.Y.O.C.nXoX'.A.%.,.m.I S t.9XfX/.S.J { ' @.%.A.(.XXnXbXbXbXbXbXXX].^.>.&.-.-.q.5...9 =.6.w.q.",
"rXyXpXfXgXgXjXjXaXaXgXjXjXjXfX9.m..X X.X{.!.A.U : ` cXxX8.M.M.:.L n.oXbXnX.X].).^.~.^.^.^.'. XoXbXXX`.B.5.U.5.6 t.iXgXfX",
"E.T.qXyXyXyXyXtXtXpXpXpXyXyXeX$.m V V V V k k k = _ 0Xa...A.'.Q.P n XX{.!.n.U L ] ] ] ] { @.R m.Q.{.bXoXN.[ ..9 0.pXfXyX",
"8XqXrXpXaXaXpXpXpXaXpXyXyXtXyX1.f.f.f.d.d.s.s.s.h ^ 7.t.<.`.n.G n U S.U J ' ..8XiXiXiXpXpXwXe.;.@.:.!.XXXXT ..A 8.pXfXwX",
"T.8XqXwXrXrXT.T.t.9XrXtXpXyXyXU.; ; 2 g j j g j g s e.i.u.] Y %.U <.;.0.0Xa.t.T.8X8X9XpXiX9XwX9XU.#.I Q.oX`.A 9 7.iXfXiX",
"T.8XqXqX0X8Xe.5.5.7.e.a.8XwXwX_ .   $ $ Q %Xx.v.k., X.i.!.].I.&.6.a.gXtXa.e.a.i.9X8XwXiXiX0XT.t.p.} Y ,.].].c d 3.wXiXfX",
"0X8X8XT.8XT.a.a.7.7.7.a.8XwXuXt O . * $ Q :X+X#X&XM b |.{.M.F ^ t.Y.sX0XT.t.8XqXwXtXwX9Xa.e.5.*.V.1.U ,.~.:./ r 7.uXiXsX",
"wXa.a.a.a.a.a.0Xa.i.e.e.8X0XwXkX8   y $ Q ;X=X:X*Xg.; !.B.} 8 [ i.0XsX8Xa.i.a.0Xt.3.#.&.B././.(.n.Y >.V.<.o.o.t 8.iX0XwX",
"0X8XT.0X0X8XT.T.8Xa.a.a.Y.8X0X3 X   y $ Q ;X,X<X5Xc.; L =.3.t { a.tXsXa.8X0.;.1././.).~.I.B.>.&.o.5.0.a.wX8.X.9 e.wXY.8X",
"0X0X9X8X0X0XT.0.a.a.a.Y.Y.0X0X  X   y $ Q ;X<X<X5Xc.- / 8X3.7 _ a.wXsX8XqXa.D.V.1.<.5.5.6.5.7.a.8X8X8X8X0X7.| t t.iXT.T.",
"8X9X8Xa.a.a.i.7.8.t.t.t.t.t.7.    O y 2 h.;X<X<X5Xc.l ( qX3.7 { a.qXsX0X0X8Xp.p.0XT.8XwXqXa.a.8Xa.8XT.a.0X7.o.t e.wXT.T.",
"T.8XT.a.a.p.w.e.t.t.t.t.t.t.8.8   % u l %X<X<X<X5Xc.B b wX6.8 =.T.8XsXiXtXqXqX8X8Xa.a.8X8X8XT.9XT.8X0X8X0X7.O.S e.wXa.T.",
"qX9XwXwXT.a.p.8XT.8X8X9X0XuXuX(   % u N -X<X<X1X2Xc.B l wX6.9 =.p.T.jXfXsXsXjXhXhXfXsXpXpXsXpXiXyXsXiXtXtX7.| r e.iXY.Y.",
"8.a.7.4.5.5.-.-. .O.#.5.0.r.X X . % u ~ ,X<X:XL.x.j.l < 9X6./ o.sXwXiX8X7.6.6.0.0.0.e.e.e.e.a.0.p.p.T.T.a.a.-.7 p.tXY.tX",
"_ _ ) / / A r A n s d ^ ^ ^   X   $ y z.<X<X2XL.H.L.k., { ( ^ 4.o./ _ A r t r S t t S A ^ ^ ^ ^ r r S / / | { 7 O.-.[ { ",
"A 3 9 t 9 9 S S s t 9 9 t t o . O i - @X<X<X1X>X4XP.J.M 7 7 1 t t 9 6 6 t t 3 A 9 7 7 7 7 6 3 3 r 6 3 5 3 r t 3 7 r 1 1 ",
"S 9 5.8X9Xa.T.t.F.e.t.t.e.e.& X O i - @X<X<X<X<X5X3XP.M | 7.3.5.-.4.-.-.6...r { 7.5.;.5.5.5.4.7.0.6.6.q.6.0.w.0.w.w.5.-.",
"..F T.jXxXzXxXgXlXlXlXjXlXzXo X # y z #X<X<X<X<X5X3XP.B #.jXjXxXhXlXjXfXpX6.) 0.rXyXyXpXfXsXpXhXfXpXpXfXgXfXaXgXyXyXyXrX",
"5.^ t.tXfXfXxXzXpXpXpXyXtXtX. . i @ k.:X<X<X<X<X5X3XH.B M q.tXwXyXpXyX9XU.[ r 5.rXaXaXpXfXfXpXgXfXfXaXpXaXyXwXpXfXpXaXT.",
"5.S U.yXjXgXfXyXfXfXfXaXaXpX+ % y z k.%X,X<X<X1X2XJ.g.f.g.! uXqXT.Y.U.U.t.{ S 6.U.pXaXrXyXyX9XtXtXpXtXrXyXyXwXyXY.p.wXt.",
";.^ Y.9XjXgXpXtXrXrXtXtXtXuX$ 2 W +X%XH.2X1X,X2XL.x.c.L.c.W 9X9XT.e.e.T.U.../ 5.0.pXfXtXaXaXyXaXtXpXtXqXyXrXa.E.Y.U.pXT.",
"../ a.0XjXpX8Xa.9X9XwXqX9XwX0Xh.-X<X<X,X5X1X<X5X=XL.3XJ.g.#.8.t.t.e.e.8Xt.O.7 8.w.yXsXiXiXyXaXyXpXwXT.E.tXqXT.T.T.T.tXY.",
"..) t.8XhXuX9Xt.8X8X8XT.T.T.9X9Xv.:X<X<X<X<X<X<X:X&Xc.Q #.T.e.a.a.a.i.T.t. .9 0.0.wXtXtXyXaXaXtXqXT.T.T.qXT.T.T.T.T.wXp.",
"../ a.9XfXtXT.t.a.a.a.a.a.U.T.T.9X$.h.+X*X*X%Xv.g.N #.T.9XT.t.8X8X8X8XT.e.o.r 8.p.tXyXyXaXyXyXT.p.U.U.p.Y.p.Y.T.T.E.tXU.",
"| ^ t.9XsXwXa.e.0.e.p.T.9X8XT.t.9XtX@.x C b.C : { t.yX8XT.t.e.t.8XwX0X8Xe.O.r 8.a.aXyXtXyXtXqXw.w.w.p.p.p.p.U.T.T.T.tXY.",
"_ ^ a.T.pX8X0.6.5.5.0.p.T.qX9XY.T.rXM.> G.|.A.8 O.9XtX8XY.a.w.e.Y.0X0X8Xe.O.t 7.w.tXwXqXtXqXT.0.w.w.w.p.w.p.p.p.T.Y.rXU.",
"_ / t.T.uXe.5.O.-.-.-.7.p.Y.T.T.Y.Y.% o %.%.G 7 -.qXtX8XT.T.p.U.Y.8X0X8Xi.=.t 7.p.yXrXqXT.T.U.0.w.t.w.w.t.t.p.w.p.p.T.p.",
"{ / a.U.tXe.5.-.6.-.=.-.7.p.U.U.p.e # 0 a q & 1 ;.wXtXY.Y.T.T.T.8X8X8X8Xt.=.t 0.Y.aXpXwXT.E.U.w.w.p.p.w.q.w.w.t.p.p.T.t.",
"{ / a.U.rXa.7.6.0.6.-.6.0.p.t.t.D.p p + p a u $ q.wXtXU.a.Y.T.qXwX8XY.9Xt.=.A 8.p.pXyXqXY.U.U.p.6.p.U.p.6.q.w.p.U.U.T.p.",
"o.S a.8X9XtXtXT.w.F.a.a.T.T.qXqX7.e % O w a & % 6.yXlXyXY.T.qXT.0X0XiX0XT...9 0.qXfXaXrXwXtXtXrXE.qXyXqXa.t.U.U.p.p.p.t.",
"=.[ T.a.5.-.;.5.-.5.6.6.6.7.q.0.& 0 q f f w % % q.t.w.q.q.w.w.0.t.5.=.=.e.5.^ 5.t.t.q.6.F.t.0.6.5.q.t.0.;.5.q.6.w.0.w.t.",
"[ / ;.{ S A A ) S S S S S S r 0 w f f e & % + % ] A r A S / / S ) A A 9 [ | t ..) A 9 F [ / A ^ S A S S A S / S ) [ _ } ",
"A 9 r 9 9 A 9 S t A A t r t 4 & & & + o o o o < r 6 6 r A r 9 r 1 7 t 8 t r 3 / c 9 6 A S 8 6 ^ A r A A r A A r 6 6 6 r "
};
