/* XPM */
static char *__removebg_preview__1_1673946204[] = {
/* columns rows colors chars-per-pixel */
"60 60 225 2 ",
"   c #0F0E0F",
".  c #0F0F12",
"X  c #121213",
"o  c #1A1817",
"O  c #231A11",
"+  c #34330D",
"@  c #232014",
"#  c #2B2814",
"$  c #2A2D14",
"%  c #362817",
"&  c #343717",
"*  c #0B1229",
"=  c #071936",
"-  c #14183B",
";  c #291E28",
":  c #2A1C35",
">  c #122433",
",  c #292629",
"<  c #33292D",
"1  c #352C33",
"2  c #382E35",
"3  c #32243B",
"4  c #382E39",
"5  c #2E3334",
"6  c #393235",
"7  c #3C333A",
"8  c #383439",
"9  c #4A3214",
"0  c #673E1F",
"q  c #4D3B26",
"w  c #40353C",
"e  c #463838",
"r  c #41383D",
"t  c #46460B",
"y  c #474414",
"u  c #594C17",
"i  c #644F19",
"p  c #584B35",
"a  c #7D4D28",
"s  c #654B31",
"d  c #071858",
"f  c #131253",
"g  c #0C2B4F",
"h  c #28294C",
"j  c #3A2747",
"k  c #3B264A",
"l  c #373446",
"z  c #241E67",
"x  c #0C3564",
"c  c #013D78",
"v  c #2D2A6D",
"b  c #422C4D",
"n  c #443B42",
"m  c #493D47",
"M  c #48394E",
"N  c #442D53",
"B  c #482E58",
"V  c #4B3855",
"C  c #4C325D",
"Z  c #53335B",
"A  c #4E3361",
"S  c #523665",
"D  c #563A69",
"F  c #563B69",
"G  c #593C6E",
"H  c #5D3D72",
"J  c #5F3E78",
"K  c #613F77",
"L  c #34445C",
"P  c #0B4676",
"I  c #124170",
"U  c #314E72",
"Y  c #4A4146",
"T  c #4D444A",
"R  c #4D4C4E",
"E  c #524749",
"W  c #534A4F",
"Q  c #5F564E",
"!  c #554B53",
"~  c #584E56",
"^  c #55465A",
"/  c #5A4E59",
"(  c #5B5256",
")  c #5C5659",
"_  c #5E545A",
"`  c #6A524D",
"'  c #60565D",
"]  c #62595E",
"[  c #756055",
"{  c #716A56",
"}  c #5B4967",
"|  c #51596A",
" . c #5F4175",
".. c #625764",
"X. c #645B61",
"o. c #685F65",
"O. c #695F69",
"+. c #64437B",
"@. c #68477B",
"#. c #68467E",
"$. c #6B5074",
"%. c #6B5875",
"&. c #696165",
"*. c #696466",
"=. c #6C626A",
"-. c #70666C",
";. c #72696D",
":. c #77706D",
">. c #676777",
",. c #716774",
"<. c #756B72",
"1. c #786E76",
"2. c #767276",
"3. c #7A7175",
"4. c #7D747A",
"5. c #827129",
"6. c #867C5F",
"7. c #8E6B7E",
"8. c #80777D",
"9. c #81797D",
"0. c #0E1083",
"q. c #1F2188",
"w. c #03468A",
"e. c #0B5583",
"r. c #095495",
"t. c #126798",
"y. c #3D6295",
"u. c #0052A3",
"i. c #0156AB",
"p. c #0365BE",
"a. c #1473B0",
"s. c #47488A",
"d. c #674481",
"f. c #6A4783",
"g. c #6D4988",
"h. c #714C8E",
"j. c #6F5481",
"k. c #745886",
"l. c #754E92",
"z. c #7A4F9D",
"x. c #765194",
"c. c #7A5496",
"v. c #7C529C",
"b. c #526887",
"n. c #767087",
"m. c #7D52A2",
"M. c #0167CE",
"N. c #0F7ACF",
"B. c #006BD5",
"V. c #0474D8",
"C. c #2B70C4",
"Z. c #006FE0",
"A. c #0175E6",
"S. c #027EFD",
"D. c #81579D",
"F. c #857C82",
"G. c #827984",
"H. c #887F84",
"J. c #896F99",
"K. c #8155A4",
"L. c #885AAB",
"P. c #8C5CB1",
"I. c #915FB6",
"U. c #8668A1",
"Y. c #9363B2",
"T. c #9462BC",
"R. c #9C73B9",
"E. c #9C65C6",
"W. c #9D67C7",
"Q. c #A874C5",
"!. c #A66DD4",
"~. c #A96ED6",
"^. c #AD73DA",
"/. c #B375E4",
"(. c #B776EB",
"). c #BA79EE",
"_. c #BD7BF3",
"`. c #C37EFA",
"'. c #2288AA",
"]. c #268FB6",
"[. c #7586B3",
"{. c #1886CA",
"}. c #1E92D7",
"|. c #269BCD",
" X c #2AA2CF",
".X c #34B2CD",
"XX c #2AA7D8",
"oX c #30AFD9",
"OX c #35B5D4",
"+X c #38B8D0",
"@X c #39BCD2",
"#X c #32B3D9",
"$X c #148EF0",
"%X c #229AE4",
"&X c #24A1E6",
"*X c #29A6E4",
"=X c #7B9EDB",
"-X c #4C8DE4",
";X c #8B8186",
":X c #8D848A",
">X c #908887",
",X c #90878D",
"<X c #93898E",
"1X c #98908F",
"2X c #918790",
"3X c #958C92",
"4X c #988F95",
"5X c #9A9195",
"6X c #9D939A",
"7X c #A0979F",
"8X c #A2999E",
"9X c #9284A7",
"0X c #A59CA1",
"qX c #A89FA5",
"wX c #ABA1A6",
"eX c #ADA4AA",
"rX c gray66",
"tX c #B0A7AD",
"yX c #B2A8AF",
"uX c #B4ABB1",
"iX c #B9AFB7",
"pX c #BFB6BB",
"aX c #8A99D5",
"sX c #C581FD",
"dX c #C983FF",
/* pixels */
":.3.;X>X>X1X>X>X8X8X8XwXwXwXtXyXeXtXeXwX0X7X3X8X1.w ' _ &.:X6X:X6X6X0X0X0X6X6X6X6X6X4X4X..=.,X2XF.H.>X;X;X9.9.;.;.m &.H.",
"1X8X8X8X0X0X8X8X8X8X8X8X0X0X8X8X8X8X8X8X0X7X8XqX8.2 3 h.j.F.eXwX0X0X0XeXeXqX0X0X7XqX6XG.m o.0XqX8XwXwXwX8X8X8X8X3.! ;.<X",
"1X1X1X1X1X8X5X5X<X<X<X5X5X1X5X5X5X5X1X<X4X<X<X6X+.j v.I.H F.qX6X6X6X4X7X7X0X6X6X6X0X6X%.7 W 7XeX3X5X5X6X1X<X1X1X;.e =.>X",
">X;X;X;X>X>X>X>X:X:X<X6X8X8X8X8X5X5X5X5X6X3X<Xj.C j ~.f.S 5X0X3X3X,X,X,X2XH.H.2X2XH.4X8.T n :X0X3X<X<X1X4X5X1X8X;.e &.;X",
">X>X9.9.;X9.8.<.8.8.9.>X3X,XH.H.;X:X,X3X6X5Xn.G j l.T.k e 7X6X<X9.8.8.8.G.8.H.H.H.H.6X7./ n ,X6X;X8.9.9.<X>X<X1X;.e -.>X",
";X9.9.8.8.6.<.=.;.;.:.8.8.4.1.;.1.4.4.;X3X1XK C b W.x.: y 3X3X:X=.%.-.1.<.1.G.,XH.H.6X<.W ! 6X7X>X8.8.;X8X8X1X8X=.r o.;X",
"9.6.:.:.8.9.9.3.<.;.3.4.F.8.4.1.4.4.9.;X3X%. .3 v.!.H B : 3X<XH.<.<.G.F.F.F.,X4XH.H.3X,.m W 4X6X>X8.<.H.3X3X1X1X<.Y -.>X",
"8.-.&.&.:.9.9.9.3.<.1.4.4.4.<.;.3.3.3.8.:X+.D 3 z.K.S N B G.H.4.<.<.8.H.H.H.,X3X2XF.H.G./ E :X7X>X8.8.,X6X3X<X4X;.m =.>X",
"8.8.:.:.3.3.3.3.8.9.8.3.4.,.=.;.<.3.3.8.%.+.A k K.G A 3 K.2X;X4.4.4.G.H.H.H.>X2X2X,X:XO.~ ! 4.4X>X9.8.;X4X3X,X2X<.m 1.5X",
"9.9.8.8.8.4.3.;.9.9.4.3.<.=.=.<.;.<.3.&.4 N 3 A I.C k f.c.3XF.9.F.F.8.F.G.G.H.;XH.,X6X=.n ! 2X6X<X9.9.H.<X,X>X>X-.r &.:X",
"4X4X1X5X5X3X:X;X4.G.;X:X2X:XG.G.H.H.} f.K.h.A N d.j d.l.5X3X<X3X4X2X2X3X0X6X3X6X4X3X6X<.w m 3XH.3X;XH.;X<X4X4X6X8.E o.H.",
"] &.&.&.&.X.] _ X.! T W ! ! ! Y m x.~.Q.k.G S K j N D &.3.3.3.4.4.4.<.;.O.../ ! ! T ..o.T 2 X.Y / / / ~ / ..o.o.1.M ] ;.",
"E Y T Y n n r w 7 l n M n m m 4 +.L.Z ` p A S S C k < Y 6 r n 6 2 2 6 7 w n n 7 n w n T T 4 m w w n n w w n n l m 7 n m ",
"m e e m Y T T T r E _ ! 7 n ^ } /.W.K D.#.C j k S k ( ! Y ! ~ Y ! ! T T n n m m n 4 n 2 7 1 7 l n n m n n n w n 7 w w l ",
">X<X3X6X6X8XwXwXuXeX7X=.n ..3XQ.`.dX`.(.P.N K K S $.wX8X5X5X6X,X3X2X,X:X,X2X3X:X_ m H.6X0X0X6X5X4X3X4X6X4X4X3X,X:X:X:XH.",
"4X6X8X8X8X8XwXqX0X0X2X..m =.4X%.l.I./.~.h.G K S } 4.5X8X8X8XeX8X0XqX0X0XqX0X3XH.o.; =.0XrXeXwXtXyXtXeXtXqX0X6X6X6X6X4X6X",
"4X4X6X6X6X7X6X3X4X7X8.^ n ,.H.4X1X-.} b k G B Z O.5X<X;X>X1X1X1X>X,X3X:X,X2X8X4.] e ) 6X8X6XwX6X2X4X0X0X7X0X6X4X4X6X4X3X",
"4X4X4X4X2X3X7X0X6X0XH.' m <.H.4X1X1X5X;.E [ p Q :.6X1X>X<X1X1X1X3X3X,X;X;X<X8X;X) 7 _ 6XwX6X6X<XH.H.H.H.2X3XH.H.2X6X4X4X",
"2X2X2X2XH.H.3X0X6X0XF.' n =.H.4X5X5X8XW e ` e p Q >X<X>X<X<X1X1X5X:X>X4.;X>X5X4.] 7 ) 6XwX6X5X;X1.8.G.F.F.F.G.G.H.4X3X2X",
"2X2XH.H.G.H.:X4X6X6XF.] w =.H.3X<X_ 6 #.v.h.@.[.=X>.*.;X<X>X<X5X3X:X:X8.F.n.<X;.] 7 ) 5XwX6X3X4.,.1.G.G.G.4.1.1.F.,X3X2X",
"3XH.G.8.1.7.F.,X4X6XH...w O.,X4X~ x.^.Q.J.9X[.L y.[.2.4.5X3X<X5X,X;X;X;X;XF.>X=.] 7 ( 6XwX5X:X4.7.F.:X:XH.8.1.4.F.,X2X,X",
"H.G.=.X.o.O.;.8.2X3XH.o.w o.H.3XF.9XaX=X| U -X[.9XR.R.j.<X1X:X3X,XF.F.9.;X;X3X,.X.7 ] 6X0X<X;X4.G.H.,X<XH.1.1.8.G.,X2XH.",
"G.<.=.O...' O.8.H.H.H.O.w ] H.] , , x M.C.n.n.l S P.^.g.*.2X>X<X3X;XF.9.;XF.3X3.] e ) 6X8X>X:X;XH.H.,X3X2XG.8.G.H.2X2X>X",
"F.8.G.F.8.<.1.G.H.,XH.<.n X.F.9     o | =XU.v. .k L.T.+.} :X3X3X5X>X:X;X<X:X3X3.( 6 ] 6X0X5X1X5X3X2X2X6X0X4XH.H.6X6X4X2X",
"-.-.-.O.] / ~ / ..' -.=.T T ..Q R *.H.J.g.f.z.d.k S ~.P.d.X.=.-.=.&.X.&.;.&.X.( X.n -.3.) ] X.&.-.O.X._ ~ ! T m ~ ~ ..o.",
"w n m m m m m m n n T ! n n M n.J.k.v.P.h.K.K B A j J D./ e 4 n 7 7 7 7 7 7 6 6 T , Y E 7 r r Y n 7 n m m n n ! m n n e ",
"n m n n w 4 w w m w n r 2 w 2 K Y.d.#.E.I.g.G G k 5 m T a s 7 7 Y Y Y Y Y Y Y Y T 7 T Y r Y 7 Y w 6 l n r w 7 l n n n 4 ",
"1.G.G.8.F.F.9.F.H.9.9.n.4.G._ L.dX_.T.l.H f.g.B Y 4X6X4XR.h.V m 9.9.;XF.F.9.9.:X;X9.:XF.;X:X4.4.1.4.;.X.<.=.' 2 _ ,.4.1.",
"2X4X6X0XqXqXqXeX7X7XqXqXeXqX| m./.^./.~.K.l.A * 9.iXpX,.k.j. .R <X5X6X8X0X0X0XwXwXeXeXwXeXtX0X0X4X6X4X:X4XF.O.4 4.6X0X7X",
"H.H.2X4X4X4X4X3X3X6X6X6X6X3Xv z v z z z z f f * 3.H.3.^ m.W.v.V 2.:X6XrXwX0X0X0X5X:X;XF.;X3X6X6X6X6X4X6X0XO._ 2 <.5X0X5X",
"H.2X2X6X6X0X7X6X0X7X0X4X3X3X} q.q.q.q.0.0.0.d f ;.:.3.%.W. .B j j ^ d.l.x.x.x.x.!./.^././.T.c.k.,.:X3X4X0Xo...r ;.6XqX3X",
"H.H.,X2X2X2XH.F.n.H.:X2X6X6X;.- - - - d d d d = { &.6.:.^ J L.^.(.).sXsX).).)._.(.).(._.sXsXsX`.(.L.X.G.4X-.-.7 ;.8X8X3X",
"H.H.<X>X>XH.8.o.-.-.1.8.H.,X<   . & $ P {.u.'.r.= ] F.I./.`.dX`./.E.P.l.#.#.#.#.#.@.#.g.D.W./.`.sXsXh.<.<X1.] e &.<X5X8X",
",X>XH.H.>X9.9.9.:.-.;.8.H.1X7 X . y $ P oX'. Xp.> E.`.dX`.^.T.l.K S D ' ] ] ;.;.;.;.X.' ! ^ #.I.).dX).} <X;._ 7 ;.5X5X8X",
"<XH.F.H.9.9.9.>X9.9.8.6.;X<XrX< . y $ e.OX}.OX].h K.~.I.h.G V V ' 9.8X;X9.8.9.1X4X7X1XH.9.] ^ H v.).dXh.<X<.' e <.5X>X1X",
">XH.H.H.>X>X9.9.9.9.8.9.9.>X, X . y $ e.+X#X+X&Xx B H Z } _ 7 ( 9.<X8XH.9.9.9.<X>X1X1X,X;X9.' } f./.(.} <X<.' e 3.1X9.;X",
";X>X;X>X,X,X9.8.9.9.9.9.9.9.X X . y $ e.+X@X@X&Xw.* M ' :Xo.6 W 9.<X8X;X>X9.9.9.<X<X1X6X<X9.' } K._.P.&.>X*.( w 3.5X;X;X",
";X;XH.9.9.9.8.;.:.:.9.9.4.R   X o t > t.+X@X@X&Xu.g E H.,X=.6 ~ 9.>X8X>X<X;X8.9.>XH.H.<X>X;.V g.(.~.} 9.>X;.' n 3.1X9.;X",
";XH.H.9.9.8.3.8.9.3.6.3.9.2., X + t x |.+X@X@X&Xi.c l H.<X;.7 ' H.H.8X4X1X,X>XH.H.9.8.H.;.m +.!.^...;X:X<X;.] Y 3.<X9.;X",
",X>X<X<XH.9.9.9.H.H.[.;X>X6X8 . + + c .X@X@XXX$Xu.c g 9.3X;.7 ] 9.H.eXqX8X8XtXqXqXqX0X4...f.W.I.O.5X5X<X5X;.( 7 3.3X;X9.",
"3.9.;.&.-.=.&.&.' ] *.*.<.o . . $ t t.@X@XXXV.u.w.g , <X:X;.T _ 8X<X6X;X;.;.;.<.;.<.=.} K.W.#._ 4.8.;X;X8.8.o.6 9.3X9.4X",
"T ! T T Y n r 7 r e 7 Y Y . X X t & '.@X@X$XA.{.A.w.= ) ( R Y o._ E T n w w w m w e m +.} n n n w w Y Y T _ ~ 6 ] &.! ( ",
"r 2 6 r 7 6 Y Y Y r r 7 r X . @ t > ].@X@XOX#X&XS.B.g 1 7 6 < n n 6 4 4 r r 1 n 7 6 N 6 6 4 1 2 2 2 < 3 1 7 r 1 w w ; 1 ",
"Y 7 =.:X:XF.F.n.4.4.4.4.` % . @ t > ].@X@X@X@X&XS.A.g _ =.;.&.&.o.O.o.o.;.( w / ;.=.=.=.&.&.&.=.7.-.-.,.;.<.1.<.1.<.=.o.",
"_ m H.eXiXyXuXeXyXtXyXrX( X X + & x ].@X@X@X@X&XS.Z.I 1.rXrXeXuXqXtXeX0X4X;.W <.2X4X3X6XwX0X6XqX7X7X7X7X0X0X7X0X4X4X4X3X",
"=.T 4.2X7X0XyXyX7X6X6X4XT X X u > i.@X@X@X@X@X&XS.M.P U 2X,X,X,X5X6X4X:XG.~ w O.2X7X7X7XqX6X6XqX0X0X7X6X7X4X2X6X7X6X6XH.",
"O.m F.4XtXqX7X4X7X7X0X7XR @ + & g i.{.+X@X@XoX$XV.q.w.w.2.4X5X>XH.F.G.G.4.~ Y ;.n.0X7X2X6X3X:X3X4X6X3X3X6X3X2X6XF.G.,X8.",
"O.T F.:XrXqX7X3X2X3X3X3X4X& 5 P ].{.N.%X#X@X$XV.u.M.B.i.n.;X:X;XH.3.3.F.9.' m =.,.6XqX3X6X7X3X0X3X6X3X2X6XH.F.F.F.F.6XF.",
"_ T 9.>XeX6X:X4.:X>X<X,X,X<.t..X@X@X#X*X#X@XoX}.A.S.B.b.,X8.1.3.8.3.3.;X8._ 6 <.1.5X8X3X6X3X7X4X6X2XH.:X2X2XH.H.H.H.4XG.",
"' T 9.:XwX4X;X4.;X;XH.H.F.H.>Xa.XX@X@X@X@X@X@XXXN.i.b.<X>XH.8.9.9.8.9.9.8.` 7 :.<.3X1X3X3X0X7X3X2XH.H.H.H.H.H.H.H.F.2XG.",
"( T 8.;X0X4X;X4.8.9.9.9.G.F.F.2.| t.'.XXXX{.t.c L 2.3X>X:XF.8.F.;X>X;XH.3.] 7 :.4.3X4X3X7X6X3XF.G.G.G.4.G.F.H.H.H.H.,XG.",
"( T 8.;X6X<X9.3.1.1.8.H.;X;X;X9.,.G : v s.h l 4 X.H.3X;XF.8.3.4.;X>X>X;X3.] r ;.4.0X4X4X4X3X>X4.<.1.4.F.7.H.n.H.H.H.3X8.",
"! Y 4.;X6X;X1.-.=.-.;.8.H.>XH.H.H.g.3 P.~.h.e w X.:X3X;XH.8.1.3.F.>X>X;X3.X.e ;.4.3X,X,X3X<XH.<.1.,.1.1.1.4.4.8.G.H.2XG.",
"W Y 9.F.1X4.*.] O.X.o.;.8.H.H.H.X.; O @. .b T e o.,X4XH.H.H.8.F.9.;X>X;X4.] e ;.4.4X2X,X:XH.F.<.4.4.4.1.1.4.4.4.G.4.>X8.",
"~ T 8.F.2X4.*.o.-.o.X.o.<.8.8.9.p # 9 i 9 % E 7 =.2X3XF.F.H.G.:X;X;X;X;X4.X.7 :.H.7X6X,X;XG.n.1.,.4.4.4.,.1.4.4.8.8.H.4.",
"~ T G.F.2X4.,.;.<.-.O.=.<.8.8.8.i y @ i i t W w ;.3X3X8.8.F.H.H.<X;X;X;X4.&.7 3.4.6X4X,XG.G.G.4.<.G.H.4.<.;.4.4.G.F.H.4.",
"_ n F.:X;X3X4XH.4.4.G.G.9.>X,X1.9 % O 0 0 # W w <.6XtX4XF.H.2XH.>X<X5X:XF._ 7 <.<X0X0X2X<X3X3X2XG.,X4X2Xn.8.9.F.F.4.8.8.",
"&.! H.4.=.o.O.O.O.O.=.=.=.;.<.% % 9 a a q % W e <.4.1.<.;.4.4.<.4.*.X.X.4.&.Y =.4.4.,.=.4.n.1.,.-.<.4.<.=.=.;.;.<.<.1.4.",
"! T =.~ m n n T n m T m n 6 9 0 5.i q % O O w e ~ m 4 n m T T m T Y n 7 ~ ( r ] ~ m 7 m ! T n m m n V m n m T m W ! ! / ",
"n 7 n 6 7 n 7 m w n n n w w < % ; o o o X o w < 7 2 2 w n w 4 w < 6 r 8 r 7 1 Y 7 6 4 l m 6 4 m n 8 n e w n n w 4 4 4 w "
};
