/* XPM */
static char *__removebg_preview__1_1673946205[] = {
/* columns rows colors chars-per-pixel */
"60 60 230 2 ",
"   c #0D0D0F",
".  c #0F0F12",
"X  c #120F13",
"o  c #121213",
"O  c #1A1916",
"+  c #2A1D15",
"@  c #1E261B",
"#  c #282414",
"$  c #302C11",
"%  c #372819",
"&  c #393A13",
"*  c #0A0D2B",
"=  c #091833",
"-  c #14163A",
";  c #251C26",
":  c #2C1D36",
">  c #08223B",
",  c #1E213F",
"<  c #272327",
"1  c #34272D",
"2  c #2F3C25",
"3  c #282C36",
"4  c #342A32",
"5  c #382E34",
"6  c #36233D",
"7  c #392D39",
"8  c #393235",
"9  c #3C333A",
"0  c #373838",
"q  c #413D0B",
"w  c #463718",
"e  c #55341A",
"r  c #433529",
"t  c #4A3A35",
"y  c #40353C",
"u  c #41383D",
"i  c #513D3F",
"p  c #47460B",
"a  c #4C4C10",
"s  c #574B16",
"d  c #67521A",
"f  c #574E34",
"g  c #734A27",
"h  c #796733",
"j  c #071959",
"k  c #181656",
"l  c #072342",
"z  c #15334A",
"x  c #042F5B",
"c  c #2B2E4A",
"v  c #3A2746",
"b  c #241E66",
"n  c #04376B",
"m  c #19366F",
"M  c #003D7A",
"N  c #4A1A4D",
"B  c #433344",
"V  c #443B41",
"C  c #493D47",
"Z  c #432C54",
"A  c #482E58",
"S  c #4F3751",
"D  c #4B315B",
"F  c #513556",
"G  c #4F3461",
"H  c #523665",
"J  c #55366E",
"K  c #563A6A",
"L  c #5A3C6D",
"P  c #5D3D73",
"I  c #623971",
"U  c #623D78",
"Y  c #384259",
"T  c #03407A",
"R  c #154075",
"E  c #4A4146",
"W  c #4D444A",
"Q  c #4C4C4E",
"!  c #564A4B",
"~  c #53494F",
"^  c #464755",
"/  c #5F4356",
"(  c #554B53",
")  c #584E56",
"_  c #5A4F58",
"`  c #5B5255",
"'  c #5E545A",
"]  c #68554A",
"[  c #6E4E56",
"{  c #60565D",
"}  c #62595E",
"|  c #796052",
" . c #575866",
".. c #55536C",
"X. c #66476A",
"o. c #655567",
"O. c #645B61",
"+. c #685F64",
"@. c #695F68",
"#. c #745C67",
"$. c #64427B",
"%. c #69457A",
"&. c #78477F",
"*. c #6D5677",
"=. c #755779",
"-. c #7B547D",
";. c #6A6165",
":. c #676768",
">. c #6C626A",
",. c #766067",
"<. c #70656C",
"1. c #72696D",
"2. c #77706D",
"3. c #6C6672",
"4. c #726372",
"5. c #756B72",
"6. c #786E76",
"7. c #7A6A7A",
"8. c #7A7175",
"9. c #7D747A",
"0. c #824F29",
"q. c #846A68",
"w. c #836B77",
"e. c #80777D",
"r. c #81797D",
"t. c #88797C",
"y. c #A38B3A",
"u. c #A7834E",
"i. c #0D0F83",
"p. c #1E2188",
"a. c #6B3788",
"s. c #024688",
"d. c #004C9B",
"f. c #0A5992",
"g. c #146794",
"h. c #33639E",
"j. c #0154A4",
"k. c #015AB4",
"l. c #1172AD",
"z. c #694782",
"x. c #6E498A",
"c. c #744A8A",
"v. c #785786",
"b. c #764E94",
"n. c #7A5195",
"m. c #7C529C",
"M. c #516696",
"N. c #786987",
"B. c #747090",
"V. c #7F53A1",
"C. c #0163C6",
"Z. c #016CD7",
"A. c #0673D7",
"S. c #017BED",
"D. c #007DFA",
"F. c #855D88",
"G. c #935D8A",
"H. c #87599A",
"J. c #866685",
"K. c #926F8F",
"L. c #837581",
"P. c #857C82",
"I. c #887F84",
"U. c #8B788A",
"Y. c #8A699A",
"T. c #97799B",
"R. c #8256A3",
"E. c #885AA9",
"W. c #945FA2",
"Q. c #8D5CB4",
"!. c #8E5DB8",
"~. c #956BAC",
"^. c #9564B9",
"/. c #A876B4",
"(. c #9A64C4",
"). c #A169CB",
"_. c #AD76CE",
"`. c #A56CD3",
"'. c #AD6ED4",
"]. c #AD79D5",
"[. c #AE72DD",
"{. c #B073DF",
"}. c #B274E2",
"|. c #B878EC",
" X c #BD7BF2",
".X c #C57FD8",
"XX c #C07DF6",
"oX c #C37FFA",
"OX c #1782BF",
"+X c #2691B5",
"@X c #2EA0BC",
"#X c #6B8097",
"$X c #7885AC",
"%X c #1A8BD2",
"&X c #2FABCE",
"*X c #2AA6D5",
"=X c #35B5D6",
"-X c #39BBD2",
";X c #1088EE",
":X c #1E9AE9",
">X c #0383FD",
",X c #249FE4",
"<X c #2AA8E1",
"1X c #6494DC",
"2X c #8B8186",
"3X c #8D848A",
"4X c #908887",
"5X c #90878D",
"6X c #938A8E",
"7X c #928491",
"8X c #958C92",
"9X c #988F95",
"0X c #9A9195",
"qX c #9D939A",
"wX c #9A9A9B",
"eX c #A0979F",
"rX c #A2999E",
"tX c #9087AF",
"yX c #A59CA1",
"uX c #A89FA5",
"iX c #B785B8",
"pX c #ABA1A6",
"aX c #ADA4AA",
"sX c #B0A7AD",
"dX c #B2A8AF",
"fX c #B5ACB2",
"gX c #8F9DD4",
"hX c #C285EE",
"jX c #C681FD",
"kX c #C983FF",
/* pixels */
"2.8.2X3X6X6X6X6XrXrXrXpXpXaXsXdXpXsXpXpXyXqX9X0X8.u | 8X0X6X0X6XqXeXeXyXyXqX0XqXqXeX9X9X} >.5X6XP.2X4X2Xu.#Xr.8.1.E ;.u.",
"0XrXwXeXpXwXrXrXrXrXrXrXrXrXrXrXrXyXrXrXuXwXrXpX6./ /.0XrXqXsXyXyXyXuXpXaXuXyXyXeXuXrXN.E ;.yXpXrXpXaXaXtXuXrXrX8.W 1.6X",
"6X0X6XwX0X0X0X0X6X6X8X0X0X0X0X0X0X0X0X4X0X8X6XG.v Q.E.K.0X9XrXrXqX9X0XqXeXeX9X9XqXqXqX<.v ~ eXaX8X0X0X0X0X6X6X0X>.E ;.2X",
"4X2Xu.7X4X4X4X4X3X3X6X0XrXrXrXrX0X0X0X0X0X6XK.Z D `.U K.rX0XrX9X9X5X6X6X7X7X3X7X8X3XwX6.W V 3XyX6X6X4X0X6X0X0XrX>.f ;.2X",
"4X4Xu.2Xu.#Xt.2.r.8.2X5X8X3X2XI.3X4X6X8XwX0XK v H.Q.v w.rXqXqX5X9.9.N.r.N.9.L.3X5XP.qX9.` V 7XqX4Xt.8.2X4X0X6X0X<.i :.3X",
"2XB.B.8.B.N.2.1.<.:.1.r.9.9.6.1.8.8.9.2X9XJ.A A ).a.; s rX9X6X3X>.>.2.8.6.8.P.7X3XU.qX5.( ( qXqX4Xt.8.2XrX0X0X0X;.u ;.3X",
"r.2.1.5.B.u.r.2.2.5.8.9.2X9.9.6.9.9.r.2XK.K : Q.(.J Z : rX0X6X2X1.6.9.P.u.B.3X9X2X2X7X1.W ( 9XqX4X6.2.2X0X6X6X0X5.E :.4X",
"8.2.:.:.6.9.t.r.8.6.6.9.9.9.5.<.8.8.8.9.P H : Q.n.H Z G.yX0X2X8.6.6.9.#X7X7X7X8X3XL.5X9.( W 2XeX6X9.9.4X0X0X4X0X5.E >.4X",
"9.N.8.8.8.8.8.8.e.r.9.8.7.5.>.5.5.6.9.5.$.A Z E.H D 6 iX8X0X3Xr.8.9.N.7X#X3X2X8X8X3X3X@.( ( 9.9X5X8.8.3XwX8X5X6X5.W 5.6X",
"#Xu.r.9.r.9.8.2.r.r.9.8.5.<.>.5.1.5.4.6 A : P E.A v b.T.8X8Xt.r.I.P.u.B.P.I.I.7XI.5X9X,.V ( 8XqX8X2X9.2X7X3X3X3X1.u ;.5X",
"0X6XwX9X9X6X3X3XL.L.I.7X7X3XP.P.2Xv.x.R.x.Z G U v x.H.8X8X0X6X8X9X7X6X7X0X0XqX9X9X9XeX5.B V 7XI.8X3X3X3X7X9X0X0Xe.W ;.2X",
";.+.:.:.+.+.{ ' O.( W W ~ ( ~ C W._./.z.P H P 6 D K ;.r.8.9.8.8.9.9.5.5.>.O.) ~ ~ W  .+.W 9 O.C _ _ ( ( ) O.@.+.5.W ' 5.",
"E E W E V V V 9 9 9 V C B V C H.R.F h S H H H D v 7 u E 8 9 u 9 4 8 9 9 y u B V V y V W W 7 C 9 c f V 9 v f V V W 9 E E ",
"f u V E E W W W v Q ' ( 9 V &. XQ.U H.U A 6 Z G Z ` { ! E ~ ` E ( ( W E V E V V B 9 V 5 9 4 9 V v V E V v v u 9 9 9 v 9 ",
"3X7X8XqXwXrXuXpXfXsXwX>.E O..XkXoX X}.E.Z $.I H w.uXpXrX0X0XwX5X7X8X5X3X5X8X6X3X' W P.0XyXyXqX0X0X9X0XqXwX0X4X7X3X3X3XU.",
"8XqXwXeXrXyXyXuXuXrX6X+.C >.J.E.(.|.).x.L I K X.7X7X0XrXrXrXaXrXyXuXyXyXuXyX9XP.@.< 4.eXaXaXuXsXfXaXaXsXsXyXwXwXqXqX9XqX",
"9X9XqXqXqXqXqX9X9XeXL._ V <.3X8XU.w.X.Z J Z X.2X6XrX7X#X4X0X6X6X3X4X8X3X5X8XwXr.' y } 0XpXrXrXqX7X9XrXwXeXqX0XwX8XwX9X8X",
"9X9X9X9X8X9XqXyXqXyXP.' C <.3X9X6X6Xw.q.| f w.6X6X0XwX7X0X0X0X0X0X6X5X2X2X5XpX2X{ 9 } 0XrXqXwX6XI.2X3X5X7X8X3X4X7XqXqX8X",
"7X8X5X3XI.3X9XeXqXyXP.{ V >.3X6X0X9Xw.#.] t ,.8X0X0X4Xu.6X9X4X0X9X5X4X9.P.2X0X9.} 9 ` 0XpXqX9XI.6.8.r.2XI.L.N.r.2X8X8X8X",
"7X3X3X2XL.L.3X9X9XqXI.{ y @.5X6Xt.#.U R.x.=.tXgXt.0X4X4X5X9Xu.0X6X3X3XP.2XP.3X3.} 9 ` qXpXqX8Xr.5.7.9.4XN.9.8.7.L.7X6X3X",
"8X4X9.9.7.9.P.7X9XqXI.O.y >.6XP.W.]./.Y.tX$XY h.$XT.0X0XwX6X5X9X5X2X2XP.2X2X5X:.} 8 ` rXpX0X4X9.9.L.4X3XP.9.8.9.P.6X0X4X",
"3XN.>.;.O.@.5.9.7X9X2Xo.7 @.5X7XtXgX1X..h.,X$XT._.~.K.wXwX9X6X6X6XP.P.r.P.2X6X6.+.u ` rXrX6X3X8.P.2X7X8X2X9.7.9.N.6X5X3X",
"B.B.>.>.O.O.>.9.I.3X2X>.y O.` < 3 R Z.h.N.N.v P ^.].c.L.7X7X5X5X7X2XP.r.2X2X7X6.} 9 { 0XrX6X5X2X2X2X3X8X5XP.9.N.3X5X5X3X",
"u.B.u.N.9.5.6.L.P.3X3X3.t } $ . . @ M.tXY.m.K v !.!.U 3.9.3X8X9XwX3X4X2X5X2X8X6.` 8 { rXyX8X8X0X5X7X8XwXeX9X4X2X9XqX9X8X",
"M.1.3.:.{ _ ) _ O. .<.@.W W ` Q 3.3XY.z.x.m.z.v L [.R.w.' O.@.>.>.+.} ;.1.<.O.` +.u :.8.} } } +.>.;.;.' ( ` W W ( ` ' ;.",
"u v E v V W W W V 9 W ( V V T.Y.v.V.E.x.V.P Z G 6 x.n.[ y 7 9 B 9 9 9 9 9 9 9 4 E 1 W W 9 u u E E v u W E 0 B ~ Q v E V ",
"f E Y f 9 9 9 9 W 9 9 E 9 y c.E.$.x.(.^.z.X.K v 6 i u.h f ( 9 9 W E E E u E E ^ W 9 W E u E u E 0 8 9 v u 9 9 v v f v 9 ",
"9.N.t.9.P.L.L.L.5X9.r.N.9.o.(.kXhX!.x.J z.z.A _ 0X>.w.^.$.I.W E r.P.P.P.t.r.u.$X2Xt.4Xt.2X2X9.9.8.9.5.+.5.>.} 0 O.1.9.7.",
"5X8XeXeXpXpXpXpXeXeXuXpXuXN.Q.}.[.}.`.V.a.D X 9XfX9XU.m.$.4.7 ` 8X0XwXyXrXpXyXpXpXaXdXpXdXdXrXrX9XeX9X3X0XL.>.7 9.9XuXeX",
"2X3X7X9X9X9X9X9X9XqXqXqXqXB.b b b b b b k j * 7.qX@.N.E.(.n.4 +.2X8XrXyXpXyXrXrXwXyXrXqXrXrXqXrXqX9XqX0XrX>.' 9 5.qXyX9X",
"2X7X8XqXqXeXqXqXqXeXqX9X9XY.p.p.p.i.n i.i.i.= f ] ] 9.N.N.@.8 ' P.6XrXuXwX0X8X0X0X0X0XwXwXqXqXqXqX9X0X0XrX;.O.v 5.qXpX8X",
"2X2X5X5X5X7X3XP.9.3X7X8XwX5X- - - k j j j j * f y.u.,.@.4.+.8 ( t.6XrXrX8XP.9.t.2X2X5XqX9X5X7X3X3X3XL.r.0X1.1.0 >.wXyXtX",
"N.4X5X4X4X2X9.>.>.1.2.9.2X .    p @ f.%Xf.l.T 3 ] ] @.7.7.o.y S *.=.F.-.=.&.-.=.F.J.U.8XeX6Xt.8.u.#XL.9.8X6.} t ;.4X0XyX",
"4X4X2X2X3X#Xr.r.1.1.2.r.2X0 . . a @ g.=Xl.*Xk.= X.J.W.Y.Y.H.E._.hXXXXX XXXXX X}.{.^.Q.!.W.F.9.6.r.#X9.P.4X1.{ u 1.0X0XrX",
"$Xu.9.2Xu.B.r.4Xr.B.6.8.r.wX@ o a @ g.-X%X=XOXz `.jXkXXX{.{.}.}.{.{.[.[.[.[.[.[.|.oXkXkXoX XH.w.3.9.9.9.6X2.' u 3.wX4X6X",
"5X2X2X2X2X2X2X#X2Xu.B.r.5.3 o o p @ g.-X=X-X:Xm $.V.H.n.a.a.a.U c.c.c.c.c.%.$.J $.n.E.`. XoX|.v.B.u.r.t.6X6.' u 8.tXu.2X",
"3X3X3X3X3X6Xu.B.B.u.9.2X .. o . a @ g.-X-X-X:Xp.* H J $.*.F 6 S #.U.7XL.U.t.6.t.J.v.I J c.`.oXE.=.3X2X2X4X<.` 9 9.8X#Xu.",
"2X3X#Xu.9.2X9.1.8.9.9.9.0 o o @ a > l.-X-X-X:Xd.= v 3.B.5X:.8 ` t.5XrX4X6XP.e.r.4XP.w.w.H n. X X$.2X2Xt.4X1.{ E 8.8X2X2X",
"2X2X2XB.9.9.9.8.B.9.9.9.:.< o & & T *X-X-X-X:Xd.n c 4Xu.6X:.9 { P.2XuX0X6X5X5X2XI.L.r.P.-.P (.oX(.o.3X2X4X1.{ E 8.6X#X3X",
"3X3X5X6X2X9.9.4Xu.P.P.2XwX2 o & & T =X-X-X<X;Xd.T c 2X2X8X3.9 +.e.P.aXrXrXrXaXpXuXuXrXqXqXH z.}.`.< 0X6X0X1.` 9 9.8Xu.B.",
"5.r.1.;.>.>.+.;... .O.>.O . . & & +X-X-X:XC.j.s.> 3 0X6X3X1.W ' wX6X0X3X1.1.1.1.1.6.9.8.8.-.%.[.`.; 2X2Xr.r.;.8 9.8Xt.6X",
"W ( ~ W W V u 9 Y Y 0 f . . O & 2 +X-X-X;XA.A.Z.T = ' ` ` W E ;.{ ! W V u u 9 E u u V V V E %.[.`.: V W W ` ( 9 O.;.( ` ",
"E 4 9 9 8 9 E W f v u 0 o o # p > @X-X-X=X=X:XD.C.l 9 8 9 8 1 V V 9 7 4 u u 4 E 9 8 5 8 5 7 z.'.H.v 4 4 4 9 u 4 8 0 1 4 ",
"E 8 >.2X3XP.U.9.6.8.9.Q # o # p > @X-X-X-X-X:X>XZ.l ) } 1.3.;.:.+.;.;.@.<.` v ) <.>.>.>.>.3.b./.5.>.4.3.1.5.6.5.6.9.>.:.",
"' C I.aXfXdXfXuXdXdXaX0 o o & 2 M &X-X-X-X-X:XD.Z.x c yXpXpXaXfXpXsXaXyX0X5.~ 5.8X9X9XqXyXeX^.pXeXeXeXeXuXyXeXuX9X9X9X9X",
">.W 9.7XyXyXfXdXqXqX0X  o O a = l.=X-X-X-X-X:XD.k.M x  .8X5X6X5X9XqX9X3XL.) 9 >.7XeXeXqXyX7Xv.uXyXuXeXeXqX9X7X0XyX9XqXI.",
";.W I.9XaXuXyX9XrXyXrXo @ & & n j.%X-X-X-X<X;XC.s.s.T ..wX9X0X4X2XP.L.L.9.) E 1.N.wXeX8X9X$.7X8X8X9X8X8XqX9X5X9X2XN.7X9.",
";.W L.2XaXuXqX8X6X6X6X:.$ 3 f.+X%XA.<X-X=X>XZ.j.C.Z.j...6X2X3X2X2X8.9.P.r.' W >.5.qXeX9XqXN 9XwX8XqX8X5X9X5Xr.2X2XL.qXI.",
"' W N.6XaXwX4X9.3X3X6X5X .l.-X-X-X=X<X=X=X<X%XS.D.C.n 7.5X9.8.9.9.6.8.u.B. .0 2.8.9XqX0X0Xw.eXqX9X7X3X3X5X3X2XB.2XP.8Xr.",
"' W 9.3XpX0X4X9.2X2X2XI.r.#XOX=X-X-X-X-X-X=X*XA.j.n 3.7X3X2X9.9.u.9.9.2XB.' 8 2.5.6X8X0X9XqXeX8X7X2X2X$X3X2X2X2X2XL.8XN.",
"' W 9.3XyX0X2X9.r.r.r.L.r.P...x g.+X*X*X%Xf.M x Y 3.8X3X3X2X8.2X$X3X2X2X8.} 8 2.9.0X9X9XqX9X9X2XN.9.N.u.B.u.P.2X2XP.8XL.",
") W 9.4XwX6X9.8.5.8.r.I.4X3X2Xv P , m z.c * W 9 ' 2X8X2X2X9.8.9.2X3X3X2X8.} 9 6.r.wX9X9XqX9X3X7.8.8.r.9.B.r.N.I.3X2X8XP.",
"~ E 9.2XwXt.8.>.>.>.5.r.2X3X3X4.z.6 ).).P 1 { 9 O.3X0X2X#XB.9.9.2X3X3X2X8.O.t 1.9.9X6X5X8X5X2X6.6.6.6.8.9.N.r.r.4X2X6X9.",
"~ W r.P.9Xe.>.} ;.;.;.:.9.P.2Xi ; + %.L v 5 { y ;.4X8X2X2Xu.r.N.N.4X3X$X8.;.0 1.9.9X7X3X3X2Xr.6.6.9.8.B.9.9.9.9.N.9.3X9.",
") W L.L.6X9.>.;.<.+.+.;.5.9.L.w # e s e % r ) y >.5X9XP.P.2XI.I.4X4X2Xu.9.} u 6.I.qXwX5X2XN.N.9.6.9.u.B.5.8.8.9.L.9.2X9.",
") W e.P.8Xe.1.:.5.>.+.>.6.9.6.d q + d d q r ' y 5.7X8XL.9.I.I.2X4X2X2X2X9.;.9 2.9.9X9X3X2X2XL.9.2.B.N.9.3.5.8.9.P.9.3X7.",
"' V P.3X3X9X8XI.7.9.L.P.P.3Xq.w # + d e $ r { 9 5.qXaXqXP.2X3X2X4X4X0X3XP.' 9 5.5XyXeX7X8X9X8X3X#X4X0X5X9.9.L.P.L.9.9.L.",
";.( 2X9.>. .@.@.@.>.>.>.,.#.% % e 0.g e # t _ t 5.7.7.5.5.6.9.5.9.:.O.O.9.>.W ;.9.9.5.3.9.N.5.3.,.2.8.5.@.>.5.3.5.5.6.9.",
") ! ;.) E f V ~ E v W E [ e d 0.d e $ + # 5 W B ) V 9 V E W W W ! E v f ) ` V ' ( V 9 C ( W V V V V W W C W W C Q ~ ) ' ",
"u 0 v 7 u v 9 E c f E v C % % % O o O O O 1 9 7 9 7 7 9 B 9 9 y 1 0 9 3 9 9 4 E 9 0 9 v C 9 7 W V 9 V u 9 V V y 9 7 7 9 "
};
