/* XPM */
static char *__removebg_preview1673946205[] = {
/* columns rows colors chars-per-pixel */
"60 60 226 2 ",
"   c #0C0C0D",
".  c #0F0F12",
"X  c #090A1D",
"o  c #150F15",
"O  c #131213",
"+  c #1A1817",
"@  c #341D0C",
"#  c #271D16",
"$  c #2B240D",
"%  c #3D3B0A",
"&  c #282615",
"*  c #382718",
"=  c #2E3317",
"-  c #363613",
";  c #09162F",
":  c #14163B",
">  c #2D1D32",
",  c #2B1D36",
"<  c #142126",
"1  c #18202D",
"2  c #0F2139",
"3  c #292529",
"4  c #32282B",
"5  c #2C3725",
"6  c #342A33",
"7  c #382E34",
"8  c #34243D",
"9  c #382E39",
"0  c #2A3634",
"q  c #393235",
"w  c #3C333A",
"e  c #3A3538",
"r  c #4F2E10",
"t  c #45371C",
"y  c #583A1D",
"u  c #603B1C",
"i  c #443C32",
"p  c #40353C",
"a  c #41383D",
"s  c #3C4013",
"d  c #51510A",
"f  c #464511",
"g  c #645718",
"h  c #52482D",
"j  c #6A4422",
"k  c #74522F",
"l  c #071859",
"z  c #171554",
"x  c #0E2C4B",
"c  c #3B2748",
"v  c #372F4E",
"b  c #0F1078",
"n  c #241D63",
"m  c #023569",
"M  c #013A74",
"N  c #272269",
"B  c #2F3366",
"V  c #443B41",
"C  c #493D47",
"Z  c #4A3E4D",
"A  c #432B52",
"S  c #4A2E51",
"D  c #492F59",
"F  c #4B315C",
"G  c #4F3461",
"H  c #523665",
"J  c #553A67",
"K  c #55396A",
"L  c #593C6D",
"P  c #5E3D73",
"I  c #603F77",
"U  c #39404E",
"Y  c #3A4459",
"T  c #0E4473",
"R  c #21466D",
"E  c #4A4146",
"W  c #4B474B",
"Q  c #4D444A",
"!  c #534A4A",
"~  c #53494F",
"^  c #5A5644",
"/  c #484855",
"(  c #554B53",
")  c #584E56",
"_  c #524258",
"`  c #594E5A",
"'  c #575253",
"]  c #5B5256",
"[  c #5E545A",
"{  c #6A564C",
"}  c #615755",
"|  c #60565D",
" . c #62595E",
".. c #68615A",
"X. c #5C4A64",
"o. c #5C4569",
"O. c #5E4172",
"+. c #505570",
"@. c #614D6B",
"#. c #645B61",
"$. c #685F64",
"%. c #635468",
"&. c #695E69",
"*. c #65437B",
"=. c #66477A",
"-. c #6C5A75",
";. c #71567C",
":. c #646164",
">. c #6A6065",
",. c #6C626A",
"<. c #756666",
"1. c #70666C",
"2. c #72696D",
"3. c #716573",
"4. c #736870",
"5. c #756B72",
"6. c #786E76",
"7. c #76687B",
"8. c #7A7276",
"9. c #777278",
"0. c #7D747A",
"q. c #85512A",
"w. c #80777D",
"e. c #81797D",
"r. c #A59A1F",
"t. c #9C8B2E",
"y. c #0C0E83",
"u. c #161985",
"i. c #1F2289",
"p. c #014589",
"a. c #115288",
"s. c #014B96",
"d. c #075A9A",
"f. c #126698",
"g. c #0054A7",
"h. c #005CBA",
"j. c #1A79A7",
"k. c #0463B3",
"l. c #1478B8",
"z. c #3867A3",
"x. c #4A5983",
"c. c #694682",
"v. c #6C4987",
"b. c #734E87",
"n. c #714C8B",
"m. c #735785",
"M. c #754C93",
"N. c #795295",
"B. c #7E539D",
"V. c #7D6B83",
"C. c #737290",
"Z. c #7F55A2",
"A. c #5173A6",
"S. c #0165CA",
"D. c #046FCF",
"F. c #127BC9",
"G. c #026DDA",
"H. c #0776D9",
"J. c #007BF6",
"K. c #81599E",
"L. c #817682",
"P. c #857C82",
"I. c #887F84",
"U. c #84659A",
"Y. c #897595",
"T. c #8256A5",
"R. c #8D5DB3",
"E. c #8C64AA",
"W. c #926AAC",
"Q. c #9462BB",
"!. c #9A6ABD",
"~. c #A271B3",
"^. c #9A65C3",
"/. c #9C67C7",
"(. c #A472CA",
"). c #A86ED5",
"_. c #AD72D9",
"`. c #B174E1",
"'. c #B878EB",
"]. c #BD7BF3",
"[. c #C07CF5",
"{. c #C47FFA",
"}. c #2592BC",
"|. c #31A6BC",
" X c #7685AB",
".X c #1B8AD1",
"XX c #2599CD",
"oX c #31ABC6",
"OX c #34B4CE",
"+X c #2BA7D7",
"@X c #35B5D5",
"#X c #34B6D7",
"$X c #39BBD2",
"%X c #188EE6",
"&X c #1893E7",
"*X c #0583F9",
"=X c #1994F1",
"-X c #28A6E2",
";X c #7795C7",
":X c #5A93E4",
">X c #8B8186",
",X c #8D848A",
"<X c #8A8A8B",
"1X c #908887",
"2X c #90878D",
"3X c #938A8E",
"4X c #918790",
"5X c #958C92",
"6X c #988F95",
"7X c #909091",
"8X c #9A9195",
"9X c #9D939A",
"0X c #A0979F",
"qX c #A2999E",
"wX c #9885AD",
"eX c #878CBD",
"rX c #A59CA1",
"tX c #A89FA5",
"yX c #ABA1A6",
"uX c #ADA4AA",
"iX c #B0A7AD",
"pX c #B2A8AF",
"aX c #B5ABB2",
"sX c #85A7F4",
"dX c #C581FD",
"fX c #C983FF",
/* pixels */
"5.8.e.1X1X1X8X1XqXqXqXyXyXyXiXpXuXpXuXtXtX8X5X9X2.w ,.8X8X5X9X2X9XrXrXrXrX9X8X9X0X9X6X6X#.&.2X4XP.I.1X>Xe.e.e.5.5.E :.e.",
"8XqXqXqXrXqXqXqXqXqXqXqXtXqXqXqXqXqXqXqXtXqX9X:._ N.,.8X9X9XuXyXrXrXrXtXtXtXrXrXrXrX9XL.C $.rXtXqXtXyXyXyXqX8XqX8.! 2.3X",
"3X3X8X8X8X8X8X8X3X3X3X8X8X8X8X9X8X8X3X3X5XV.K c ^.B.X.1X8X8XtX9X0X8X6X0XrX0X6X6X9XrX9X3.p ~ 0XuX5X8X0XqX8X3X8X8X,.V >.>X",
"1X1X1X>X1X1X1X1X,X1X3X8XqXqXqX8X8X9X8X8XY.*.c K /.P X.2X9X9X9X5X4X2X2X2X4X4XY.3X4XI.8X6.Q p 2XqX3X5X1X3X8X8X8X8X4.h ,.>X",
"1X1X1Xe.1Xe.e.<.e.0.P.1X5X2X,XI.,X1X3X5Xm.G c R.T.c [ 2XyX9X9X1Xe.0.w.L.0.e.P.,X4XI.0X6.] C 2X0X>Xw.e.e.1X8X1X8X<.V ,.1X",
"e.e.w.e.e.w.w...2.2.5.e.w.0.5.2.8.8.0.o.P A H ).*.& h e.9X8X3X<X,.,.5.5.5.6.L.2XI.I.9X3.~ ~ 6X0X1Xw.w.1X8XqX8X8X>.a >.,X",
"e.w.<.8.w.e.e.w.2.2.8.w.P.w.8.6.8.w.~ *.H 8 /.R.G c c >XqX8X5X>X5.5.6.L.P.I.4X6XI.I.5X1.Q ( 6X0X1X8.<.>X8X8X3X8X5.E 1.1X",
"<.<.....<.e.e.w.8.6.6.0.0.8.5.2.8.8.o.P H , ^.v.G c L >XtX8X>X8.5.6.L.I.4XI.2X4XY.I.2Xe.( Q 2X0X1Xe.w.1X8X8X1X8X2.E ,.,X",
"e.e.<.e.8.8.8.8.w.e.0.8.8.5.,.3.5.#.K I A D T.G S A K.5X3X9X>X0.8.0.L.I.I.I.,X5X4X2X2X&.) ( 0.6X2Xe.w.,X8X5X2X2X5.Q 5.3X",
"e.e.e.e.w.w.8.5.w.e.0.8.3.3.,.5.1.3 > D > n.T.A c B.o.8X5X5XP.e.P.P.P.P.P.P.I.,XI.4X6X,.V ~ 3X9X3Xe.w.I.2X2X,X2X2.a >.2X",
"8X7X8X8X8X3X,X>Xw.P.>X2X4X,XP.#.o.n.T.v.c L P c M.*.>.5X5X8X3X8X6X5X2X5X9X9X8X6X6X6X9X5.p C 3X>X5X2XI.,X2X6X9X9X0.Q >.,X",
"..<.....>. . .[ #.( Q Q ( ( Z R._.~.*.L H P , H F w :.P.9.8.8.8.0.0.5.3.&.%.) ( _ Q | $.Q w  .E ) ` ( ( ` #.$.>.5.Q [ 5.",
"Q Q Q E E a a p w w V C v e T.M.G k C J H H D 8 4 7 a C q e V e 7 7 q w p a V a C p V Q Q 9 C p p C V p p V a a Q w V Q ",
"a a a E E Q Q Q V Q [ ( e =.[.Z.*.K.I S 8 D F A _ ' [ ! E ~ ] E ( _ ! E V V C C a w V 7 w 9 w v V a C V V V a c w w a c ",
"1X3X8X9X9XqXyXyXaXiX0X,.C `.fXdX[._.K.c =.P H @.yXyXyXqX8X9X9X2X4X5X2X2X2X4X2X2X| Z P.8XrXrX9X8X6X6X6X9X6X6X4X4X,X,X,XI.",
"8X9X9XqXqXqXyXtXrX0X4X%.C X.K./.'.^.c.L I J _ 8.5X3X8XqXqXqXuXqXrXtXrXrXtXrX5XI.#.3 2.0XyXuXyXpXiXuXuXiXtXrX0X9X9X9X6X9X",
"6X6X8X9X9X9X9X6X6XrX0.` V 3.>X9.-.` F H A X.2.8X3XqX3X1X1X8X8X1X,X1X5X,X2X5X9X0. .a  .9XyXqXqX9X4X6X0X0X9X9X9X6X6X9X6X5X",
"6X8X6X6X5X5X9XrX9XrXP.[ V 3.,X6X5Xe.<.{ h <.,X8X1X8X1X1X1X8X8X8X8X3X2X>X>X2XrX>X[ w [ 8XqX9X9X1XP.I.2X4X6X4X4X,X4X9X6X5X",
"4X4X2X,XY.>X6XrX9XrXP.#.V ,.,X5X6X2.<.{ i ..:.6X8X8X1X1X8X1X1X8X8X2X,Xw.P.>X8X0.| e [ 9XtX9X8X>X5.6.e.L.P.L.L.0.I.6X6X4X",
"4X4X,XI.L.P.,X6X6X9XP.[ V >.,XP.%.b.K.v.;.;X;X%.e.8X1X1X1X1X1X8X1X,X,Xw.>XP.3X1. .e ] 9XyXqX3Xw.6.0.P.P.L.0.0.6.L.4X5X2X",
"6X,XL.6.6.0.P.2X6X9XY. .V &.3.E._.W.Y.eXA.Y A. X0.3X6X6X8X1X1X8X2X,X,X>X>XP.1X1...e [ 9XtX8X2X8.w.P.,X2XI.0.6.L.P.2X5X2X",
"I.w.1.&.#.&.5.L.4X6X>X#.w :.Y.wXsX;XU z.:X XwX~.W.;.6X9XqX8X1X8X2XP.e.w.>XI.5X5.#.w } 8XtX3X,X0.w.I.2X4XI.6.6.0.L.2X2X,X",
"e.6.,.&.#.#.,.6.P.4XI.>.w 3 3 1 T G.z.C.3.8 I ^.).H I.2X2X2X1X3X5X>XP.w.>XP.5X8. .e | qXqX2X2X,XI.I.2X6X4XP.w.L.,X4X2X,X",
"P.L.e.L.0.5.6.L.P.,X,X5.i @   O 3 C.eXE.N.G S ^.R.L &.6.w.2X3X6X8X<X,X,X2X,X5X5.[ q | qXqX5X5X5X6X2X4X9X9X6X,XI.6X9X6X4X",
",.2.2.&.#.` ` ` #.| 2.&.Q ' ~ 9.Y.U.c.M.M.I c c._.N.@.#.#.#.&.&.>.#.#.>.2.1.$.] #.a ,.8.[  . .%.&.&.%.[ ( ` Q E ( [ #.#.",
"w V V C V C Z Q V a Q ( V Y.U.m.E.T.v.Z.P D F 8 N.b.} a 6 9 9 V e e w w p e q q Q 4 E ! e h v E V p V C V V v ( C V V V ",
"V V C V p w q w Q e w E 6 T.T.*.n./.R.O.P H 9 4 i q.q.h ( ` w w Q E E E C E E E Q e Q E v E h E a w w V V w i w a V V 9 ",
"0.L.L.P.P.e.L.P.<XV.0.V.` ).{.'.R.v.L v.c.c ( 2X} w.wX=.9X>XE E e.e.>XP.w.w.e.,X>Xe.<Xe.>X<X0.0.6.8.5.#.3.,.[ w %.5.6.5.",
"4X6X9XrXtXtXtXiX0XrXrXuX3./.`._.`./.B.b.c X w.pX:.Z B.*.V.5.q ) 8X8X9XrXqXtXtXyXtXuXiXyXuXiX9XqX8X9X6X,X8XP.,.9 0.6XrXrX",
"I.I.4X6X6X6X6X6X6X8X9X9XN N N N N n n z l X 1.2X` J R.^.n.%.6 #.>X3X9XyXyXqXqXqXqXtXqX9XrXrX9XrX9X8X6X9X9X,.[ w 6.9XrX6X",
"I.4X4X9X9XrX9X9X9X0X9X8XN i.i.i.u.u.y.b y.X h ^ ..E.E.@.3.<.q | P.3XqXyXqX8X5X8X8X8X8X9X9X8X9X9X9X6X8X8XrX>.#.v 2.9XyX3X",
"I.I.2X4X4X4XI.P.0.>X3X3Xv l : : : l l l l ; d r.t.^ ( [ e.,.q ~ e.3XqXqX5Xe.w.e.>X>X1X9X6X3X5X,X,X,XV.P.8X2.<.q <.qXqX3X",
"I.,X2X,X1X,Xw.>.>.<.8.w.    O d + f.F.d.l.M 6 { h Q ) :.,.[ w ( 0.P.yX3Xw.0.e.w.>X>X3X8X8X1Xe.w.1XI.e.e.1X8. .a >.3X9XqX",
"2X,X>XI.I.e.e.e.2.2.5.8.0 O O d < j.+Xj.-Xd.B ^.Q.R.R.R.R.R.R.R.M.%.3.3.2.8.,X1X3X3X1X>Xe.I.e.5.e.e.8.e.1X<.| e <.8X8XqX",
"3Xe.e.e.I.e.>X1Xe.e.8.0.<X+ O d < j.$X&XOXf.x Q.`._.`.dX{.{.dXfXdX{.dX{.).Q.U.7.>X0X5X,Xe.e.e.w.<.8.8.e.7X5.} V 8.8X1X3X",
"1XI.I.1X1X1Xe.e.,Xe.e.i 3 . O d < j.$X#X@Xl.m > L J o.=.=.c.N.T.^.^.^./.'.[.{.dX(.Y.I.1X>Xe.e.w.e.e.e.P.3X5.} i 8.5XP.>X",
"1X2X,X>X1X1Xe.8.e.e.V.+ . O O d < j.$X$X$X%XM O Q ] 2.8.0.] 7 C ` %.&.o.=.c.T./.].fXW.e.1Xe.e.e.P.>X>X>X1X2.' c 8.8XP.1X",
"I.1XI.e.e.e.w.<.8.8.e.  O   = s x j.$X$X$X%Xp.; ,X,X>X>X3X:.q ] P.,X9X>X2.%.o.J n.).{.(.w.e.e.>Xw.>XP.P.1X2.[ h 8.3XP.1X",
">X>XI.e.e.8.8.8.8.e.0.:.+ . f & a.+X$X$X$X%Xs.m / >X>XV.7X2.e  .P.,XtX8X5X2X,X&.o.I !.{.E.<.e.1X>X<X>X>X3X2.[ Q 8.8Xe.P.",
"2X,X3X3X,Xw.e.I.P.P.P.7X3 . f = d.$X$X@X-XH.s.M U 3X>X>X5X,.e #.w.P.yXtXqXqXuXyXqX-.*.R.].U.1XqX8X9X9X5X8X2.] w 8.5Xe.P.",
"5.w.2.>.,.,...>...[ [ O O . f = }.$X$X&XS.s.p.; w 3X8X1X,X1.Q | qX3X8X,X2.1.2.5.5.6.o.O./.].-.3.0.w.,X>X0.e.>.q e.3XP.5X",
"! ( ~ Q Q E a v V V 7 O O + f 0 |.$X@X*XH.H.G.M 1 ~ | [ ] ! E >.[ Q ~ V p a p E a a h c c.]._.w a w E Q Q [ ( w  .>._ [ ",
"V 6 q a e q C E h w 4 O . - s x oX$X$X+X#X=XJ.h.2 i a 7 w q 4 V V q 9 7 V w 6 V p q 7 q v c._.L w 7 6 6 6 e w 6 e e 4 4 ",
"E w ,.,X,Xw.I.0.C.9.r $ . = s x oX$X$X$X$X=XJ.S.2 >.,.:.,.1.>.,.>.>.>.$.,.[ w ` <.,.,.,.,.` N._.o.,.1.3.2.5.8.6.6.6.,.$.",
"[ C P.iXaXaXaXyXpXpXO O O s 5 T OX$X$X$X$X=X*XS.x <XuXyXyXyXuXaXrXiXuXrX8X3.~ 5.4X6X6X9XqXqX6.W.E.6.rXrXrXrXrXtX6X6X8X6X",
",.C 0.4X0XrXaXpX9X9X    & d 2 .X#X$X$X$X$X=XJ.g.M +.6X<X3X1X2X3X8X0X6X,XP.( w ,.4X0X0X9XyXqX0XV.!.U.P.9X9X6X4X9XqX9X9XI.",
">.Z P.6XuXyXrX6XqXrXO & - 5 m k.XX$X$X#X-X*Xh.M s.T 4X4X9X8X8X2XI.P.L.P.8.` C 3.L.9X0X4X6X6X,X6XV.!.3.4X9X5X2X8XP.e.4X6.",
">.Q P.,XyXyX9X3X3X7Xh s x a..XF.H.-X$X#X*XS.g.S.G.s.6X6X5X>X,X,XI.8.8.P.P.| E ,.5.9X0X6X0X0X6X0X5XY.U.7.6X4XL.I.I.L.0XI.",
"[ Q P.<XuX9X,Xw.,X,X2Xx j.OX$X$X#X-X#X#X-X.XJ.J.S.+.9X5X1Xe.8.8.0.8.8.P.w.} e 5.9.8X9X8X8X8X0X9X9X4XL.E.7.5.>XP.,XI.4XP.",
"[ Q 0.,XyX5X>X0.>X>X>XP.+..X#X$X$X$X$X$X@XXXD.s.Y P.8X7X<XP.w.e.P.w.w.P.0.} q 8.2.3X8X5X6X9X0X6X4XI.P.V.E.m.,.>XI.L.4XL.",
"[ Q P.>XqX8X>X0.e.P.w.e.>X>XR f.XXXXXXl.d.R / 7 [ >X5X,X,Xe.w.e.>X,X>X>X8.| i 2.0.6X6X8X9X6X6XI.V.0.P.P.V.,.3.>XI.P.4Xe.",
"] E 0.,XqX3Xe.8.5.8.w.I.<X>X>.H 2 x.x.B 8.#.| 7 | >X5X>XI.w.8.w.>X1X1X>X8. .a 5.P.9X8X6X9X6X,X6.6.9.8.0.0.0.P.I.,XI.6XP.",
"( E 0.>X9X>X5.,.,.,.5.e.I.1X3.I c _.!.2X,X . .p #.2X5X>XP.0.6.8.e.1X3X>X8. .i 2.0.7X3X,X5X4X>X9.6.7.8.8.0.0.0.V.I.P.4XL.",
"~ E P.P.8X0.,. .$.$.$.1.w.I.a o > =.J 6.P. .| p $.<X8X>X>XP.P.P.P.>X1X>Xe. .a 2.0.8X5X,X,XP.P.5.6.9.0.9.0.0.0.0.L.e.2X0.",
"( Q 0.P.5X8.,.:.<.$. .$.5.w.t $ u u t # P.| | p ,.3X5X>XP.P.I.>X>X1X>X>Xw.#.a 5.>X9X9X4X>XP.V.9.6.0.0.0.5.9.0.0.e.6.,X8.",
") Q P.P.4Xw.2.,.5.1.&.,.5.w.g % @ g g % P. .| p 3.3X5XV.P.P.P.,X1X>Xe.>Xw.#.a 5.V.8X6X,X>XV.P.0.5.0.P.0.2.5.0.0.L.e.,X0.",
" .V P.,X,X6X5XP.0.V.P.P.P.w.t # @ j y $ I.5.| w 3.8XiX9XP.>X4X>X2X2X8X2XP.| e 5.2XrX0X4X4X6X5X,XI.4X8X4Xe.0.L.L.L.e.0.0.",
"#.( P.0.>.&.&.&.#.,.,.,.&.* * y q.k t $ ,.#.[ V 5.0.6.3.3.6.8.5.w.>. . .8.,.E ,.e.0.3.3.0.0.7.3.,.3.6.6.&.,.5.1.5.5.6.0.",
"( Q ,.` C V V Q V E Q * y j k j y & $ & E C E V ) C w V C Q Q C ! E a a ( ] p | ( V w C ( Q v C V V E Q V Z Q C ~ _ ( [ ",
"V w V e w V w C v V h v t * & + + O O 4 w 9 w 7 w 7 9 w V w w p 4 q a e a p 6 E w 9 9 V C e q C V w V V w V V V e 9 9 w "
};
