/* XPM */
static char *_553aa0f5b5e4282f451c3635cab4f9a7dE0JbtGYWLi2euG[] = {
/* columns rows colors chars-per-pixel */
"60 60 218 2 ",
"   c #160C06",
".  c #1C0B02",
"X  c #150E09",
"o  c #14120F",
"O  c #250D01",
"+  c #30190C",
"@  c #36281B",
"#  c #1C2324",
"$  c #162F2F",
"%  c #1C3433",
"&  c #2D2624",
"*  c #212C2C",
"=  c #342D29",
"-  c #372D36",
";  c #273737",
":  c #3C333B",
">  c #353838",
",  c #441A03",
"<  c #531C01",
"1  c #631F00",
"2  c #52230B",
"3  c #672704",
"4  c #6A2602",
"5  c #6D2904",
"6  c #752C05",
"7  c #7A2E06",
"8  c #7D3005",
"9  c #7C320A",
"0  c #733516",
"q  c #553927",
"w  c #40353D",
"e  c #40383D",
"r  c #643D27",
"t  c #744228",
"y  c #313E41",
"u  c #443B42",
"i  c #493D47",
"p  c #174242",
"a  c #384649",
"s  c #2E5355",
"d  c #346B6D",
"f  c #3C7476",
"g  c #4A4146",
"h  c #4C434A",
"j  c #53494F",
"k  c #554B53",
"l  c #584F56",
"z  c #43585D",
"x  c #5C5356",
"c  c #5D545B",
"v  c #624E44",
"b  c #755849",
"n  c #61575E",
"m  c #756456",
"M  c #445E63",
"N  c #645B61",
"B  c #685E65",
"V  c #695F68",
"C  c #476165",
"Z  c #516E75",
"A  c #4D7071",
"S  c #567278",
"D  c #6A6165",
"F  c #686A67",
"G  c #6C636A",
"H  c #716A65",
"J  c #70666C",
"K  c #72696D",
"L  c #6A7167",
"P  c #756B72",
"I  c #766C75",
"U  c #687676",
"Y  c #7A7175",
"T  c #767778",
"R  c #7D747A",
"E  c #85360B",
"W  c #82350D",
"Q  c #8C3A0F",
"!  c #913D0F",
"~  c #863B15",
"^  c #863C17",
"/  c #8A3C14",
"(  c #903D13",
")  c #8D411B",
"_  c #974317",
"`  c #994214",
"'  c #93431B",
"]  c #A24718",
"[  c #A44A1B",
"{  c #AA4E1D",
"}  c #AD501E",
"|  c #8F4726",
" . c #954A26",
".. c #994A25",
"X. c #9C4E29",
"o. c #A34E25",
"O. c #A65229",
"+. c #B5572B",
"@. c #A65633",
"#. c #AA5A36",
"$. c #AE5C39",
"%. c #B45C34",
"&. c #B65D37",
"*. c #B2613F",
"=. c #BD623B",
"-. c #C15C28",
";. c #C46337",
":. c #D06630",
">. c #D56A34",
",. c #D96B33",
"<. c #E4743B",
"1. c #E9773D",
"2. c #EB783D",
"3. c #815A48",
"4. c #935F49",
"5. c #946046",
"6. c #AF6A4C",
"7. c #B66341",
"8. c #B96745",
"9. c #BB6846",
"0. c #BA6947",
"q. c #AE6D52",
"w. c #B26E51",
"e. c #B07258",
"r. c #80777D",
"t. c #82797D",
"y. c #C46B45",
"u. c #CB6D45",
"i. c #D26E45",
"p. c #CF7146",
"a. c #D47245",
"s. c #DA7445",
"d. c #D97648",
"f. c #E57846",
"g. c #ED7A40",
"h. c #F17D44",
"j. c #658579",
"k. c #D5835B",
"l. c #F68046",
"z. c #D28965",
"x. c #3B7E81",
"c. c #547E83",
"v. c #807780",
"b. c #847B82",
"n. c #887F84",
"m. c #2B8B8B",
"M. c #378687",
"N. c #389899",
"B. c #39A9AA",
"V. c #36B0B1",
"C. c #48898D",
"Z. c #59858B",
"A. c #469699",
"S. c #6B8588",
"D. c #6F8A8F",
"F. c #67939A",
"G. c #6E949C",
"H. c #4D9EA2",
"J. c #6A9AA2",
"K. c #55B1B5",
"L. c #65A6AD",
"P. c #69A5AC",
"I. c #66ACB2",
"U. c #65B0B6",
"Y. c #63B5BB",
"T. c #63B9BE",
"R. c #5EBEC3",
"E. c #62BCC1",
"W. c #3CC3C3",
"Q. c #3CC8C7",
"!. c #3CC9C8",
"~. c #45C4C6",
"^. c #59C5C8",
"/. c #5EC5CA",
"(. c #5DCACE",
"). c #5CCDD1",
"_. c #42D7D7",
"`. c #45DDDC",
"'. c #5BD2D5",
"]. c #59D9DC",
"[. c #60C1C6",
"{. c #57DEE0",
"}. c #4BE6E6",
"|. c #54E7E8",
" X c #8B8285",
".X c #888689",
"XX c #8D848A",
"oX c #90878D",
"OX c #938A8E",
"+X c #988988",
"@X c #918790",
"#X c #958C92",
"$X c #988F95",
"%X c #8C9595",
"&X c #9B9195",
"*X c #9B969A",
"=X c #9D949B",
"-X c #9E959A",
";X c #A79B9A",
":X c #A29A9D",
">X c #B09F9C",
",X c #A59CA1",
"<X c #A89FA5",
"1X c #9BA0A0",
"2X c #ABA3A6",
"3X c #ADA4AA",
"4X c #B3A8A9",
"5X c #B6ACB4",
"6X c #B7B9B9",
"7X c #BDBCBD",
"8X c #C4B9B7",
"9X c #C8C2BE",
"0X c #D7C5BC",
"qX c #C3BFC2",
"wX c #C2C1C1",
"eX c #CBC8C8",
"rX c #D1CFD0",
"tX c #DCDBDB",
/* pixels */
"P Y t.+X+XOXOXOX:X-X;X2X2X2X4X4X3X3X3X2X2X&X#X*XR : G &X&X#X-XoX=X=X,X<X,X=X$X=X=X=X$X$XV J n.#Xb.n.n.n.n.b.r.r.K g D t.",
"&X;X;X;X1X;X1X;X:X;X-X,X,X:X:X:X:X,X:X:X2X-X*X2Xt.g H &X*X*X4X,X,X,X,X<X3X<X,X,X,X,X;Xc.i V ,X<X,X3X3X4X<X;X#X;XY j K OX",
"+X&X&X&X&X&X&X&X#XOXOX&X*X&X&X&X$X-X#X@X$XOX#X&XK : n XX$X$X,X*X-X=X&X,X,X=X$X&X=X;X;XJ u i ,X3X#X$X&X&X&XOX#X$XH u D  X",
".X X X X+X.X+X X XXXOX*X:X:X*X:X=X*X$X$X&X&X@X&XG w D OX:X-X:X$X$X@X@XoX@X@X@XXXn.b.$Xr.i i n.,X#X+Xn.=X&X+X$X;XH g D  X",
"+X+X Xn. Xt.t.H R t. XoX#XXX.Xn. XXXXX+X-X&X$X-XJ y R %X:X-X*X$XXXOXXX&Xn.c.b.XXn.n.=Xv.l i n.<X Xr.Y  XOX+X$X$XG e K +X",
"n.t.Y Y T Y Y H J H K R v.R I P I R R  X#X&X#X*XP F S N.m.m.m.m.m.m.m.m.R T T =X=Xn.;Xc.l i =X=X+Xr.r. X&X:X$X:XD w D XX",
"T Y H P r.t.t.Y K I Y R b.t.I I Y t.t. X:XU S A.V.B.K.}./.T.E.Y.U.T.(.|.K.V.B.C.S c.=Xc.i i =X=X XY P  X$X#X+X#XK h G oX",
"r.H H H H t.t.t.Y I I R R R I K Y R D.C A !.~.I.P.P.P.I.|.P.G.G.G.U.|.L.P.I.P.K.E.R.M M b.J +X<X+Xt.r.XX-XOXoX$XI i G XX",
"r.r.H Y Y Y Y Y t.t.R Y I I J J U d N.^.(.'./.P.G.G.G.F.N.C M s z d N.F.F.G.F.P.(.'.).^.m.d U ,XoXR R .X&X&XXX$XP h I +X",
"t.t.t.t.r.r.Y P t.t.R Y I J G c.!.].I.G.G.J.U.(.A a y > + , , , , , , a y y A.^.K.J.F.F.T.|.!.C..X.Xt. X@XXX XXXK : V @X",
"&X+X&X&X&XOXoX Xv.v.n.oX@Xb.A.K.E.(.E.J.Z.c.> p @ < < < W W W 7 9 9 7 < < < = ; a c.Z.J./.E.U.K.N.S -XXX#X#X&X-Xr.h B XX",
"D D D H D n n n N k h h d K.I.J.G.J.K.M.& + < 1 9 ^ 9 / <.=.*.7.7.%.@.7 Q ( 6 3 < + & N.I.J.G.G.I.K.d .Xc N B G P h c P ",
"g g h g g e e w e : i s }.^.J.J.J.S e , 4 6 / ' @.y.%.Q 2.a.8.0.9.9.$.W <.s.+...^ 4 3 , a c.G.G.P.^.`.p  Xe u y h : u i ",
"u e e g g g h h u h A B.R.^.^.J.z @ < Q +.+.=.0.8.a.%.Q 2.y.0.8.8.9.$.W <.a.u.y.=.@.O.9 < @ C P.(.R.T.B.A OX: : : : u : ",
"oXOX$X*X:X:X2X2X5XU m.'.G.G.L.y + 4 7 ` l.s.y.9.y.i.+./ 1.y.8.8.8.8.#.W <.i.y.i.i.i.;./ W 4 + s L.G.G.].d L 2XoXXXoXn.n.",
"&X&X-X:X:X:X,X<XD N.^.J.G.F.A + 4 .. .' h.i.u.8.u.u.#./ 2.u.8.u.u.9.$.W <.i.8.u.i.i.y.E :.[ < & S F.G.P._.m.D 1X-X=X$X=X",
"$X$X=X=X=X=X:X=Xf K.(./.T.Z.o < ~ #.X.` g.y.u.y.u.u.@.Q 2.y.u.a.u.8.#.W <.u.0.y.a.i.=.9 ,.;.W , # F.E.[.(.B.f 2X#X=X$X#X",
"$X$X=X$X#X$X,X* W.E.L.R.H.a , 5 @.8.X.` g.y.u.u.u.u.@.Q g.u.u.i.u.0.$.W <.a.7.0.u.u.8.W ,.d...3 + a K.R.P.^.B.> 7X=X-X$X",
"@X@X#Xn.n.n.*X$ W.R.G.G.S   4 O.7.0.X.` h.y.9.u.u.y.@./ g.u.u.a.u.0.$.W <.p.8.0.y.u.7.E ,.d.7...1 X c.G.D.(.V.; tX#X$X@X",
"$Xn.n.n.b.n.*Xs K.I.G.S.z O 4 $.8.8.X.` h.y.8.u.y.0.@./ g.u.u.i.y.y.$.W <.p.8.8.y.i.u.~ ,.d.8.@.< + M D.G.T.H.d 6X,X@XoX",
"$Xn.v.v.R @X% `.`.^./.f . 6 o.=.8.0.X.` h.y.8.y.y.9.@.Q g.i.u.y.y.u.$.E <.p.7.0.y.i.;./ ,.s.0.$.' 3 X A./.E.].~.* tX$X@X",
"n.v.G V N  X$ `.).R.[.f . 9 2.p.9.0.X.` g.y.0.0.8.9.@./ h.s.u.y.y.u.$.E <.a.9.0.y.i.u./ ,.d.8.0.$.5 X C.E.E.'.~.* tX@Xn.",
"v.I G V B  X* `.I.D.J.C O 9 >.=.$.*.| ! <.*.$.$.$.$.o.E ,.;.$.$.7.=.O.W :.=.$.$.#.%.$.9 -.;.%.$.@.5 O S G.G.E.!.* tX@Xn.",
"b.v.v.v.R #X$ `.I.G.S.m _ ` { [ [ [ ] ` [ [ [ [ [ [ ] ] o.[ [ [ [ [ [ _ { [ [ [ ] ] [ _ { [ o.] ` ' ' m c.G.E.~.* tX=X#X",
"J J J V n n.$ `.'./.L [ l.s.s.s.z.k.s.d.s.s.s.z.k.s.s.s.s.s.s.k.k.s.s.s.s.s.s.k.z.s.s.s.s.s.k.z.d.f.a./ j./.].!.* tXN N ",
"u i i i i b.$ `.(.Y.L _ f.=.7.7.e.w.7.7.=.7.7.e.w.7.7.8.7.7.=.e.e.7.7.7.7.=.7.w.e.7.7.8.=.7.w.e.7.7.7./ j.Y.'.Q.* tXu u ",
"u i i u u .X$ `.I.G.D.m 9 9 ~ 9 E W E W 9 W W 9 W 9 W 9 9 9 W W 9 W 9 W W 9 9 9 W W 9 W W 9 E 9 9 9 0 L D.G.T.Q.* tXu : ",
"I v.v.v.v.3X$ `.L.G.J.C O 6 ` / ~ / 9 7 ` ) / / / / W 7 ` ) / / / / / 6 _ ) / / ~ / ~ 7 ( ( / / ~ 4 . S G.G.T.Q.* tXI R ",
"@X$X=X,X<X7X$ `.'././.x.. W 1.y.7.0.X.` h.i.u.8.8.8.@.Q g.s.y.8.7.y.;.E <.u.8.8.8.8.7.E >.i.y.u.$.5 X A././.].Q.* tX2X-X",
"n.n.@X$X$X7X$ `./.Y.E.f . W 1.u.8.8.X.` g.u.u.y.8.0.@.Q h.s.u.9.8.y.;.W <.p.8.8.8.0.7.W ,.f.i.i.%.5 X C.T.T.'.Q.* tX,X$X",
"n.@X@X=X,XqX$ `.I.G.G.M . 7 1.8.m 3.| ` h.y.u.y.9.9.@.Q 2.u.u.u.y.u.=.E <.p.8.8.8.0.7.W ,.f.u.y.;.5 X Z G.D.T.Q.* tX,XOX",
"n.n.XX@X@XqX$ `.I.G.G.M . E <.b S.F q _ h.y.u.i.y.9.@./ g.u.u.u.u.u.$.W <.p.8.y.u.8.8.W ,.f.y.y.;.5 X S G.G.T.Q.* tX,X&X",
"n.XXoXXXXX9X$ `.].(.(.M.. W <.5.H m t ! h.u.8.u.u.y.@./ g.y.y.i.i.u.%.E <.u.0.y.u.0.7.W >.f.u.y.;.5 X A.(.(.].!.* tX&X,X",
"oXXXn.n.b.wX$ `.^.T.E.f . W 2.u.v 3.o.( h.y.8.y.u.u.@./ 2.u.9.y.i.u.$.W <.p.8.y.u.9.7.W >.f.u.i.&.5 X C.E.Y.'.!.* tX&X:X",
"+X Xt.n. XwX$ `.I.G.G.M . 8 2.y.v 3.X.` h.9.8.8.u.u.@.Q h.y.8.u.i.u.$.W <.p.8.y.u.9.7.W ,.f.i.u.%.5   Z G.G.Y.!.* tXXX#X",
"oXt. X X.X9X$ `.I.F.G.C . W 1.u.v b X.` h.y.9.8.y.i.#.Q 2.y.8.y.a.u.$.W <.i.8.y.u.9.=.W ,.d.y.u.$.5   Z G.G.E.~.* tXb. X",
"XXXX+X XXX9X$ `.].(.(.M.. W 2.y.v 3.X.` g.y.8.8.y.u.%.( 2.u.8.u.i.i.$.W <.i.y.i.i.y.7.W ,.d.y.i.&.7 X A.).(.{.Q.* tXb. X",
" XXX Xt.R wX$ `.^.Y.Y.f . W <.3.Y H r ` h.y.8.9.8.y.+.Q h.u.8.u.i.u.$.W <.p.y.i.i.i.7.W ,.d.y.i.%.6 X C.Y.Y.).Q.* tXt. X",
" X X Xt.R wX$ `.I.G.G.C . W <.b R L q _ h.y.8.0.9.y.%.Q 2.u.0.y.i.y.$.E <.p.y.i.i.u.7.W ,.a.y.i.$.5   Z G.G.T.Q.* tXt. X",
"XXXXXXOX.X9X$ `.L.G.G.C . 8 1.y.3.4.X._ h.0.8.8.8.u.%.Q g.y.8.8.0.0.$.E <.a.u.u.y.i.7./ ,.a.y.y.$.5   Z G.G.E.Q.* tX Xt.",
"I t.K D J wX$ `.].(.'.M.. W 2.u.8.0.X._ 2.y.8.0.9.y.+.Q g.u.8.8.8.9.$.W <.s.u.y.y.u.&.W ,.d.8.8.$.5   A.)./.{.Q.* tXb.@X",
"j j j h h wX$ `./.U.Y.A . W 2.y.0.0.X._ h.y.8.0.y.u.%./ h.y.9.8.9.9.$.E 1.f.y.0.y.i.y.E ,.d.8.y.$.5   C.Y.Y.).Q.* tXk k ",
": - : w > wX$ `.I.G.G.C O 8 :.%.#.#.' Q >.%.#.#.&.&...E >.%.@.#.#.#.O.8 :.;.%.%.@.%.+.E -.;.#.#.o.5 O S J.D.E.Q.* tX- - ",
"g : V XXXXwX$ `.I.G.S.b [ [ } { { { { [ o.} { { { o.{ { { o.{ { { o.{ [ { { { { o.{ o.{ } } o.o.{ { [ m S.G.E.~.* tXG V ",
"c i n.3X5XwX$ `.].(.L [ l.s.s.d.z.k.d.d.d.a.d.z.k.s.s.d.a.s.s.z.z.s.s.s.a.s.s.k.z.d.s.d.s.a.s.z.a.d.a./ Z.R.{.!.* tX$X#X",
"G g R @X,XwX$ `./.U.L _ <.7.*.*.q.6.*.*.*.7.7.q.6.&.$.7.*.*.*.q.6.7.*.7.*.*.7.6.q.*.*.7.&.7.q.e.*.7.%.t U E.).!.* tX=Xn.",
"V h n.$X3XwX$ `.I.G.D.H 5 9 9 7 9 9 9 9 7 7 7 9 9 7 9 9 9 9 9 8 7 8 7 9 7 9 9 9 7 9 9 9 7 8 9 9 9 7 3 F F.G.R.W.& tX@Xc.",
"V h v.XX2X9X$ `.I.G.J.C . 6 [ _ ' ' 9 9 [ ) ) ' ' ) / 7 [ ' ^ ' ' ) ~ 6 ] ' ' ' ^ ' / 7 /  .) ) / 5 o S G.G.R.R.& tX;Xn.",
"c h t.XX3XwX$ `.{.).).x.  9 1.i.u.y.X.( h.y.9.u.u.8.@.Q g.y.y.u.i.y.$.W <.p.y.u.y.i.7.W ,.d.8.9.$.5   A.).(.{.!.* tXn.v.",
"n h t. X2XwX$ `.E.U.E.A . W 1.u.u.u.X.] h.y.9.u.y.8.@.Q g.u.u.u.y.u.$.W <.i.0.y.u.u.7.W ,.d.8.8.$.5   c.E.I.).!.* tX$Xv.",
"x h t. X,XwX$ `.I.G.G.M . 9 g.u.y.i.O.( g.y.u.y.9.9.@.Q g.u.u.y.y.i.&.W <.a.0.y.u.0.7.W ,.d.8.9.$.5 X Z G.G.E.~.* tXn.v.",
"l h t. X*XwX$ `.I.G.J.M . W g.y.9.y.O.( h.u.u.y.8.y.@./ g.s.u.y.y.u.;.W <.u.8.8.8.8.7.W ,.i.8.9.$.5 X c.G.G.E.!.- tX=Xb.",
"j g R  X-XrX%Xf a y a % X 2 o.o...o.0 2 O.[ ...... .0 2 o.o... . . .| 2  .X. . ... .| 2 ' O.' ..^ +   - y y s x.=XqXn.b.",
"j h t.b.#XR wXwX8X8XqXqX7X7X0X0X0XeXeX9X8X8X>Xn.$X>X3X:X;X:X$X=X&X;X;X;X>X>X;X>X>X5X3X3X5X8X0X0X0XqX7X5XqXqXqXeX8Xr.n.b.",
"l h b.b.@XR G D B B n B I c.v.v.r.t.b.n.b.n n w G oX$Xb.t.b.n.n..X X X Xr.D : K n.,X<Xn.n.v.v.r.I v.r.r.r.J c.r.v.r.n.r.",
"l h v.b.@XR P G r.J V G r.r.r.r.r.r.b.n.b.n n w P @X#Xr.r.b.n.n..X Xb.n.r.n e P v.<Xn.n.n.v.v.v.J v.r.r.V r.r.r.b.v.n.r.",
"c u b.XXXX#X$Xn.R r.v.b.n.n.oXn.n.@XoXn.n.I n : P =X3X$Xb.n.@Xn.+XXX*XXXt.n : I oX,X-X@Xn.;Xn.n.n.n.=Xn.r.r.r.r.r.r.r.r.",
"D k  XR G V V V B V J G G P I I P I J J V N c u P Y I P P I R P R F n n Y G g D r.R P P c.v.v.r.G I c.v.G G r.B r.J J r.",
"k i D l i w u j u i i i i i i i i k i i i i h u k i u u i h i i k e g e x l : n l u : i k i u i i i i i i i i i i k k l ",
"u w y : w w w i u u u u w u u y : u : w : - w - : - - : u : : u @ - e > w w - h w : - y i - - i w w i i w w i w w - - w "
};
