/* XPM */
static char *_fba997b276a42329f65fdabb50dcad8o3bh0rEyPhQosg10[] = {
/* columns rows colors chars-per-pixel */
"60 60 214 2 ",
"   c #2E222A",
".  c #32282C",
"X  c #352A32",
"o  c #382E35",
"O  c #382E38",
"+  c #3A3235",
"@  c #3C333B",
"#  c #4F3B2D",
"$  c #523A2E",
"%  c #453835",
"&  c #40353C",
"*  c #40383D",
"=  c #633A24",
"-  c #6A4F38",
";  c #7D573B",
":  c #443B42",
">  c #493D47",
",  c #4A4146",
"<  c #4D434A",
"1  c #51474F",
"2  c #53494F",
"3  c #554B53",
"4  c #584E56",
"5  c #5A4F58",
"6  c #5B5355",
"7  c #5E545A",
"8  c #60565D",
"9  c #62595E",
"0  c #685C5E",
"q  c #76635C",
"w  c #645B61",
"e  c #685F64",
"r  c #695F68",
"t  c #656166",
"y  c #6A6165",
"u  c #676368",
"i  c #6C636A",
"p  c #70666C",
"a  c #72696D",
"s  c #77706D",
"d  c #706670",
"f  c #756B72",
"g  c #786E76",
"h  c #7A7175",
"j  c #7D747A",
"k  c #9A480F",
"l  c #9A4D15",
"z  c #98521B",
"x  c #A45B12",
"c  c #BE5515",
"v  c #AB6017",
"b  c #885525",
"n  c #9E5428",
"m  c #A1572D",
"M  c #9F6430",
"N  c #BC7429",
"B  c #AB7238",
"V  c #DB5A0C",
"C  c #EF5C02",
"Z  c #F45502",
"A  c #F45D01",
"S  c #F85D02",
"D  c #DC780A",
"F  c #C56C16",
"G  c #C86C15",
"H  c #D76418",
"J  c #EE6401",
"K  c #EA6C04",
"L  c #F56302",
"P  c #FC6402",
"I  c #F56B03",
"U  c #FD6B02",
"Y  c #F4640A",
"T  c #F26C0B",
"R  c #FE6E0B",
"E  c #EE7103",
"W  c #EA780C",
"Q  c #F47304",
"!  c #FB7303",
"~  c #F57D03",
"^  c #FB7C02",
"/  c #F9780C",
"(  c #E16A16",
")  c #F76C12",
"_  c #EA7B16",
"`  c #EB7A17",
"'  c #F97A14",
"]  c #C97127",
"[  c #CA7B34",
"{  c #85684C",
"}  c #956747",
"|  c #956D4A",
" . c #956B53",
".. c #997151",
"X. c #A66F40",
"o. c #A37249",
"O. c #B27A46",
"+. c #A87856",
"@. c #8A766B",
"#. c #977C6D",
"$. c #80777D",
"%. c #81797D",
"&. c #887B7B",
"*. c #987E71",
"=. c #B6953C",
"-. c #EC830B",
";. c #F58405",
":. c #FC8502",
">. c #F68A04",
",. c #FE8B02",
"<. c #F5850C",
"1. c #FC850B",
"2. c #FB8C0C",
"3. c #FD9302",
"4. c #FC9D02",
"5. c #F7960A",
"6. c #FD930B",
"7. c #FC9B0C",
"8. c #E48518",
"9. c #F68210",
"0. c #F78813",
"q. c #FC8A13",
"w. c #E9971F",
"e. c #FF9314",
"r. c #FD9C14",
"t. c #F79818",
"y. c #FDA501",
"u. c #FEA901",
"i. c #F7A708",
"p. c #FCA40C",
"a. c #FDAD0C",
"s. c #FEB103",
"d. c #FEB00D",
"f. c #FAA312",
"g. c #FDAD13",
"h. c #FDB214",
"j. c #FCBF17",
"k. c #FEB419",
"l. c #FDBE1B",
"z. c #DE9432",
"x. c #F3902A",
"c. c #DBB13D",
"v. c #F8B621",
"b. c #FABB24",
"n. c #F9BC2B",
"m. c #ECB53B",
"M. c #FCBA35",
"N. c #FDC017",
"B. c #FDC01A",
"V. c #FBC42E",
"C. c #FECC2D",
"Z. c #FAC233",
"A. c #FECC33",
"S. c #F7C439",
"D. c #FDCC3E",
"F. c #FFD239",
"G. c #BE8957",
"H. c #978477",
"J. c #AD9965",
"K. c #CB8C48",
"L. c #C79948",
"P. c #D1A947",
"I. c #F4BB52",
"U. c #FCCC44",
"Y. c #FBC548",
"T. c #FAD24E",
"R. c #EEC35B",
"E. c #F9C859",
"W. c #FCD553",
"Q. c #FBD55B",
"!. c #FCDB5C",
"~. c #FFE442",
"^. c #F4C961",
"/. c #FCD964",
"(. c #FCDC72",
"). c #F8D975",
"_. c #FDE26B",
"`. c #FBE86F",
"'. c #FCE474",
"]. c #FDEA74",
"[. c #FCE57A",
"{. c #FDEA7D",
"}. c #FEF17F",
"|. c #807780",
" X c #857B82",
".X c #887F85",
"XX c #8B8186",
"oX c #8D848A",
"OX c #988886",
"+X c #90878D",
"@X c #92898E",
"#X c #9F908D",
"$X c #918790",
"%X c #958C92",
"&X c #988F95",
"*X c #9A9195",
"=X c #9D939A",
"-X c #A0979F",
";X c #A2999E",
":X c #A49BA1",
">X c #A89FA5",
",X c #ABA1A6",
"<X c #ADA4AA",
"1X c #B1A7AE",
"2X c #B2A8AF",
"3X c #B4AAB1",
"4X c #B9AFB7",
"5X c #FDE782",
"6X c #FEEB84",
"7X c #FDED8A",
"8X c #FEF186",
"9X c #FEF28C",
"0X c #FDF593",
"qX c #FDFB94",
/* pixels */
"s h H.oX@X%X@X@X=X;X;X,X,X<X1X2X<X1X,X>X:X;X%X=Xs * u *X*X@X=X@X=X:X:X:X:X=X=X=X=X=X=X&Xw i .X%X X.XXXXXXX&.&.h s , y &.",
"#X;X;X;X;X;X;X;X;X;X;X:X;X;X;X;X;X:X;X;X:X;X;X,X%., a *X=X=X,X,X:X:X:X>X<X>X-X-X-X>X=X|.> r :X>X:X,X,X>X;X;X*X;Xs 2 a @X",
"%X#X%X*X*X*X*X*X%X@X%X*X#X*X*X*X*X*X*X@X*X%X@X=Xa * 9 oX*X*X,X=X=X&X&X-X:X-X=X=X=X-X=Xd : 1 -X1X%X#X=X;X#X@X%X#Xa % y XX",
"oXXXH.XX@X@X@XH.oXXX@X*X;X;X;X;X*X*X*X*X*X%X@X&Xu * t @X=X*X;X%X%X+X+X$X.X%X.X%X.X.X=Xg > > .X:X%X@X+X%X%X*X*X;Xa , y XX",
"@XoX XH.%.%.%.s j j XX+X@X+XXXXXoXoX+X%X=X*X&X;Xa : u $X:X=X=X@X|.|.|.|.|.|..X.X.X.X-X|.> > .X:XXX%.h H.@X%X%X*Xp * p oX",
"H.%.h h %.s s a a a s j |.j f d s h j XX%X&X@X*Xt @ 9 H.=X*X%XoXr i d f f g |.$X.X.X=Xg > 5 =X=X@X%.h XX=X*X#X=Xe * y OX",
"%.s s s h %.%.s f a h j XXj j g %.%.%.XX%X%X@X&Xu , t XX;X*X%XXXf f j  X X.X$X&X.X.X&Xd > 5 =X-XoXh s XX*X%X%X%Xf , i oX",
"h a u a s %.%.%.h g g j j h g d s h h j XXoXXX+X7 * t oX;X%XXXh f g |..X.X.X$X%X&X.X.X|.8 > .X:X+X%.j @X*X%X@X*Xf , u oX",
"%.%.s h s j h j j |.j g g g d d s h h j j H.@X%Xt + a %X@X*XXXj g j  X.X.X.X.X&X$XoXoXr 4 3 j &X@Xj h @X=X%XoX%Xf < g @X",
"%.%.%.%.%.j s s %.H.j g d d r d f s h j |.XXoX%Xa @ a *X%X%XXXj .X|.|. X.X.X.X.X.X$X&Xd : 1 $X-X@X Xj XX$X$XoXoXd * t +X",
"%X*X%X*X%X%X@XoX|.|..X$X$XoX.X|. XXXXXoX+X%X%X=Xt @ u %X%X%X@X*X&X%X$X%X=X&X=X=X&X&X=Xg * > %XXX%XXXXXoX$X%X&X=Xj < t oX",
"t t u u t t 7 6 t 3 < < 3 3 3 > , < < < < < 2 1 0 , 7 s t t u u i i i p r w 3 1 1 1 8 u < O 8 , 4 6 4 4 5 w r t g < 7 d ",
", , , , : * * * @ @ : > : : > @ @ @ @ @ @ % b z x x x x x x x x x k k l l z - * : * : < < O > O * : : * * : : * < @ : < ",
": : : , , < < < * < 8 1 O > 5 4 7 7 7 7 2 b 3.,.3.,.,.,.3.,.,.3.,.! R ' R R ( % * O : O @ O @ : : : : : * : * @ @ @ : @ ",
"OX@X*X=X;X;X,X,X3X1X-Xu > w %X-X,X;X%X-.D ;.y.y.y.4.y.y.p.y.y.4.p.f.i.f.q.1.9._ -.v |.=X:X-X=X&X&X&X&X=X=X&X$X$XoXoXoX.X",
"*X*X=X;X;X;X>X>X>X-X$Xt > u &X%XH.@.| y.3.4.u.y.u.y.i.d.g.i.a.i.h.g.y.y.6.e.7.p.p.8.6 H.<X<X,X1X2X<X<X1X<X-X=X=X=X=X&X=X",
"&X&X=X=X=X-X-X&X&X-Xj 6 : i XX@.0.:.3.u.u.u.y.u.u.u.u.a.k.h.k.u.u.h.k.i.y.y.u.C.A.C.D.~.J.=X:X&X$X&X=X:X:X=X=X&X%X=X&X%X",
"&X&X=X&X@X%X-X;X=X:X.X7 : { B N i.3.4.u.u.y.u.a.5.~ ~ ~ <.9.0.1.~ 4.a.a.y.y.h.!._.T.5.p.8.+.G.oX X.X+X$X$X$X$XoX$X=X=X%X",
"$X$X%X.X.X.X%X;X=X:XXX3 $ 2.3.3.u.a.u.y.u.u.a.h.<.L S L L S Y ) ) 4.y.y.u.i.k.6X0X/.;.,.,.,.3...g g $. X X|.|.|.oX%X%X$X",
"%X.X.X.X%..XXX;X=XoX] W -.p.y.y.y.g.a.d.k.t.T T ' q.:.:.:.:.^ :.:.I L W '.8X}.6X5X5X[.7XY.^ :.;.W ` |. X|.$.g g |.oX%X$X",
"&X.X X$.j j  X&.@. .>.3.3.u.u.y.y.u.p.t.r.0.) I q.7.6.6.,.3.,.3.,.! I W I.I.^.{.5X[.Q.!.M.,.3.,.,.2.o.+X Xj g |. X$X$X$X",
".X|.i r w u e ] ,.,.y.i.u.y.y.u.u.s.r.Y A Q e.e.r.a.k.a.u.u.u.u.y.>.:.^ A Z W {.qX!.y.y.i.i.u.3.:.:.,.,.t.g g j  X$X$XoX",
"|.g i r w w 6 D :.>.y.u.y.u.u.4.<.' 9.q.' q.p.p.g.h.h.y.u.y.y.y.u.Y.E.Y.1.! <.x.x.x.u.u.u.y.u.3.:.:.:.:.2. Xj |.oX$X$XXX",
"|.|.|.|.a t # W ,.,.y.u.y.4.y.5.J Y Q 6.e.p.g.h.g.a.y.u.u.u.u.d.g.].0X`.t.6.1.S A I y.y.y.u.y.4.,.:.,.,.6.@.oXoX%X=X&X%X",
"d d p 5 M 1.<.4.u.y.y.u.y.I L E p.y.y.y.y.y.a.u.u.y.u.i.y.4.Q.{.{.6X5X5X5X7X/.<.,./ L L ;.u.y.y.y.y.l.A.V.S.S.L.4 4 8 u ",
"& : : & F :.:.y.u.y.u.u.4.L S E y.u.u.u.u.y.y.y.u.u.u.b.Z.Z._.9X6X6X6X{.Q.W.Y.:.,.^ L S ^ u.u.y.u.y.N.A.A.A.C.F.> : : : ",
"> : : % F ,.:.p.u.u.y.u.y.L S E y.y.y.u.u.y.u.u.y.y.y.T.9X9X6X6X6X6X9X`.i.y.4.,.,.^ L S ^ u.u.y.u.y.l.F.A.A.C.F.* : @ @ ",
"$.$.$.5 G ,.:.y.u.y.u.u.4.L S E y.u.u.u.u.y.y.y.V./.Q.'.6X6X6X6X8XZ.b.v.u.u.y.,.:.^ L S ~ u.u.y.u.y.B.A.A.A.C.U.t d g g ",
"@X%X=X9 G ,.:.y.u.u.i.u.y.L S E u.u.u.y.u.u.h.a.T.qX7X6X6X6X'.'._.a.y.y.u.y.y.,.,.^ S S ~ u.u.u.u.y.B.A.C.A.A.D.j *X>X:X",
"XXoX@X6 G ,.>.4.u.y.u.u.4.L S E y.u.y.y.4.Z.7X{.5X6X{.7X9X9Xn.y.p.u.u.y.y.y.4.:.,.^ L A ^ u.u.y.u.y.B.D.A.A.C.D.f =X:X&X",
"XXoX%X9 G ,.:.y.u.u.u.u.4.L S Q y.y.h.D.S.Q.9X7X6X6X7X!.U.T.g.y.y.u.u.y.y.u.p.:.,.^ L S ~ u.u.y.u.y.B.A.A.A.C.D.f =X:X%X",
".XoXoX0 G ,.:.4.u.y.u.u.y.L L T y.y.n.9X9X8X5X6X6X6X8Xb.4.y.y.u.u.y.y.u.y.u.y.:.,.^ L A :.u.u.u.u.y.l.A.C.A.A.D.d =X:X%X",
" XoX+X0 F ,.:.p.u.y.y.y.4.L S _ /./._.6X6X6X7X9XT.k.v.a.u.u.y.y.u.y.y.u.y.y.y.,.:.^ L A ^ u.u.u.u.y.l.A.A.A.A.S.t @X*X:X",
"oXoXXXa F ,.:.y.u.u.k.k.g.I A _ 9X9X9X5X6X'._._.n.y.u.y.u.u.y.u.u.y.u.y.y.u.y.:.:.^ L S ~ u.u.y.u.y.l.A.A.A.C.m.a *X*X;X",
"+X X&.i N ,.:.4.y.i._.9X(.I S _ 6X6X6X9X0XW.y.i.y.u.u.u.y.y.u.u.u.u.u.u.u.u.y.:.,.^ S A ~ u.u.y.u.y.j.F.A.A.A.c.f *XoX@X",
"+XH.XXs N ,.>.Z.U.Y.[.8X).Y C _ {.6X].S.U.n.y.y.u.u.y.y.y.y.y.y.y.y.y.y.y.y.4.,.,.^ L S ~ u.y.y.u.y.l.A.A.A.C.=.h @XH.XX",
"XX+XXXoXG.>.2.'.0X9X7X8X).K C _ 6X9XW.y.y.y.u.y.u.u.y.u.y.u.y.u.u.y.y.y.y.u.p.,.,.^ S A ;.u.u.u.u.y.l.A.C.P.L.=.h *XH.|.",
"XXXXXX%.%.h q 8.r.t.'.6X5X).).R.T _ 0.s.u.u.u.u.u.u.u.u.u.u.y.u.u.u.y.y.3.,.,.L L Q 4.4.y.y.y.4.,.,.3.6.z.a 6 , s %XXXXX",
"XXXXXX%.j j h v :.:.(.7X6X_.'.Y.I I Q 4.3.4.u.y.y.y.y.u.u.u.y.y.y.y.y.y.:.^ ^ Q I ~ u.u.u.y.y.3.:.:.^ :.L.a 7 < h @X%.XX",
"oXoX@X@XXXj %.z.3.6.].0X].y.i.u.u.u.3.C C ~ s.u.u.u.u.y.y.y.y.u.y.u.s.p.J Z I y.u.y.u.y.u.u.u.4.:.,.2.K.L.a 6 @ j *XXXj ",
"f %.a y i i e r 9 ; m.M.M.i.y.y.y.u.y.>.:.;.~ ~ 3.u.y.u.u.u.y.u.y.>.~ ;.>.>.3.u.u.u.y.u.4.~ ;.^ S R #..X|.j t + &.$X X%X",
"2 3 2 < < : * * * * G ^ ^ y.y.y.y.u.u.u.s.>.C A <.a.y.u.y.y.y.u.7.K S L i.u.u.y.u.u.y.u.;.C S V F c > > 3 7 4 @ w r 3 6 ",
"* X @ @ @ + > , , * * * % 2.3.3.i.u.u.y.u.y.y.i.;.L I I I L I L I 4.y.y.y.y.y.u.u.6.I I P P I = @ O X X . @ @ X o @   X ",
", @ u oXoX X.Xj $.h j j j ..B ] 4.4.y.u.u.y.y.u.>.Q ! ! Q ! Q ! Q p.u.u.y.y.y.4.y.>.L I H m m p f d d d d f h f g g r r ",
"7 > .X<X4X2X3X>X1X1X1X<X1X1X1X1Xx.5.r.u.u.u.y.u.u.u.u.u.u.u.u.u.u.u.y.u.u.u.u.,.:.:.,.5.O.=X:X>X:X=X:X:X:X:X:X>X&X&X&X%X",
"i , j $X-X:X3X3X=X=X=X=X&X%X%X%X=X*XOXw.3.4.u.u.u.u.u.u.i.y.u.u.y.u.u.y.~ ~ ~ ! ! [ *.#.OX-X=X>X:X:X*X=X:X&X$X=X:X=X=X.X",
"i > .X&X1X>X-X&X-X:X-X-X-X=X=X=X%X%X&XG.+.{ u.y.y.y.y.y.y.y.y.y.y.y.y.5.L A H c H +.-X+X&X&XoX&X%X=X%X$X=X%X$X&X X|.$Xj ",
"r ,  XoX<X>X=X%X$X%X%X%X%X%X%X%X&X*X:X%Xh 7 { ,.3.,.3.,.,.3.,.3.,.! U U P P n i f #X:X%X-X-X&X=X%X=X%X$X%X$X X.X X|.=X.X",
"7 <  X+X,X=XXXj oX+X+X+X+X+X@X%X%X=X=XoXj 7 t @ 9 XX#XH.J.} } X.o.} { .. .; $ f h *X=X=X*X=X-X%X=X$XoXoX$XoX.X.X.X.X%X X",
"7 < j oX,X&XXX%.XXXXXX X%.XXXXoX@X=X=X%XH.7 7 O 7  X%X+X.Xj h j j h j j g 6 + f f $X&X%X&X&X:X%XoXXX.XoXoX.X.X.X.X X$X|.",
"7 <  XXX,X%XXXj %. X%. X%.XX%.XX+X*X=X%XXX9 7 O 7 XX%XoXoX X$.&.XXXXXX Xh 8 & a j *X&X&X=X&X&X X|.|.|.|. X|. X.X.X.X$X|.",
"6 , j oX=X@X%.h f h j .XoXXXXXj XX%X*X*X+Xt 7 @ 9 XX%XXX X%.h $.XX+X+XH.h 9 & g |.=X&X&X=X&XoXj g j j j j |.|..XoX.X&X X",
"3 , j XX=XXXs a u i f j XXoXoX.XXX+X%X@XXXt 7 @ w oX%XXX X%.g j H.OX+XXXh 0 @ a j $X$XoX$X$XXXd g g g j j j j |..X X%X|.",
"2 < j XX%Xj a 7 y e y a j  X.X.X|.XXXXoX X7 9 @ y oX*XXXXX Xj %.|.XXXXXX%.0 * a |.%X%XoX$XoX|.g g g j g j j g j |.j oXj ",
"4 < j  X$Xj u t p y w y f j  X|.j  X XXX X7 7 @ p @X&X X XXX XoXXXXXXXXXj t * a |.:X=X$X.X|.|.g g j |.j g g j j |.j .Xj ",
"4 <  X X$Xj f i f i u i g j |.g j j  XoX Xw w * d $X$X Xj  X XoX+XXX&.XX%.9 * s |.=X*XoX.X|.|.j d j .Xg d d j j  X|.oXg ",
"7 :  XoXoX%X%X.Xj |.|. X.XoXoX$XoX@XoXoX.Xf 8 @ d =X<X=X.X.X$XoX+X+X*XoXXX7 @ f $X;X:X$X$X$X%X$X.X$X&X$Xj j  X X|.|.j |.",
"t 3 XXj i e r r r r i i i d f f f g d i u w 7 : f j g d d g g f j u t 9 g p , u j j d f j j g d d d g f r d d d f f g g ",
"3 < u 4 > : * 1 : > > > > > , > < 3 , > > > < * 4 : @ : > 1 > > 2 , * @ 6 6 @ 7 1 > @ > 3 1 : > > : > < : > < > 3 1 3 7 ",
": @ * @ @ : @ > : : : : & * : : @ * @ @ @ O * O & O X : : @ @ & . + * + @ @ + , @ O O : > O O > : @ : : : : : @ @ O O @ "
};
