/* XPM */
static char *_303edec34914d9f82f5b04a8a0c3fd4KeesyqIurSwfPcdg[] = {
/* columns rows colors chars-per-pixel */
"60 60 195 2 ",
"   c #2C2228",
".  c #32282C",
"X  c #39322F",
"o  c #352B32",
"O  c #382E35",
"+  c #382E38",
"@  c #3A3235",
"#  c #3C333A",
"$  c #4E3A2F",
"%  c #40353C",
"&  c #40383D",
"*  c #483B3C",
"=  c #5A4E3C",
"-  c #6D4B2B",
";  c #7D4C22",
":  c #7B6833",
">  c #443B42",
",  c #493D47",
"<  c #4A4146",
"1  c #4C434A",
"2  c #534745",
"3  c #53494F",
"4  c #5E5442",
"5  c #554B53",
"6  c #584E56",
"7  c #5A4F58",
"8  c #5C5356",
"9  c #5E555A",
"0  c #66574B",
"q  c #665C57",
"w  c #60565D",
"e  c #62595E",
"r  c #706751",
"t  c #645B61",
"y  c #685F64",
"u  c #695F68",
"i  c #6A6065",
"p  c #6C636A",
"a  c #70666C",
"s  c #72696D",
"d  c #7A6C68",
"f  c #7A7267",
"g  c #706670",
"h  c #756B72",
"j  c #786E76",
"k  c #7A7175",
"l  c #7D747A",
"z  c #A25E19",
"x  c #B96B1D",
"c  c #9C5F24",
"v  c #9A622F",
"b  c #92653C",
"n  c #A26020",
"m  c #A3723C",
"M  c #B57634",
"N  c #F55F00",
"B  c #C9730D",
"V  c #D5750D",
"C  c #D97909",
"Z  c #C36C11",
"A  c #D87611",
"S  c #F56201",
"D  c #F46B02",
"F  c #F96E02",
"G  c #F16F08",
"H  c #F57403",
"J  c #F97303",
"K  c #F67B02",
"L  c #FB7B02",
"P  c #EB6810",
"I  c #F37912",
"U  c #F27D1A",
"Y  c #8D6848",
"T  c #956A44",
"R  c #986D47",
"E  c #886D59",
"W  c #936E52",
"Q  c #857756",
"!  c #98765B",
"~  c #AF7741",
"^  c #89796A",
"/  c #957A6B",
"(  c #807575",
")  c #80777D",
"_  c #81797D",
"`  c #937E75",
"'  c #C0784B",
"]  c #BD9938",
"[  c #E68709",
"{  c #F68103",
"}  c #FE8601",
"|  c #FE8B02",
" . c #F68908",
".. c #EF950F",
"X. c #F69507",
"o. c #FC9302",
"O. c #FD9C02",
"+. c #FF9C0F",
"@. c #F38A15",
"#. c #FEA501",
"$. c #FEA801",
"%. c #FDA60C",
"&. c #FEAF09",
"*. c #FDB20D",
"=. c #FCA414",
"-. c #FDB414",
";. c #FDB915",
":. c #FCB419",
">. c #FDBD1C",
",. c #D48923",
"<. c #EF8723",
"1. c #EA8922",
"2. c #F08723",
"3. c #F79A26",
"4. c #CAA534",
"5. c #DFB338",
"6. c #FCAB26",
"7. c #FCB728",
"8. c #FCBF2C",
"9. c #EBBD38",
"0. c #FDC01E",
"q. c #FDC224",
"w. c #FDC32C",
"e. c #FDC92E",
"r. c #F7C434",
"t. c #FAC433",
"y. c #FECB33",
"u. c #FECD39",
"i. c #A88955",
"p. c #888168",
"a. c #95826F",
"s. c #8B837C",
"d. c #928873",
"f. c #9B917A",
"g. c #B49B65",
"h. c #CCA848",
"j. c #F3AA43",
"k. c #F6B74D",
"l. c #C6B66C",
"z. c #DBBF6E",
"x. c #F7CA47",
"c. c #FDD143",
"v. c #F5C656",
"b. c #FBD656",
"n. c #FEDB59",
"m. c #E5C963",
"M. c #FDD86C",
"N. c #F8DD73",
"B. c #FEE168",
"V. c #FFE575",
"C. c #FCE57D",
"Z. c #FEEA7D",
"A. c #807780",
"S. c #857B82",
"D. c #887F85",
"F. c #8B8186",
"G. c #8D848A",
"H. c #90878D",
"J. c #93898E",
"K. c #9D9580",
"L. c #918790",
"P. c #958B92",
"I. c #968D91",
"U. c #988F95",
"Y. c #988F96",
"T. c #9A9193",
"R. c #9A9195",
"E. c #9A9196",
"W. c #9C9395",
"Q. c #9C939A",
"!. c #9D939A",
"~. c #9E959A",
"^. c #9F969C",
"/. c #A1988B",
"(. c #A0979F",
"). c #A1999E",
"_. c #A29A9E",
"`. c #A39AA1",
"'. c #A49BA2",
"]. c #A69CA1",
"[. c #A89FA5",
"{. c #ABA1A6",
"}. c #ADA3AA",
"|. c #AEA5AA",
" X c #B1A7AE",
".X c #B2A8AF",
"XX c #B4AAB1",
"oX c #B9AFB7",
"OX c #CFC185",
"+X c #E8D886",
"@X c #F7E483",
"#X c #FEEC83",
"$X c #FEEC89",
"%X c #EADAA1",
"&X c #FEEDAD",
/* pixels */
"h k s.G.J.K.J.J.~.~._.{.|.|.|.XX|.|.|.{.`.~.U.~.k # i R.R.J.~.G.!.`.`.'.`.!.!.!.!.!.Y.Y.t u D.L.D.D.F.F.D.` ( j h < y s.",
"W./._._._.]._._._._._.]._._._._._.'._._.`._._.{.l < s W._.~.|.'.'.'.'.}.}.[.'.'.`.[.`.A., u '.[.'.}.}.{.[._._.!.k 5 s J.",
"T.T.T.T.T.W.T.W.I.J.I.W.W.T.T.R.U.T.I.J.U.I.I.~.s @ t G.U.U.]._.!.U.U.`.`.!.Y.!.Q.`.Q.g % 3 `. XP.U.W.T.T.J.J.T.p & i F.",
"H.F.s.F.J.J.G.G.G.F.J.W._._.~._.Q.~.T.T.Q.I.J.U.p & i L.^.~._.I.P.L.H.H.L.H.D.L.P.S.Q.j 3 > S.'.P.J.J.U.T.T.U._.p = i F.",
"J.G.F.s.s.s.k f l _ s.H.P.H.F.F.F.G.H.L.~.~.U.^.s > i J.'.~.~.H.) ) ) ) ) l S.D.S.D.(.A.7 , D.`.G._ k s.J.J.I.T.a * p J.",
"s._ k k k k s a p s h l A.l h h j k l F.I.I.J.U.i # t S.~.R.I.G.u a a j g j S.H.D.D.`.g 5 , !.!.J._ k F.T._.W./.i & i G.",
"l f d h ( _ _ k h h k l _ A.j j l _ l F.I.I.J.R.i > i F.`.R.J.F.g j ) A.S.D.L.!.D.D.!.h , 7 Q.(.H.k j F.U.I.H.R.h < p L.",
"k h i a k _ _ _ k h k l l l h g k k k _ F.F.F.J.t > t G.`.I.F.k g j ) D.L.D.H.L.D.D.D.A.7 , D.(.H.l l H.R.P.H.W.h > p G.",
"l k k k k k k k l _ l k j g g g h k k l l F.J.T.t @ s J.I.W.F.l l l A.D.G.D.D.U.L.G.G.u 7 5 l !.H.l l J.U.P.L.L.j 1 h L.",
"s.s.l l l l k k _ _ l k g g g g h k k k l _ J.I.s # s W.I.J._ _ S.A.A.S.D.S.D.D.F.G.Q.u > 3 L.!.J.s.k F.L.L.F.G.s & i J.",
"T.T.W.R.U.I.H.F.A.A.F.L.L.L.S.A.s.F.F.F.J.U.W.W.e @ p T.I.I.J.I.!.L.H.P.!.!.U.!.!.U.!.j # , L.D.L.G.F.G.L.U.!.!.l < i G.",
"i i i i i t 9 9 t 5 1 1 5 5 5 1 < < 1 1 3 1 3 5 i 1 i _ k l k l l l h h u t 6 5 5 , t u < # t , 8 6 6 6 7 9 u p j 1 9 h ",
"< < > > > > & & # & > , > , , # # # # # # # # @ > X * < @ # < @ o O # # # > > % , % > 1 1 + , # > > > % % > > % < # > 1 ",
"& < = < < 1 1 1 > 1 w 5 + > 6 6 9 9 8 9 e 9 e 9 8 6 8 3 1 3 6 < 3 3 1 , > > , , % # > O # o # > % > , > & & % # % # % # ",
"G.J.U.^.^.`.[.{.XX|.(.p , t P.(.{._.'.].{.{.|./.K.K.f.! R b Q T W / / ` G.U.L.G.9 1 S.!.].`.!.R.U.U.U.!.!.U.L.P.G.G.G.D.",
"T.W.^.^.`.`.`.{.'.`.L.t , u U.P.T.T.J.I.I.T.d.#XZ.#XV.6.o.| | | } | | | ~ `.U.D.y   p !.}.}.[.XX X}.}. X}.`.!.!.^.!.U.!.",
"P.Y.!.!.!.!.!.!.U.`.A.7 , g D.Y.T.W.W.W.i.5.9.c.y.>.-.#.#.#.#.O.#.O.#.#. .C M _ w % e !.'._.].!.L.!.!.`.`.!.!.!.L.!.!.L.",
"Q.Q.Q.!.L.Y.!.`.Q.`.D.9 , g D.U.I.I.s.d.z.N.x.7.;.$.#.#.#.$.$.#.#.#.#.$.O.O.[ Y 0 # 9 !._.!._.G.S.D.D.L.L.L.L.D.L.!.!.P.",
"D.P.P.D.D.D.Q.`.Q.`.D.9 > p F.L.k f %X&X&X&XM.$.$.#.$.#.#.#.#.#.#.#.$.$.$.$.#.|  .$ 8 !.]._.U.D.j l A.S.S.S.A.l F.U.U.L.",
"Y.D.D.D.A.D.D.Q.Q.Q.D.9 # p l : V C 3.6.6.7.:.#.$.$.#.{ D H D D H H X.$.$.$.#.#.O.[ A / {.!.I.) j j A.S.A.l l j A.H.U.G.",
"Y.D.A.A.l l S.D.Y.Q.D.t # 0 : ] =.=.o.o.#.#.#.$.O.X.| J D F F F F J { | O.#.$.$.#.O.o.B a.I.J._ A.S.D.L.D.l j l S.L.L.H.",
"D.A.g u t u h A.L.Y.D.9 X ] u.y.e.q.$.#.$.$.#.#.O.D S L | } } } } } F S { %.#.$.$.#.$.o.} C f k A.D.H.P.D.l j l S.H.H.G.",
"A.j u u t t g j D.D.q ] 4.r.y.0.*.*.#.$.$.$.X.H J K } } } } } } } } L K K H K #.$.#.#.#.O.X.V M D.D.D.U.H.S.l A.D.L.L.G.",
"S.A.A.A.l g j A.D.D.4 9.y.y.y.0.$.#.$.$.O.o.{ D F } | } } } } } } } } } L D H | o.#.$.$.$.#.}  .E L.L.`.`.U.G.D.U.!.!.L.",
"g g g u w 7 7 7 t 9 = 9.u.y.e.>.#.#.#.#.K S F } } } } } } } } } } } | } } } K D G X.#.#.$.#.}  .- t y 9 6 6 1 , 6 6 t t ",
"# > , , , , , , 2 l.l.B.B.r.*.&.$.#.K H K L L } } } } } } } } } } } } } | #.%.v.k.@.H | $.#.O.O.A Z > , , % % 5 , > , > ",
"> > , > % % % % r $X$X#XZ.w.#.#.#.O.D S L } } } } } } } } } } } } } | o.O.#.;.Z.#X2.N { $.$.$.$.| | ; % > # # > > > % # ",
"( A.A.A.A.S.A.A.Q $X#X$X#Xw.#.$.$.O.D S L } } } } } } } } | } } } } O.#.$.#.;.C.@X2.S { $.#.$.#.| | c u g p w + t g j j ",
"L.U.!.`.[.[.}.}.p.#X#X#X#Xw.#.$.$.O.D S L } } } } } } } } } } | O.O.#.#.$.#.;.V.#X2.N { $.$.$.$.| } n D.U.A.p + l U.'.!.",
"D.D.L.U.Y.Y.Y.L.p.#X#X#XZ.8.$.$.$.O.D S L } } } } } } } } | o.o.#.$.#.#.$.#.:.C.C.2.N { $.#.#.#.o.| z Q.`.p 9 + j !.'.!.",
"D.D.U.!.`.'.(.!.p.$X#X#X#X8.#.$.#.O.D S L } } } } } } } } o.#.#.#.$.#.$.#.#.:.V.Z.<.N { $.#.#.#.| } z G.'.y t > h ^.'.I.",
"D.L.D.P.L.D.D.D.f $X#X#XZ.8.#.$.$.O.D S L } } } } } } o.O.#.#.#.$.$.$.#.*.>.e.Z.@X<.S K $.$.#.#.o.| c l !.g p + a !.'.U.",
"D.G.H.H.G.G.k p r $X#X#X#X8.#.$.#.O.D S L } } } } } | #.$.$.$.$.#.$.&.&.>.y.c.Z.C.<.S { #.$.$.#.o.} n l J.k w * y J.W._.",
"L.D.D.D.F._ _ _ f @X#X#X#Xw.#.$.$.O.D S L } } } } #.#.#.$.$.$.#.$.$.7.y.y.y.c.#X@X<.S { $.$.$.#.o.} v l H.s q & p T.W._.",
"J.D.A.D.s._ S.G.l +X#X#X#X8.#.$.$.O.D S L } } O.O.$.#.#.$.$.#.$.;.>.e.y.y.y.c.Z.C.2.N K $.$.$.#.| } b _ J.f 9 & k T.H.J.",
"H.F.` F.F.F.F.S.F.OX#X#XZ.w.#.$.#.O.D S L } o.$.#.$.$.#.$.$.$.*.e.y.y.y.u.y.c.#XC.2.N { $.$.$.#.o.} W _ J.h w & k J.s.F.",
"F.G.F.F.J.G.s.k l F.@X$X#Xw.#.#.$.O.D S K } o.#.$.$.$.#.#.-.w.e.y.y.y.y.y.y.c.#XZ.<.S K #.$.$.#.o.| ! F.H.s 8 % k I.F.s.",
"F.G.F._ _ s.( s k k d.m.n.t.;.*.#.#. .{ K J } o.O.#.$.*.;.q.y.y.y.y.y.e.c.n.b.j.j.@.{ X.$.#.O.X.m ^ S.S.G.s 8 * k I._ F.",
"F.F.F._ ( k k k k l A.h.y.y.y.>.$.#.#.%.K S H } } #.$.0.y.y.y.y.e.y.u.u.n.N.v.G D o.$.#.#.#.}  .F.F.F.F.J.d w < k J._ F.",
"G.G.J.J.F.l _ G.s.F.S.g.r.y.y.>.$.#.$.#.#.O. .S H #.$.>.y.y.y.e.y.u.B.Z.k.I U X.O.#.#.#.#.O.| 1.R.^.R.I.R.a 8 % k T.F._ ",
"h _ s i p a y y 9 t i i h h.y.q.-.*.$.$.$.$.O.K { {  .r.n.n.n.b.n.b.k.k.3.K { #.$.$.$.#.O.,.^ d l A.D.D._ _ y @ _ I.S.P.",
"3 3 5 1 1 > % % & > > < < < 5.r.t.8.$.$.$.$.#.$.O.D D k.@XN.C.C.C.N.<.S  .$.$.$.$.$.$.[ x 2 < , > % , 1 1 9 5 @ e y 5 7 ",
"& o # % @ # , , < > # # & & # : +.+.| o.#.$.$.$.#.O.O.@.U U U U U U X.O.#.#.$.$.$.O.[ + @ O o o % o o o o # % o @ #   o ",
"< # p G.G._ D.l l k l l l k k k W x H K { | O.#.$.$.#.{ L L K K K K O.$.$.#.#.O...p u u p p p a h g g g a h j j j j p u ",
"9 , D.|.oX XXX[. X X X}. XXX X.X X{.' P P S  .$.$.$.$.$.#.#.$.#.#.#.$.$.#.#.X.d L.Q.U.Q.].`.!.[.`.^.^.`.'.`.`.[.U.U.U.P.",
"p < l H.`.'.XXXX!.!.!.U.I.I.P.P.!.W.R.H.i.7.7.q.>.$.#.$.$.$.$.$.#.#.$.$.O.o.& p G.(.(.!.'.`.!.[.'.'.^.^.`.Y.L.Y.].!.!.D.",
"p , D.U. X[.`.!.'.`.`.`.!.!.!.!.U.J.R.H.) q Q x.c.w.7.%.#.O.O.#.O.#.O.O.( 7 , g A.!.!.P.Q.U.L.U.P.!.L.L.Y.Y.L.U.D.A.L.l ",
"u 1 A.G.}.'.!.P.L.L.P.L.U.P.P.U.U.R.].P.k e 9 # 9 J.R.U.U.F.F.F.` ! ! S.A.9 , p j !.(.U.Q.`.U.!.P.!.Y.L.Y.L.S.D.S.S.!.D.",
"9 1 S.J.{.R.G.l G.H.J.G.H.H.J.I.T.^.!.H.l e e & t F.R.U.H.l h l ( k k _ _ w @ d k U.^.!.U.!.(.!.!.L.F.G.L.G.D.S.D.D.P.A.",
"w 1 l G.{.R.G.l F.G.F.F.F.S.F.G.J.~.!.J.S.9 9 @ 9 F.R.P.G.F.l A._ _ _ F.l w @ j h J.U.I.U.U.!.P.L.F.F.F.G.F.D.F.D.S.L.A.",
"8 1 S.F._.U.F.l l _ F.l l S.S.S.G.T.!.U.F.e 9 @ 9 F.P.G.F.F.l s.F.F.s.s.k e % d l T.U.U.^.!.U.D.A.A.A.A.A.A.A.G.D.D.L.A.",
"8 < l G.^.U.l k h k l F.G.F.F._ F.I.T.T.G.y 9 # 9 F.P.F.F.l k l F.L.J.F.k e & s _ !.U.P.U.U.H.k h j l A.A.A.A.D.G.D.U.S.",
"3 < l F.^.F.k p i p h l F.G.G.S.F.L.P.I.F.t e # y F.U.F.F.l l k s.G.G.F.k q # k k I.L.H.L.L.D.j j j j l j A.A.l D.D.L.A.",
"5 < A.F.U.k p 9 i i i a k S.F.F.A.F.F.G.S.e 9 # i G.I.F.S.F.l A.s.G.G.F.( y # g A.!.L.H.L.G.A.g j l j j j A.l j A.A.G.l ",
"6 < _ _ J.l p i g i t i h l A.A.l _ S.F.A.e e & p H.I.S.S.F.D.D.F.F.F.F.l y & h A.(.!.L.D.A.A.j j l l l j j j A.A.l F.j ",
"6 1 A._ P.l s s g g i p k A.A.j l A.A.G.S.e e & h L.P.A.A.S.D.G.J.F.F.s.l t & h A.U.U.L.D.A.A.A.g A.A.l h g j A.A.A.G.l ",
"t < _ G.F.L.I.D.l A.A.A.S.G.L.L.G.P.H.G.S.j 9 # g Q.}.Q.D.F.L.G.F.F.W.J.S.9 # h H.'.`.L.L.L.L.L.F.L.!.L.l l A.D.A.l l A.",
"t 5 F.l p p u u u p g p g g g j g j p p i t 9 > j l j g g j j g l p t e k p 1 p l l g g A.A.j g p g j h i p g g j h j l ",
"5 1 i 6 1 % > 1 > < , , , , , 1 1 5 < < < < 1 > 6 > # > 1 1 1 1 1 < = + 6 6 & w 5 , # < 5 1 > , , > , 1 , 1 1 , 5 5 5 9 ",
"> # > + # > # , & > > > # & > & + > # + + + > + % + + # % # + % . @ # + & & o < # + + % , + + , % # > > % > > % @ + + + "
};
