/* XPM */
static char *_c62a2af002c43aa86730cc13c6d62edXDuorclOHcC371ub[] = {
/* columns rows colors chars-per-pixel */
"60 60 172 2 ",
"   c #2C2228",
".  c #322A2E",
"X  c #352B32",
"o  c #382E35",
"O  c #382E38",
"+  c #393235",
"@  c #3C333A",
"#  c #463633",
"$  c #40353C",
"%  c #41383D",
"&  c #553F33",
"*  c #594134",
"=  c #443B41",
"-  c #493D47",
";  c #4A4146",
":  c #4D434A",
">  c #51474F",
",  c #53494F",
"<  c #554B53",
"1  c #584E56",
"2  c #5A4F58",
"3  c #5B5256",
"4  c #5E555A",
"5  c #705441",
"6  c #635553",
"7  c #60565D",
"8  c #62595E",
"9  c #645B61",
"0  c #685F64",
"q  c #695F68",
"w  c #6A6065",
"e  c #6C626A",
"r  c #786865",
"t  c #72696D",
"y  c #77706D",
"u  c #706670",
"i  c #756B72",
"p  c #786E76",
"a  c #7A7175",
"s  c #7D747A",
"d  c #B77017",
"f  c #8B5625",
"g  c #9E6935",
"h  c #A36522",
"j  c #A1662B",
"k  c #AD752E",
"l  c #B7772B",
"z  c #AA6E31",
"x  c #A0703A",
"c  c #CB730C",
"v  c #C97711",
"b  c #F66301",
"n  c #F66B01",
"m  c #F96D01",
"M  c #F36F0E",
"N  c #F67501",
"B  c #F87502",
"V  c #F67B03",
"C  c #FC7D01",
"Z  c #F2720E",
"A  c #F47D0D",
"S  c #F37313",
"D  c #F2761A",
"F  c #8F6E4F",
"G  c #896A55",
"H  c #866B5B",
"J  c #916E54",
"K  c #987456",
"L  c #A57242",
"P  c #A4754D",
"I  c #A47953",
"U  c #AB7F53",
"Y  c #8A766B",
"T  c #947C6D",
"R  c #80777D",
"E  c #81797D",
"W  c #907C72",
"Q  c #A27F63",
"!  c #DC870F",
"~  c #DC8513",
"^  c #E88708",
"/  c #E88F09",
"(  c #EB8A0C",
")  c #F78402",
"_  c #FE8500",
"`  c #F58906",
"'  c #FE8B01",
"]  c #F6830C",
"[  c #F3880A",
"{  c #EF9208",
"}  c #FD9401",
"|  c #FD9C01",
" . c #F99708",
".. c #FB940A",
"X. c #E68916",
"o. c #E5841A",
"O. c #F58A12",
"+. c #F3881C",
"@. c #F59116",
"#. c #F69617",
"$. c #FF9711",
"%. c #FEA501",
"&. c #FEA901",
"*. c #FCA60D",
"=. c #FDAA0B",
"-. c #FCB20E",
";. c #FDAD11",
":. c #FCB512",
">. c #FDB815",
",. c #FCBC1B",
"<. c #DA8729",
"1. c #C78434",
"2. c #F28623",
"3. c #F39729",
"4. c #F39C37",
"5. c #F49D3A",
"6. c #FDBF20",
"7. c #FDC324",
"8. c #FDC529",
"9. c #FDCA2F",
"0. c #FECA33",
"q. c #FDCC39",
"w. c #BB864E",
"e. c #BB8B5A",
"r. c #8E817F",
"t. c #978277",
"y. c #9A857B",
"u. c #A88365",
"i. c #A1836C",
"p. c #A58B78",
"a. c #C88844",
"s. c #F3A142",
"d. c #F4AA47",
"f. c #F4B34C",
"g. c #F4BB5A",
"h. c #FCD144",
"j. c #FDD44C",
"k. c #F7CE59",
"l. c #FCDC64",
"z. c #F9D46D",
"x. c #FAD975",
"c. c #FADA79",
"v. c #FEE267",
"b. c #FDE169",
"n. c #FDE573",
"m. c #807780",
"M. c #857B82",
"N. c #887F85",
"B. c #8B8186",
"V. c #8D848A",
"C. c #908383",
"Z. c #90878D",
"A. c #938A8E",
"S. c #9E928E",
"D. c #918790",
"F. c #958C92",
"G. c #988F95",
"H. c #9A9295",
"J. c #9D939A",
"K. c #9F9898",
"L. c #A79793",
"P. c #A0979F",
"I. c #A2999E",
"U. c #A59BA2",
"Y. c #A89FA5",
"T. c #ABA1A6",
"R. c #ADA4AA",
"E. c #B1A7AE",
"W. c #B2A8AF",
"Q. c #B4AAB1",
"!. c #B9AFB7",
"~. c #BCB3B8",
/* pixels */
"y a r.V.A.S.A.A.K.K.U.T.T.R.E.W.R.R.R.Y.U.K.G.K.p % w H.H.D.K.D.J.J.U.U.U.J.G.J.J.P.G.G.9 u N.F.M.N.C.V.N.E E y y = q M.",
"H.L.K.I.U.U.K.K.I.K.I.Y.Y.K.P.P.I.U.I.P.U.I.P.Y.s ; t H.K.K.R.U.U.U.U.R.R.Y.U.U.P.Y.J.m.- e U.T.U.T.R.R.I.I.P.L.a : t A.",
"F.S.F.S.S.K.K.S.A.A.F.H.H.K.H.J.G.H.G.A.G.F.D.K.t + 9 V.G.H.U.K.J.J.G.P.P.P.J.J.P.P.P.u = - P.E.F.J.J.S.S.A.F.H.e * w V.",
"V.C.B.B.V.A.V.B.V.V.A.H.K.K.K.K.H.K.H.H.H.G.D.H.u % 0 A.P.H.P.G.F.Z.Z.D.F.N.N.D.N.N.G.p - - N.U.F.C.A.F.H.F.H.I.t ; w V.",
"A.B.r.r.r.E E y s s N.Z.D.Z.V.N.B.Z.Z.D.K.H.H.K.t = q A.U.K.J.D.R R R R R m.M.N.N.N.J.m.2 = N.U.V.E a B.A.F.F.S.t * e V.",
"r.E a a a a y t t t y s E s p u p a E N.F.F.D.H.0 % 8 N.K.G.A.V.e q u i i p M.Z.N.N.P.p - - J.P.A.s a B.H.J.H.J.w @ 9 V.",
"E y y y a E s a y u a m.M.E p p s s E N.F.A.A.H.w = 0 N.I.H.D.N.u p m.m.M.N.D.J.N.N.N.u - 2 J.P.V.a y V.H.F.A.S.i ; e D.",
"a y w t y E E E a p i s s a p u a a a E V.V.N.A.8 = 0 B.U.H.N.s p p m.N.N.N.D.D.G.N.G.m.9 - N.P.A.s a A.H.D.A.H.u ; e V.",
"s a a a a a a a E E s a p p u u y a a E E N.Z.H.9 + t A.A.K.B.E s s m.N.N.N.N.G.D.V.D.e 2 < m.G.A.s a V.J.F.V.D.p : p A.",
"M.E E E E E a y E m.s p u u q u t a y a E M.Z.A.t % t H.F.A.m.E N.m.m.M.M.N.N.N.N.D.G.e = > D.J.F.r.s B.D.D.V.V.t @ w Z.",
"F.H.H.H.F.F.Z.B.m.m.N.Z.D.D.N.m.M.N.B.V.Z.A.H.K.9 % 0 F.F.F.A.F.G.F.D.F.G.J.J.J.G.G.J.i $ - D.N.G.V.B.V.D.G.G.J.s : w B.",
"w w w w q 8 8 4 9 < : : > < < : : : : : > : , , w ; w E a a a E s s i u e 9 1 > > > 7 q - @ 9 - < 3 1 < 2 7 q q p : 4 i ",
"* ; ; ; = = % % % @ = ; = = - @ @ @ % @ + % + + = + = = + % % @ X + + @ @ $ = = = % = : : O - @ % = = $ $ = = % ; @ = : ",
"= = = ; ; ; : : = : 4 > @ = 1 1 4 3 3 4 4 8 8 8 3 3 3 < ; , 1 ; < < > ; - = - - = O = O @ X @ = = = - - = $ % @ % @ % @ ",
"V.Z.F.K.K.I.Y.R.W.E.P.u = 8 D.P.Y.I.U.U.T.T.T.T.T.T.Y.I.F.K.K.Z.D.D.Z.V.V.D.D.V.4 : m.J.U.U.J.H.G.G.J.J.G.G.D.D.V.V.V.N.",
"H.K.K.I.U.U.U.Y.U.P.D.9 - u J.D.H.F.F.F.A.H.H.H.A.G.H.I.I.U.R.I.U.Y.Y.U.Y.U.F.N.0   u J.R.R.Y.Q.E.R.T.R.R.P.P.J.J.J.G.J.",
"G.G.J.P.J.J.J.G.G.U.m.1 - e V.F.K.K.K.K.H.H.S.K.A.K.F.B.Z.H.F.A.V.W C.B.Z.F.J.m.4 % 8 K.Y.J.Y.J.F.J.J.U.P.J.J.J.F.J.G.F.",
"G.G.J.J.D.G.P.U.J.U.M.4 - u V.G.A.A.A.H.F.S.H.S.A.S.1.O.[ [ ` ` ` ) [ ] <.t.U.N.4 @ 4 H.U.J.K.V.M.N.N.D.D.D.D.N.D.J.J.F.",
"N.G.D.N.N.N.G.U.J.U.N.4 = e N.F.H.S.K.K.K.K.H.e.w.~ &.%.%.%.%.%.%.%.%.%.%.( a.I 9 @ 4 H.U.K.G.B.p p R M.N.m.m.m.N.G.F.D.",
"G.N.N.N.m.N.N.J.G.J.N.4 $ q V.F.A.A.A.A.H.u.~ | %.%.&.&.%.&.&.&.&.%.%.&.&.%.| | ~ + 3 J.T.K.F.E p p m.M.m.R p p m.D.D.D.",
"G.N.m.m.s s m.N.G.J.N.9 % q D.G.B.B.W T I } %.%.%.%.) ) ) ) ) ) ) ) ) ) ) | &.%.%.} 6 K.Y.H.Z.s R M.N.D.N.s p m.M.D.D.Z.",
"N.m.u q 9 q p m.D.G.N.9 O q V.D.y x } } } %.%.%.| ) m b n n n n n n n n n [ } %.&.&.} } } U B.s m.N.D.F.N.p p s M.D.Z.V.",
"m.p q q 9 9 q s N.D.N.q @ 9 N.N.! } %.%.%.%.%.| N n _ _ _ _ _ _ _ _ _ ) ) B n | %.%.%.%.%.} X.B.N.N.Z.F.D.M.m.m.V.D.D.N.",
"m.m.m.m.s i p m.m.D.N.i = 9 N.H { | &.&.%.%.) n V C _ _ _ _ _ _ _ _ _ ' %.' _ n V %.%.%.%.} _ F.F.Z.D.P.U.G.N.N.G.J.G.F.",
"u u u q 7 2 2 2 9 7 u q : : 5 c | %.&.&.| V V C _ _ _ _ _ _ _ _ ) _ } %.%.%.} ) V V | &.%.%.| v G 9 9 4 2 < : : 1 1 9 9 ",
"= = - - - - - - = % : < = & ^ | %.&.%.` ] B C _ _ _ _ _ _ _ _ _ ' | &.&.%.%.%.}  .O.` ) %.&.%.| ^ & % - = = = > - = - = ",
"= = = = $ $ $ $ - O % = # ' | &.%.| } B B _ _ _ _ _ _ _ _ _ _ } | &.%.&.%.%.%.%.:.0.3.+. .| %.&.| ' % = = @ $ % = % = @ ",
"R R m.m.m.M.m.m.V.m.m.m.H _ | &.&.) b V _ _ _ _ _ _ _ _ _ _ } %.&.%.&.&.%.%.&.&.:.0.l.z.Z V %.&.| _ G 0 u e 4 O 9 u p p ",
"N.P.J.U.Y.T.T.R.P.P.Y.T.u._ | &.&.) b V _ _ _ _ _ _ _ _ _ | %.&.&.%.&.&.%.&.&.7.8.0.l.c.M V %.%.%.' K V.G.m.e O s G.Y.P.",
"N.N.N.G.G.G.J.N.G.J.J.J.K _ %.&.%.) b _ _ _ _ _ _ _ _ } | %.&.%.%.%.%.%.%.:.6.0.0.0.l.x.M V %.&.%._ P J.P.e 4 @ i J.U.G.",
"N.N.G.P.P.Y.P.J.J.U.J.H.F _ | &.%.) b C _ _ _ _ _ _ } | %.%.%.&.%.&.&.&.:.7.0.0.0.0.b.c.S V &.&.%._ L J.P.q 9 = i J.U.A.",
"N.G.N.G.N.N.N.N.s V.D.H.K _ | &.%.) b C _ _ _ _ ' } %.&.%.%.%.%.%.&.=.>.0.0.0.0.0.0.v.c.D A ;.=.=.' g m.J.u e O t H.U.H.",
"N.G.N.F.C.V.s e e t y s T ' %.%.%.) b C _ _ _ _ %.%.%.%.%.%.&.%.&.=.7.9.0.0.0.0.0.0.b.c.D ] ;.;.=._ j E Z.i 7 % w F.H.I.",
"N.N.N.N.B.E E E y t y a B.' | &.&.) b C _ _ } %.%.%.%.&.%.&.%.&.>.8.9.0.0.0.0.0.0.0.b.c.D ] =.=.%.' j s A.t 4 % r H.H.I.",
"F.N.N.N.r.E N.C.E s a a B.' %.%.%.| ` B B _ } %.%.%.%.%.&.%.=.,.8.0.0.0.0.0.0.0.h.l.f.3.#. .=.%.%._ h E A.y 7 % y H.Z.A.",
"C.N.N.N.V.V.E N.r.E s r.B.r.X.| %.&.%.) V V _ %.%.&.&.&.&.-.,.0.0.9.0.0.0.0.q.j.k.g.3.] ;.&.%.| { z G E A.y 6 % a A.r.B.",
"C.Z.C.V.V.Z.E y E E E r.E B.V.1.| %.&.&. .B B ) %.%.%.&.=.8.0.0.0.0.q.0.0.q.j.z.f.A  .=.=.%.| ~ x E B.B.V.t 3 % a H.B.B.",
"N.Z.N.E E E R t y a s E s s s r.o.| &.%.%.%.) n  .%.=.6.0.q.q.q.q.0.q.q.q.v.z.2.O.*.=.%.&.| ` H E B.B.E V.t 6 = a A.E B.",
"N.C.N.M.E R y a s s s s s E B.r.u.} &.&.%.%.| } N @.l.b.n.n.n.n.n.n.n.n.n.d.2. .| =.&.%.%.| O.Y B.V.V.B.F.t 4 ; a A.E B.",
"Z.C.A.D.B.R E B.M.B.B.B.A.F.G.G.A.J. .} | %.%.%.' O.4.4.4.4.4.4.5.s.5.s.s.#.@.=.%.%.| } } 1.t.Z.H.K.H.A.H.t 3 $ a H.M.M.",
"a m.t e u e 9 w 8 8 0 e y p p u t t E t : / %.%.%.} V B N N V N V ] A V A ..&.&.%.} l F J s s a s R V.V.E E w + E A.M.F.",
": < : : ; = % % = % % ; ; ; ; % ; = ; : < , k %.%.%.%.%.%.%.=.&.&.=.=.=.=.%.%.%.{ f = ; = ; : = $ $ - ; ; 3 < @ 9 q < 3 ",
"= X + % + @ ; ; ; = % % % % + + X = @ X .   ; + + d %.=.=.=.-.=.%.&.&.=.%.` c h @ @ o o + o X X @ O X X X @ $ X + @   X ",
"; @ e V.V.m.N.s s a a a s s s a a M.E a B.t 4 + 4 e J  .$.$. .$...' ' } ( 5 @ 2 e e e e t e w t u u u u t i p i p p e q ",
"4 ; M.R.!.W.Q.T.W.E.E.E.E.E.E.E.W.T.U.T.~.A.w + s U.R.T.K.p.p.p.i.Q p.W y.u > i D.G.G.J.U.P.J.T.U.J.P.U.U.U.U.Y.G.G.G.F.",
"u ; s D.P.P.Q.Q.P.P.G.G.G.F.F.F.H.H.H.A.E 4 1 ; t G.H.V.Z.V.V.V.F.G.D.s u 1 % e D.P.P.J.U.P.J.Y.U.U.P.J.P.G.D.J.U.H.P.N.",
"e ; M.G.E.T.U.G.P.P.P.P.P.J.J.J.H.Z.H.Z.E 8 7 % i F.Z.Z.K.G.K.Z.N.M.M.m.s 2 - u m.J.P.F.G.G.V.G.G.J.D.D.G.G.D.G.M.m.D.s ",
"q : M.V.R.T.J.D.D.F.F.G.D.F.D.G.H.H.U.F.a 8 8 @ 8 Z.F.H.G.B.B.B.N.p s M.m.7 ; e i J.P.F.P.P.G.P.D.J.G.D.G.D.M.N.M.m.J.N.",
"2 : E Z.R.K.B.s V.V.Z.Z.V.Z.A.F.F.K.K.Z.s 8 8 % 9 V.H.F.A.s a a E p y B.s 4 + y a H.I.J.G.G.J.G.J.D.V.V.D.D.N.M.N.N.G.m.",
"4 : s V.T.H.V.s V.B.B.B.M.M.B.V.D.K.K.D.E 4 4 @ 4 B.G.D.V.B.s E E E s B.s 4 + y u F.A.H.G.J.U.F.D.B.B.B.V.N.N.B.N.M.D.m.",
"4 : m.V.U.F.B.a M.E s m.M.M.M.M.V.H.K.F.B.9 4 + 4 B.F.V.V.M.s B.C.B.B.r.a 6 % a s H.G.G.J.G.G.N.m.m.m.m.M.m.m.B.N.N.D.m.",
"3 ; s V.I.A.M.a i a E B.V.B.B.E V.F.G.G.V.9 8 + 4 B.F.B.B.a a s B.Z.A.r.a 8 % t E H.G.G.G.G.Z.p p p s s m.m.m.N.V.N.G.M.",
", ; s B.K.B.a e e e i s B.V.B.N.B.D.D.F.B.9 8 @ w B.F.B.B.s p s r.A.V.B.a 9 % t s D.D.D.D.D.N.p p p s p p m.m.s V.M.D.m.",
", : E M.F.s e 4 w 9 w u s M.B.B.m.B.V.V.M.8 8 @ w V.H.B.M.B.m.m.s B.B.B.E 8 % t m.G.F.V.D.V.m.u p m.p p p m.s p m.s V.s ",
"1 : m.M.D.s e w u w 9 w i m.m.m.s m.M.B.m.8 4 % e A.G.m.M.B.N.N.B.B.B.B.s w % t m.P.G.D.N.m.m.p p s m.p p p p m.m.s V.p ",
"1 : m.M.D.s t t i e w e p s m.p s m.m.V.M.8 8 % u D.F.m.m.M.M.N.A.B.r.r.E 8 % a m.J.G.D.N.m.m.m.i s M.p i i p s m.m.V.s ",
"8 ; m.V.V.F.G.N.s m.m.m.m.V.D.D.V.F.V.V.N.i 4 @ i J.R.J.M.V.D.V.Z.Z.H.V.M.8 @ i D.U.P.D.D.D.D.D.N.D.J.D.m.s m.m.m.m.s m.",
"9 < B.s e 9 q q q e e e u u u p t p u e e 9 2 - i p p u i p p i s e 9 8 p e ; q m.a u u m.m.p u e u p i q e i u p i p p ",
"< : w 1 ; = = > = ; ; - - : : - : < ; - - ; : % < - @ = - : ; ; : * = % 1 1 % 7 1 = @ ; 1 : = ; - = ; ; - ; : - < > < 4 ",
"= @ = + @ % @ - = = = = @ % % % @ % @ @ @ O $ O $ O O $ = @ @ $ . + % + % % X ; @ O O = - O O = = @ = = @ = = @ O O O @ "
};
