/* XPM */
static char *_018cf244b904467acbc553eb023759cfdicvj59twIDrfUN[] = {
/* columns rows colors chars-per-pixel */
"60 60 203 2 ",
"   c #2E2328",
".  c #32282C",
"X  c #352B32",
"o  c #382E35",
"O  c #382E38",
"+  c #3A3235",
"@  c #3C333B",
"#  c #793E18",
"$  c #493935",
"%  c #40353C",
"&  c #41383D",
"*  c #593E36",
"=  c #693C24",
"-  c #7D4214",
";  c #5D402B",
":  c #56443A",
">  c #684426",
",  c #714B32",
"<  c #443A42",
"1  c #493D47",
"2  c #4A4146",
"3  c #4C434A",
"4  c #51474F",
"5  c #53494F",
"6  c #554B53",
"7  c #584E56",
"8  c #5A4F58",
"9  c #5B5256",
"0  c #5E545A",
"q  c #74584E",
"w  c #60565D",
"e  c #62595E",
"r  c #645B61",
"t  c #685F64",
"y  c #695F68",
"u  c #6A6065",
"i  c #6C636A",
"p  c #756563",
"a  c #70666C",
"s  c #72696D",
"d  c #7A706E",
"f  c #706670",
"g  c #756B72",
"h  c #786E76",
"j  c #7A7176",
"k  c #7D747A",
"l  c #824616",
"z  c #A14A14",
"x  c #A7601A",
"c  c #9A5C20",
"v  c #865833",
"b  c #B65E28",
"n  c #946327",
"m  c #A86737",
"M  c #B26A30",
"N  c #AC7132",
"B  c #BF7833",
"V  c #D55A0E",
"C  c #EE5C02",
"Z  c #E05A08",
"A  c #F45D01",
"S  c #F95E02",
"D  c #CE6F13",
"F  c #CD7919",
"G  c #EE6202",
"H  c #EC6C0A",
"J  c #F46302",
"K  c #FC6301",
"L  c #F46B02",
"P  c #FD6B02",
"I  c #F26708",
"U  c #EC7505",
"Y  c #EC700A",
"T  c #F57302",
"R  c #FB7502",
"E  c #F47C01",
"W  c #FB7A02",
"Q  c #E67114",
"!  c #C87A2A",
"~  c #C57A33",
"^  c #865E42",
"/  c #95654E",
"(  c #886755",
")  c #987756",
"_  c #A87148",
"`  c #846E61",
"'  c #8E7465",
"]  c #80777D",
"[  c #82797D",
"{  c #897B7A",
"}  c #907F7D",
"|  c #A07E66",
" . c #F68404",
".. c #FD8501",
"X. c #F78A04",
"o. c #FE8B02",
"O. c #F4850A",
"+. c #FE8609",
"@. c #FE8D0A",
"#. c #FD9403",
"$. c #FD9C02",
"%. c #F59309",
"&. c #FD9B0D",
"*. c #EA861A",
"=. c #F48B12",
"-. c #E99010",
";. c #F89811",
":. c #FEA501",
">. c #FEAA02",
",. c #FDAE09",
"<. c #FFB004",
"1. c #FDB00F",
"2. c #FCA817",
"3. c #FDAB1C",
"4. c #FDB717",
"5. c #CE8635",
"6. c #EC8B25",
"7. c #E9942D",
"8. c #F2932C",
"9. c #F99B29",
"0. c #EB9D31",
"q. c #FBA627",
"w. c #F7BA23",
"e. c #FCBC25",
"r. c #FBBD2C",
"t. c #F4AD36",
"y. c #E5B039",
"u. c #F9B434",
"i. c #FDC62B",
"p. c #FDC12C",
"a. c #FAC433",
"s. c #FECB33",
"d. c #FBC93A",
"f. c #FDD134",
"g. c #F8D23B",
"h. c #B8804C",
"j. c #AE8053",
"k. c #AC9470",
"l. c #C3884A",
"z. c #D79846",
"x. c #F7BC46",
"c. c #C49E7F",
"v. c #FCC246",
"b. c #FBCD4C",
"n. c #FAD24F",
"m. c #FEC752",
"M. c #FECD5A",
"N. c #FCD75A",
"B. c #FEDA5B",
"V. c #F7C562",
"C. c #FBD261",
"Z. c #FDDD64",
"A. c #F7D46B",
"S. c #FBDC6C",
"D. c #FBDE78",
"F. c #FCE16A",
"G. c #FCE373",
"H. c #FDE875",
"J. c #FDE47C",
"K. c #FDE87C",
"L. c #807780",
"P. c #857B82",
"I. c #887F84",
"U. c #8B8186",
"Y. c #8D848A",
"T. c #988681",
"R. c #90878D",
"E. c #93898E",
"W. c #918790",
"Q. c #958B92",
"!. c #968D91",
"~. c #988F95",
"^. c #988F96",
"/. c #9A9193",
"(. c #9A9195",
"). c #9A9196",
"_. c #9C9395",
"`. c #9C939A",
"'. c #9D939A",
"]. c #9E959A",
"[. c #9F969C",
"{. c #AA9488",
"}. c #A39494",
"|. c #A1979E",
" X c #A29A9D",
".X c #A1999E",
"XX c #A39AA1",
"oX c #A49BA2",
"OX c #A69CA1",
"+X c #A89FA5",
"@X c #ABA1A6",
"#X c #ADA3AA",
"$X c #AEA5AA",
"%X c #B1A7AE",
"&X c #B2A8AF",
"*X c #B4AAB1",
"=X c #B9AFB7",
"-X c #F9E680",
";X c #FDEC84",
":X c #FEEE8A",
">X c #FEF387",
",X c #FEF38B",
"<X c #FEF492",
/* pixels */
"d j k.L.W.Q.E.E.].]. X@X$X$X$X*X$X$X$X@X@X!.).[.j @ u _./.E.].E.'.[.XXXXXX'.'.'.'.`.^.^.r i I.W.P.I.Y.U.U.{ ] j g 2 u [ ",
"_._. X XXXXX X X[. X XOX X X X[.[.@X[.[..X.X.X@Xk 3 f /..X[.$X[.oXoX+X#X#X+XoXoXXX+X|.L.1 y oX#X X#X@X@X X X].}.d 2 s E.",
"/.W.Q.~.(._.~.(.!.E.!./._././._./././.!.).!.!.).s @ e U./.!.@X[.'.'.~.|.XX[.~.~.'.|.`.f < 4 '.#X~.~.}.}.~.E.E._.s : u Y.",
"Y.k.U.U.E.E.Y.U.Y.U.!./.[.oX[. X).]./.!.).!.W.).f @ u !..X_.[./.Q.R.R.W.W.W.I.Q.Q.I.`.h 1 1 I.+XQ.E.R.!./._._.].s 2 u U.",
"!.U.U.P.[ [ [ d k [ P.R.Q.Y.U.I.U.R.Y././.).!..Xs < u !..X[._.W.L.L.] L.L.k I.I.I.I.|.L.8 1 I.oXR.k j U.E.!.!._.s < i Y.",
"k.[ d j [ d s s s s s [ L.k h f j k k U.!.).!./.u @ 0 U..X~.~.U.y i f g f h P.R.I.I.|.f 6 1 '.'.E.k j Y._._._._.u & u U.",
"j h d d j [ [ d s s j [ L.L.k h k k k U.!.!.W./.u < r U..X~.!.U.f h k I.I.I.W.~.I.I.`.f 1 6 '.XXR.j d U.!.!.E.!.g 2 f W.",
"j f u s d [ [ [ j j g j L.k g f j j k k Y.Y.U.R.e < u U.@X!.U.j g h L.I.I.I.W.Q.I.I.I.P.8 1 I.XXR.k k R._.!.E._.f 2 u Y.",
"k k j j j j j j [ [ k j h f f f g j j k k U.E.!.e + s E.E._.U.k j k L.I.Y.I.I.~.W.W.Y.y 7 6 k ~.E.h h Y.~.~.W.W.g 2 h E.",
"[ [ [ [ k j j g [ [ k j f f f f s d j k k U.R.!.g @ f _.!.!.[ k I.L.L.P.P.P.I.I.I.W.~.f < 6 W.'.E.k.] I.W.W.Y.Y.g % t R.",
"/././././.!.E.Y.L.L.U.R.W.W.L.L.U.U.U.Y.R.E._.].r @ u _.!./.!.!.~.Q.Q.Q.'.'.'.'.~.Q.~.g @ 1 Q.I.W.Y.I.Y.W.~.~.'.L.3 t Y.",
"u u u u t u 0 0 r 6 3 3 4 7 7 3 2 2 3 3 3 4 5 5 u 3 u k j k j k ] h g a y r 7 5 6 4 w y 3 @ r 1 8 7 6 7 7 e y y g 3 0 g ",
"2 2 2 2 < < @ & @ & < 2 < < 1 @ @ @ @ @ @ @ $ ; > > > l > - - - l - # = ; & < @ 1 @ < 3 3 O 1 @ < < < @ @ < @ < 2 @ < 2 ",
"< < < 2 2 2 3 3 & 3 0 4 @ < 9 7 0 0 9 0 0 6 Q #.o.o.#.o.X.P K P K K K J P z < < < O < o % X @ < < < 1 < < < < @ @ @ % @ ",
"Y.E./.(. X X@X$X*X$X Xf < r W.[.[.].oXj.! F %.$.$.:.$.$.#.#.#.X.E E W W W U D D , 3 P.~.XXoX`.'.Q.~.~.'.'.~.W.W.Y.Y.U.I.",
"/.(. X X[. XoX@XOXoXW.r 2 f `.W.~.k.d -.o.#.:.>.>.:.>.>.>.>.>.$...#...#.#.#.&.%.*.  a |.@X#X+X%X&X#X#X%X#XoX'.'.[.[.~.[.",
"^.^.'.[.[.'.'.^.~.XXL.7 < i Y.E.*. . .:.:.:.>.<.>.>.>.>.>.>.>.>.>.:.4.f.f.f.s.s.g.g.g.k.OX X X].W.Q.|.|.XX[.~.~.~.'.~.Q.",
"^.'.^.'.Q.~.[.XX'.oXP.w 2 p ' ) %.%.#.:.:.:.X. ...X.X.X. . . .$.>.:.,.4.4.3.3.3.2.3.3.z. X_. XY.P.I.Y.Q.Q.W.W.U.W.'.~.~.",
"I.^.W.I.I.I.^.XX'.XXU.0 & *.o.o.,.>.>.>.>.,.L A J A A A A A C O.1.>.:.:.>.#.............o.#.l.U.h h L.P.P.L.L.L.U.Q.~.W.",
"^.I.I.I.L.I.I.~.'.'.| ^ x :.:.$.:.:.:.E L T W ..W ..W ..+.+...T T L X.>.>.a.S.S.v...o... ...=._ ` k L.P.P.k h h L.W.W.W.",
"^.I.L.L.k k P.W.~.'.5...o.:.>.:.:.:.:.I A A W ..+.o.#.#.+...@.R S A  .>.$.d.<X<XN.............o.+.I.R.Y.P.k h L.P.W.W.R.",
"I.L.i y r y g L.W.~.6...o.:.>.>.>.>.>.L A A W ....$.:.:.#.....L A A  .>.>.s.:X:XM.........o.o.....j.R.Q.I.k h L.P.W.W.U.",
"L.h i y r r i h I.Y.=...#.:.>.:. . . .R R R #.$.$.:.>.>.$.#.$...R R R  .E t.,X:XM.........o.......l.R.E.W.L.L.L.U.Q.W.U.",
"P.L.L.L.k g h L.P.{ @...o.:.>.$.I A A ......:.>.>.:.:.>.>.>.>.$...X.R A C 7.,X:XM. .....o...o...o._ Q.|.XXQ.U.U.~.'.~.Q.",
"f f a y w 8 6 ^ m F :.:.:.>.>.>.L A J +.....$.:.:.:.:.>.:.$.:.#.....R J A 0.,X,X;XG.D.Z.p.e.p.e.p.y.) 0 7 6 3 2 7 7 r y ",
"@ < 1 1 1 1 1 E ..#.>.>.>.%.#.%.J J K ......:.>.>.>.>.:.1.e.p.&...@.R K A 6.A.V.C.Z.F.B.s.f.f.f.f.f.f.s.1 < < 6 1 < < < ",
"< < 1 < % @ % =...o.>.>.$.G J J A A J W ....$.>.:.:.:.:.n.,X>Xu.W ..L A J A A A T :.:.>.s.s.s.s.s.i.s.s.1 @ @ & & < & @ ",
"L.] L.L.P.L.L.+...o.:.>.:.J A J  .o.X.$.$.$.:.>.:.a.n.b.F.:X:XC.x.m.9.T R P J J E >.:.>.f.s.s.s.s.s.s.s.s i w O r f h h ",
"W.Q.'.XX+X+X}.@...X.>.>.:.G A L :.>.>.>.>.:.,.>.,.Z.<X>X;X;X;X:X>X>Xx...@.W J A E >.:.,.s.s.s.s.s.d.d.s.(.[ i O k ~.oX[.",
"I.Y.W.~.~.^.k.@...#.:.>.$.J J G :.:.>.>.:.:.n.K.G.K.;X;X:X:X<Xv.>.1.&.....R J A E >.:.,.i.s.s.s.s.s.s.s. Xi 0 @ h (.oX'.",
"Y.Y.Q.~.'.XXI.O...o.>.>.:.I A L :.>.>.w.r.r.S.:X;X:X;X;XS.B.Z.e.:.:.$.....W J A E >.:.>.s.s.s.s.s.s.s.s. Xi r % g '.OX!.",
"I.Y.R.W.Q.R.[ +...+.>.>.$.J J J $.:.:.G.,X;X;X;X;X:X>X,Xp.:.:.:.:.>.#.....W J A E >.:.<.s.s.s.s.s.s.s.s._.i i @ s ].XX/.",
"P.U.R.R.Y.U.j #...X.>.>.$.J A H m.B.N.K.;X;X;X:X;Xb.r.a.1.>.:.:.:.>.#...+.W J S E >.:.,.d.s.s.s.s.s.a.s.E.d w $ u E._. X",
"R.U.U.U.U.P.[ %...#.>.>.&.L J H A.;X-X;X:XJ.G.;XH.w.$.:.:.:.>.>.>.>.#...+.R J J E >.:.<.s.s.s.s.s.s.s.s.E.s 9 $ s /._.[.",
"Y.L.] { L.L.k.;.....:.:.#.A A S I L Y D.<X:Xe.>.,.>.>.>.:.:.>.>.:.>. .J J J A A T >.:.>.i.s.s.s.s.s.a.f.E.d w & g !.R.!.",
"Y.k.U.Y.Y.L.L.-...%.r.p.u.8.8.6.J A G v.N.b.,.:.:.:.>.:.:.:.:.>.>.>. .J A L W E X.>.:.,.s.s.s.s.s.a.d.d./.s w & h W.L.k.",
"U.Y.Y.U.Y.E.[ 5.X.q.,X<X,X,X<XK.Y K I $.:.:.:.>.:.:.:.:.:.:.:.:.:.>. .J A  .>.>.>.>.>.<.f.f.f.f.s.d.k.P.Y.s 9 & k ~.I.I.",
"U.Y.U.L.h k.L.f h ( q.q.u.K.:XJ.H S J $.>.>.>.:.>.:.>.>.:.>.>.:.>.<. .A A E >.:.$.#.#.#.&.&.&.&.&.j.k.L.Y.p 0 & j !.I.U.",
"U.U.I.L.k k h j j k @.W %.S.K.S.Y L L %.:.$.:.:.:.:.:.:.:.>.:.:.$.:.O.J I  .>.:.$.................k.U.U.E.s e 2 j E.[ P.",
"Y.Y.W.W.P.L.L.I.P.U.=.....,.>.>.:.:.>.L A J $.>.:.>.>.:.:.:.>.X.J J  .>.:.:.>.>.:.....o...o.....#.{._.!.(.s 9 & j ~.P.P.",
"h [ s i i i t y 0 r 5. .o.>.>.:.:.>.>.L S J #.>.:.>.:.:.:.:.>. .A A X.>.>.>.>.>.$.R R R W R W R R { U.I.L.[ t + [ Q.P.Q.",
"4 5 4 3 3 < & % < < : v F >.>.>.:.>.:.H A G $.>.>.>.>.:.>.>.>.E A A O.>.:.>.>.>.#.A S A A A Z : * * 1 3 3 9 7 @ 0 y 6 9 ",
"& X + @ + @ 1 1 1 & @ @ @ c #.#.,.>.>.$.#.%.E T T R T T T T L X.$.%.$.>.>.#.T R L J J S S S = o @ O X X X @ & X @ @   X ",
"2 @ i Y.Y.P.I.L.k k k k k k k ) -.$.:.>.>.>.T J L J J L L L L X.>.:.:.:.>.X.J J J J J D / / ( s f f f f f g h g h h i y ",
"0 1 I.$X=X%X*X+X%X*X%X%X&X%X%X&Xc.z.7.:.>.>.>.>.:.:.:.>.>.:.:.>.>.>.$...@.+...X.....=.l.XX|.|.+XXX'.XXoX+XoXXX+X`.!.Q.Q.",
"i 2 k W.XXoX*X%X[.'.~.~.~.!.Q.Q.]._.'.l.$.#.:.>.>.>.:.>.:.:.>.$.X.X.E R R R W W ~ }.(.T.OXXX'.+X+XoX'.'.XXQ.W.'.XX`.[.U.",
"y 3 I.Q.%X+XoX~.XXXXXX|.[.[.'.'.~.E.(.R.~ ! %.>.>.>.>.:.:.:.>. .A A A J S C V Q / [.'.Q.~.~.R.W.Q.'.W.W.Q.`.W.^.P.L.W.k ",
"y 3 P.Y.%XoX[.W.W.W.Q.Q.Q.Q.Q.Q.(.(. XE.j e N #.o.o.o.#.W R R P K K K K P v 1 i f [.XX~.'.|.~.XXQ.'.^.W.Q.W.P.I.P.P.'.I.",
"0 3 [ Y.$X_.Y.k U.R.R.Y.R.Y.E.!.!. X[.E.L.e q n m B ~ 5.M b b b b b m _ m 9 + d j ~.].~.(.'.[.Q.|.W.Y.Y.W.W.I.I.I.I.Q.L.",
"0 3 [ Y.@X~.Y.k Y.U.U.U.P.U.U.Y.Y.].(.E.[ 0 0 + 9 [ E.U.U.] j [ U.k L.L.j 0 o d g !.!.~.Q.`.[.!.W.I.I.Y.U.U.I.I.I.P.W.L.",
"0 3 k U.@X!.U.k P.L.[ [ [ P.P.P.Y.(.(.Q.U.e 0 + 0 I.!.Y.U.U.k U.U.U.U.L.j w $ g k ~.(.Q.[.`.Q.U.L.L.L.L.L.L.L.Y.Y.P.W.L.",
"9 3 [ U.[.E.[ j g j k U.Y.U.U.[ U.(.(.(.Y.u 0 @ r I.!.U.{ k j k U.Y.E.k.j e % s [ '.~.`.`.Q.Y.k h h k k L.L.L.I.Y.U.Q.L.",
"5 2 k U.].U.g i u i g k U.Y.Y.P.U.W.!.W.U.r 0 @ t U.Q.U.P.[ j k P.R.W.Y.j e $ s k W.W.Y.W.W.I.h h h k h h L.k L.I.I.Q.L.",
"6 2 L.U.!.k i e u t u f k P.U.U.L.U.U.Y.U.0 e @ u Y.~.U.I.P.[ L.P.U.Y.I.] e & s L.^.W.W.W.Y.L.f h k h j h L.k h L.k Y.k ",
"7 2 [ [ Q.j i u f u r u g L.L.P.k P.P.Y.k e 0 @ i R.!.I.P.I.P.U.U.U.L.P.k e & h L.[.^.W.I.L.L.h h k L.h g h k k L.k U.h ",
"7 3 L.[ Q.k g i g i u i h k L.h k L.L.U.I.t e & g W.Q.L.k I.P.Y.R.U.k.U.k u & s L.'.^.W.I.L.L.L.f L.L.k g f h L.P.L.Y.k ",
"e < [ Y.U.Q.Q.P.h L.L.L.P.U.W.Y.Y.!.Y.Y.I.g 0 @ f `.#XQ.P.U.R.Y.R.Y./.R.P.e @ g W.XX XW.W.W.W.W.U.W.(.W.h k L.P.L.L.k L.",
"u 6 P.L.i u i i y i i f f f f h f h i i y t 0 1 g j h h f h h g k i r e j i 2 u k k g f L.L.h f f f h g i i g f g g h k ",
"6 3 i 7 2 < < 3 < 3 3 1 1 2 3 1 2 5 2 1 1 3 3 < 6 1 @ < 3 3 3 1 5 < < & 7 7 & 0 7 < @ 2 7 2 < 1 1 < 3 2 1 3 3 1 6 4 6 0 ",
"< @ < O @ < @ 1 & < < % @ < % < @ < @ @ @ O @ O @ O O @ < O @ < . + & + & & X 2 @ O O & 1 O o 2 < @ < < @ < < @ O O O @ "
};
