/* XPM */
static char *_6ba3759a56a4841cbe89d08fc73025eCu2W0KrCSZfS44GZ[] = {
/* columns rows colors chars-per-pixel */
"60 60 182 2 ",
"   c #2A2226",
".  c #2E222A",
"X  c #32282C",
"o  c #3C382C",
"O  c #352B32",
"+  c #382E35",
"@  c #382E38",
"#  c #3A3235",
"$  c #3C333A",
"%  c #40353C",
"&  c #41383D",
"*  c #4D4539",
"=  c #52493F",
"-  c #6D5A3F",
";  c #403540",
":  c #443B41",
">  c #493D47",
",  c #4A4146",
"<  c #4C434A",
"1  c #53494F",
"2  c #58484B",
"3  c #554B53",
"4  c #584E56",
"5  c #5A4F58",
"6  c #5B5256",
"7  c #5B5952",
"8  c #5E545A",
"9  c #6B5B44",
"0  c #60565D",
"q  c #62595E",
"w  c #6B5D59",
"e  c #715851",
"r  c #726149",
"t  c #676059",
"y  c #786B55",
"u  c #72675A",
"i  c #645B61",
"p  c #685F64",
"a  c #695F68",
"s  c #6A6165",
"d  c #6C626A",
"f  c #756C62",
"g  c #70666C",
"h  c #72696C",
"j  c #79716D",
"k  c #706670",
"l  c #756B72",
"z  c #786E76",
"x  c #7A7175",
"c  c #7D747A",
"v  c #8B6231",
"b  c #EC690E",
"n  c #F76502",
"m  c #F86602",
"M  c #F96A02",
"N  c #F4770C",
"B  c #F5780E",
"V  c #EC7B1D",
"C  c #F77910",
"Z  c #F57B11",
"A  c #857A5E",
"S  c #A77345",
"D  c #867D64",
"F  c #897F66",
"G  c #80777D",
"H  c #82797D",
"J  c #FE8301",
"K  c #FC8913",
"L  c #FCA301",
"P  c #FBA701",
"I  c #FDAB17",
"U  c #FCAA19",
"Y  c #FDB717",
"T  c #FFBC16",
"R  c #FDBB1A",
"E  c #CC8B2F",
"W  c #FEB834",
"Q  c #FFC325",
"!  c #FDC62D",
"~  c #FECA2E",
"^  c #FEC733",
"/  c #FECB33",
"(  c #FFC738",
")  c #FECD39",
"_  c #FED035",
"`  c #FFD23B",
"'  c #FFD83F",
"]  c #AD955B",
"[  c #B69456",
"{  c #BE9C53",
"}  c #8E8266",
"|  c #928765",
" . c #9B8F6A",
".. c #9D936A",
"X. c #89817B",
"o. c #9C927B",
"O. c #A79967",
"+. c #A59B71",
"@. c #ADA46D",
"#. c #B0A36F",
"$. c #ABA371",
"%. c #B3A777",
"&. c #B4A974",
"*. c #CA9945",
"=. c #D2AA49",
"-. c #C5A253",
";. c #CAA455",
":. c #C2AF74",
">. c #FFCB44",
",. c #FFCD4D",
"<. c #FFD744",
"1. c #FFCE52",
"2. c #FFD253",
"3. c #FEDD5D",
"4. c #FEDD63",
"5. c #FFE769",
"6. c #FEE86E",
"7. c #FFE572",
"8. c #FFE27C",
"9. c #807780",
"0. c #857C82",
"q. c #887F84",
"w. c #8A8186",
"e. c #8D848A",
"r. c #90878D",
"t. c #93898E",
"y. c #918790",
"u. c #968D91",
"i. c #958C92",
"p. c #988F92",
"a. c #988F94",
"s. c #988F96",
"d. c #998F97",
"f. c #9A9193",
"g. c #9A9195",
"h. c #9A9196",
"j. c #9B9297",
"k. c #9C9395",
"l. c #9A9098",
"z. c #9C9398",
"x. c #9C929A",
"c. c #9E959A",
"v. c #9F959D",
"b. c #9F979C",
"n. c #9F969E",
"m. c #AF948A",
"M. c #A59C94",
"N. c #A0979F",
"B. c #A1999D",
"V. c #A1999E",
"C. c #A2999E",
"Z. c #B4A989",
"A. c #B1AB93",
"S. c #A39AA1",
"D. c #A49BA2",
"F. c #A59CA1",
"G. c #A69DA2",
"H. c #A89FA5",
"J. c #AAA1A6",
"K. c #ACA3A9",
"L. c #ADA4AA",
"P. c #AEA5AA",
"I. c #B1A7AD",
"U. c #B2A8AF",
"Y. c #B4AAB1",
"T. c #B9AFB7",
"R. c #E3D485",
"E. c #E0D98E",
"W. c #FDE783",
"Q. c #FEEB85",
"!. c #F9E78A",
"~. c #FEEE8A",
"^. c #FEF58E",
"/. c #FCE495",
"(. c #FFEF95",
"). c #FCE499",
"_. c #FFF295",
"`. c #FFF995",
"'. c #FFF39E",
"]. c #FEECA7",
"[. c #FFECA8",
"{. c #FFF4B5",
/* pixels */
"j x w.e.t.p.t.t.B.k.B.J.P.P.U.U.P.P.P.P.G.b.i.b.z $ d f.k.t.b.r.x.x.D.D.S.x.d.x.x.x.d.d.i d q.i.0.q.e.e.H q.G j j > t H ",
"k.k.M.M.M.G.B.M.C.C.B.G.G.B.B.B.B.C.B.B.H.b.b.K.H , d k.b.b.P.S.D.D.H.L.L.H.S.D.D.H.x.9.> a D.H.D.H.H.H.H.M.B.N.x 1 h i.",
"p.f.p.f.f.k.k.k.i.t.i.k.k.k.f.k.i.f.t.i.a.i.t.c.h $ i e.a.k.G.b.x.l.d.S.S.S.d.d.x.D.N.g ; 2 x.U.i.p.N.M.p.t.t.p.h % s e.",
"e.w.X.e.t.t.e.e.w.w.i.k.c.B.b.b.c.c.f.f.k.i.t.k.d $ s t.b.k.b.p.i.r.r.y.y.q.y.y.i.q.d.z < > q.D.i.i.r.i.a.p.a.M.h * s e.",
"t.e.X.w.X.X.c j c H w.y.i.y.e.w.w.t.y.i.c.a.p.b.k : s t.S.b.b.t.9.9.G 9.G 9.0.q.q.q.x.9.5 > q.S.w.H x w.t.i.i.p.h & d e.",
"X.c c x x x j g s h h c c x l k x x c w.i.i.i.k.s & q 0.b.p.p.w.a d k l k z 0.r.q.q.N.k 3 > l.n.t.H x e.M.k.p.B.s & s e.",
"X.x h j c X.c x l l x 9.w.c x z x c H w.i.p.t.i.s : p w.b.k.r.w.l l G 9.0.q.y.d.q.q.d.k > 3 z.S.e.x l w.p.i.t.p.l , h e.",
"x h s d x c X.c x l x x c c z k x x x 9.w.w.w.y.8 : p w.J.p.w.x l l G q.y.q.y.i.q.q.q.q.0 > q.D.e.H c r.k.i.t.a.l , s e.",
"c c x x x c x x c H c x z z k k l x x c c w.e.a.p # h t.t.j.w.c c c 9.q.q.q.q.i.y.e.e.d 4 3 z i.t.H x t.z.i.r.t.l < l t.",
"X.H c c c c x l H H c x k k a k h j x c c w.e.a.h $ h j.u.i.w.c 0.G 9.0.q.q.q.e.w.y.a.d : 4 i.x.t.H x e.y.r.e.e.h % d t.",
"f.f.k.k.i.i.e.e.0.G e.e.y.e.0.9.w.w.w.e.t.p.p.j.p # s a.g.i.i.u.a.i.r.i.d.z.d.d.d.i.x.z ; > y.e.t.e.e.e.y.i.x.l.G < p e.",
"s s s s s s 8 8 i 3 < < 3 3 3 > < , < < < < 1 1 s < s c x x x c G c l h a i 5 3 3 < 8 d < @ q < 4 4 4 3 5 i p p z < 6 h ",
", , , , , $ $ & $ & ; , ; , > ; $ $ $ $ + $ $ $ * # $ $ # $ $ # O # # $ $ : : $ : ; : < < @ > $ : : : $ ; ; ; : > $ > > ",
": * , , , , , < ; < 8 3 $ : 5 4 7 8 o $.E.R.!.R.&.&.$. .} } } } D  .....%.:.%.= ; $ : + ; O $ $ : : > > : : % $ % $ ; @ ",
"e.y.a.c.b.G.J.J.Y.P.N.k > i i.b.J.K.* &.5.3.5.3.5.3.3.3.3.3.4.3.3.3.3.3.4.3.7.y 8 < 0.x.S.G.x.x.p.i.z.l.z.i.y.i.e.e.e.q.",
"i.z.b.b.B.B.J.J.G.S.y.i > a d.i.p.p.o ;./ ! ! ! Q _ ! ! ~ ~ ~ ~ ! ! ! ! ! ! >.r a   d N.K.P.J.I.U.L.L.I.L.S.N.l.N.z.a.x.",
"d.d.x.b.x.x.x.d.i.S.9.4 : k e.y.p.k.7 A.{.].[.].].].].].[.].[.[.[.[.[.].].].{.u 8 % i z.G.b.G.c.y.x.x.S.S.x.x.x.i.x.d.i.",
"d.x.d.d.i.d.b.S.b.S.0.8 , k e.a.t.p.t Z.].)./.).).).).).).).).).).).).).).).[.u 8 $ 8 f.G.c.c.e.0.q.q.i.y.y.y.q.i.z.x.i.",
"y.y.i.q.q.q.d.S.x.S.q.8 : d e.y.f.f.t E P P L L L P L L L L L L P L L P L P U r 8 $ 6 x.K.f.f.w.z z G 0.q.9.9.9.q.d.a.y.",
"i.q.q.q.9.q.q.d.d.b.q.i $ s e.y.t.t.t *.Q R R R Y T R T T T Y T T T T T Y R W - i $ 6 x.K.b.i.c l 9.9.0.9.G z z 9.r.i.r.",
"d.q.9.9.z x 0.y.l.x.q.i ; d r.i.w.w.u ;.<.` / ) ) ) ) _ ) / ) ) _ / _ / ) ) 2.9 q $ 6 c.J.f.y.c G 0.q.y.0.c z c 0.r.y.r.",
"q.9.d a i a l 9.y.i.q.a $ s y.y.x c s -.` / / / ~ / / / / / ^ / / ~ / / ) / 1.r i $ 8 c.H.y.w.c 9.0.y.i.q.c z G 0.r.r.e.",
"9.z d a a i k z q.e.q.a ; q w.9.q s s { ' / / ( / / / / / / / / ~ ) / / / / 1.u q & 0 c.B.t.e.w.q.q.q.d.r.0.9.9.e.y.y.q.",
"0.9.9.9.c k z 9.0.e.e.l ; i 9.9.s h l { ` ^ ! ^ ! ~ ~ / ~ ~ ~ ~ ~ ~ / ~ ~ / ,.h 6 # 0 M.G.y.f.i.i.y.y.D.S.d.q.q.d.d.d.d.",
"g k d a 0 5 4 5 i i k d < < q q 5 5 , ] 6.3.3.3.4.4.4.4.4.5.3.4.3.4.4.5.3.4.8.6 s & g x 8 q 8 s g a i 6 5 5 < > 5 4 i i ",
"% ; > > > > > < & ; < 3 ; ; < & ; : $ &.`.Q.^.^.~.~.~.~.~.~.~.Q.^.~.~.Q.Q.~.'.+ ,   , 1 $ : & , > % : > > ; ; 3 > : : : ",
"> > > : % % % % : $ $ : $ $ : @ ; $ , @.^.W.Q.Q.W.Q.Q.Q.Q.Q.Q.Q.Q.Q.Q.Q.Q.Q._., < $ < , $ , & , % @ % ; > $ $ : ; : ; $ ",
"9.G G G 9.9.9.9.e.9.9.9.x 9.e.9.9.9.H &.^.!.Q.Q.Q.~.Q.Q.Q.Q.Q.Q.Q.Q.Q.Q.Q.!._.w.w.X.r.H w.r.c c l c g p k d 6 @ i k c z ",
"r.i.x.S.H.H.I.H.N.N.K.K.K.P.J.b.i.t.e.$.^.~.Q.Q.Q.Q.~.Q.Q.Q.Q.Q.Q.Q.Q.Q.Q.!._.H.J.J.P.J.P.I.B.G.d.N.x.w.i.9.d @ c x.D.x.",
"q.r.r.d.d.d.d.i.i.x.x.x.a.i.y.i.p.y.e.$.^.Q.Q.Q.8.Q.Q.Q.Q.Q.Q.Q.Q.Q.Q.Q.Q.!._.G.b.J.b.c.B.G.N.c.x.x.d.x.S.d 8 $ l x.H.d.",
"q.r.i.d.N.N.S.d.b.b.S.i.a.i.p.b.t.t.e.@.^.8.~.Q.Q.~.Q.Q.Q.Q.Q.Q.Q.Q.Q.Q.Q.Q._.i.c.f.f.N.N.k.z.N.x.i.i.x.D.s i ; l x.H.i.",
"q.q.r.r.y.r.q.q.c e.y.i.x.a.f.k.f.c.t.+.`.8.Q.8.Q.Q.~.Q.Q.~.Q.Q.Q.Q.Q.Q.Q.Q.`.H w.w.e.z.f.e.y.e.e.e.9.9.z.k s $ g z.S.a.",
"q.q.r.r.r.w.G s d h j G w.t.p.p.k.f.i.o.^.Q.W.8.~.Q.Q.Q.Q.Q.Q.Q.Q.Q.Q.Q.Q.~.(.c w.w.t.f.f.t.X.c w.X.H H t.j q & t t.f.G.",
"r.r.q.q.w.X.H H h h f G w.t.f.k.a.f.e...`.Q.~.Q.Q.Q.Q.Q.Q.Q.Q.Q.Q.Q.Q.Q.Q.W.(.e.t.t.t.w.H H H l H H c H t.h 0 % h k.k.B.",
"i.q.G q.H H H t.H H j G X.t.t.t.r.k.w.} ^.Q.Q.W.Q.Q.~.Q.Q.Q.Q.Q.Q.~.Q.Q.Q.Q._.t.f.M.i.q.H w.H G j x x H t.j 8 & l k.e.f.",
"e.w.X.w.e.e.X.H w.H H H q.w.e.e.e.p.w.D ^.8.Q.Q.8.Q.Q.Q.Q.Q.Q.!.Q.Q.Q.8.Q.Q._.t.e.f.f.r.X.X.H x c H H H t.h 8 & x t.q.X.",
"e.e.e.w.r.e.H x H H H H H X.e.r.w.a.w.} `.!.~.Q.^.~.~.!.~.~.~.~.~.~.Q._.^.Q.'.X.t.t.f.f.t.0.H H w.w.w.w.t.d 6 & x f.X.w.",
"H e.w.H H X.G h j x H G H G H H e.a.w.| 6.4.4.4.4.5.4.5.4.5.4.4.4.5.3.5.4.4.8.j e.q.w.t.t.H H H H w.X.0.e.f 0 : x p.H w.",
"r.e.X.H G x x x x G H H H H q.w.t.a.r.[ ` ! ~ ^ ! ! ! ! ! ! / ~ ~ ~ ~ ~ ^ ^ ,.H w.H H w.w.q.w.w.w.w.e.e.t.h 8 > x t.H q.",
"w.r.t.t.w.G H w.e.H H e.t.t.f.k.r.k.N.] ` ) / ^ ! / / / / / / / _ _ ~ ~ / ^ ,.J.J.B.B.c.c.B.B.k.f.N.k.t.a.h 6 % x p.q.0.",
"l 0.h s d d p p 0 q p d l x l l d h c [ _ ~ / / / ~ / / / / / / ~ / / / / / ,.l h x x c x c H h G G q.q.G H p # 0.y.q.i.",
"1 3 < < < : : % & & : : , , : & , , < | <._ _ ) ) _ ) _ _ _ _ / _ ` _ _ _ / 1.> & & > : : < , > % % > < < 6 5 # q p 3 6 ",
"& O # % $ $ > > : & & $ & & $ # O & $ v R U U U I I U I U U I I I U U U I U W % $ # + # # + + + % @ O O O $ % O # $ . X ",
", $ d e.e.H q.c H G c c c c c x x w.c S J J J J J J J J J J J J J J J J J J K 2 h d s d k s s g l k d k l l z l z z g a ",
"8 > q.P.T.I.Y.H.U.U.L.L.P.I.I.I.P.K.J.m.n n n n n n n m m m n M m M m m m n b e y.d.i.x.B.B.N.H.S.S.x.S.D.S.D.H.d.d.d.i.",
"d , c y.S.S.Y.U.x.x.z.d.k.i.i.i.c.j.i.t.B B B B B B C B N N Z Z B B B N N N V w y.n.S.b.G.S.z.H.H.D.S.x.S.d.y.z.S.z.S.q.",
"s > q.d.U.H.S.x.D.D.S.S.S.x.z.x.a.y.f.t.' ~ / / / / / / ~ / / / ~ _ ~ ~ ~ / =.l c x.N.y.d.d.e.i.i.d.i.y.d.d.r.d.q.9.r.c ",
"d < 9.e.L.H.x.y.y.y.i.i.i.i.i.i.a.x.G.y.5.3.3.3.3.3.4.3.3.5.3.3.3.3.3.4.3.4.O.d z x.S.i.N.N.d.S.i.x.i.y.d.r.9.q.q.9.d.q.",
"8 < H r.L.z.e.c e.e.y.r.e.r.i.i.i.B.x.t.x 8 i $ q w.b.M.Z.Z.o.X.X.x x X.c 8 # j x a.b.c.z.a.x.d.x.y.e.e.y.e.q.q.q.q.i.9.",
"8 < c e.J.a.e.c e.w.w.w.H w.w.e.t.c.b.y.q.8 8 $ 8 w.i.y.y.X.c 0.X.H c w.c q # j l y.i.i.d.z.S.i.y.e.w.e.e.q.q.q.q.9.y.9.",
"8 < 9.w.J.f.w.c 0.H 0.c H 0.0.w.w.f.c.f.w.q 8 # 8 w.i.e.w.w.c X.w.w.w.w.x q % l x z.z.i.x.x.d.w.9.9.9.9.0.9.0.q.q.q.i.9.",
"6 , H e.b.t.c x l x c w.e.w.w.c w.i.i.f.e.s 8 $ i w.i.w.w.c x c w.t.e.X.x q & h 0.z.a.a.z.i.e.z z z z c 9.9.9.q.e.q.a.9.",
"1 , c w.c.w.l d s d l c w.e.w.w.w.y.i.y.w.i 8 $ i w.i.w.w.c c c X.t.t.w.x q & h x y.y.e.y.y.q.z z z c z z c 9.9.q.q.y.9.",
"3 < c 0.a.c d 8 s s s g c 9.w.w.9.w.w.e.0.q i $ s e.f.w.w.0.c 9.H w.e.w.H w & h 9.d.y.y.y.e.9.k z c z z z 9.c z 9.c r.c ",
"4 < 0.0.y.c d s k s i d x c 9.9.x 0.w.w.9.q 8 ; d y.i.0.0.w.9.w.w.w.w.w.c q & l 0.b.x.y.q.9.9.z z c 9.c z z z c 9.c e.z ",
"4 < c w.y.c h k k d d d z c 9.z c 9.9.w.0.i i $ l i.i.9.c 0.q.e.r.e.X.w.c s $ l 9.d.a.y.q.9.9.9.l c 9.c k l z 9.9.9.e.c ",
"8 , 0.e.e.i.i.0.z 9.9.9.0.e.y.e.e.y.e.e.w.l 8 ; k x.P.x.w.q.y.w.e.e.k.e.w.8 $ k y.D.N.y.y.i.y.y.q.y.d.e.9.c 9.9.9.c c c ",
"s 1 0.c d s d d d a k k k k l l k x k d d q 4 : z z z l l z z l c d s t z d , s 9.x k k c 9.z k k k z z s d l k z l z c ",
"3 < d 4 , % : < : < , : : < < < < 3 , , , , < & 4 > $ ; , < < < < * $ $ 4 4 : 8 3 : & , 4 < ; , > > > < > < < > 1 4 5 8 ",
": $ ; # ; : $ , ; : : ; & ; % ; $ & $ $ $ @ ; @ $ @ @ $ ; $ $ $ X $ & $ & & O , ; $ @ ; : ; @ : ; $ ; : $ & > $ @ @ @ @ "
};
