/* XPM */
static char *_3cb07fb0fcf42bc8145d30b2caf2467olHexSTlXqEaPeey[] = {
/* columns rows colors chars-per-pixel */
"60 60 139 2 ",
"   c #291F27",
".  c #2D242A",
"X  c #30272C",
"o  c #31282D",
"O  c #352C33",
"+  c #392F36",
"@  c #392F39",
"#  c #3A3136",
"$  c #3D333B",
"%  c #40373E",
"&  c #42393E",
"*  c #413740",
"=  c #453B42",
"-  c #483F46",
";  c #493F48",
":  c #4A4146",
">  c #4D434A",
",  c #50474D",
"<  c #52494E",
"1  c #514750",
"2  c #544B52",
"3  c #584F56",
"4  c #594F58",
"5  c #5A5156",
"6  c #5D545A",
"7  c #60575C",
"8  c #62595E",
"9  c #655B62",
"0  c #685F66",
"q  c #6A6166",
"w  c #6D636A",
"e  c #70676D",
"r  c #736A6E",
"t  c #756C72",
"y  c #786F75",
"u  c #7B7275",
"i  c #7D737A",
"p  c #80777D",
"a  c #82797D",
"s  c #817780",
"d  c #857C82",
"f  c #887F85",
"g  c #8B8285",
"h  c #8D848A",
"j  c #908886",
"k  c #90878D",
"l  c #938A8D",
"z  c #99918F",
"x  c #918790",
"c  c #968D92",
"v  c #978E93",
"b  c #958C91",
"n  c #978D95",
"m  c #968C94",
"M  c #958B92",
"N  c #988F90",
"B  c #988F92",
"V  c #988F94",
"C  c #998F97",
"Z  c #988E96",
"A  c #988F95",
"S  c #9B9391",
"D  c #999093",
"F  c #9A9192",
"G  c #999095",
"H  c #9A9194",
"J  c #9B9295",
"K  c #9A9196",
"L  c #9B9297",
"P  c #9C9394",
"I  c #9C9396",
"U  c #9D9495",
"Y  c #9E9694",
"T  c #9D9497",
"R  c #9A9195",
"E  c #9A9098",
"W  c #9B9199",
"Q  c #9C9398",
"!  c #9C929A",
"~  c #9D939B",
"^  c #9D9499",
"/  c #9E9598",
"(  c #9F9699",
")  c #9E959A",
"_  c #9F969B",
"`  c #9E949C",
"'  c #9F959D",
"]  c #9D939A",
"[  c #A0979A",
"{  c #A0979C",
"}  c #A0969E",
"|  c #A0979E",
" . c #A2999A",
".. c #A39A9B",
"X. c #A1989D",
"o. c #A2999C",
"O. c #A39A9D",
"+. c #A2999E",
"@. c #A39A9F",
"#. c #A49B9E",
"$. c #A59C9D",
"%. c #A69D9E",
"&. c #A39A9E",
"*. c #A197A0",
"=. c #A298A0",
"-. c #A399A1",
";. c #A49BA0",
":. c #A49AA2",
">. c #A59BA3",
",. c #A59CA1",
"<. c #A69DA0",
"1. c #A79EA1",
"2. c #A69DA2",
"3. c #A69CA4",
"4. c #A79DA5",
"5. c #A59BA2",
"6. c #A89FA4",
"7. c #A89EA6",
"8. c #A99FA7",
"9. c #A89FA5",
"0. c #AAA1A4",
"q. c #AAA1A6",
"w. c #ACA3A6",
"e. c #ADA4A7",
"r. c #AAA1A6",
"t. c #ACA3A8",
"y. c #ACA2AA",
"u. c #ADA3AB",
"i. c #ADA4A9",
"p. c #AEA5AA",
"a. c #AFA6AB",
"s. c #ADA3AA",
"d. c #B0A7AC",
"f. c #B1A7AE",
"g. c #B2A9AE",
"h. c #B2A9AE",
"j. c #B4AAB1",
"k. c #B9AFB7",
"l. c #BEB5BA",
/* pixels */
"r u a j z l l j [ [ O.6.d.e.d.d.u.d.u.6.2.^ b ^ u $ w V L l / k ` ` *.3.3.` W W *.*.n n 9 w h M d f g g g a p t r : q a ",
"z  ...%.%.$.%.......O.%.3.| { O.+.5.+.+.2.+.+.r.i : w V _ _ p.,.3.*.7.u.u.7.*.*.*.7.' s ; 0 *.6.5.0.w.e.1.$. . .u : r z ",
"z z z z T T Y Y b l N C T C T ) C G b l V b b ^ t $ 9 j K V 0.^ ` C C ' *.*.n m W *.' w * 1 *.i.b F T T F l l F q : w g ",
"j g g g h j j g g k x W [ [ ) { T [ G G L V k G w $ q l _ ^ _ b m x x x x x x x x h W y > * h 5.b k k B G F F  .r : q g ",
"j j a a a a p r p p a j m f f f g h k b ^ G V _ w : q x 0.^ ^ l s s s s s s s h x f W i 4 ; x ~ g a i g l l F F w & w j ",
"a a a p p p r q e e r p s s t e y i i g b b b G q & 8 d ^ V b h 0 e e t t y s x h h *.e 2 1 W ~ l p u g T T G ^ q & q g ",
"a p r p p a a p t t t s f s i y i i a g b b k G q = q g @.L b g t t i s s f x ! f f x w > 1 E ~ j u u g G b l G t : w h ",
"a q q q r a a a i t t i s y t e u u u i h h g k 6 $ 9 g ,.v g y t t s s h x x x h s x s 4 > h *.k i i k G b k G t : w h ",
"p a p p y p u y p a p t i t w e y y u i i f k V q $ w v l Q g i i i s h f f h x x x h w 4 2 i W k i u j E b k b t : t l ",
"a u p p p p u r a a p y y e w t r t u u i g j b r $ r K v l g i f s s f f s f h h x E w * 1 M ! b f i h M h h h r & q k ",
"z z j z B N k f s s f k x f d d d f g j l c S Q q # q v v v l V Z x x x E E E ! m m W t * - M f n h h h x n E ~ s > 0 h ",
"8 q q q 0 8 7 7 9 2 ; , 2 2 1 ; > > > > , , < < q : q i u u u i s i t e w 9 4 1 2 > 7 0 > @ 8 : 3 5 2 2 3 9 0 0 y > 5 t ",
": : : : & & % % % % = ; * ; ; $ $ $ $ $ $ $ $ $ : O & : # $ & $ O @ @ * * * * * * * * > > O ; @ * = = * $ * = * : $ ; ; ",
"& & : & : , ; , * ; 6 2 @ * 4 4 6 6 5 6 6 6 8 8 5 5 5 2 : < 5 : 2 2 1 : = = ; ; * * * O * O * * * = ; = = * * $ $ $ * @ ",
"j z z [ [ $.9.y.j.f.} w ; 9 m ` <.<.<.<.0.0.r.r.r.r.0._ V V / k x m x h x x x h 6 > d ~ >.-.Q G n n E W W E M x f h f f ",
"S Y Y $.$.$.3.9.4.| x 9 ; 0 Z m G b b b V V S V l V V #.#.0.e.@.:.q.:.:.4.:.Z d 0 . w *.y.u.y.h.j.y.u.f.u.*.W ~ *.*.n *.",
"m Z ~ *.~ ~ ~ ~ C *.s 4 = w h m Q S Y Y S S Y K l Y b g j z z z h j v g k x @.i 6 $ 8 ( 6.@.@.L x E ! *.*.! ! ! m ~ n m ",
"Z ~ C ~ m C ~ *.~ :.d 6 ; e h m b z S S S S S S z S z j l z z z V l l g g l @.g 9 $ 6 Y @._ _ k d f x m m x x f x W E m ",
"f Z C f f f ~ *.~ *.f 7 * w h M S S G Y Y ( Q Y b S j g l l l S V l k i g g L i 6 $ 6 Q 6.( v f t y s d d d s s h m m M ",
"Z f f f s s f ~ E *.d 7 * 0 h x l b l l V V V l S b l g j j j H l h h a a d k e 8 $ 5 Q q._ b a y i s d s i y y d x m x ",
"C f s s i i s f C ~ f 9 * 0 M m g g k x G L W G V L Z V ^ b k L k g g g g g j w 9 $ 6 ( q.G x i s s f x f i i i s x x x ",
"f s w 0 9 0 y s x m f 0 @ 0 x x u u s h k c Z G g b E W ) V k b k d d i g g l t 9 $ 6 ( @.c g i s d x Z f y y i d x x h ",
"s y w 0 9 9 w i f f f 0 $ 9 f s 9 q t y t y i s i h h h h x h k b g g i d g l y 8 # 8 ( @.l j f f f f W x d s s h x k h ",
"s s s s y t y d f x f t * 9 d i q e y t e q q w y d d i s h M Z K k h g k g z u 5 # 6 ..@.b v v m x x *.*.m h f m ~ E x ",
"t e w 0 7 4 4 4 9 9 w w > > 9 9 4 6 ; = ; > 3 6 6 1 6 9 6 7 0 w w 9 8 q w w 9 5 8 & w u 8 8 8 8 e 0 9 6 4 4 ; ; 4 4 9 9 ",
"* * * ; ; ; ; ; * $ 1 1 * * ; * * * $ ; ; = = $ * * = $ @ @ @ * $ # $ $ & $ # # > . : > % & & - * * * ; ; * * 1 = = = * ",
"; ; ; ; * * * @ ; $ * = $ $ = @ $ * ; ; $ @ > : > > ; ; 4 4 * @ : > : = = = : : < % , - & & & - * @ * * * % * * * * * $ ",
"y s s s s d s s h s i s i s f s s s d e > 1 h %.` W W Z :.f > ; a a g f a a g g a a h f f j p p y y e 0 e w 6 @ 9 t y y ",
"f *.` *.4.8.8.u.=.=.7.u.y.y.4.=.m h h 0 & & j d.j.j.l.j.y.t @ 4 V G +.+.2.2.2.6.0.e.d.6.d.d.| | C ' E f Z s e @ i n 4.*.",
"f f f m C C m m n W W W n n b b n x h 9 : & i z  .g l j h 8 O 9 g k ^ r.6.2.5.5.%.6.O.[ :.%. .| ` ! ! E *.0 7 @ y E 3.n ",
"f C ! *.*.4.*.! W *.' n n n n ' l l h 8 < # w a $.u u a g w # 6 f k +.2.[ G b b T T T ^ } B } ~ ` m m ` >.0 9 * y ' 2.b ",
"f f f C f f f d i h M b E V V L V Y l 6 , # r z g q u u a q # 2 a l 5.5.l f p d f f h ) n k l k k f s d C w w @ w E 2.z ",
"f m x f j f p q q r r a g j z S Q L l q * # y b k r u a d q = 5 a d 1.b a a a u g g l G Q l d p g d a a j u 8 & q z z $.",
"f f f f j a a p r r r p g j S S v G k 9 & # r b b y i a a q & < u d #.j a u j j z b l g a a a r a a u a j r 5 & q S H $.",
"N a f f a a a j a a p p f k l l l L g 6 = $ e S h u i d g q & < u j O.g a u a l b ^ S d a g a u u u u a l r 7 & t F j l ",
"j f f k j j a a a a p a a j f k j G f 6 > $ w G k p a d g w & 5 i l #.d g p a l j z z h g g a u u a a a z r 7 & u l g g ",
"f k j h j k a p p p a a a a j l g L f 6 : $ w V ^ g g g h q # < a l O.g h d a g l l S Q j g p a d j g g j r 5 $ i z d g ",
"f j f a a a p w r p p p a a a a g v g 9 : # w l L g g f k q # 5 a l O.j l g i p j d f l j a a a a g d d j w 6 : u l a g ",
"f f f a a p p p p p p a a a f f k V V w : # e l b g f d b w & 8 d j 2.G b j h g g d a f g d g j g h h h l r 8 : u k f f ",
"k k l l f p p a a a f f k b S [ l Y ( u > # t c K k g f b w $ 8 a a t.2.{ #.d.r.6.,.O._ { O.( S V _ L b F w 5 $ i z a f ",
"y a r q e w 0 0 8 8 0 w t p r r w r a r > $ u j _ V K l j r > 6 { l L g r e e t r t i i y i a t i s h g i s q + s x d x ",
", 2 , ; - = % % & & & & - - & & : : : > 2 2 8 : : 2 6 5 5 > : w 6 , , = $ $ * ; & & = = = : : = * * = : > 6 2 + 9 0 4 4 ",
"& O % % % + ; ; - & % % % % & % O $ & X o X : $ # & $ # # # X & & @ + + = * O = $ @ + @ @ + # O $ @ O O O $ $ O @ $ . O ",
"= % e f f a d p a p p y y p p y u g i u g w 5 # 6 w w 9 w r q w 0 q 0 0 e 4 $ 4 e w q w e q q w t e w e r t y y y y e 0 ",
"6 - d f.k.f.j.8.f.f.f.f.u.f.f.f.a.t.0.t.l.l q # i %.p.0.w.r.i.j.8.f.u.*.E t 1 t M Z Z E ,.@.' 8.*.*.*.:.7.:.*.8.C C C m ",
"w ; p x :.>.j.f.' ` C C m M M M L K v k g 6 2 : r V V l l k k l E ~ Z x s 3 $ q x *.@.' 2.@.Q 4.3.3.` ` *.C x E *.! ` f ",
"w ; d m f.9.:.E :.:.:.*.' ` ` ~ V c S l i 6 6 $ t b k l ^ G F k g s s s i 4 = t s Q *.x E Z x m m ! m x E n x E d s x i ",
"w ; f f u.4.` M x x M m M M M m V L @.v i 6 q $ 6 j v K V g h g f u i f s 7 ; w t ~ *.Z ' ' Z ' x ` m x C x d f f s ` d ",
"6 ; a k y.[ f a f k l k k k l l B | ) h a 7 8 % 8 g T b k a t i p u u a a 6 # r y G ( L L G *.W ! x h h x x f d f f n s ",
"7 , a k 1.B f p k f f f a f f k k [ T l a 7 7 # 7 f C l h f i a d p p f p 6 # u t l v v W Q ~ m k h f h h f f f f s x s ",
"6 , a f 3.N f p a a a p a f a f h C T B g 8 6 + 8 f M k g a p f g g g g u 8 & r i L Z n Q W n d s s s s s s d h f f n s ",
"3 ; p f | b a y t y p f j h f p g B C C h 8 8 # 8 f l h f p u p g j j g u 8 & r s Q Z m W n k i t y i i s s s d x f n s ",
"< - p f [ f t e w w t p f k f f g k M M g 8 8 $ 0 f E f d p i i a j j g u 8 & r i m x x x x f t y t y i i s s i f s x s ",
"2 > p f N i q 8 0 9 0 e p f f f a f h h f 8 8 & 0 f C f f d s d a j j g u 8 & r s Z x h x h s t y i i y y i i i s s f s ",
"3 , s s x y w 9 e 0 9 0 t p s s i d d f s 7 6 $ e x M d d f f f g g j g a 8 & r s *.! x h s s y t s s y y y y i s s f i ",
"3 , s f x p t e t w 0 w t p s s i s s h d 9 7 % e M M s s d f f j j a g a q & r s W C x s s s i e s s i e t y s f s f i ",
"7 = s k f C n f p s d s d f x f h m h x f y 6 @ y ~ u.E f f x f j k L k a 6 $ t x -.*.x x m m x f x W x s y s s s s s i ",
"9 2 f p w 0 0 0 9 0 e e w t y t e y w 0 0 9 4 ; t y y t e y y t i q 8 8 y e > q s i t e i i t e w e y t w w t e y t y y ",
"2 , 0 3 = * = , = ; ; ; = ; ; ; > 2 ; ; ; - > * 4 = @ = > , ; ; , = & & 2 4 & 6 1 - @ ; 3 > * = ; ; ; ; ; ; ; ; 1 1 4 4 ",
"* @ * @ % % % - * = * * * * = * @ * $ $ $ @ * @ % O @ * * % @ % X # * # * * O > * @ @ * ; @ @ - * @ * ; * * * * @ @ @ * "
};
