/* XPM */
static char *__removebg_preview1673794423[] = {
/* columns rows colors chars-per-pixel */
"60 60 236 2 ",
"   c #010101",
".  c #0A0805",
"X  c #0C0C0B",
"o  c #150A06",
"O  c #11110E",
"+  c #1A150D",
"@  c #181312",
"#  c #191916",
"$  c #1D1C19",
"%  c #250F0F",
"&  c #3D0F06",
"*  c #351D0A",
"=  c #231B19",
"-  c #331516",
";  c #36200A",
":  c #23211B",
">  c #2C162C",
",  c #2A2727",
"<  c #34282B",
"1  c #34322A",
"2  c #232737",
"3  c #342B32",
"4  c #382E35",
"5  c #312B3D",
"6  c #382E38",
"7  c #393235",
"8  c #3C333A",
"9  c #3D3939",
"0  c #491508",
"q  c #55160A",
"w  c #4D1513",
"e  c #551719",
"r  c #721C0B",
"t  c #671B15",
"y  c #43270D",
"u  c #452916",
"i  c #4E2813",
"p  c #542A18",
"a  c #79240A",
"s  c #622C1C",
"d  c #732512",
"f  c #673919",
"g  c #701C32",
"h  c #462C29",
"j  c #552928",
"k  c #57342A",
"l  c #423D35",
"z  c #40353C",
"x  c #41383D",
"c  c #523836",
"v  c #662728",
"b  c #6F332F",
"n  c #733525",
"m  c #74471D",
"M  c #5D4529",
"N  c #684224",
"B  c #7D4C28",
"V  c #6F4536",
"C  c #7F553E",
"Z  c #0D1256",
"A  c #341C4D",
"S  c #2A3155",
"D  c #0F1172",
"F  c #3D1264",
"G  c #152379",
"H  c #313763",
"J  c #3B2279",
"K  c #511953",
"L  c #403540",
"P  c #443B42",
"I  c #493D47",
"U  c #4B305B",
"Y  c #672555",
"T  c #5E3F61",
"R  c #6B2C63",
"E  c #39476C",
"W  c #4A4146",
"Q  c #464649",
"!  c #4C434A",
"~  c #52474D",
"^  c #534A4E",
"/  c #4F524C",
"(  c #554B53",
")  c #584E56",
"_  c #5A4F58",
"`  c #5B5256",
"'  c #575559",
"]  c #5E545A",
"[  c #78494A",
"{  c #715048",
"}  c #625C55",
"|  c #60565D",
" . c #62595E",
".. c #556057",
"X. c #514D69",
"o. c #60466A",
"O. c #645B61",
"+. c #685F64",
"@. c #695F68",
"#. c #664770",
"$. c #626465",
"%. c #6A6065",
"&. c #6C636A",
"*. c #706967",
"=. c #70666C",
"-. c #72696D",
";. c #79706A",
":. c #616F7C",
">. c #706670",
",. c #756B72",
"<. c #786E76",
"1. c #7A7175",
"2. c #7B777A",
"3. c #7D747A",
"4. c #8B1508",
"5. c #981701",
"6. c #AB0404",
"7. c #A71B01",
"8. c #942407",
"9. c #852911",
"0. c #893215",
"q. c #AC2201",
"w. c #AA2A06",
"e. c #B52200",
"r. c #BB2501",
"t. c #BB2A01",
"y. c #B03118",
"u. c #851F20",
"i. c #8E2F34",
"p. c #DB1A1A",
"a. c #C42B01",
"s. c #C72B07",
"d. c #CB2D01",
"f. c #D12F00",
"g. c #CC3508",
"h. c #D13101",
"j. c #C82D11",
"k. c #875012",
"l. c #BE5918",
"z. c #91671E",
"x. c #AC610A",
"c. c #975828",
"v. c #91582C",
"b. c #885731",
"n. c #AC532C",
"m. c #A3652F",
"M. c #B56A39",
"N. c #D54609",
"B. c #CE580E",
"V. c #CE6311",
"C. c #DB6717",
"Z. c #E1650D",
"A. c #E47718",
"S. c #D07C3E",
"D. c #A83D4C",
"F. c #8A5049",
"G. c #875757",
"H. c #A85D57",
"J. c #9B6142",
"K. c #856656",
"L. c #AE6D4E",
"P. c #B97845",
"I. c #BA7957",
"U. c #8F4E65",
"Y. c #8A7972",
"T. c #80777D",
"R. c #81797D",
"E. c #B2776C",
"W. c #C2784E",
"Q. c #EF910A",
"!. c #EC8516",
"~. c #F29B17",
"^. c #F9A608",
"/. c #FFB201",
"(. c #928275",
"). c #B78E68",
"_. c #CE8652",
"`. c #CB8454",
"'. c #D1946E",
"]. c #E69C67",
"[. c #E7A26D",
"{. c #F1AA75",
"}. c #0A068F",
"|. c #0A168F",
" X c #000190",
".X c #071A98",
"XX c #2D1F89",
"oX c #2B2E91",
"OX c #0218AA",
"+X c #0726B1",
"@X c #1827B9",
"#X c #292EAB",
"$X c #294485",
"%X c #5E638A",
"&X c #7A7B8E",
"*X c #6961B3",
"=X c #062DD5",
"-X c #2434C1",
";X c #0039F3",
":X c #0041FE",
">X c #5C61CE",
",X c #807780",
"<X c #857C82",
"1X c #887F84",
"2X c #5B8BAD",
"3X c #778CAE",
"4X c #8A8186",
"5X c #888687",
"6X c #8D848A",
"7X c #918383",
"8X c #90878D",
"9X c #93898E",
"0X c #918790",
"qX c #958C92",
"wX c #988F95",
"eX c #909495",
"rX c #9A9295",
"tX c #9D9997",
"yX c #9D949A",
"uX c #A38585",
"iX c #A6918B",
"pX c #A39890",
"aX c #A0979F",
"sX c #A1999E",
"dX c #AEAA8F",
"fX c #909AA8",
"gX c #A59CA1",
"hX c #A89FA5",
"jX c #A3A1A0",
"kX c #AAA1A6",
"lX c #ADA4AA",
"zX c #B0A7AD",
"xX c #B2A8AF",
"cX c #B5ABB2",
"vX c #BCB3B8",
"bX c #CFAE9D",
/* pixels */
";.3.(.5X9XqX9X9XtXsXsXkXlXlXzXzXlXzXlXkXhXtXqXyX1.z &.qXyX9XsX8XwXaXgXhXgXyXyXyXyXyXwXwXO.@.0X0X<X1X4X4X4XY.R.1.<.W %.R.",
"rXtXpXjXgXsXsXsXsXsXsXsXsXsXsXsXsXsXsXsXgXsXsXkXR.W =.rXyXtXzXsXhXhXhXhXhXhXhXaXaXhXyX,XI +.gXhXgXhXlXkXjXsXsXtX;.~ -.9X",
"9XrXqXrXrXtXpXrXrX9XqXrXtXqXrXrXqXyX9X9XqXqX9XyX-.9  .6XyXqXgXsXyXwXwXyXgXgXyXyXyXaXyX>.L ~ gXlXqXrXpXyXrX9X9XrX=.x @.5X",
"7X7X5X7X7X9X7X5X7X7X8XrXsXsXsXsXtXyXrXrXyXqX9XrX&.x +.9XsXyXsX9XqX0X0X8X1X0X1X0X1X1XyX<.~ L 1XgXqX8X8XqXrXrXqXsX*.I &.5X",
"9X6X4X(.(.<X2.,.T.T.R.8X9X8X1X1X4X8X6X9XyXtXqXsX=.l &.9XsXsXyX8XT.T.3.T.T.T.1X1X1X1XyX,Xo.L 8XyX4XR.1.4X8X9XqXrX*.M @.0X",
"(.2.2.3.2.1.-.&.=.-.,.R.R.T.<.=.-.3.T.1XqXqXqXrX@.x  .1XsXqX9X4X>.@.>.<.,.<.,X8X1X1XaX>.~ ~ yXyX9XR.1.4XpXyXrXsX%.x $.6X",
"2.1.-.;.T.R.R.3.;.=.<.T.<XR.T.<.T.T.T.4XqXqX9XwX@.I +.4XsXtXqX4X>.<.,X<X<X1X8XyX1X1X1X>.I ( wXaX7X2.<.4XrXqX7XrX-.! =.9X",
"3.-.%.&.;.R.R.R.1.,.<.3.T.<.,.=.1.1.1.T.4X4X4X9X .x +.4XsXqX1X3.,.<.,X1X1X1X0X0XwX1XyX,X_ ~ 1XgX9X2.3.6XrX9X9XrX-.W &.7X",
"2.T.;.1.1.3.1.3.R.R.3.<.<.<.>.>.1.1.1.3.T.1X9XqX .z *.qX9XyX4XT.2.2.2.5X1X1X5XqX0X8X6X&.( ( 3.wX9XR.3.7XyXqX8X9X,.W <.9X",
"R.R.R.R.R.3.1.-.R.R.3.1.<.>.&.>.-.-.1.3.T.1X8X9X*.x -.yXqX9XR.R.../ 2.1X,.<X1X5X1X0XwX&.I ^ 9XyX9XR.2.4X0X8X6X8X-.z %.8X",
"qXrXrXrXrX9X6X4X,X,X1X8X0X1X<X<X1X4X5X6X8X9XrXtX .z %.9X9X6X<XqX ., *.4X' R.yXyXwXwXyX,.z I 9X4XqX6X4X6X0XqXwXpXR.! +.6X",
"%.%.%.%.%.O.| ] O.( ! ! ~ ( ( I W W ! ! ! ~ ~ ~ &.W +.R.1. .l ) ^ # l ] , ( ) ~ ~ ~ | @.I 8  .I ) _ ) ) _ O.@.@.,.! ] -.",
"W W ! W I x z z x 8 P I S I I z 8 9 z 8 9 8 8 9 P 4 P W 7 1 = : 9 $ X 9 2 M P L P L P ! ! 6 I z S c P z z L x x ! 8 S ! ",
"I l l I W W ! ~ P ! | ( z I ) ) ] ` ] ] |  . .| ` ) ' / < : : :   X $ 1 1 ` P P P 6 P 6 6 6 S c P l I P P L c S 8 8 M A ",
"8X9XqXyXsXsXkXlXxXlXaX&.x  .wXaXjXsXsXgXjXkXkX8XW 7 1 , $ @ . X   X $   # 1 <.6X] I <XyXhXgXyXyXwXwXwXyXyXqX0X0X6X6X1X1X",
"qXtXaXsXsXgXgXhXgXgX0XO.I &.wXqXrXrXqXqXqXrXrX9X' # , , @               # 1 } <X@., =.aXhXlXhXzXxXzXlXzXlXgXyXyXyXyXyXyX",
"wXwXaXaXyXyXyXwX0XgX,X( P =.1XqXrXpXpXtXtXrXrXrX9Xl = .                 X $ / 3.| z | sXsXsXgXyX1XaXaXhXaXyXyXyXqXyXwXqX",
"wXwXyXaXqXwXaXaXyXgX1X| I >.8XwXqXqXrXrXrXrXrXrX(.^                     X O } 1X| 7 | rXsXsXsX7X1X1X1X1XqXqX1X1X0XyXyXqX",
"1X1X1X1X1X1XyXgXyXgX1X| P &.1XqXrXpXrXrXpXpXsX9Xi.X #                   : : &XT. .z ` yXhXtXrXR.T.T.T.,X1X,XT.T.1XwXwX0X",
"1XwX1X1X,X1X1XyXyXyX1X| z @.8X0X9X9X9X9XqXrXqXp.).v < .       * .       @ @ / -. .7 ) rXkXsXqXR.,.<.,X1X,XT.<.<.<X0XqX8X",
"aX1X<X,X<.T.<X1XwXyX1XO.L @.0XwX5X4X6X9XrXrXuXy.V.t.a :     . B u o ;   X   1 *. .z ` sXsXyX9X3.,X,X1X1X1X3.<.T.,X0X0X8X",
"1X<X>.#.O.@.>.,X0XqX1X@.8 @.8X9X1.1.<X6X0XE.p.g.Q.x.& + y ; - p v i f   % . < ,. .9 | rXsX8X4XT.,X1X1XwX1X<.<.&X<X8X0X1X",
",X<.=.@.O.O.>.<.1X0X1X@.6 O.1X<X .%.-.<.<.H.r.j.F.M.8.y m.N F.H.v N v.% [ c k ,. .z | sXsX8X9X4X1X1XwXwX0X<XT.,X1X9X0X8X",
"<X,X,X<XT.>.<.,X<X0X1X>.P O.<X3.&.-.<.<.-.4.a.j.XX#XY h v.v.H.E.v M.f - 9X8XF.2.` 7 | sXsXrXqXqXwXwX1XaXgXwX1X1XwXyXyX0X",
"=.=.>.+.| ) ( _ +.O.>.@.~ ! O.| _ ] I I { 4.j.Y =X;X@X|.5 k.W.M.y.[.N w *.&.F.*.O.P -.1.|  . .O.>.#.O.] ) ) ! ! _ _ O.O.",
"z L I I I I I ~ L L I ( L L ! L S L z I [ 9.i.}.;X;X=X#Xo.M.W._.[.).B e j 9 7 4 W , W ! 7 P x W I z z ! I L P ~ I P P P ",
"I I I P z z 6 z I z z P 8 z P 6 l z I W Y.C g }.=X:X>Xl.c._.[.M.L.C b.t j I I ! ! z ~ W x W z W x z z z x 8 8 S L L P 6 ",
"<.T.,X<X<X,X<X<X1X,XT.T.3.R.1XT.R.R.<X=.` (.t F }.*XbX_.m.{.{.I.G.B k k Y.<X<X1X4XR.6X<X4X4X3.R.<.<.=.+.,.&. .h O.,.<.,.",
"0XwXyXgXgXhXhXlXaXaXhXlXlXkXhXsXwX9X8X+.5X(.0 u.J I.{.].M._.S.o.#._.b.4 hXsXhXkXkXlXzXkXlXzXsXgXyXyXwX1XwX,X&.6 3.wXhXgX",
"1X1X0XqXwXwXwXwXwXwXaXrXwXqXqXqXqX7X7X*.bXY.Z A j b.[.[.m.k.m D T {.].b E.hXsXsXsXgXsXtXgXsXsXtXyXyXwXyXaX&.| 8 ,.yXgXwX",
"1X0X0XyXyXgXyXyXwXaXyXwXwXqXqXyXqX).iXdX'.;.Z .XZ $ J._.W.c.m.V f P.[.t { wXqXqXrXyXrXsXyXyXyXyXyXwXqXyXgX@.O.z ,.yXgX9X",
"1X1X0X0X0X0X1X1X&X6X0XqXyXwXeXyXrX`.I.W.n.M < > .XG y L.].W.J.i * f I.j [ 1XT.R.1X4X4XyXwX6XqX6X0X1X<X,XrX=.&.8 =.yXgXrX",
"1X8X8X8X6X4X3.&.%.*.1.R.5X8XrXqXaXW.B.C.Q.~.Q.x.V j 0 u b.N i 8.t.r n O [ Y.R.T.4X4X9XrXrX9X(.2.5X(.2.T.9X,.| x  .9XrXsX",
"8X1X1X1X4X1XR.R.-.-.-.3.4X9XrXrXuXL.~.~././.^.!.A.V.w.a & q q.a.d.d.q.0 I R.1X6X9X9X9X4XR.R.3.,.R.R.3.R.9X-.} z ;.yXrXsX",
"9X1XR.1X<XT.R.6XR.2.<.3.(.9X9X9X).9.!.A.!./.^.A.N.e.5.5.e.r.a.a.e.Z.A.C.k G.R.9XrXtXqX4X&X<XR.3.;.1.1.R.9X;.| x ,.rX7XqX",
"7X1X1X7X6X5X(.4X6X(.2.R.<X6X7X7XK.q.N.N.N.Z.V.x.f s q q q p q q.e.Z.Q.^.u.U.R.8X7XrXrX7X(.(.R.2.T.R.R.R.9X,.| x 1.rXR.4X",
"6X6X6X4X7X9XR.;.T.T.R.R.<X4X6XI.a r.f.s.r q 0 K.1X3.3.,XT.( @ # 5.r.N.C.u.H.R.6X9X9XrXrX0X4X2.R.R.7X6X4X8X=.` l Y.qX4X4X",
"5X6X4X2.R.R.R.-.;.T.T.T.2.2.R.[ e.d.h.h.8.k 2.9XwX4X1X1X8X&.6 : - 7.f.6.D.1XR.3.6X1X(.8X8XT.&X(.R.4X4XR.7X*.| x 2.9XR.4X",
"4X6X4XR.R.3.1.1.T.T.R.R.R.<X).y.d.h.s.7.9.pX-.9XqX4X1X<X9X=.8 h e a.d.5.H.0X6X1X4XT.T.1X1XR.R.6X1X8X6X6X9X-. .I 1.9XR.4X",
"7X6X9X9X4X3.R.4XR.R.1X1X9XiXV t.h.h.d.8.(.7 ,.9XrX8X5X1X9X-.5 d d.f.d.n yXgXlXhXkXgXsXsXsXsXsXtXqXyXtX9XrX-.` z 1.qX<X<X",
"<.T.-.%.=.&.} *. . .O.&.,.tXb.C.g.t.q.s :.7 1.9XyXqXrX9X6X-.b q.a.t.q.k -.=.=.,.,.,.3.3.1.3.R.,.T.T.1X1XR.R.@.7 T.qX<XqX",
"! ( ~ ! ! P c S I x P P W eXp C.C.y.8.;.^ ^  .W ! ( ] ` ` ! s e.r.5.4.G.z z z I x x P P P W W I z z I I ! | ( 8  .@.( | ",
"x 4 7 x 7 8 I I l L z z P fXZ b z.0.p jX< , P 8 7 9 9 4 8 S Z e d d V 4 x x 3 I 8 7 4 7 7 4 1 4 z 6 3 5 3 z z 3 4 z > 3 ",
"W 8 &.6X6X,X<X3.R.T.3.3.2XoXoXA Z 2 tX1.(.=.| 8 ] &.&. .%.H  X.XU < $.@.=.` z ( -.&.&.&.&.&.@.=.,.=.>.>.=.,.<.,.<.<.&.@.",
"] I 1XlXvXzXcXhXxXzXzXxX2XOXR F |.eXsXlXvX9X%.7 3.gXzXkXgXH OX@XD.K 6 wXyX>.~ <.0XwXwXyXgXgXyXhXaXyXaXgXhXgXgXhXwXwXwXqX",
"&.! 3.0XgXgXzXcXaXyXyX3X$XJ Y D %X3XrX9X<X] ( ! ,.qXrX9X6XQ D +XU.w.v X.<X( z @.0XgXaXyXgXgXyXgXhXhXyXyXaXwX0XwXsXyXaX1X",
"&.I 1XqXzXhXgXyXaXgXfX#X|.R -X+X5XeXrX9X2.O.] x -.qX6X9XaX&XQ E X.{ ~ ! 3.( I >.&XyXyX0XwXwX0XqX0XyXqXwXwXwX0XwX<X,X8XT.",
"@.! <X6XlXgXyX0X0X0X0X*XoXoXE E 2XrXgX9X1. .O.8  .8XqXrXwX5X6XR.T.3.3.<XR.| ! @.,.yXgXwXyXaXwXaXqXyXwX1XwX0X<X1X<X,XyX1X",
"] ! T.8XlXyX6XT.4X8X9X9X6X9X9XqXqXsXrX8XT.|  .x  .4XtXqX9XR.<.T.R.1.1.1XR.} 7 ,.<.wXpXyXwXwXaXyXyX1X1X1XqX1X1X1X1X1X0X<X",
"] ! T.6XjXrX4XR.6X4X4X<X<X<X4X6X9XyXyXqX,X .| 7 | 1XwX9X8X<XT.R.R.2.2.<X3.` 7 <.,.9XwXqXwXyXyXqXqX1X1X1X1X1X1X1X1X1X0X,X",
"] ! 2.4XgXrX<X3.R.R.R.R.<X<X<X4X5XrXyXqX4XO.| 4  .1XqX8X1X<XT.R.6X4X(.4X1. .z ;.T.wXwXwXyXyXqX<X,XT.,XT.<X<X1X1X1X1XqX,X",
"` ! T.6XsX9XT.1.,.<.R.1X6X4X<XR.4XqXrXrX6XO.| 7  .1XqX4X1XR.<.T.4X9X9X4X1. .x -.R.aXwXwXyXqX1X&XT.<.T.T.,X,X1X1X1X1XqX<X",
"( W R.4XyX4X<.&.%.&.-.R.1X8X1X1X1XqXqXqX4XO. .8 +.1XwX4X<XR.<.3.(.9X9X4X1. .x -.T.8X8X0X0X0X1X<.T.>.T.T.,XT.T.T.1X<XqX,X",
"^ W 2.1XqX3.&. .&.+.%.-.3.1X4X1X,X1X1X6X<X .| z @.7XqX4X<X<XR.<X&X7X7X4XY. .x -.T.wXqX1X0X1X,X,.>.T.>.>.<.&XT.>.,XT.1X,X",
") ! ,X<X9X2.&.%.=.@. .@.-.T.T.R.T.<X<X1X,X .| z &.8XqXR.<X1X1X1X4X4X4X4X2.%.x ,.T.yXaX0X1X<X,X<.T.T.T.T.>.T.T.T.,XT.1X<.",
") ! ,X,X0X3.-.=.-.=.@.&.<.T.&X3.<.R.<X5X<XO.| z =.qXqX&XR.1X1X1X7X5XR.4X3.O.x ,.&XyXyX1X1X,X,X3.#.T.T.T.>.>.>.T.<X,X1XT.",
"| I R.6X6XqXqX1X<.,X,X<X1X6X6X6X6XqX8X6X1X,.] 8 >.wXzXyX<X1X8X6X8X6XrX9X<X| 8 ,.9XgXaX0X6XqXqX0X1X0XyX1XT.3.,X<X,XT.T.T.",
"O.( 1XR.&.%.&.@.@.&.&.&.&.>.,.,.>.<.&.&.&.O.] P ,.3.<.>.,.<.<.<.2.&. . .1.&.W &.3.3.,.>.3.&X,.>.=.>.T.T.&.&.>.=.<.,.<.<.",
"( ! @.) ! L P ~ P I I I I ! I ! ~ ( I I I W ~ L ( I 8 P ! ! ! I ~ P x x ) ) P ] ( P 8 I ( ! P I I I I I I I ! I ( I ( | ",
"P 8 L 7 8 L 8 I P P P P 8 L P L 6 L 8 8 8 6 z 4 8 6 6 L L 8 8 z < 9 x 7 x 8 3 W 8 8 h S I 8 6 I z z z z z P P z z 6 6 z "
};
