/* XPM */
static char *_0_removebg_preview1673794426[] = {
/* columns rows colors chars-per-pixel */
"60 60 227 2 ",
"   c #030305",
".  c #0E080B",
"X  c #180B19",
"o  c #2D1A19",
"O  c #2F2F18",
"+  c #111622",
"@  c #231124",
"#  c #371A25",
"$  c #341B37",
"%  c #3B1E3E",
"&  c #2D2229",
"*  c #32282C",
"=  c #31352E",
"-  c #352B32",
";  c #382E35",
":  c #382E38",
">  c #393235",
",  c #3C333A",
"<  c #471704",
"1  c #592807",
"2  c #6F371A",
"3  c #503529",
"4  c #40353C",
"5  c #41383D",
"6  c #56502E",
"7  c #312D47",
"8  c #333468",
"9  c #532D4F",
"0  c #403540",
"q  c #443B42",
"w  c #493D47",
"e  c #65374B",
"r  c #354358",
"t  c #3B5073",
"y  c #4A4146",
"u  c #4C434A",
"i  c #51474F",
"p  c #53494F",
"a  c #554B53",
"s  c #584E56",
"d  c #5A4F58",
"f  c #5B5356",
"g  c #5E545A",
"h  c #6C4B4D",
"j  c #6A5356",
"k  c #60565D",
"l  c #62595E",
"z  c #7A6456",
"x  c #4E516D",
"c  c #485879",
"v  c #6E4B6E",
"b  c #645B61",
"n  c #685F64",
"m  c #615A6B",
"M  c #695F68",
"N  c #6A6065",
"B  c #6C626A",
"V  c #70666C",
"C  c #72696D",
"Z  c #756B72",
"A  c #786E76",
"S  c #786678",
"D  c #6F7173",
"F  c #7A7175",
"G  c #787F74",
"H  c #7D747A",
"J  c #98370B",
"K  c #A13B01",
"L  c #92480B",
"P  c #A84405",
"I  c #B24C01",
"U  c #BA5400",
"Y  c #AF5516",
"T  c #B97117",
"R  c #964D2E",
"E  c #8B613C",
"W  c #B66935",
"Q  c #C45D00",
"!  c #C66304",
"~  c #CB6400",
"^  c #D16B01",
"/  c #DA7605",
"(  c #C77716",
")  c #CC762E",
"_  c #805850",
"`  c #8F6C55",
"'  c #AD775C",
"]  c #84656A",
"[  c #887775",
"{  c #80777D",
"}  c #82797D",
"|  c #B77D6C",
" . c #CF7A4E",
".. c #E27E4A",
"X. c #F49003",
"o. c #EA8F11",
"O. c #EB961C",
"+. c #C78A2F",
"@. c #D88B26",
"#. c #CD9A33",
"$. c #CD9937",
"%. c #D59C37",
"&. c #E79A24",
"*. c #E39D35",
"=. c #D7A43D",
"-. c #ECA427",
";. c #EDB336",
":. c #E8B63D",
">. c #FAC53C",
",. c #B88654",
"<. c #AA9054",
"1. c #968D71",
"2. c #A68A79",
"3. c #B2947B",
"4. c #AFA47A",
"5. c #D98757",
"6. c #E58F51",
"7. c #CBA747",
"8. c #D9A745",
"9. c #D7AA55",
"0. c #E2A64A",
"q. c #E2AE49",
"w. c #E5B24B",
"e. c #E6BA48",
"r. c #EDAC56",
"t. c #E7B756",
"y. c #D9956F",
"u. c #ED966C",
"i. c #CFA664",
"p. c #D3B177",
"a. c #E8BA66",
"s. c #F0B472",
"d. c #F4C542",
"f. c #FCDA4D",
"g. c #F4D059",
"h. c #FAE958",
"j. c #FFF55E",
"k. c #EBC76C",
"l. c #F9C968",
"z. c #EBC274",
"x. c #F6CB77",
"c. c #FCF864",
"v. c #314C81",
"b. c #37578B",
"n. c #3B6396",
"m. c #485687",
"M. c #5B5E83",
"N. c #4F6797",
"B. c #6A6A8A",
"V. c #66718C",
"C. c #7B7A8D",
"Z. c #76769A",
"A. c #4F72A5",
"S. c #6A71A5",
"D. c #6879A9",
"F. c #627EB3",
"G. c #846F8B",
"H. c #837782",
"J. c #857C82",
"K. c #887F84",
"L. c #5E8192",
"P. c #7E999B",
"I. c #7C88A5",
"U. c #6C82B5",
"Y. c #7C93B7",
"T. c #7D97C2",
"R. c #8A8185",
"E. c #8D848A",
"W. c #908282",
"Q. c #90878D",
"!. c #938A8E",
"~. c #958C92",
"^. c #988F95",
"/. c #978998",
"(. c #9A9195",
"). c #9D939A",
"_. c #A7988B",
"`. c #B09189",
"'. c #A49795",
"]. c #A0979F",
"[. c #A1999E",
"{. c #B8A893",
"}. c #8E97A4",
"|. c #A59CA1",
" X c #A89FA5",
".X c #A19EA9",
"XX c #B09CAC",
"oX c #9AA4A8",
"OX c #ABA1A6",
"+X c #ADA4AA",
"@X c #A9A8AC",
"#X c #B7ABA5",
"$X c #B1A7AD",
"%X c #B2A9AE",
"&X c #AAA8B6",
"*X c #B4ACB2",
"=X c #B7AFB9",
"-X c #AEB3B3",
";X c #BBB5B8",
":X c #C2968A",
">X c #CFB393",
",X c #F0B588",
"<X c #EDBA91",
"1X c #CBBAB0",
"2X c #BBC58D",
"3X c #D4C894",
"4X c #E7C689",
"5X c #EECB8B",
"6X c #FAD388",
"7X c #F7C897",
"8X c #F9D898",
"9X c #D0C6BA",
"0X c #F0D5AB",
"qX c #F7D7B9",
"wX c #FEE2AA",
"eX c #FDE6B9",
"rX c #8C92C6",
"tX c #ACB5CE",
"yX c #C3BFC4",
"uX c #B8C7D8",
"iX c #C7C4C3",
"pX c #D1CCCD",
"aX c #D9D6DB",
"sX c #E5DDD7",
"dX c #FEEBC7",
"fX c #FCF3D5",
"gX c #F3ECE3",
/* pixels */
"Z F 1.R.Q.!.!.!.).'.[.OX#X@X@X#X@X@XOXOX[.).^.).F 5 N (.(.!.).!.).).|.|.|.)./.).).)./.(.b B E.~.J.K.R.E.1.H.H F C y z 1.",
"(.'.[.[.oX[.[.[.[.).[.|.|.).[.|.[.OX[.[.OX[.).OXH y V (.[.(.%X[.|.].|.+X+X X|.|.]. X[.C.w n |.|.|. X#XOX.X).[.(.F p C !.",
"~.(.(.^.'.(.(.(.(.!.(.(.(.(.(.).^.(.!.!.^.!.(.).D > l Q.(.(.|.[.).).(.).].]./.~.).].(.V 0 a ].+X~.(.(.(.(.!.!.(.C 5 N R.",
"W.W.1.R.W.Q.Q.W.R.R.!.(.).).[.).(.).(.(.(.!.!.(.V 5 N !.[.(.[.!./.!.Q.~./.E.Q.~.!.E.).A u 0 E.|.~.!.!.~.(.(.(.[.C y B R.",
"!.R.R.[ 1.C.F F H H R.!.~.E.R.K.E.Q.Q.!.).(.(.).C q N !.[.(.).!.H H H.H { H H.E.Q.J.).H d w Q.).E.[ F R.Q.~.~.(.V 5 V !.",
"1.} [ G H F Z B C C C H H.H Z Z A F H R.!.^.!.(.N 5 b J.[.(.~.E.B B Z Z Z A H.E.K.K.).V p p ).].!.} F W.(.(.(.'.N 5 N W.",
"H F C Z F } } G Z C F J.J.H A F H { { R.^.~.!.(.N q N R.[.(.!.R.Z Z H H.J.K.Q.).K.K.~.B w p ).).E.F Z R.(.~.Q.(.Z y V E.",
"F C N V F } H [ F F Z H H F Z Z F F F { R.R._.'.l 5 n R.|.^.R.F A S H K.E.E.E.~.Q.H.!.H.d i K.].!.H G E.(.~.Q.(.C y B E.",
"H F F F F F F F H } F F F Z B V C F F H H.E.4.z.eXfXp._.!.).R.R.(.[ { K.K.K.E./.!.E.Q.M s a H ^.!.C.A R.(.~.Q.!.Z y A !.",
"R.} } F [ G F Z } J.H F S V B Z A C F H { 1.8.l.x.l.8.=.t.0X9X'.>XpX{  XK.J.K.K.K.Q.).B q i ~.).!.1.F R.!.Q.Q.Q.V 5 n Q.",
"^.(.(.(.(.~.Q.E.{ C.R.Q./.K.J.J.1.H.R.E.Q.2.#.w.6X8Xt.w.q.w.k.k.3XsXsXdXsX).).)././.).Z 4 w ~.K./.E.R.E.!.~.).(.{ u n E.",
"N N N N N b g g l a u i i a a w u u u u u <.#.#.t.8XwXl.%.0.k.=.3X0Xs.dXgXM d p p i k M u : b w s d s a d l M B S u k C ",
"y y u y y 5 5 , 5 , q w 0 w w , 7 , , , z =.w.#.=.r.eXdXt.9.eXz.t.eXp.8XdXq q 0 q 4 q u u , w , 7 y q , 4 q 5 q u , q u ",
"q q q y y y y p 5 u k a , q d s g g g g 1.=.l.t.w.g.6XdXx.=.5X5Xe.x.8.k.fXq w q q , 4 : 7 - 4 5 5 5 w w q 4 7 , , , 0 , ",
"E.!.(.(.).[.OX+X*X+X).B w m ~.].|.|.|.|.1X9.9.eXa.t.l.l.t.q.t.9.=.=.%.l.dX|.~.E.g u J.).|.|.(.(.(.~.(.).(.~./.~.E.E.E.K.",
"(.(.).[.|.|.|.|.|.|.!.m q B /.~.(.~.!.(.9Xi.=.a.z.w.g.l.8.x.eX8X9.8.a.a.gX*X~.J.n & V ].+X+XOX%X%X$X+X$X+X|.(.).).).^.).",
"~.~.).).).).).~.~.|.H.s q V E.~.'.(.'.OX{.4X7.#.=.=.t.eX9.r.a.8XwXt.>X4X4XgX].C.g 4 k (.OX).[.(.!.^.].].).).)./.~.).).~.",
").).)./.~./.).|.).|.J.k w V E.~.!.(.~._.#X7.#.+.q.w.t.8Xa.s.s.r.5Xz.t.>X9X.X].1.g , l (.|.).[.!.H.K.Q.!.~.!.Q.E./.)./.~.",
"Q.!.!.K.K.E.~.|.).|.K.g q B E.!.(.'.(.(.9Xp.#.#.w.w.=.=.r.,XdX5X0.a.i.i.#XE.(.{ l > g (.OX).(.J.S F C.} K.H.H.H K.~.~.!.",
"/.E.E.K.H.J.Q././.).K.k 4 M E.~.!.!.!.!.&X>X$.6.6.=.8.y.6.r.wX7X) 2.R.K.{.W.!.C l , f (.OX).~.} A F H.J.H.H H A H.!.~.Q.",
"/.R.H.H A H J.Q.).).K.m 4 M !./.1.P.E.~.[.1X9.9.y.) 6.,XdXqX7X<Xy.R.E.K.R.J.Q.B n > f ).OX(.Q.H { J.E.Q.K.H A { H.Q.~.E.",
"R.H B n b M Z H.!.~.K.b : M Q.!.C F J.R.!.).9XpX1Xu.u.u.dXqX,X,X3.C.} } R.R.~.Z l 4 g ).|.!.R.H } K.Q.!.K.F A H H.!.~.R.",
"{ Z B M b b B A K.E.K.M 4 b K.{ l M C A F F F ;X1XaXu...,X7X,X`.!.R.1.C.R.J.~.F l > k '.|.!.E.R.K.K.Q.~.!.J.{ C.R.~.Q.R.",
"} C.H.H.H Z A H.J.E.E.S 5 b J.C.N Z A A B C 9X . . .' ....5.5.~./.E.E.R.Q.R.~.A g > l [.[.~.~.(./.Q.!.].].!.E.R.~.)././.",
"V V V M k s s d b k V M u u b k s k w w q aX` W Q ! z ]  .5.6.y.N b b B D B n f N 5 V F k l l l M M n k s s u u d a b n ",
"4 q w w w w u u q 4 u a q q w q 4 q 7 w w aXb.N.,.X.9.D Z.&X.XT.4.-.> > , , > > y & u u > 5 5 y q 4 5 u q 5 q p w q q q ",
"q w q q 4 , , , y , 7 q , , q , , q w w aXV.N.F.'.) o.e.D N.F.T.3X-.E y y 7 u y u 4 i y 5 y 5 y 4 , , 7 q , , 0 0 q 0 , ",
"H { J.H.J.} H.H.E.H.[ H.F H.K.H H.{ H.M &Xm.A.rXD.h / X.:.1.m.S.2Xf.1.R.H 1.R.R.1.} Q.} K.Q.H { A F Z n V B k : b Z A A ",
"Q./.).|. X X X+X|.|.|. XOX@XOX[.~.E.E.iXM.n.F.U.G.J Q / ~ *.<.1.>.d.P.).[.|.|.OX.X+X+X X@X%X[.[.).].~.E.).H.B : H (.|.).",
"R.E.Q./.^.).~.~.~.(.).)./.~.~.~.~.!.E.pXm.n.F.A.C.W J 2 R R ,.,.W R P.[.OXOX[.[.|.|.|.).[.|.[.[.).).(.(.).B g , Z ).|.).",
"R.E./.(.).].).).(.[.).^./.~.~.).!.!.E.Z.v.b.b.Y.}.3 # $ @ # # # o o t OX).(.~.~.(.(.(.).).).).).).~.~.).|.B b 0 Z ).|.~.",
"K.E.E.!./.!.K.K.C.E.Q.~.).(.~.).^.).Q.Z.v.n.N.I._.  @ X o L T T +.7.oX[.!.R.} J.R.R.E.).~.E.~.E.E.E.H.H.^.B B , V ).|.~.",
"J.E.Q.E.E.E.H N B C F H R.!.(.(.(.(.!.Z.8 m.rXtX:X< % @ e *.d.;.:.f.%X~.H G J.{ R.R.Q.^.).!.} H R.R.} } !.Z l q N !.(.[.",
"E.E.R.R.R.} } } C C F H R.!.(.(.^.^.Q.Z.8 S.F.tX>X< % @ h g.:.+.c.c.P.E.R.H R.Q.!.!.Q.K.J.} F F { [ H H !.C f 5 C _.(.).",
"!.C.H R.J.} H.R.} F F H 1.Q.E.Q.!.(.E.&Xc S.rXT.K.< % @ v g./ +.c.c.1.R.H H 1.~.(.(.(.1.C.1.1.A Z F H { !.C k 5 Z (.Q.(.",
"E.1.R.R.E.R.K.1.1.J.H } C.R.Q.W.E.(.R.@X`.| :XD._ < % @ e *.K ( f.c.'.R.R.F F Q.W.(.(.E.J.} C.H G } } } !.F j , F !.C.1.",
"R.E.R.R.Q.Q.} F } } } } 1.J.R.Q.R.(.R.g '._ ,X>XY 1 4 @ e Y J K >.d.[.R.!.1.} R.!.E.~.(.!.K.{ { 1.K.K.R.W.C f 5 F (.R.R.",
"R.E.R.{ C.1.{ C F F } { A C.} } R.^.R.l u h `.| I 1 2 o 9 J K I @.&.'.Q.E.C.} F E.1.R.!.E.} C.1.C.1.C.J.Q.V k 5 F ~.} R.",
"R.R.R.} F H F F G { { { } } R.} Q.(.^.B y , '.P ! Y ) 6 _ ! K ^ o.&.>X(.!.Q.E.R.K.H.{ K.K.K.} K.R.Q.W.R.~.C g y F Q.} } ",
"E.E.!.!.R.H { R.} } J.R.Q.(.(.(.~.(.).F y , [ P Q d.c.h.w.^ K Q &.h.k.).).OX@XOX X X[.[.[.[.].(.(.).(.~.~.C f , F (.1.C.",
"F } C N B B n N l l N V C F F C C Z } C u 5 F U U O.h.>.U K U / ( &.@.1.C V C F Z Z H H F H { F H } R.R.} } N > } !.J.~.",
"u p i u u q 5 5 w 5 5 y y u 5 5 y 5 y u p p R ~ @.@.>.O.^ P ~ -.h.j.d.h 4 5 4 y 5 5 q q q y u 5 5 4 y y u f s , k M a f ",
"5 ; , 4 > > w w 5 q 5 7 5 5 5 > ; 5 q * = * K Q O.f.f.#., 3 ~ ^ @.;.>.` 5 5 ; 5 , > : > > ; > - , : - - - , , - > , & - ",
"y , B E.E.J.K.H [ H F H H H H F H H.H F J.C j ~ / / -.N C C R ) Q T ` n C f 7 d V B B B B B N V S V V V Z Z A Z A A B n ",
"g w K.+X=X$X*XXX$X$X+X$X$X$X$X$X+X+X|.OX;X!.N h ' | +X XOXOXB.N ' /.&X|.(.Z i Z ~.(./.(.|.[.).OX].].].|. X|.|. X(.~.).!.",
"B y H ~.|.|.$X$X).).).^.~.~.~./.(.(.(.!.J.f a t N.Y.).Q.!.).B.t m.S.).K.H.a , B E.].].).|.|.). X|.|.].).]./.Q.).|.).).K.",
"B y J./.$X X|.).|.|.|.].].).).).(.~.(.Q.H l x c L.I.=X!.).(.oXx V.M.G.G.F s w C C.).]./.(./.E.~./.)./.!.).!.!.^.H.C.!.A ",
"B u H.E. X|.)./.Q.!.~.~.~.~.~.~.~.(.|.~.F K.w O y I.yX^.(.R.@X= O   9 ).E.n u B A (.|.~.).).).].~.).~.!./.Q.H.K.J.K.).K.",
"f u J.E.+X(.E.H E.E.!.Q.E.Q.~.~.~.).(.!.E.v X   7 uX^.!.Q.G -XI.r + 7 9 G.+X, C F (.(.(.(.(.].).).!.E.E.!.Q.K.K.E.K.!.H.",
"g u H E.OX^.E.H R.R.R.R.J.R.R.E.!.).(.!.E.m . t uXQ.^.!.Q.R.H R.+X}.=     f 4 A S !.(.^.(.(.).~.Q.K.K.R.K.K.K.K.K.H.!.H.",
"g u } E.OX^.R.H H J.J.H H R.H R.E.(.(.^.K.C.V.oXn J.~.E.R.J.H R.E.!.;X@X@X9X4 Z { ~.^.^.).(./.K.C.{ { J.J.H.G.E.K.K.!.H.",
"f y } R.).!.H F F F H R.E.E.R.H R.^.(.(.K.Q.R., l R.~.R.R.H F H R.!.!.R.G j 5 Z } ).^.~.(./.E.H S F H H H H H.K.Q.K.~.H.",
"a y H R.).K.Z B B B Z H R.E.R.K.K.!.~.~.K.n k 4 n R.~.R.J.} F F R.Q.E.R.F l 5 C { !.!.Q.~.!.R.Z A A F F F C.{ { K.J.!.{ ",
"p u H R.^.G N n N n N C F J.R.R.H.R.R.E.K.m k 4 M E.~.R.K.J.{ } C.R.E.R.F b 5 C { ~.~.E.E.K.J.Z A A H A F H H A { { Q.H ",
"s u H J.~.F B n B N b B A H J.H.H J.J.K.H.k k 4 B ~.~.J.J.K.J.E.1.K.K.R.H l 5 F } ].).Q.K.H.{ S A H { F S A H F C.F K.H ",
"s u H.H.~.H Z B Z B B B A H H F H H J.K.H.b k 4 V ~.~.H.{ J.J.E.Q.R.1.R.H N , Z C.)./.E.K.H.{ C.C C.H.H Z Z F H H.H.E.F ",
"g y H E.R.~.~.K.A H.H.} K.K.Q.Q.E.~.E.E.K.Z g , Z ).$X).K.K.Q.E.E.E.(.E.} k , Z !.|.].~.E.~.!.Q.K.Q.^.Q.H H H.K.H.H H H ",
"N a R.H B M B M M B B B V C S Z Z A B B B b g q Z A A V C A A S C.N l l F B y B H H Z V C.H S V B S F S M B Z B A Z A H ",
"s u B s u q 5 p w w y w y u u y u a w w w y u 0 s w 7 q u u u w i y 5 5 s s 5 k a q , w a i q w w q y y w y u w a a a g ",
"5 5 7 > , 5 4 y , q q q 5 5 7 q , q , , , : 4 ; 4 ; ; 5 q : , 4 * > 5 > 5 , ; y , , , 7 q , : w q , q q , q w , : : : , "
};
