/* XPM */
static char *__removebg_preview1673794423[] = {
/* columns rows colors chars-per-pixel */
"60 60 236 2 ",
"   c #010101",
".  c #0C0905",
"X  c #0C0C0B",
"o  c #140E0D",
"O  c #15120D",
"+  c #161512",
"@  c #1A1817",
"#  c #1E1E1A",
"$  c #240C09",
"%  c #2D160A",
"&  c #221C1A",
"*  c #341817",
"=  c #28241B",
"-  c #3E2918",
";  c #101332",
":  c #2A152C",
">  c #1F3C33",
",  c #2B2A25",
"<  c #2A2528",
"1  c #33292C",
"2  c #32332B",
"3  c #352B32",
"4  c #382E35",
"5  c #382E38",
"6  c #3A3335",
"7  c #383536",
"8  c #3C333A",
"9  c #440907",
"0  c #4A150A",
"q  c #551908",
"w  c #760B06",
"e  c #64190A",
"r  c #691814",
"t  c #422818",
"y  c #552B12",
"u  c #6B2213",
"i  c #782716",
"p  c #693315",
"a  c #4E1D2A",
"s  c #482824",
"d  c #44302C",
"f  c #59382A",
"g  c #40353C",
"h  c #41383D",
"j  c #5D3D32",
"k  c #6C2F2C",
"l  c #69352C",
"z  c #7A3A29",
"x  c #3A4B3C",
"c  c #764417",
"v  c #454037",
"b  c #6A4326",
"n  c #774B24",
"m  c #6F4D3A",
"M  c #774837",
"N  c #0B124F",
"B  c #2A185C",
"V  c #1D2355",
"C  c #38364C",
"Z  c #0C1179",
"A  c #331674",
"S  c #10247F",
"D  c #293573",
"F  c #5A1A58",
"G  c #621B44",
"H  c #403540",
"J  c #443B42",
"K  c #493D47",
"L  c #4C2757",
"P  c #68235D",
"I  c #652967",
"U  c #324A63",
"Y  c #396A7F",
"T  c #454447",
"R  c #4A4146",
"E  c #4C434A",
"W  c #51474F",
"Q  c #53494F",
"!  c #494B54",
"~  c #554B53",
"^  c #584E56",
"/  c #5A4F58",
"(  c #5B5356",
")  c #58565A",
"_  c #5E545A",
"`  c #694D45",
"'  c #794847",
"]  c #6A5047",
"[  c #615151",
"{  c #60565D",
"}  c #62595E",
"|  c #775652",
" . c #645B61",
".. c #685F64",
"X. c #695F68",
"o. c #566369",
"O. c #6A6065",
"+. c #6C636A",
"@. c #726863",
"#. c #70666C",
"$. c #72696D",
"%. c #706670",
"&. c #756B72",
"*. c #786E76",
"=. c #6C7272",
"-. c #777776",
";. c #7A7175",
":. c #7D747A",
">. c #9F0708",
",. c #891C05",
"<. c #961803",
"1. c #891E17",
"2. c #A41900",
"3. c #AC1D00",
"4. c #8C280D",
"5. c #AC2701",
"6. c #B72200",
"7. c #BC2601",
"8. c #BB2902",
"9. c #A72C1E",
"0. c #A93211",
"q. c #8D2E2F",
"w. c #AE382F",
"e. c #D61314",
"r. c #C32901",
"t. c #CC2D00",
"y. c #D12F00",
"u. c #CF3504",
"i. c #D13200",
"p. c #D23C08",
"a. c #CE3637",
"s. c #8F4E17",
"d. c #B64C12",
"f. c #B46314",
"g. c #8A4E27",
"h. c #875526",
"j. c #8F4638",
"k. c #875635",
"l. c #AF5A2E",
"z. c #946332",
"x. c #AB6B30",
"c. c #A5673B",
"v. c #CE4E0E",
"b. c #D6690F",
"n. c #E1660D",
"m. c #E57816",
"M. c #CE6025",
"N. c #803669",
"B. c #884A48",
"V. c #845B54",
"C. c #A95A54",
"Z. c #87644E",
"A. c #8E685D",
"S. c #AA6A44",
"D. c #B3734E",
"F. c #955669",
"G. c #946D68",
"H. c #887875",
"J. c #80777D",
"K. c #81797D",
"L. c #A3766F",
"P. c #C15556",
"I. c #C37B4B",
"U. c #CD7E51",
"Y. c #DB8313",
"T. c #EB8714",
"R. c #F7A808",
"E. c #FFB100",
"W. c #FAAB16",
"Q. c #90877B",
"!. c #BB8461",
"~. c #A58475",
"^. c #BD8179",
"/. c #CB824F",
"(. c #C9845A",
"). c #DD935E",
"_. c #E38D56",
"`. c #D48D65",
"'. c #D0916D",
"]. c #E29960",
"[. c #EDA26A",
"{. c #EFA874",
"}. c #030888",
"|. c #0F188F",
" X c #261D81",
".X c #102A8E",
"XX c #2C2684",
"oX c #0116B1",
"OX c #1724AD",
"+X c #2E31B0",
"@X c #482E8F",
"#X c #275C97",
"$X c #676F88",
"%X c #797F84",
"&X c #5A58AC",
"*X c #5171B9",
"=X c #0626C8",
"-X c #0031E5",
";X c #003CFB",
":X c #0042FF",
">X c #345AEF",
",X c #807780",
"<X c #857C82",
"1X c #887F84",
"2X c #7B8186",
"3X c #739188",
"4X c #7499B2",
"5X c #7298C2",
"6X c #8A8186",
"7X c #8D848A",
"8X c #858889",
"9X c #998683",
"0X c #90878D",
"qX c #93898E",
"wX c #898D96",
"eX c #918790",
"rX c #958C92",
"tX c #988F95",
"yX c #9A9295",
"uX c #9D949A",
"iX c #99959C",
"pX c #A48D8B",
"aX c #A0979F",
"sX c #A1999E",
"dX c #A59BA1",
"fX c #A89FA5",
"gX c #AAA1A6",
"hX c #ADA4AA",
"jX c #ABA8A9",
"kX c #B0A7AD",
"lX c #B2A8AF",
"zX c #B5ABB2",
"xX c #BCB3B8",
"cX c #CD9B92",
"vX c #FFBB82",
"bX c #C3A3A3",
/* pixels */
"&.-.Q.6XqX9XqXqXsXsXsXgXjXjXjXlXjXkXgXgXgXyXrXuX;.8 O.yXyXqXuXqXuXaXaXdXaXaXuXuXuXuXtXtX .+.1XrX<X1X7X7XQ.K.:.;.&.R O.Q.",
"pXsXsXsXdXdXsXsXsXsXsXsXsXsXsXsXsXfXsXsXgXuXuXjXK.T $.yXuXuXgXgXdXaXfXhXhXfXdXdXaXfXaX,XK ..dXfXdXgXhXhXdXsXsXyX;.Q @.qX",
"qXrXyXyXyXyXyXyXqXqXrXyXpXyXyXuXyXyXqXqXyXrXrXuX$.8 } 7XyXyXgXyXaXtXuXdXaXaXuXaXaXfXuX%.H ~ aXhXtXtXyXpXrXqXqXyX$.h O.7X",
"0XQ.6X6XQ.qXqXQ.7X7XqXyXsXsXuXsXyXuXyXyXyXrXqXyX$.h O.0XuXyXsXrXtXrX1X1X1XtX1X1X1X1X1XJ.K K 1XdXrXqXqXrXyXyXyXsX$.v O.7X",
"qX7XQ.6XQ.Q.:.&.J.H.<X0XqX0X1X1X7X7X0XrXuXyXyXuX#.J O.qXgXiXyXqXJ.J.J.J.J.:.1X7X1X1XaX$X[ K 1XdX7XK.;.Q.qXqXrXyX@.h #.9X",
"Q.K.;.-.-.-.&.+.$.@.&.:.J.J.*.%.&.:.:.6XrXrXrXyXO.h } <XuXyXrX7XX.%.%.*.&.*.,X0X1X1XuXF.K ~ uXuXqX:.;.6XsXyXpXsXO.g O.7X",
":.;.$.&.H.K.:.-.$.&.*.J.<XJ.:.*.:.K.:.6XrXrXqXrXO.R O.6XdXyXrX6X%.&.%X<X1X1XeXtX1X1XaX$XK ~ uXdX7X;.;.6XyXrXqXrX&.E #.0X",
"-.$.O.@.&.K.K.K.;.*.*.*.J.:.&.%.;.;.;.K.6X7X6X0X_ h O.6XdXrX6X;.&.&.J.1X1X1XeXeX1X1X1X1X{ K 1XdXqX:.-.0XyXqXqXyX$.K O.0X",
"H.:.;.;.;.;.;.;.:.:.:.;.*.*.+.%.;.;.;.:.:.6XqXrXO.7 $.qXrXuX7X:.-.:.<X7X1X1X7XrXeX0X0XX.^ ~ :.tXqX:.*.0XtXtX0XqX&.E *.qX",
"K.K.:.H.H.J.;.&.K.<X:.:.*.%.X.&.$.$.;.:.:.6X7XrX+.h $.yXrXqX<X-.x :.%X&.<X1X<X7X1X0XtX#.J Q eXsXqXQ.:.6XqXqX6X0X$.h } 0X",
"rXyXyXyXyXqX0X6XJ.%X6X7XrX1X<X1X<X6X6X8XqXrXyXuX} 8 O.rXrXrXqX-., ~ 7XQ +.yXiXyXtXrXuX&.g K rX1XrX7X6X7XqXrXtXaXJ.E O.0X",
"O.O.O.O.O.} { {  .~ E W W ~ ~ K E E Q T E Q Q Q O.E O.K.-.2 v _ , , Q T E  .^ ~ W W } X.E 5 } J ^ ^ ^ ~ / } ..X.&.E [ &.",
"T T E R h J h g g 8 J K J K K 5 8 8 8 8 8 8 8 8 J 3 v R 3 # + # # X , 6 h h J H J g J E E 5 K g C J H 8 g H g h E 8 J K ",
"h J J R R E E E H E { ~ C H / ^ ( ( ( } _ _  ._ ( ( ( C & O ,   . + , 2 6 g K K H g H 5 8 3 C h h J K K H J C 8 C 8 g g ",
"qXqXtXyXsXsXgXgXzXhXdXX.J  .rXaXdXdXdXdXfXgXjX_ v 7 1 # O . X     +   X = ) qX1X{ K <XuXdXdXuXyXyXtXyXuXuXrXrXrX1X6X1X1X",
"yXyXsXsXsXsXfXfXfXaXeX .K X.tXrXyXrXrXrXrXyXyXrX# , , # .             . , v <X1X..< #.aXhXhXgXlXlXhXhXkXhXdXuXuXaXaXtXaX",
"1XtXaXdXuXuXuXuXtXdXJ.^ K #.1XrXyXyXsXyXyXyXyXyX] O X .                 # , 6X:._ h  .iXgXsXsXyX1XuXaXfXaXuXuXtXrXuXtXrX",
"aXtXuXaX1XtXuXdXuXdX,X{ K %.0XtXyXqXyXpXyXyXyXyXZ.O X                 X . 6 uX6X_ 8 } yXsXsXuX0X1X1X1X1X1XtX1X1XrXuXtXrX",
"1XuX1X1X1X1XuXaXuXdX1X{ h +.1XrXyXyXyXyXuXuXuXC.9 # X                 + O ~ yX:.} 8 ) yXdXuXqX6X,X,X,X<X1X1X,X,X1XrXrXrX",
"1X1X1X1X1X1X1XuXtXuX1X{ g X.0XeXqXyXQ.yXyXyXP.!.z s @       % o           6 6X$.} 8 ( yXgXsXrXK.%.*.,X1X,X,X*.*.<XeXrXqX",
"aX1X1X,X:.J.,X1XtXuX1X .g X.eXtXQ.8X7XqXyXyXa.v.d.,.-     . f p o % . . # & -.#. .h ( yXgXyX0X:.,X<X1X1X1XJ.*.J.<XeXrX1X",
"1X1X%.X. .X.&.,XeXtX1XX.5 X.0XqX-.-.<X7X0Xa.w.m.Y.q $ - - t 2 s.t b % $ X O H.$. .8 { sXsXqX6X:.,X1X1XtX1XJ.*.J.,XeXrX1X",
",X$XX.X. .{ +.*.1XeX1XX.g  .1X,X} O.$.*.*.e.t.w.S.0.q h.n A.^.j.g.k.% a | * Q.*.} 6 } yXsX0X0X6X1X1X1XaXeX,X,X,X1XeXeX1X",
"<X,X,X,XJ.&.*.,X<XeX1X%.H  .1XJ.O.$.;.*.w.6.t.I OXI s n h.!.cXZ.S.g.$ H.eX' Q.*.( 6 } sXdXtXrXyXtXtX1XdXdXtX1X1XtXuXuXtX",
"#.%.#.X.{ / ^ /  . .#.+.K W  . ./ _ J K >.t.q.OX;X=X|.V c x.`.).{.z.% ' %.| @._ ..g @.;.} } } ..%.X..._ ~ / K K / / } ..",
"8 G K K K K E E H H K ~ J H K H C J 8 K q.8.A oX:X-X+X@XS.I.D.{.`.h.w r 5 C 6 4 E < E Q 6 h h J K H H K K H J ~ K J J J ",
"J K K J g 8 8 8 K g H J 5 g J 5 8 g K E q.w A oX;X>XC.s.x.{./.c.Z.b >.r K J K E E 8 E R h E h R H 5 g H J g g H H H g C ",
":.:.,X,X<X,X<X,X1X,X%X,XJ.,X1XJ.,XK.<X$.M y G }.&XbX_.s.].vX].' k.f r B.,X<X1X6X1XK.7X1X1X6X:.J.*.J.%. .%.X.{ 5  .#.*.*.",
"eXtXuXdXdXfXhXhXaXaXfXhXhXfXfXdXrX7X7XO.Z.* 1.L C.[.{.x.(./.G.XX'.z.* pXsXdXsXgXfXgXkXgXkXkXsXsXtXuXtX1XtX,X#.5 :.tXfXaX",
"1X1XeXtXtXtXtXrXtXtXtXuXtXrXeXeXyX0XQ.L.~.N B f b `.{.D.s.s.L  X`.[.1.B.gXgXsXsXsXfXsXsXsXsXsXsXuXuXuXuXdXX.{ 5 &.uXdXtX",
"1XeXeXuXuXdXaXuXaXdXuXtXtXtXtXaX~.~.6X'.pXN |..X; m (.U.x.z.m b c.].).k sXyXrXtXyXyXyXuXaXtXaXuXuXtXtXtXdXX. .H &.uXfXrX",
"1X1X0XeXeXeX1X<X,X1XeXtXtXtXtXiX(.C.'.l.m d * Z .X2 k.)./.C.b % y c.I.l tXK.K.K.6X6X0XyXrX0XqX0XeX1X<XK.tX#.#.5 #.tXfXrX",
"1X7X0X6X7X6X-.+.+.$.;.K.6X0XrXrX(.d.M.T.R.R.b.h.f 0 t n n y w 8.4.e n s J.:.J.H.6X6XqXyXyX0X6X;.6X6XK.:.qX&.} v O.qXyXsX",
"0X7X6X1X6X<XK.K.$.$.;.-.6XqXyXyXD.Y.R.R.E.E.T.m.b.8.4.0 0 <.t.8.t.7.q * H.K.1X0XqXqXqX6XQ.:.-.&.K.H.:.H.qX$.[ h $.yXyXsX",
"qXK.K.1XQ.:.6X7XK.;.;.:.Q.0XqX9Xq.m.T.n.R.E.T.n.8.2.<.5.6.r.y.2.v.m.m.k k :.H.rXyXsXrX6X:.<XK.K.&.-.:.K.qX&.} h ;.yX0XrX",
"9X1X6X6X7X6XK.<X6XQ.:.:.<X6X7XD.4.p.v.i.n.b.f.c u e 0 q r i 7.2.v.m.W.9.B.J.K.qX0XqXrX9X6XQ.K.:.-.K.K.<XqX&.( h ;.qX<XQ.",
"7X7X6X6X0X0XQ.&.K.K.K.K.K.6XL.z 2.t.y.,.q 0 m 8XwX2X2X-.=.v q % 7.p.n.1.V.1XK.6XqXqXrXyXqXQ.:.:.6X6X6X<X0X$.( h -.rX6XQ.",
"6X7X6XK.K.Q.:.#.;.-.:.H.:.K.Z.<.r.y.t.5.q -.+.qXyX7X<X6XqX$.> % <.r.y.i 1X1XJ.J.7X6X6X0X0XK.:.6XK.6XQ.,X0X@.{ h -.rXK.1X",
"6X6X6XK.:.-.:.;.-.K.K.K.K.G.j.r.i.i.5.<.G.7 #.0XeX7X<X<XqX$.! q 7.t.>.` pX0X1X1X6XK.Q.<X6X6X6X6XQ.7X0X6X0X$.{ R ;.qXK.1X",
"0X7X0XqX6X:.H.6X6XK.K.7XqX@.0.i.i.i.5.m ! 6 *.qXyX0X7X6XrXY n ,.y.y.4.pXdXdXkXfXgXgXsXuXuXsXuXuXrXsXyXrXrX$.( g H.qX<X1X",
"*.K.&.X.+.+.X.+.} } O.#.&.| b.u.6.7.i jXT 8 ;.0XuXrXyXqX7X] 5.t.7.6.e 9X#.#.#.&.$.$.;.;.;.:.:.&.:.,X1X1XJ.K.X.6 J.rX1XrX",
"Q ~ E E K K g H h h h J ! m d.m.d.<.j.=.~ W } R E Q _ ( ) j 2.t.3.<.M T g h g K h h J R R R T R g g K E E _ ~ 6 { X.~ [ ",
"h 3 5 h d g K K J h h h #XD 4 h.h.u +.1 1 1 J 8 7 h 8 6 #XV : r i l ) 4 h h 3 J 8 7 4 4 6 4 6 3 g 5 3 5 3 8 h 3 6 8 : 3 ",
"J g #.1X0X,X1X$XK.J.:.$Xo.+XL N ; -.wX*.<X$.{ 6 _ +.O.} %XZ oXXXa C X.X.#._ g / $.+.+.+.#.+.O.+.%.%.%.%.#.&.*.*.*.*.%.X.",
"{ K 1XkXxXkXzXfXlXkXkX5X.X@XF Z $XgXdXhXxXqXO.8 :.dXhXgX%X}.=XN.k : 3XdXuX%.W &.eXtXtXtXdXuXuXhXaXaXaXdXdXdXdXfXtXtXtXtX",
"#.K :.0XaXdXkXzXaXuXiX#X.XP A S 4XyXtXeXQ._ ~ T $.yXyX0X1XN oX@X9.1.C %X,X~ g +.eXaXdXuXfXdXiXfXdXfXuXuXuXtXeXuXdXyXaX1X",
"X.K <XtXkXfXaXuXaXaX*XZ A +X=XD wXrXyX0X:. ._ 8 &.rX0XqXiX{ U U ` [ K X.*./ K &.,XuXaXeXtXtX7XrXeXuXeXeXuXtXeXtX<X,XeX:.",
"X.E J.0XhXfXuXtXtX1X&X XD .XD #XyXyXdXrX;._ O.8 { 7XrXyXaX1X1X1X<X*.%X,X%X .K X.&.uXdXrXaXaXrXdXtXuXtXeXuX1X<X1X1X,XuX<X",
"_ E K.7XhXuX6XK.7X7XqX7X0X7XqXrXrXsXyXqXK.} { h } 6XyXrX7XK.*.;.,X&.H.<XK.{ 6 $.J.tXuXuXtXuXaXuXuX1X1X1X1XtX1X1X1X1XtX<X",
"{ E K.6XgXyX6X:.6X6X6X6X6X6X7X8XqXuXuXqX,X{ { 7 _ 6XyXrX7X<X;.%X<XJ.K.H.:._ 6 ;.*.1XrXrXtXuXuXtX1X1X1X1X1X1X1X1X1X1X1X<X",
"{ E K.6XdXrX6X:.K.<X<XK.:.6X:.6X7XyXiXrX6X{ { 4 { 6XrX7X7X6X:.Q.1X6X6X1X-.[ g &.J.tXtXuXuXtXtX1X1X,X,X,X<X,X1X1X1X1XeX,X",
"( R K.6XsXqXK.;.&.;.:.6X7X6X6X:.6XrXyXyX7X..{ 6 { 6XrX6X6X:.;.:.1XqXqX1X-.} h &.,XuXtXuXtXtX1XJ.,X*.J.,X,X,X1X1X1X1XtX<X",
"Q K J.1XuX6X&.#.+.+.&.:.6X7X7X<X<XrXrXrX6X .{ h  .6XtX6X<XJ.;.:.6X7X0X6XH.} h $.J.1XtXtXeXeX1X*.%.J.J.%.,X,X,XJ.1X<XeX,X",
"Q E J.1XrX:.+.} O. .O.#.:.<X6X1X,X6X6X7X<X} { h X.7XtX6X1X1XJ.,XK.6X7X6X:.} h $.,XtX1X1X1X1X<X%.J.%.J.J.*.,XJ.*.,XJ.1X,X",
"^ E J.,XrX;.+.O.+.+. .+.*.:.<X,X:.<X1X<X,X{ _ g #.0XrX<X<X1X<X1X6X6X<X6XH...h &.,XaXuXtX1X1X,X*.%.J.,XJ.%.*.*.*.,XJ.1X*.",
"( E %X,XrX:.$.$.&.+.X.+.*.:.:.:.:.,X<X1X1X .{ g %.rXrX,XJ.<X1X7X7X7XQ.6X:.} h &.%XuXuX1X1X,X<X,X%.J.,X,X%.%.*.,X<X<X1XJ.",
"{ J <X0X7XrXrX1X;.,X,X<X<X7X7X7X6XrX7X7X<X*._ 8 &.uXhXtX<X6X0X7XqX0XyX0X<X_ 8 &.7XdXaXeXeXrXrX1X<X1XaX1XJ.J.J.1X,XJ.J.J.",
" .~ 1X:.+.X.X.X.X.+.+.+.+.$.&.&.&.*.+.+.X. ._ J &.*.:.&.&.*.*.&.-.+. .} ;.+.E +.:.:.%.%.:.%X*.%.+.%.J.J.X.#.#.#.*.&.*.*.",
"^ E X.^ E H h W J R K K K E E E E ~ K K E K E H ^ K 5 J E E E K W v h h ^ ( H _ Q K C K ~ E H K K K L K K K W K W W ~ _ ",
"J 8 g 8 8 g g K H J K H h H H H 5 J 8 8 g 5 g 5 8 5 5 H H 5 8 g 1 6 h 6 h g 3 E 8 8 4 h K 8 5 K g g h h g J g g 5 5 5 g "
};
