/* XPM */
static char *__removebg_preview1673794423[] = {
/* columns rows colors chars-per-pixel */
"60 60 236 2 ",
"   c #020201",
".  c #0A0602",
"X  c #0D0904",
"o  c #0D0C0C",
"O  c #16110A",
"+  c #100E10",
"@  c #141313",
"#  c #1B1919",
"$  c #281609",
"%  c #331507",
"&  c #221C1B",
"*  c #39240F",
"=  c #23231F",
"-  c #1B0C32",
";  c #24142B",
":  c #1F2020",
">  c #2B2627",
",  c #2D2E2E",
"<  c #32272A",
"1  c #352B32",
"2  c #382E35",
"3  c #382E38",
"4  c #393235",
"5  c #3C333A",
"6  c #38353A",
"7  c #49130D",
"8  c #591909",
"9  c #661406",
"0  c #79190A",
"q  c #641F10",
"w  c #48280B",
"e  c #4F2319",
"r  c #4E3317",
"t  c #58341C",
"y  c #68350E",
"u  c #692614",
"i  c #772816",
"p  c #47192B",
"a  c #563727",
"s  c #40353C",
"d  c #4E363A",
"f  c #41383D",
"g  c #693927",
"h  c #773A28",
"j  c #694118",
"k  c #4D423D",
"l  c #6B412B",
"z  c #784828",
"x  c #714738",
"c  c #090C4F",
"v  c #392F4C",
"b  c #393B47",
"n  c #2C2B57",
"m  c #000274",
"M  c #08137A",
"N  c #2A1E79",
"B  c #381771",
"V  c #1D256F",
"C  c #32306C",
"Z  c #2A2C77",
"A  c #401C45",
"S  c #591F49",
"D  c #443B42",
"F  c #453844",
"G  c #493D47",
"H  c #553750",
"J  c #483A6E",
"K  c #7B2F61",
"L  c #344252",
"P  c #3A4867",
"I  c #4A4146",
"U  c #42444C",
"Y  c #4C434A",
"T  c #51474F",
"R  c #53494F",
"E  c #474956",
"W  c #554B53",
"Q  c #584E56",
"!  c #5A4F58",
"~  c #4A545A",
"^  c #5B5356",
"/  c #59565B",
"(  c #5E545A",
")  c #6B5046",
"_  c #785741",
"`  c #73524D",
"'  c #60565D",
"]  c #62595E",
"[  c #63605B",
"{  c #4F507A",
"}  c #645B61",
"|  c #685F64",
" . c #695F68",
".. c #5A6076",
"X. c #6A6165",
"o. c #6A6866",
"O. c #6C626A",
"+. c #7C6967",
"@. c #70666C",
"#. c #72696D",
"$. c #73706F",
"%. c #706670",
"&. c #756B72",
"*. c #786E76",
"=. c #737575",
"-. c #7A7175",
";. c #7D747A",
":. c #881B05",
">. c #9A1A02",
",. c #A61900",
"<. c #B11F00",
"1. c #8B230D",
"2. c #962607",
"3. c #812A18",
"4. c #912F12",
"5. c #AA2803",
"6. c #BC2500",
"7. c #B82802",
"8. c #A93907",
"9. c #BE3C13",
"0. c #963233",
"q. c #AB3D25",
"w. c #C02600",
"e. c #C42A00",
"r. c #CC2D00",
"t. c #D12F00",
"y. c #CE3202",
"u. c #D23100",
"i. c #D23B06",
"p. c #C72F11",
"a. c #8A4F0D",
"s. c #8F4F13",
"d. c #926C1F",
"f. c #86542A",
"g. c #8D512E",
"h. c #995A25",
"j. c #865537",
"k. c #A25430",
"l. c #966630",
"z. c #AA6835",
"x. c #AE6C36",
"c. c #C6410C",
"v. c #D54708",
"b. c #D3540A",
"n. c #CA5B12",
"m. c #D46D19",
"M. c #E87A0E",
"N. c #E67614",
"B. c #C45E23",
"V. c #CE7821",
"C. c #822240",
"Z. c #945353",
"A. c #B25654",
"S. c #87654C",
"D. c #846B58",
"F. c #AC764F",
"G. c #B77646",
"H. c #865862",
"J. c #90746F",
"K. c #897D74",
"L. c #80777D",
"P. c #82797D",
"I. c #A8776E",
"U. c #C57C4A",
"Y. c #CB7953",
"T. c #EE840D",
"R. c #EE950F",
"E. c #F19312",
"W. c #FCAB0A",
"Q. c #FFB100",
"!. c #FFAF10",
"~. c #C9834C",
"^. c #CE8458",
"/. c #D78E59",
"(. c #EA925F",
"). c #DC9466",
"_. c #C18B7D",
"`. c #EDA979",
"'. c #F4AB72",
"]. c #FBB47D",
"[. c #120E8A",
"{. c #030898",
"}. c #0A199A",
"|. c #1B2394",
" X c #302692",
".X c #0617A7",
"XX c #161EAE",
"oX c #0218B8",
"OX c #372FA4",
"+X c #633D8A",
"@X c #4038A5",
"#X c #3A4682",
"$X c #48538B",
"%X c #5A6C88",
"&X c #687482",
"*X c #7E7A85",
"=X c #7867A9",
"-X c #0124CA",
";X c #012EDC",
":X c #1544ED",
">X c #807780",
",X c #857C82",
"<X c #887F84",
"1X c #807FC0",
"2X c #76818D",
"3X c #8A8186",
"4X c #8D848A",
"5X c #898A8F",
"6X c #958282",
"7X c #90878D",
"8X c #938A8E",
"9X c #8E8D91",
"0X c #958C92",
"qX c #948A94",
"wX c #988F95",
"eX c #9A9295",
"rX c #9D939A",
"tX c #9A9798",
"yX c #A1868A",
"uX c #B7908D",
"iX c #A19895",
"pX c #A0979F",
"aX c #A1999E",
"sX c #8D95A7",
"dX c #A59BA1",
"fX c #A89FA5",
"gX c #B19EA1",
"hX c #A7A6A6",
"jX c #AAA2A6",
"kX c #ADA4AA",
"lX c #B0A7AD",
"zX c #B2A8AF",
"xX c #B5ABB2",
"cX c #AFB2B3",
"vX c #B6B5B5",
"bX c #CBC3BB",
/* pixels */
"$.;.3X8X8X8X8X8XiXiXaXjXjXkXkXzXkXlXjXjXfXrXwXtX*.f X.eXeX0XrX7XrXpXdXfXdXrXrXrXpXrXqXrX] @.7X8X,X<X4X3X3X<X;.$.$.I X.<X",
"eXiXiXiXiXhXiXiXaXaXaXjXdXaXaXhXaXdXaXrXdXaXiXjXP.G @.eXtXiXkXdXdXdXdXgXfXfXdXdXpXfXrX>XG | pXfXaXjXkXjXdXiXaXiX$.R #.8X",
"0XeX0XeXiXiXtXtX8X8X0XeXeXeXeXrXwXeXwX8XwX8X0XrX#.5 ] 7XeXwXfXrXrXwXwXpXdXdXwXwXrXpXpX%.v R dXkXwXeXeXeXeX8XeXeXo.d X.3X",
"6X3X3X6X3X8X7X6X4X4X8XeXiXaXrXrXrXtXeXeXrX0X8XeXO.f X.8XpXrXaX0XwXqX<XqXqX<X<XqX<X<XrX&.Y F <XdX0X8X6XeXeXeXeXtX#.I X.4X",
"8X3X<X<XK.,XK.$.L.L.K.4X8X7X<X<X3X4X5X8XiXrXwXtXO.D  .8XdXiXrX7XL.L.L.>XL.*X,XqX<X<XrX>XH H 7XrX7X;.-.<X6XeX8XeX@.d o.4X",
"3XK.-.;.;.=.&.o.@.#.&.P.P.L.&.&.&.;.;.3X0X0X0XeXX.f ] <XtXwXwX3X .%.@.&.%.*.>X<X<X<XrX%.T T rXrX8XK.-.4XtXeXeXiX| f X.4X",
"K.-.+.&.L.P.P.;.#.&.*.L.<XL.*.*.;.P.;.3X0XwX8XwXX.G X.3XaXrX0X3X%.*.>X,X,X,X7XrX<X<X<X*XY T rXpX4X-.&.3XeX8X8XeX#.Y @.7X",
"-.#.X.o.$.P.P.;.-.-.&.;.L.*.&.#.-.-.-.P.3X3X3X7X] f } 3XdXwX<X-.&.*.>X<X<X<X7XqXrX<X<X<X! Y <XdX9X;.;.8XeX8X8XeX&.I O.3X",
";.-.-.=.-.-.-.-.P.P.;.-.*.&.%.%.#.-.-.;.K.<X7XeX] 5 #.8X8XtX4XL.-.;.>X3X3X<X<XwX7X4X4XO.Q W ;.wX8XP.;.4XeXwX7X8X&.Y &.8X",
"K.,XK.L.P.;.-.&.P.P.;.-.&.%. .&.&.$.-.;.;.<X4X0X#.f #.eX0X8X,X} &.;.>X,X<X,X<X<X<XqXwXO.D T qXrX8XP.;.3X8X7X3X7X#.f | 7X",
"wXwXwXeXwX8X7X3X>X>X<X7XqX<X,X>X3X3X3X4X5X8XeXeX] 5 X.0X0X*X8X^ 6 0XqXqXrXrXrXrXwXwXrX&.s G 0X<X0X4X3X4X0X0XeXeXL.Y | 7X",
"X.X.X.X.X.} ' / } W Y Y W W W G I I Y Y Y R R R X.Y X.P.*., } o.@ D &.Y  .} W T T T '  .G 5 } G Q Q ^ W ! ] | | &.Y ' #.",
"I I I I G f 5 D f 5 F F F G G b 5 5 5 5 5 5 5 5 D 2 f I 2 o @ > o o 5 & < f f D F f D Y I 2 G 5 f D F 5 f D F v G s F Y ",
"5 k G I I I Y Y F Y ' W 6 D ! Q ( ( ( ( ' ' ] ' G D ^ R G @ . +   @ 2 : # G F G F 5 D 2 v 3 f f D D G F b D s F 5 5 F 3 ",
"5X8XwXtXiXaXjXjXzXkXpXO.G ] qXpXdXdXdXdXfXjXjXjX0X> 6 0X^ @ >   @ o : @ # >XqX3X' G ,XwXfXdXrXwXwXwXwXrXwX0X7X7X3X4X<X<X",
"eXeXrXaXdXdXdXjXfXpXqX} G O.wXqXeXeX8X0X0XeXwXwX8X, o # o   .     > >   @ O.0X<X .> @.pXfXkXfXzXlXkXkXlXlXpXpXiXdXrXwXpX",
"pX<XpXpXpXpXrXwXwXdXL.Q F %.<X0XtXiXiXtXeXeXeXeX0X$.@ , = X       o @   , > aX;.( f ] eXdXaXdXrX<XrXpXpXpXpXrXrX7XrXwX0X",
"rXrXrXpX<XqXpXdXrXdX,X' G %.4XwX8X8XeXiXeXeXeX+.o.k # , O             . , # dX3X] 5 ] eXdXpXiX7X<X<X<XqXqXqX<X<X7XrXrX0X",
"<X<X<X<X<X<XwXdXrXdX,X' D O.3X0X8XiXeXiXiXiX6Xd $   & #               . = @ eXP.] 5 ( eXfXtXwX<XL.L.L.,X,X>X>XL.<XwX0X0X",
"<XrX<X<X<X<X<XrXwXrX<X( f O.3X0X8X8X8X8XyX<XJ.4.g . o                   X 6 7Xo.] 4 ^ rXjXiX8XP.%.L.>X,X>XL.*.*.<X7X0X7X",
"pX<X<X>X;.L.>X<XwXrX<X} 5  .qX0X3X3X7X8XeXZ.:.>.:.q $       $ O           ( 8Xo.] 5 ( tXfXrX7X;.L.>X<X<X>XL.*.L.,X7XqX<X",
"<X>X%. .}  .&.>XqXqX<X} 5  .4XqX-.-.,X3X8XZ.<.n.b.2.% X   . a j X . X * X ^ 0X&.| 5 ' iXdX8X4X;.L.,X<XwX<XL.*.L.,X7XqX<X",
">XL. . .} '  .*X<X<X<X .5 } <X>X[ O.#.*.#.q.t.N.R.t $ j r r a l.t z w X @ ] 8X-.' s ' tXaX7X7X<X<X<XyXrXqX>X>X>X<XqXqX<X",
">X>X>X>XL.%.*.>X<XqX<X&.F } <X;.X.#.-.*.` p.t.i.V.9.8 z z.F.vXD.j f.* = L 3XwX&.^ 4 ' iXdX0XwX0XwX<XqXpXdXwX<X<XwXrXrXqX",
"O.%.@. .} ! Q ! } ( %. .Y Y } ' ! ! G G g.t.p.S N 0.p r a.F.bXJ.F.h.* ~ U #.[ ( | f o.-.' ] ] ] %. .} / W Q Y G ! Q ] | ",
"d A G G F G Y Y D F Y W D D G D v F s G h w.C.[.{.{.}.g s.x.^.(.`.F.* [ 6 5 6 2 I < Y Y 5 D f I F F D G F D D W G F G f ",
"F G F D f 5 5 5 G 5 D F 3 s F 5 5 f G G J.2.B {.oX;XOXh z.U.x.^.~.f.z.S.I I I I Y s R I f I f G s 3 F D F s 5 b b s F 3 ",
";.>X,X>X,X>X,X>X<X*X;.>X;.>X<X;.,XP.,X%. .u B oX:X1XA.s.x.'.~.H d j ~._ -.,X,X3XP.P.4XP.3X4XL.L.*.*.@.| @. .' 2 } &.*.&.",
"qXwXrXdXdXfXfXlXpXpXfXfXkXjXfXpX0X4X4X| R D.d XX=X`.(.h.).].).C n a.f.8XaXaXfXfXjXlXkXjXkXlXaXaXwXrXwX<XwX>X@.3 ;.wXdXdX",
"<X<X7XwXwXwXwXqXwXwXrXrXwX0X0X0XwX7X4X] E K.7 S I.].`.x.~.U.H.N I.^.z hXjXfXaXaXaXjXaXiXdXdXtXpXrXrXrXrXdX .' 3 *.tXfXwX",
"<X<XqXwXrXdXdXwXrXdXrXwXwX0XwXrX8X8XyXuXbXn c - h /.'.G.h.a.H Z `.].).D.tXwX0XwXeXeXeXtXpXeXrXrXrXwX0XrXdX .} D &.rXdX0X",
"<X<X7X7XqX7X<X<X>X<XqX0XrXwX0XrXeXyXuXk.j.a [..Xn g.^.Y.h.h.g e U.'.'.S.0X<XP.,X<X<X7XrXwX4X0X7X7X<X,X>XwX@.O.2 O.tXdXwX",
"<X<X7X7X7X3X-.o.O.#.&.;.4X8X0XeX<X_.k.n.R.N.l V }.> x.Y.k.f.4.5.q k.F.x <X;.P.L.3X3X8X0XiX8XP.;.3X3XK.P.8X$.] f X.0XeXdX",
"qX7X<X<X3XK.P.P.#.#.#.K.3X8XeXeXyX9.N.W.Q.R.m.i 7 * g f.w 9 r.u.b.a.y e iX;.3X7X8X8X8X3XP.K.P.$.L.P.;.;.8X#.) s #.eXeXaX",
"0XK.,X<X,XP.P.4XP.L.$.L.3X8X8X8XI.c.W.Q.Q.E.n.e.t.e.1.8 2.6.t.i.E.Q.R.s.+.-.P.8XeXtXeX<XP.K.P.L.$.-.;.P.8X$.' f $.eX4X8X",
"7X<X<X3X4X3X3X3X3XP.P.P.K.4X6XK.3.y.M.!.!.T.b.2.q u 8 8 2.7.r.r.v.M.R.i.D.L.P.7X6X0XeX7X3X<XP.-.;.P.P.K.8X&.' f -.eXK.3X",
"4X4X3X3X7X7XK.-.L.P.P.P.3X3XP.h 6.r.v.n.z u 8 S.cXcXcXcX+.8 8 9 7.i.b.,.*.<XL.6X8X8XwXeX8X<XL.L.3X4X<X<X8X#.( 5 ;.0X3X3X",
"3X4X3XP.P.K.;.#.$.;.P.;.;.;.k 0 r.7.>.:.> =.cXwXeX4X3X3X4XtX[ 9 >.>.7.3.gX3XL.L.4X,X3X8X8XP.K.3XP.3X<XP.3X#.( d -.0XK.3X",
"3X3X3XP.P.;.-.-.L.L.P.P.L.+.2.5.r.e.7.h tX4 #.8X0X3X<X,X9X#.K.>.6.6.w.h wX7X7X<X3XP.>X3X3X3X,X3X3X4X4X3X8X$.] I -.8XP.<X",
"4X4X8X8X3X;.P.3X3XK.,X3X#.0 <.t.u.u.5.x R 4 -.8XeX7X3X<X8X=.h e.t.t.7.` iXdXkXfXfXfXdXiXtXaXtXeXeXiXeX8XeXo.W f -.eX,X,X",
"&.P.#. .O.O. .} ( ] X.o.=.5.v.e.6.6.i dXY f -.8XtX0XwX8X4X) 5.r.y.e.1.hX#.@.#.&.#.$.-.;.-.L.P.&.L.L.<X<XP.P. .4 P.0X,XqX",
"R W Y Y I D f D f D 5 I ~ k.N.m.B.8.x / R R ' I Y W ( ( / a ,.r.y.<.9 eXf f f G f f G D f I I G s s G Y Y ' Q 2 ] | W ! ",
"f 2 5 f 5 5 H F I D 5 5 n J f.d.d.y X.1 1 < D 4 5 f 5 2 6 v ; 0 i u x R f f 1 F f 4 2 4 4 2 2 2 s 1 1 1 1 s s 1 2 s < < ",
"I 5 O.7X3XP.,X>X;.;.;.;.%X|.p c ~ %X&X-.,X#.' 5 ( X.o.} &XV {. Xp > 9X .@.! s Q @.@.X.O.o.O.X.O.&.%.%.%.#.&.*.&.*.*.%. .",
"( G <XlXxXxXxXfXzXzXgXsX$X+X|.M &XkXdXkXvX8XX.4 ;.dXlXfX2Xm }.+X XA eXrXrX%.Y &.7XwXwXwXdXpXrXfXpXpXpXdXdXdXdXfXwXqXrX7X",
"O.G ;.qXpXdXxXzXpXpXwX%X|.K .XZ sXeXtX4X<X^ Q I #.wXeX8X2X[.-X@XC.3.v 3X>XQ F  .7XdXpXrXfXdXrXfXdXdXpXrXpXqXqXwXdXrXpX<X",
"O.G ,X0XlXfXpXrXpXpX%Xm N OX-XC wX8XeX7XL.} ( f #.0X7X8X5X..#X{ ) ) L =.*.Q G &.*XrXpXqXwXwX4X0XwXwXwXqXwXwXqXwX,X>X7XL.",
" .Y ,X3XkXgXpXwXqX<X%XL E E P { wXeXdX0X-.' } 5 ] 8X8XeXeX,X*X,X*X#.&.3X*X} G  .&.rXdXqXpXpXwXdXqXrXwX<XwXqX>X<X,X,XrX<X",
"( Y P.4XkXtX3XP.3X4X8X8X8X4X0X0X0XrXtX7XL.' ] f } 3XtX0X4XP.-.;.;.=.$.3XK.( 4 $.*.wXiXrXwXwXpXwXrXqX<X<XwX<X<X<X<X<XqX>X",
"' Y P.4XjXeX3X;.4X4X3X,X3X,X3X4X8XtXeX0X>X' ' 5 ( <XeX0X4X,X;.P.,X;.;.3X;.( s $.&.8XqXwXwXrXpXqX<X<X<X<X<X<X<X<X<X<XqX>X",
"( Y P.3XdX0X<X;.P.>XP.,XP.,X,X,X4XeXeX0X4X] ( 2 ( 3XwX4X3X,XP.,X3X3X3X,X-.' s +.L.wXwXwXrXwXwX<X>X>X>X>X,X,X<X<X<X<X7X>X",
"^ Y ;.3XdX8X>X-.&.*.L.<X3X3X3XP.4XwXeXeX4X] ' 5 ] <X0X3X3X;.-.;.3X8X7X3X-.] f $.P.rXwXwXrXwX<XL.L.*.L.L.>X>X<X<X<X<XwX,X",
"T Y P.3XtX<X&.@.O.O.&.P.3X4X<X<X<X0X0X0X4X] ] f | 3XwX3X,XL.-.;.K.7X8X3X-.[ f #.L.qX7X7XqXqX<X&.*.%.&.L.*XL.>X>X<X<X7X>X",
"R Y ;.,XwX;.O.] X.} X.o.;.<X3X<X>X<X3X4XP.] ' f X.4X0X3X<X<X>X>X3X3X4X3XL.] f #.>XwXqX<X<X<X,X&.L.L.*.*.&.L.L.*.>XL.<X>X",
"Q Y P.,X0X;.O.| @. .} O.&.;.,X>X;.,X,X<X,X' ' f O.7XwX,X,X<X,X3X3X3X3X3XL.X.f &.>XpXpXqX<X,X>X*.%.L.>XL.&.*.*.*.>X;.<X*.",
"Q Y >X>X8X;.#.@.&.O. .O.*.;.>X*.;.L.,X<X,X' ' s @.qX0X>X;.<X<X3X7X3XK.<XL.] f &.>XrXwX<X<X>X>X*X%.L.>XL.%.%.*.>X,X>X7XL.",
"' D >X4X3X0XwX<X*.*X>X,X<X3X7X7X3X0X4X4X<X&.' 5 &.rXkXwX<X<XqX3X7X4XeX4X<X( 5 &.4XdXrXqX7X0XqX7X<X<XpX<XL.;.,X,X>XL.;.;.",
"} Q 3X;.O. . . . .O.@. .O.&.&.&.&.*.O.O.O.} ( D %.;.;.%.%.*.*.&.;.o.] ] *.o.Y  .*X;.%.%.;.*X&.%.O.%.L.L. .O.@.@.*.&.*.;.",
"W Y O.Q G D D Y D G G G G G G G Y R G G I G Y f Q G 5 F G Y Y G Y k I 5 ^ Q D ( W F 5 G W Y b G G F H F G Y T G T W W ' ",
"D 5 D 4 5 D 5 G D D D D s D f b 5 f 5 v s 3 s 2 5 2 2 s D 5 5 s < 5 5 4 f 5 1 Y 5 5 3 D F 5 3 G s 3 F F s f F s 3 3 3 3 "
};
