/* XPM */
static char *_1673794421[] = {
/* columns rows colors chars-per-pixel */
"60 60 228 2 ",
"   c #010101",
".  c #090602",
"X  c #0A0908",
"o  c #0B0B0A",
"O  c #160E05",
"+  c #15120D",
"@  c #151413",
"#  c #1A1916",
"$  c #191519",
"%  c #1D1B1B",
"&  c #260806",
"*  c #241809",
"=  c #391409",
"-  c #3B2208",
";  c #21211D",
":  c #3D2412",
">  c #25192B",
",  c #37173D",
"<  c #252323",
"1  c #2C2529",
"2  c #312A2A",
"3  c #342B32",
"4  c #382E35",
"5  c #37293F",
"6  c #382E38",
"7  c #393335",
"8  c #373539",
"9  c #3C333A",
"0  c #4C170F",
"q  c #671A08",
"w  c #72100B",
"e  c #492A16",
"r  c #572515",
"t  c #5B3716",
"y  c #75250F",
"u  c #692C13",
"i  c #742A18",
"p  c #683E1C",
"a  c #461C33",
"s  c #50302B",
"d  c #40353C",
"f  c #40383D",
"g  c #6A2E2F",
"h  c #7C3232",
"j  c #6C421C",
"k  c #5C482C",
"l  c #734924",
"z  c #6A4530",
"x  c #7D4D38",
"c  c #100C4F",
"v  c #37384A",
"b  c #0D166E",
"n  c #331C71",
"m  c #1B276D",
"M  c #272762",
"N  c #322F73",
"B  c #403540",
"V  c #443B42",
"C  c #4A3D46",
"Z  c #523957",
"A  c #633B43",
"S  c #451C69",
"D  c #53346F",
"F  c #652B6F",
"G  c #6A396A",
"H  c #31435C",
"J  c #39426F",
"K  c #25526B",
"L  c #4A4146",
"P  c #4C434A",
"I  c #494649",
"U  c #53494F",
"Y  c #55494E",
"T  c #554B53",
"R  c #584E56",
"E  c #5A4F58",
"W  c #5B5256",
"Q  c #5E555A",
"!  c #7B4649",
"~  c #6A524E",
"^  c #635D57",
"/  c #60565D",
"(  c #62595E",
")  c #7F645F",
"_  c #645B61",
"`  c #685F64",
"'  c #695F68",
"]  c #6B4C71",
"[  c #4E696E",
"{  c gray38",
"}  c #6A6165",
"|  c #6C626A",
" . c #7A6864",
".. c #70666C",
"X. c #72696D",
"o. c #6D6D71",
"O. c #706670",
"+. c #756B72",
"@. c #786E76",
"#. c #7A7175",
"$. c #7D747A",
"%. c #8A1701",
"&. c #971902",
"*. c #8B1414",
"=. c #A61D01",
"-. c #A31719",
";. c #9B2906",
":. c #8B2F10",
">. c #973B1B",
",. c #A62303",
"<. c #B52600",
"1. c #BB2601",
"2. c #A4330F",
"3. c #BF3E05",
"4. c #A31F21",
"5. c #863825",
"6. c #912A30",
"7. c #A63233",
"8. c #D21516",
"9. c #C52A00",
"0. c #CC2C00",
"q. c #D12F00",
"w. c #CA3403",
"e. c #D23101",
"r. c #D33D06",
"t. c #E3331A",
"y. c #874F12",
"u. c #994819",
"i. c #B74E12",
"p. c #8A4D28",
"a. c #945C2A",
"s. c #865734",
"d. c #9D6439",
"f. c #B47236",
"g. c #D24B0B",
"h. c #D94F11",
"j. c #C95D13",
"k. c #E05B06",
"l. c #D5700F",
"z. c #E36506",
"x. c #E0790B",
"c. c #E37518",
"v. c #832944",
"b. c #9B4546",
"n. c #885855",
"m. c #9D565A",
"M. c #B64747",
"N. c #936446",
"B. c #B36C41",
"V. c #A4734E",
"C. c #B5734E",
"Z. c #836B67",
"A. c #87796B",
"S. c #867875",
"D. c #80777D",
"F. c #82797D",
"G. c #AE7568",
"H. c #C47F48",
"J. c #DA841C",
"K. c #EF950F",
"L. c #EC8B18",
"P. c #F49A15",
"I. c #FCAA08",
"U. c #FFB202",
"Y. c #F9A517",
"T. c #B48074",
"R. c #CA8558",
"E. c #D88B58",
"W. c #D89259",
"Q. c #E2945E",
"!. c #DB9C69",
"~. c #D5997A",
"^. c #E89C67",
"/. c #F2AA70",
"(. c #05058A",
"). c #091291",
"_. c #162381",
"`. c #2C268C",
"'. c #0917AD",
"]. c #1D20AA",
"[. c #212FBB",
"{. c #432C8E",
"}. c #573B89",
"|. c #4F3A91",
" X c #3B4983",
".X c #574B8D",
"XX c #735A9F",
"oX c #456098",
"OX c #70729B",
"+X c #5F5FAD",
"@X c #0F30C9",
"#X c #0C31D3",
"$X c #0034EC",
"%X c #807780",
"&X c #857C82",
"*X c #887F84",
"=X c #8176A6",
"-X c #6C8483",
";X c #8A8186",
":X c #858885",
">X c #8D848A",
",X c #9B8084",
"<X c #90878D",
"1X c #938A8E",
"2X c #8A8993",
"3X c #918794",
"4X c #958C92",
"5X c #988F95",
"6X c #8C9194",
"7X c #9A9295",
"8X c #9A9696",
"9X c #9D949A",
"0X c #AE8685",
"qX c #AD908B",
"wX c #AF9094",
"eX c #A0979F",
"rX c #A2999E",
"tX c #8C8CA3",
"yX c #A49BA1",
"uX c #A89FA5",
"iX c #A39BAE",
"pX c #AAA1A6",
"aX c #ADA4AA",
"sX c #B0A7AD",
"dX c #B2A8AF",
"fX c #B5ABB2",
"gX c #B6B6BA",
"hX c #C09987",
/* pixels */
"+.#.T.-X6X1X1X1XrXrXrXpXpXaXaXdXpXdXpXpXyX9X7X8X#.f } 7X7X1X8X4X9XeXeXuXyX9X9X9X9X9X4X5X_ ' <X3X&X*X>X:XT.-X$.#.+.L } T.",
"7XrXrXyXyXyXrXrXrXrXrXrXrXrXrXrXrXrXrXrXyXrX9XpXD.L X.7X9X9XaXyXyXyXuXuXuXuXyXyXeXuXeX%XC ` yXuXyXyXpXpXeXeX8X8X#.I  .1X",
"1X6X6X6X8X8X8X8X1X1X4X7XrX7X7X7X4X7X4X1X7X1X1X9XX.9 ( >X7X7XyXrXeX7X7XeXyXyX3X4XeXyX9XO.d U eXsX4X7XwX8X4X1X7X8XX.f } >X",
"1XT.T.-X1X1X-XT.>X>X1X8XrX8XrXrX7XrX7X7X9X4X1X7X..f } 1X9X7XrX4X3X<X<X1X4X<X<X3X3X*X5X@.P d <XeX4X1X>X5X7X7X7XeX .V ..;X",
"1X>XT.:XT.-X$.#.S.$.;X1X1X<X>X*X>X>X>X1X8X7X7X9X..V } 4XyX9X9X1XOXS.S.D.F.S.*X>X*X*X9XD.E C <X9X:XS.o.T.1X1X4X7X .f ..>X",
";X-Xo.#.o.#.X.....X.X.$.F.$.+...+.$.$.*X4X7X4X7X} f ( &X9X7X4X>X| | X.+.O. .OX>X*X*X9XO.Y Y 9XeX1XOX#.;X8XrX8XqX} f } >X",
"S.+.X.+.$.-XF.$.X.+.#.D.&XD.$.@.$.F.F.;X4X4X1X4X} V } ;XyX8X4X;XT Q $.F.( ;X3X7X*X*X4X..C T 9XeX:X#.@.;X7X4X<X6X+.L ..<X",
"$.X.} ..#.o.T.$.#.@.+.$.$.$.+.O.#.#.#.F.;X>X;X1X( f _ ;X;X#.D.#.I 2 | &XV >X>X4X3X&X3XD.E C *XeX1XF.$.1X7X1X1X7XX.C | ;X",
"$.o.#.#.#.#.#.#.F.D.$.#.@.+.O...+.#.@.S.$.;X1X7X} 7 ..1X1X7 I  .I # 7 $.% _ ;X3X<X<X<X' R T $.4X1XS.$.>X7X4X1X1XX.P @.1X",
"T.OX-XA.$.S.#.+.D.D.$.$.@.O.' +.+.+.@.#.F.&X>X1X| f X.8X1XI ; 2 7 @ X Q @ { *X2X*X<X9X..d T 4X9X1XF.$.;X1X1X>X<XX.f ` <X",
"1X7X7X7X7X4X<X*X%X%X;X>X3X*X&X&X&X;X;X<X1X1X8X8X( 9 } | ^ I ; 2   # o d $ T 7X5X5X4X9XO.d C 4X*X4X>X;X>X3X3X7X9XD.P ` ;X",
"} } } } } ( / ^ _ T P U T T T C L P I I U I U Y | I ( I # # ; +   o     o @ E U U U _ ` P 6 _ C R R R R E _ ' ` +.P Q +.",
"I L L L L f f d 9 9 V C v C C 9 9 9 9 9 9 9 9 9 < $ < ; + ; o       o   ; o 3 d V B C P P 4 C 9 v f V 9 9 V V B P 9 C C ",
"V V f L L L P P V P Q T 6 V E R Q Q Q Q / Q ( / % o + + o                 . > C B 6 B 4 v 3 d d f C C C B V 9 9 9 9 d v ",
">X1X7X7XrXrXpXpXfXsXeX| C _ 3XyXpXrXrXpXpXpXpXpXpX3 @ o                   ; 1X<X/ P *X9XyXyX9X7X7X5X7X9X9X3X4X4X>X>X*X*X",
"7X8XrXrXrXrXuXuXyXeX3X_ C | 5X3X5X7X1X1X1X7X7X7X6XI + o                   | 4X*X` > ..9XaXaXuXsXsXaXaXaXaXyX9X9X9XeX5X9X",
"5X5X9XeX9X9X9X9X3XyX%XR C O.*X4X8X8XrXrX7X7X7XqX7 + O # O .   O           1 rXD.Q d / 7XyXrXyX7X3X9X9XiXeX9X9X9X3X9X5X4X",
"5X5X9XeX3X5X9XyX9XyX&X/ C O.<X4X1X1X8X1X7X4X7X7XF.# ; # l * . j * . O   o o L *X( 9 Q 9XrXrXrX1X*X*X*X*X3X5X*X*X4X9X5X4X",
"*X5X*X*X*X*X9XeX9XyX*XQ f ..*X4X8X8X8XqXrXrX9XZ.z 0 y r d.e * j l - t   * . 9 D./ 9 Q 8XyX9X4X;X@.D.%X&X*X&X%X%X*X4X4X4X",
"5X*X*X*X&X*X*X9X9X9X*X/ d ` <X4X1X1X1X1X5X4X<Xb.u.j.6., : l N.A.x t s.& s < 2 ..( 9 W 7XpXrX4XD.+.@.%X*X&X@.@.@.%X4X4X<X",
"5X*X&X%X@.D.&X*X5X9X*X_ d ' 1X4XT.-X>X1X5X7XA *.c.K.b.[.M l hXgXz a.j = S.;X~ | { d W 7XpX7X1X$.D.%X*X3X*X$.@.D.&X<X4X<X",
"*X%XO.] _ ' O.%X3X4X*X_ d ` <X<X#.#.&X;X1X4Xh <.G .Xf.XXN : T.~.R.!.j 0 *X&X4X+.( d / 7XyX1X;XD.%X*X,X4X*X@.@.D.&X<X3X*X",
"%X@.| ' _ _ O.@.*X*X*X' v ( &X&X{ } +.@.@.! q v.#X$X{.>.k f.l R./.R.x *.m.*X4X#./ f ^ rXrX1X<X;X*X*X<X4X<X&XD.%X*X3X3X*X",
"&X%X%X%XD.O.@.&X*X3X*X+.B _ &X$.} o.@.@.| g h ].$X$X].r t H.H.l G.N.s.8.M.;X4X#.W 7 / eXyX1X4X4X5X*X4XyXyX4X<X*X4X9X9X4X",
"......' / R R E ` _ ..' P P _ _ E E C C Z 0 6.'.'.`.`.c h W.^.x s t a.4.v.#._ W ` f ..#./ ( ( } O.' _ Q R R P C R R _ ` ",
"d B C C V C C U B B P T V B C B B B v C B w 6.(.D ~.~.U p H.W.}.] f.y.w d d 9 4 L 1 L U 7 f f L C 6 V C V v B T C V C f ",
"C C V C d d 6 v C 6 B V 9 d V 9 d B C C d y ;.S n.^./.!.l s.V.N G ^.Q.-.g L L P P d I L f L f L d 9 9 V V 9 d V d V v 9 ",
"$.D.%X%X%X&XF.F.>XD.D.D.$.%X&XD.&XD.&X..C h ;.h s d.W.Q.a.l N.v w E./.8.7.;X&X;X*XF.>X&X;X>X$.$.@.@.O.` O.| Q 6 _ O.@.@.",
"4X3X9XyXuXuXaXaXyXyXyXaXaXuXuXeX4X>X>X} B g A n b s B.R.E.R.>.u 7.-.t.-.M.yXpXpXpXaXsXpXaXsXrXyX5X9X5X*X5X%X| 6 $.5XuXeX",
"*X>X<X5X5X5X5X3X3X7X9X9X5X4X4X4X5X<X>X( h i g c b b e a.H.p : 6.*XG.4.4.0XyXrXrXrXyXrX7XyXyX9XrX9X9X9X9XyX| Q 9 @.9XyX5X",
"*X<X3X9X9XeX9X9X9XeX9X5X3X5X5X9X4X6X>X^ p.>.w.>.d > & - r r & : b.*X0XwXrXwX4X4X7X7X7XrX9X8X9X9X9X4X5X9XyX` _ v +.9XuX3X",
"*X>X,X3X1X3X*X*XD.>X3X4X9X7X5X8X7X8XM.>.&.x.Y.P.J.j.,.%.<.9.i.:.k *.M.0X1XF.D.F.;X;X1X7X5X>X4X,X3X*X&XF.5X..| 4 | 9XyX5X",
"&X;X<X<X>X;X$.| | X.#.$.:X1X4X7X9X,X5.>.c.I.U.K.i.,.&.=.0.h.L.L.L.l.2.*.C.@.F.S.*X;X1X7X7X1XF.F.:X:XF.$.1X#.^ V } 1X8XrX",
"<X;X;X;X;X&XF.F.X.X.+.$.;X4X7X7X5X5.2.K.U.K.x.x.w.&.q <.0.e.r.g.L.I.P.i.e G.*X>X1X4X1X-X&XF.F.X.F.F.$.S.1XX.Q 9  .8X8X9X",
"<X*XF.F.*XD.*X-XF.S.#.$.;X1X1X1Xn.y k.U.U.L.j.&.q = . 0 q %.1.g.c.L.P.c.:.G.S.1X7XrX7XT.F.;XF.$.o.#.#.F.1X .Q f #.8X1X1X",
">X-XT.>X>X:X&XT.:XF.S.$.;X-XT.>Xz <.g.P.I.l.y.q A. .+.S.&XS.u q q 2.l.z.;.T.F.<X>X4X4X>XT.:XS.#.A.F.F.F.1X+.Q V #.4XF.:X",
">X>X>X;X<X<X&X#.$.F.$.;XF.:X;XS.i w.e.h.j.5.S.;X7X;X;X;X>X} f 8X: &.0.q.:.0XF.>X4X-X4X8X-X;X$.$.;X>X;XF.<X..^ f S.1XT.-X",
";X>X;XD.#.T.$. .#.#.F.F.$.F.$.~ ;.0.q.1.%.S.| 1X5X>X;X*X>X| 3 ~ i 0.q.1.~ qXF.$.<XT.;X1X3X&XF.;XF.;XT.OX>X..W f #.1XF.;X",
";X;X:XD.$.A.#.#.$.$.F.$.o.T.[ >.0.0.0.9.:.o.X.1X4X>X:X&X4X..9 Z.2.q.q.<.Z.>X>X;X:X%XF.;X;X;X;X;X;X>X>X;X1X ./ L #.1XF.;X",
">X>X1X1X-XOXF.:X-XT.;X2X-X8X[ i.h.0.0.&.) v +.1X5X<X*X*X4X| I y 9.q.q.<.Z.yXaXaXuXuXrX9X9XyX8X8X7X8X7X1X5XX.W d $.4XF.;X",
"@.F.X.` | | ` ' { / } | X.@.K :.c.k.3.%. .9 #.1X8X4X7X1X>X .{ &.q.q.9.%. .....+.+.@.#.#.#.$.D.#.D.D.*X*XF.&X` 7 F.4X*X1X",
"P R P P C C d d f v f L I I K > y.f.u.y 8XU / L P U Q W W Y H p %.=.&.y rXf 9 C f 9 L V V L I V d d C C P / T 9 _ ` T E ",
"f 4 d d d 4 C C L 9 f 9 9 H m n c c 8 :X8 2 V 9 9 f f 7 7 7 v m b a u #.V 9 3 C 9 9 4 4 7 4 3 7 d 3 3 3 3 d d 3 4 9 1 3 ",
"L d ` >X<XF.*XD.$.$.$.$.$.oX@XF (.m OX#.&XO.Q 9 W | | ( | +..X(.#XZ > -XX.W B E ..| | | ..| ` ..@...O.O...+.@.+.@.@.' ' ",
"Q C *XsXfXdXfXuXdXdXaXaXiX X+X|.(.N pXpXgX1X} 7 D.yXsXpXpXgXc (.{.}.c _ 3X+.U O.4X5X5X9XyX9XeXuXeX9XeXyXyXyXyXiX5X4X5X4X",
"| C $.<XyXyXfXdX9X9X9X5X.X_.F `.b +X8X>X*XW R L X.4X7X1X4XtXm '.[.F 4.a <XR 9 | <XeXeX9XyXyX9XuXyXyXeX9X9X5X3X9XyX9XeX*X",
"| C *X3XaXuXyX9XyXyXyX=Xm _.{.@X).+X7X1XF.( / f +.1X1X1X9X5X6XJ  XE ~ C -XE C O.D.9XyX3X9X5X>X3X5X9X4X3X9X5X*X9X&X%X<X$.",
"' P &X<XaXuX9X3X5X*X3XOXM M S N N =XrX1X#./ ( 9 ( 1X4X4X7X;X<X:X*X@.$.&X&XQ P ' @.9XyX3X9X9X5XyX4X9X4X3X9X*X*X*X%X&X9X*X",
"Q P F.>XaX8X>XD.;X<X1X1X>X>X2X3X3X9X7X<XOX^ ( d ( ;X7X4X1XD.+.$.D.+.#.;X$.Q 7 +.@.5XeX7X5X5XyX5X9X3X*X*X5X3X*X*X*X*X3X&X",
"/ P D.>XpX5X;X$.>X;X;X&X&X&X>X>X1X9X7X4XS.^ / 9 / *X7X1X<X&X$.D.F.S.$.&X$.Q 7 #.+.1X4X5X5XeXeX1X*X*X*X*X*X*X*X*X*X*X4X%X",
"W P D.;XrX5X;X$.F.F.&XF.%X&X&X&X>X5X8X5X;X( / 4 ( *X4X<X;X&X$.;X>X;X;X-X#.( f +.D.4X4X9XeX7X5X&X%XD.%X%X&X%X*X*X*X*X4X%X",
"W L F.>XrX1XF.#.+.#.D.&X>X>X&X&X;X5X7X5X<X( / 7 ( *X4X;X;X$.#.F.;X1X1XT.#.^ f  .F.eX5X4X5X4X<X$.D.@.D.D.%X%X%X*X*X*X4X&X",
"U L OX-X8X;X+.| } ..+.$.;X>X;X*X*X<X4X4X;X( ( d ` ;X4X;X*XD.@.$.S.1X1X;X#.( f X.D.1X1X<X4X3X*X@.@.@.@.@.@.%X%XD.*X*X4X%X",
"Y L S.T.7X$.| ( ` ` } X.$.*X;X;X&X*X>X>X&X( / d ` <X4X;X&X&XD.&XT.>X>X;X$.{ f X.S.4X4X*X<X*X%X+.@.D.@.@.@.D.D.@.%X$.*XD.",
"T I S.S.4X$.| } ..` ^ } O.OX%X%X$.&X&X*X%X( / d | <X3X&X&X;X&X*X-X;X;X;XS.` f @.S.rX9X3X*X%X%X@.@.@.%XD.O.@.@.D.D.D.*X$.",
"W I OX&X1X$.+.| +...} ..+.S.$.$.$.D.&X*X&X( ( d +.4X4X%XD.&X*X>X2X;XF.:X$.( f +.OX9X5X<X*X%X%X$.O.%X&XD.O.O.@.D.%X%X>X$.",
"( C D.>X>X3X5X*X@.OXS.S.*X;X<X>X;X3X>X>X*X@./ 9 ..9XaX5X&X*X<X>X>X>X8X>X&X/ 9 +.<XyXeX3X<X4X1X<X*X*X9X3X%X$.%X&X%XD.D.D.",
"_ T *XD.| ` | | ` | ....| +.O.@.+.@.| | | ( Q V +.$.$.O.+.@.@.+.$.| _ _ #...L | $.$.+.O.S.OX@...O.O.D.@.' | +...@.O.@.$.",
"T P ' R P B V U V P C C C C P C P T C C C C P d R C 6 B P P P L I L V 9 R R d ( Y V 9 C T P B C C C C C C C P C Y T T E ",
"V 9 d 9 9 d 9 C f f V V 9 V B V d d v 9 d 6 d 4 d 6 6 B d 9 9 d 2 7 f 7 d d 3 P 9 9 4 v C 9 6 C d d B V d B V d 6 4 5 d "
};
