/* XPM */
static char *_9_removebg_preview1673794426[] = {
/* columns rows colors chars-per-pixel */
"60 60 206 2 ",
"   c #1B0B0C",
".  c #342219",
"X  c #211C24",
"o  c #371C39",
"O  c #2D2229",
"+  c #32262B",
"@  c #322A2E",
"#  c #282737",
"$  c #352B33",
"%  c #382E35",
"&  c #382E38",
"*  c #393235",
"=  c #3C333A",
"-  c #5A2D0C",
";  c #572A2E",
":  c #492938",
">  c #40353C",
",  c #41383D",
"<  c #6E3730",
"1  c #444433",
"2  c #472148",
"3  c #403540",
"4  c #443B42",
"5  c #493D47",
"6  c #3B4D7C",
"7  c #4A4146",
"8  c #4C434A",
"9  c #564447",
"0  c #51474F",
"q  c #53494F",
"w  c #5F4657",
"e  c #554B53",
"r  c #584E56",
"t  c #5A4F58",
"y  c #5B5256",
"u  c #5E545A",
"i  c #60565D",
"p  c #62595E",
"a  c #75625D",
"s  c #51546F",
"d  c #4D4E70",
"f  c #645B61",
"g  c #685F64",
"h  c #695F68",
"j  c #7B5578",
"k  c #6A6065",
"l  c #6C626A",
"z  c #70666C",
"x  c #72696D",
"c  c #77706D",
"v  c #676978",
"b  c #756B72",
"n  c #786E76",
"m  c #726578",
"M  c #7A7176",
"N  c #73707D",
"B  c #7D747A",
"V  c #A23C00",
"C  c #844109",
"Z  c #AA4401",
"A  c #A9460E",
"S  c #B65505",
"D  c #BB5501",
"F  c #AB5116",
"G  c #A36213",
"H  c #914729",
"J  c #9C532C",
"K  c #B25525",
"L  c #C25B00",
"P  c #CB6604",
"I  c #CD6E0B",
"U  c #D5770C",
"Y  c #C46011",
"T  c #D57E17",
"R  c #C97827",
"E  c #CE6E34",
"W  c #90604A",
"Q  c #877158",
"!  c #B8704C",
"~  c #8F766C",
"^  c #80777D",
"/  c #82797D",
"(  c #D77744",
")  c #E27F4B",
"_  c #C07E65",
"`  c #EB9213",
"'  c #D68F27",
"]  c #DC9426",
"[  c #CE8F3F",
"{  c #C0903C",
"}  c #E49829",
"|  c #EEA92D",
" . c #F1A832",
".. c #E9B43A",
"X. c #F1B635",
"o. c #FAC23A",
"O. c #FBC438",
"+. c #FDC93C",
"@. c #958B79",
"#. c #AB8567",
"$. c #A5906F",
"%. c #BA9868",
"&. c #B08D76",
"*. c #D2904E",
"=. c #E0824E",
"-. c #E38353",
";. c #E79E58",
":. c #D7A955",
">. c #DAAE57",
",. c #E4B34A",
"<. c #E6B558",
"1. c #C1937F",
"2. c #E69B6F",
"3. c #DFBD79",
"4. c #E8BA68",
"5. c #F0B26F",
"6. c #E8A575",
"7. c #E9B974",
"8. c #ECCC4B",
"9. c #F6CE46",
"0. c #F8D248",
"q. c #F6D758",
"w. c #FDE653",
"e. c #FFF45D",
"r. c #EDC16D",
"t. c #E9C379",
"y. c #F3CB7E",
"u. c #F6F168",
"i. c #3A4E80",
"p. c #4B5984",
"a. c #565B84",
"s. c #485C92",
"d. c #546895",
"f. c #786E87",
"g. c #6A7996",
"h. c #526CA1",
"j. c #5576AB",
"k. c #6878AD",
"l. c #737AA8",
"z. c #807780",
"x. c #857C82",
"c. c #887F84",
"v. c #837F95",
"b. c #7D888A",
"n. c #7E839F",
"m. c #7189AD",
"M. c #7E83B2",
"N. c #8A8185",
"B. c #8D848A",
"V. c #9C8E84",
"C. c #90878C",
"Z. c #938A8E",
"A. c #9A918F",
"S. c #878799",
"D. c #918790",
"F. c #958C92",
"G. c #988F95",
"H. c #9A9195",
"J. c #9D949A",
"K. c #9F9898",
"L. c #A69389",
"P. c #A39995",
"I. c #A0979F",
"U. c #A2999E",
"Y. c #B8A488",
"T. c #B1A69C",
"R. c #858AA6",
"E. c #9D96A4",
"W. c #A59CA1",
"Q. c #A89FA5",
"!. c #A892AF",
"~. c #ABA2A6",
"^. c #ADA4AA",
"/. c #ABA8AD",
"(. c #B3A0A2",
"). c #B1A7AD",
"_. c #B2AAAF",
"`. c #BCB2A8",
"'. c #B4AAB1",
"]. c #B9AFB7",
"[. c #BBB6B9",
"{. c #C29A88",
"}. c #CFAE90",
"|. c #E3AA8E",
" X c #E9BC89",
".X c #FABD8A",
"XX c #D5B6AB",
"oX c #C5BDB9",
"OX c #EBC987",
"+X c #F4CC86",
"@X c #EEC992",
"#X c #FACC95",
"$X c #F9D398",
"%X c #C9C0BF",
"&X c #D5C8B3",
"*X c #E3CEAA",
"=X c #F7D6A6",
"-X c #F7E6B6",
";X c #9BA4C5",
":X c #D0C8C7",
">X c #D8D4D5",
",X c #FDDEC4",
"<X c #FEEBC6",
"1X c #D9DEEB",
"2X c #E8E4E8",
"3X c #F2EFEC",
/* pixels */
"c M N.B.Z.A.Z.Z.P.P.U.~.^.^./.).^.).~.Q.~.J.F.J.M = k H.H.Z.J.Z.J.J.W.Q.W.J.J.J.J.J.F.J.f l B.F.x.c.B.B.@.x.B c c 7 k / ",
"H.P.P.U.P.W.U.P.U.U.U.W.U.U.U.W.U.W.U.U.W.K.K.~.B 7 z H.K.K./.W.W.W.!.~.).W.W.W.W.W.J.z.5 g W.W.W.Q.~.~.W.K.K.J.M 9 x A.",
"A.A.A.A.A.A.K.H.Z.Z.A.H.H.H.H.J.G.H.F.Z.G.Z.F.J.b = k B.H.H.W.J.J.G.G.I.I.I.G.F.J.W.J.m > e E.(.F.H.H.H.H.Z.F.H.x , k N.",
"B.N.N.N.Z.Z.B.N.B.B.C.H.U.U.J.K.J.J.H.H.J.G.C.H.z = k C.K.J.K.F.F.C.C.C.D.C.C.C.D.c.J.b 8 > C.U.F.C.Z.A.G.H.H.U.x 1 z N.",
"C.N.f.@.@./ B M ^ ^ / C.Z.C.C.c.N.B.Z.C.J.J.G.K.l 7 k F.W.J.J.F.^ ^ ^ ^ ^ ^ x.B.c.c.J.^ w 5 C.I.B./ M N.C.H.Z.H.z , z Z.",
"N.@.B M M M c z z x c ^ / ^ b z b B B N.F.F.Z.J.k , u x.J.G.F.B.h z m b m n z.B.c.c.J.z 0 0 G.I.Z./ M B.H.H.H.P.k , k N.",
"B c c b B B B M c b n ^ x.^ M n B / / N.F.Z.Z.H.k 7 k N.U.H.Z.N.b b ^ z.x.c.D.J.c.c.D.m 8 0 G.I.B.M c N.H.F.C.H.b 7 z C.",
"M c k l M B @.B M x n B ^ n b z M M M B N.B.N.C.u , f B.W.G.N.M b b ^ c.C.c.C.F.D.c.D.z.r 8 C.I.C.B M C.H.F.C.H.x 5 l N.",
"B N M c M B M M / x.M M M b z z c M M B B N.C.F.k * z F.Z.K.N.B n B x.N.N.c.B.D.D.B.B.h r e B G.Z.N M B.G.F.C.F.b 7 b Z.",
"@.B B B B M M c B x.B N b z z m b c M M B N.C.F.z = x H.F.F.N.B x.x.f.c.x.x.c.c.c.D.J.l 4 0 F.J.Z.@.B N.F.D.B.B.x , k C.",
"G.G.K.H.G.F.B.N.x.x.N.C.F.v.x.x.b.x.N.B.C.F.H.K.k = k G.F.G.C.F.G.F.C.F.J.J.J.J.G.F.J.b > 5 D.v.D.B.N.B.D.F.J.J.B 8 k B.",
"k k k l k f p u f e 8 8 0 e 0 5 7 8 8 8 q 8 q q k 7 k B M M M B ^ M b m l i r 0 e 0 f g 5 = f 7 y y t e r f f g b 8 u b ",
"7 7 7 7 4 4 3 = = = 3 5 3 5 5 3 = = = = = = = = , * , 7 * = 7 * $ % * = > , 4 3 3 > 5 8 8 & 5 = 3 4 4 = 3 3 3 4 8 = 5 8 ",
"4 1 4 7 7 7 8 0 3 8 f e = 5 t r u u u u u u u f y r y e 7 q r 7 e e 0 5 4 4 5 5 3 > > % = $ = 3 3 5 5 5 3 4 3 = = = 3 = ",
"B.Z.F.J.K.K.~.~.'./.I.l 5 f D.E.~.U.W.W.~.~.~.~.^.~.~.U.H.J.K.B.F.F.D.B.C.F.C.B.u 8 x.J.W.W.J.G.F.F.G.J.J.F.F.D.B.B.c.c.",
"G.J.K.W.W.W.W.~.W.E.D.f 4 l G.F.F.A.A.Z.Z.G.G.A.A.G.H.K.P.W./.U.W.W.W.W.W.W.G.c.f O z I.^./.~./.'./.^.).^.W.J.J.J.E.G.J.",
"G.G.J.J.J.J.J.G.G.W.^ t 4 l N.F.J.K.K.H.H.H.A.>X3X[.Z.~.%XW.A.F.N.C.Z.B.Z.C.J.B u = f K.U.K.~.J.D.J.J.W.E.J.J.J.F.J.G.F.",
"G.J.G.J.F.G.J.W.J.W.x.u 5 m B.F.Z.A.A.A.A.H.P.*XOX&X`.P.Y.U.T.%X~.Z.Z.N.B.C.~.N.u = u J.~.J.J.B.c.c.c.D.F.F.c.c.F.J.G.F.",
"c.G.D.v.c.c.G.W.J.W.c.u 4 l B.F.A.A.H.K.K.K.`.T.7. X3.,.8.Y.A.K.J.C.C.B N.N.H.B u = u H.~.J.H.N.n n z.x.c.z.z.z.c.F.G.F.",
"G.c.c.c.z.c.c.G.J.J.c.u > l B.F.F.Z.Z.Z.F.F.:XL.$XOX$Xt.t.+X>.H.Z.N.B./ B N.Z.z k * y J.~.K.F.B m ^ z.x.z.^ n n x.D.F.C.",
"G.c.x.^ n ^ x.C.F.E.c.f 3 h D.F.N.N.B.C.H.H.oXL.|.|.7.<X<.+X>.H.C.N.N.N.N.N.C.l u = u K.~.J.B.B ^ x.c.D.c.B n z.z.D.D.D.",
"c.z.j h f h m ^ D.F.c.f & h D.D.M B N.N.C.F.:XH.d.v.:.t.r.>.t.4.C.N./ / x.N.Z.b k = u K.~.C.N.B ^ c.D.D.c.n n ^ x.D.D.c.",
"z.n h g f f h M c.C.c.h = f c.x.p l x n n n /.N 6 M.%.4.=X<.y.$X<.N.x./ N.N.F.M u = u K.K.D.B.N.c.c.C.F.D.x.^ z.c.D.D.B.",
"x.^ z.^ ^ b n z.z.B.C.m 3 f x.B k x M n z l /.v i.m.%.@X4.5.4.+XOXB.B.B.C.N.F.b y * u U.U.F.G.G.G.c.F.I.W.F.c.C.F.J.J.D.",
"z z z g i t r t g i z h 8 8 f f r u 5 5 7 8 r J.p.j.b.>.4.6.=X;.>.p p k x z f u k , z M u p p f z h f u r r 8 7 e t f f ",
"3 3 5 5 5 5 5 8 3 > 0 e 4 3 5 4 3 4 = 8 7 4 5 B d j.g.*.5.,X=X2.#.> : > = = = % 7 O 7 8 = 4 , 7 5 : 4 7 5 3 3 0 5 5 4 4 ",
"5 5 5 5 > = = = 5 = 4 , * > 5 * 3 3 7 7 = & 8 l d k.v =.#X-X2.2.L.7 7 7 1 4 7 8 8 * 0 7 = 7 4 7 > = 3 3 4 = 3 3 3 3 3 > ",
"M ^ ^ z.z.x.z.x.B./ / f.B z.x.B @.f.f.z 8 0 B.T.n.k.f.) .X@X-..X~ f.N.x.x.x.x.N.f.@.C./ N.C.B B b M b f b l u & f b n b ",
"D.G.J.W.Q.Q.^.Q.W.J.W.^./.~.~.J.D.B.B.k , , Z._.'.h.f.E ) 6..X-.v G.E.U.K.~.W.~.~.~./.~.^.).U.W.G.E.F.B.G.f.z * B G.W.J.",
"c.c.D.F.G.G.G.G.F.J.J.J.G.F.F.F.F.B.B.f 7 , ^ Z.P.a.$.} ( ( =.E B Z.J.~.~.~.K.W.W.~.K.K.W.U.K.K.J.J.G.J.E.l u * b J.W.J.",
"c.D.D.J.J.W.W.G.K.U.E.G.F.F.G.J.C.C.B.u q = x / W.H } O.*.1.|.Y.@.D.K.~.J.H.G.F.J.G.J.J.J.J.J.J.J.G.D.G.W.l f 4 b I.Q.Z.",
"c.c.D.D.D.D.c.c.f.B.B.F.J.G.F.K.H.K.A.u 8 % x F.c.a P | 8.#.l.m.N.F.U.U.C.N.B f.@.N.C.J.G.B.F.B.B.B.@.f.J.l l * z H.W.H.",
"c.B.C.B.B.N.M z k x M B N.Z.A.G.H.H.Z.k , * c F.C.b J D T ..~ b.$.@.K.Z.B B @.B N.N.C.K.A.B.b.M N.N./ / Z.c p 1 g Z.H.U.",
"C.B.c.c.N.x.B / x x c B N.A.G.H.A.H.B.f 4 * x F.F.M W V A R >.*.M b.W.B.N.B N.N.C.F.C.N.@.B M b B / M / C.c i = x H.H.U.",
"Z.N./ c.@.B / C./ B c B @.Z.Z.C.C.J.N.u 7 * x G.C.M x < ; : : ; M B.K.N.B B @.Z.H.K.F.N.B x./ / M M n @.C.c u , x H.C.A.",
"C./ N.N.B.N.N.x.N.N.B / B N.C.N.B.J.x.y 7 = x H.Z.B / b   - G G B F.K.N.N.M M Z.B.A.G.C.N.@./ M B B B f.Z.c u , M A./ c.",
"N.B.B.N.C.C.N.c / / / / N.N.N.C.N.H.c.i 8 = l H.~.B.M . C ] X.+.@.A.U.N.Z.N./ B.Z.Z.A.H.F.N.B / N.B.N.@.C.x u > ^ A.N.N.",
"N.V.N./ B @.B x c M / B B B B @.N.F.B.p 7 * b oXF.>X(.F U 0.9.0.u.B.K.N.B.@.B B B.@.N.Z.B./ B N.f.c.@.f.B.z u 1 M Z./ N.",
"N.N.N./ B B M M ^ ^ / / / x.b./ C.H.F.z 8 * x Z.F.N.XXY ` e.8...e.@.~.G.D.D.B.N.N.B f.N.N.c.@.N.@.N.B.B.C.x p 7 M Z./ c.",
"N.B.C.C.N.M / N.N./ x.N.B.F.H.H.F.H.J.n 8 * c Z.G.J.! S +.e.' ' w.L.~.~.J.U./.~.W.~.W.K.J.K.E.G.H.H.J.Z.H.x y = M H.x.x.",
"b / x k z l k k i p f l b M b b z b x.z 8 = M C.J.F.F L o.q.Y ` +.Y.H.B.x x x x b b M M M M B M B / B.N./ / l & / Z.x.F.",
"0 e 0 8 7 4 , = , , 4 4 7 7 4 , 8 1 8 8 q q i 7 8 _ S } X.} S ..w.Q 9 4 > , > 5 , = 4 7 7 7 7 4 > > 7 7 8 y r * p h e u ",
", $ * , = * 5 5 7 , , 4 , , = * $ , , @ @ @ , = * K D | +.] D I 9.{ % % , , $ 4 = * & * * & * $ = & $ + $ * 3 $ * > O + ",
"7 = l B.B.x.c.B / B M M B B B M B / B M N.z i = {.Z P o.w.[ V U O.,.z g z u > r x l l l z l k z m z z m b b b b n n z h ",
"u 5 c./.].).'.~.).).).^.).'.).).^.~.W.~.[.Z.k = {.A P +.q.}.A L `  .%XU.J.m 0 b D.F.G.G.U.E.K.~.W.J.W.W.W.W.I.!.G.F.G.F.",
"l 8 B C.W.!.'.).J.J.J.F.F.F.F.F.J.J.H.Z.b.y r 0 E.w ! R 3.~.&.J J L.:XC.z.e = l D.W.W.J.W.W.E.W.W.W.J.J.I.G.Z.J.W.J.W.c.",
"h 8 x.G.).Q.W.J.W.W.W.W.J.E.J.J.G.Z.H.Z.B p u b g.s.R.{.`.J._.s d.;X2X^ B r 5 m z.J.J.F.G.G.B.F.F.J.F.D.G.G.D.G.c.z.C.B ",
"h 5 x.B.Q.W.J.D.D.D.F.F.F.F.F.F.G.J.U.Z.M p f F.v n.6 ~.~.N.[.a.p.M.1XW./ i 7 l b J.W.F.I.I.G.E.F.J.F.D.G.D.x.c.x.z.J.x.",
"u 8 / C./.J.B./ B.B.C.Z.B.Z.C.F.F.K.J.B.B u p [.9 j # /.D.B /.v 1 J.!.2XZ.u * b M H.J.J.H.G.J.J.J.D.C.c.F.D.c.c.c.c.F.z.",
"u 0 B B.W.H.N.B N.N.N.c.x.c.B.B.Z.J.K.C.N.u u N 2 2 e J.Z.N.N.S.# X o f.:Xu * M b C.F.G.G.J.E.F.D.c.c.c.c.c.c.c.c.z.D.z.",
"y 8 / B.W.G.c.M / / / / x.x.x.N.B.G.H.G.N.p u c o $ W.B.N.x.B H./.n.g p ^.i > c B G.J.G.J.G.G.c.^ z.z.z.x.z.c.c.c.c.F.^ ",
"y 8 B N.U.Z./ M b M / N.N.N.c.B B.G.H.G.B.k u = p c.F.N.N.B M B x.B.Z.N.M p > b / J.G.F.J.F.B.B n n M z.z.z.z.c.C.c.F.x.",
"0 7 B c.J.N.M l k l b B N.B.N.x.N.C.F.C.N.f u = g N.F.N.c./ n B @.C.C.N.M f , x B F.C.B.F.C.N.M n n M n n ^ z.z.c.c.F.x.",
"q 8 x.c.F.B l p k k k x M c.N.c.f.N.N.B.N.u p = g B.G.N.x.x.^ x.f.B.N.N.^ f , x ^ F.F.B.B.c.x.x n n ^ M n z.^ n z.B c.f.",
"e 7 B x.F.B l f x k p l b B x.x.@.B x.N.f.p u 4 l C.F.c.x.c.x.N.N.N.x.N./ p , c x.W.J.C.N.x.f.M n ^ ^ n b n n n z.B c.n ",
"r 0 x.x.C.B x x b l k l M f.B N B f.x.N.N.f p = b D.F.z.B c.x.B.C.N.@.N.B g , x B J.G.C.c.f.x.B m ^ z.^ m b n z.x.z.B.B ",
"u 5 x.B.B.F.F.x.N B x.x.x.B.B.D.B.F.B.B.c.b i = m J.^.G.x.c.D.B.C.B.K.B.x.u = b D.W.E.F.Z.G.F.C.c.D.G.D.B B x.x.x.B B B ",
"g e N.M l k l l h l l l l b b b x M l l h f u 4 b M n b b n n b B k g p M z 7 l B B b x B f.m v z z n b l l m l b b n B ",
"e 8 k r 7 4 , 0 4 8 5 5 5 7 8 7 8 e 7 7 7 7 8 4 e 5 = 3 8 8 8 8 0 7 = 1 r r 4 u e 4 & 5 e 8 3 5 5 5 5 5 5 5 8 5 0 e e u ",
"5 = 3 & = 3 = 5 3 4 4 4 3 3 3 3 * 3 = = = & 3 & = % & 3 3 = * 3 O * 3 * , = $ 7 3 = & 3 7 & & 5 > > 3 5 > 4 4 > = & & = "
};
