/* XPM */
static char *cb2159247fdb4bffd5d7055ede9947b4TSQAnIh7cukxDmpn[] = {
/* columns rows colors chars-per-pixel */
"60 60 226 2 ",
"   c #090A0B",
".  c #0F1717",
"X  c #111414",
"o  c #161A1C",
"O  c #181B1D",
"+  c #291C14",
"@  c #2D211A",
"#  c #1D2527",
"$  c #112929",
"%  c #112E2E",
"&  c #272729",
"*  c #262B2E",
"=  c #392B25",
"-  c #342A29",
";  c #272E31",
":  c #292E31",
">  c #382E36",
",  c #293539",
"<  c #3A3235",
"1  c #3C333B",
"2  c #4F1B00",
"3  c #511B00",
"4  c #591E00",
"5  c #582B12",
"6  c #742B03",
"7  c #792E07",
"8  c #79310B",
"9  c #7B310A",
"0  c #6C3313",
"q  c #4D3626",
"w  c #40353D",
"e  c #41383D",
"r  c #584A3F",
"t  c #6C4F38",
"y  c #2D3F40",
"u  c #443A41",
"i  c #493D47",
"p  c #174D4D",
"a  c #195858",
"s  c #195F5F",
"d  c #274748",
"f  c #2F474A",
"g  c #3C5357",
"h  c #19605F",
"j  c #1F6060",
"k  c #396C6E",
"l  c #3A787A",
"z  c #4A4146",
"x  c #474548",
"c  c #4C434A",
"v  c #53494F",
"b  c #554C53",
"n  c #584F56",
"m  c #515853",
"M  c #5D5659",
"N  c #5D545B",
"B  c #6A5647",
"V  c #6F5648",
"C  c #62585D",
"Z  c #71665A",
"A  c #435C61",
"S  c #645B61",
"D  c #685F65",
"F  c #695F68",
"G  c #476568",
"H  c #556667",
"J  c #527579",
"K  c #646061",
"L  c #6A6165",
"P  c #6C6369",
"I  c #6B6A69",
"U  c #70666C",
"Y  c #72696D",
"T  c #6C6F70",
"R  c #756B72",
"E  c #776D75",
"W  c #677B77",
"Q  c #7A7175",
"!  c #7D747A",
"~  c #797B7C",
"^  c #83350B",
"/  c #8B390E",
"(  c #923B0E",
")  c #853A14",
"_  c #853B16",
"`  c #8D3D15",
"'  c #943F11",
"]  c #8C451C",
"[  c #974419",
"{  c #A44A1B",
"}  c #A94C1C",
"|  c #AF511F",
" . c #B1521F",
".. c #874B2C",
"X. c #964925",
"o. c #954A26",
"O. c #9A4B25",
"+. c #9D512B",
"@. c #995737",
"#. c #A54D25",
"$. c #A84F26",
"%. c #A85327",
"&. c #B75726",
"*. c #A55633",
"=. c #AA5B36",
"-. c #B45C34",
";. c #B95C33",
":. c #AD6F3C",
">. c #B5613E",
",. c #BA633C",
"<. c #C25E2B",
"1. c #C6612C",
"2. c #CE642E",
"3. c #D0652E",
"4. c #CA6635",
"5. c #C4663D",
"6. c #CA673D",
"7. c #D76C36",
"8. c #DA713C",
"9. c #E6743A",
"0. c #E9773C",
"q. c #925E46",
"w. c #9C6D4E",
"e. c #A76648",
"r. c #B96845",
"t. c #AB7254",
"y. c #B8775B",
"u. c #977364",
"i. c #80777D",
"p. c #827A7D",
"a. c #A77B68",
"s. c #C46B45",
"d. c #CC6D45",
"f. c #D16F44",
"g. c #C7764D",
"h. c #D37246",
"j. c #D97344",
"k. c #D67A4B",
"l. c #C57A58",
"z. c #E27746",
"x. c #ED7C46",
"c. c #E27948",
"v. c #E97B48",
"b. c #F37E44",
"n. c #FA7F41",
"m. c #C37F61",
"M. c #578A79",
"N. c #93837E",
"B. c #B2836F",
"V. c #D18B55",
"C. c #FF8345",
"Z. c #FA8648",
"A. c #F08B4A",
"S. c #FF9452",
"D. c #DDA35E",
"F. c #FAA45E",
"G. c #C18165",
"H. c #F9B56B",
"J. c #F0B870",
"K. c #F6BF73",
"L. c #F9BF73",
"P. c #FAC074",
"I. c #397E80",
"U. c #597A81",
"Y. c #807780",
"T. c #847B81",
"R. c #887F84",
"E. c #368485",
"W. c #319292",
"Q. c #38B2B2",
"!. c #5D8289",
"~. c #528E92",
"^. c #668589",
"/. c #6D898B",
"(. c #639395",
"). c #6D949C",
"_. c #47A49C",
"`. c #6B9BA3",
"'. c #7099A1",
"]. c #54ADB0",
"[. c #49B8BB",
"{. c #67A5AB",
"}. c #69A4AB",
"|. c #65ACB2",
" X c #68ABB2",
".X c #64B4BA",
"XX c #62B7BC",
"oX c #53BEC2",
"OX c #61BCC1",
"+X c #3EC8C8",
"@X c #47CACB",
"#X c #5BC6CA",
"$X c #5EC5CA",
"%X c #5BCED2",
"&X c #44DEDE",
"*X c #4DD8D9",
"=X c #59D6D8",
"-X c #59D6D9",
";X c #60C3C8",
":X c #56DFE2",
">X c #4DEAEB",
",X c #56E2E4",
"<X c #52EAEB",
"1X c #4FF4F5",
"2X c #868687",
"3X c #8B8286",
"4X c #8D848A",
"5X c #90878C",
"6X c #978A8B",
"7X c #938A8E",
"8X c #918790",
"9X c #958C92",
"0X c #988F95",
"qX c #9A9295",
"wX c #9B9598",
"eX c #9D949A",
"rX c #AC948D",
"tX c #A79898",
"yX c #A29A9D",
"uX c #9C9FA2",
"iX c #A49CA1",
"pX c #A89FA5",
"aX c #A9A3A5",
"sX c #ADA5A9",
"dX c #B1A9AE",
"fX c #B6B4B4",
/* pixels */
"R Q N.2X7X6X6X6XyXtXwXaXsXsXsXdXsXdXsXpXaXeX9XeXQ e L qXqX7XeX5XeXyXyXiXiXeXeXeXeXeX0X0XC F 8X8XT.R.3X3XN.p.i.R Y z Z p.",
"qXtXyXyXyXyXyXuXyXyXyXaXyXyXyXiXyXiXyXyXiXyXyXaXi.i Y qXeXeXsXiXpXyXiXsXpXpXiXiXiXiXeXY.i F iXiXiXpXsXsXiXyXyXyXQ b Y 7X",
"6X9XqXqXqXwXwXqX6X7X6X0XqX0X0XqX0X0X9X7X0X5X7XeXY < L 5XyXwXsXsXsXyXwXuXiXeX0X0XeXiXeXU u v eXsX0X0XqXqXqX6X6XqXI e L 3X",
"5XN.N.2X6X6X2XN.4X4X7XrXyXyXyXeXqXyX0X0XqXqXyXyX5XH H H H G H H m B w.t.a.u.u.u.a.eXeXR i u 8XiX9X5X7X0X9XqXqXwXY z L 3X",
"6X3XN.N.N.~ ~ Q i.i.p.p.9X5XR.R.R.5X5XyXiXJ G k E.+X@X[.[.[.@X_.t &.9.A.V.] { 7.*.q.rXR.C i 8XeX4X~ Q N.6X6X6XwXU w U 6X",
"N.~ Q i.Q Q R Z U U i.i.p.! E R T.3X^.l E.[.#X$X#X%X%X|.`.(.Z =.7.S.F.F.g.) &.b.r.7 [ t.6Xi eXeX6Xp.Q 3XwXeXwXwXL w L 3X",
"~ R Y Y Q p.p.Q Y Y i.p.T.p.T H ~.W.+X<X;X).'.'.).(.&X|.I ..2.n.Z.F.H.Z.d.) } Z.6.^ 2.d.@.u.iXeX4XQ R 3X0X0X7X0XR z U 8X",
"Q Y L I Q p.p.p.i.R R p.U.U.+X[.].|.|..X%X.X~.J G % % * @ ( C.C.F.V.{ b.s.)  .b.6.^ 2.z.*.7 A yX5X! ~ 5XqX7X5XqXR i P 4X",
"p.Q Q Q Q Q Q Q p.p.! J _.%X=XOX`.).).(.G W.d o O & * @ 0 &.C.C.H.V./ b.6.]  .b.6.9 2.z.=.0 M.I.^.6XQ 4XeX9X5X5XR c R 7X",
"p.p.p.p.p.! Q R ! p.~.XX}.).`.OX#Xk y , O O # : : : ; 5 &.Z.C.Z.H.g.[ 0.j./ } b.6.^ 2.z.=.6 6 /.].E.~ 3X5X4X4X5XY e L 5X",
"9X9X6XqXqX7X5X4X! +XXX(.).).).U.d % # & ; : : : : : - 0 &.C.Z.H.V.*.' b.j.` } Z.6.9 2.x.-.6 ^ Z {.$XQ.m 9X0XwXeX! c D 4X",
"L L L I L K M K E.=X%X$X}.U.A # & ; : : : : : : : - 5 1.C.C.Z.L.V.O.' b.j.` &.v.,.9 2.A.;.^ 7.[ W =X@Xs T S D P Q c M R ",
"z c z z e e e W.*X).`.oXJ , O : ; : : : : : : : : : 6 2.C.C.Z.P.V.X.' b.j.`  .x.>.9 3.b.;.^ 0.[ B ).{.>Xp M 1 e z 1 u i ",
"u u z z z v W.[.{.).).^., . : ; ; ; : : : : : ; & - 0 2.C.C.S.H.V.X.' b.j.`  .b.>.9 3.x.;.^ 9.{ V (.).|.[.k m 1 1 1 u 1 ",
"6X6X0XwXyXd @X#X|.|.(.; O ; ; ; : : : : : : : : = 0 7.n.0.S.H.V.d.$.' b.f.` $.b.d.9 3.x.;.^ 0.6.X.V |..X=XW.J 6X4X4XR.R.",
"9XqXwXyXf &X|.XX%X].A # # ; ; ; : : : : : : : : = 9 0.C.C.S.K.g.d.#.' b.s._  .b.6.^ 2.x.;.^ 0.j.[ t #X%X{.#XQ.u eXeX0XeX",
"0X0XwXwX$ <X}.).).J   & : : : : : : : : : : : ; = 9 9.C.C.S.L.g.d.%.' b.s._  .b.d.^ 3.v.;.^ 0.z.#.5 y ^.).%XQ.O 8XeX0X9X",
"0X0XwXqXp *X}.).(.A X & : : : : : : : : : : : ; = 9 9.C.0.A.D.>.-.` ' b.s._  .x.;.9 3.v.-.^ 9.z.#.3 X U.).;XQ.d eXeXeX9X",
"8X8XN.j >X$XoXOXJ . & ; : : : : : : : : : : : ; = 9 9.7.&.| %.| #.' ^ 1.*.^  .x.>.9 3.c.*.^ z.h.X.3 . ].OXOX%X@Xy eX0X8X",
"8X8XY h <X#X$X$Xl   * : : : : : : : : : : : : ; = 7 9.{ | Z.j.j.j.d.&.&.&./ ' $.X.7 2.j.*.^ 0.h.X.3 . ].$XOX=X&X$ eX9X5X",
"9XR.! a <X`.).).A   * ; : : : : : : : : : : : ; = 8 9.} | 8.>.>.a.B.k.g.g.f.7.4.<.' ' #.` ^ 7.5.` 3 X U.).). X&X$ eX8X5X",
"4XU.L j <X).).).A   * ; : : : : : : : : : : : ; = 8 9.n.2.[ 9 9 X.*.*.=.B.y.s.g.l.j.8.8.2.' } { ` 4 + U.).)..X&X$ iX5X4X",
"T.E D j 1X#X$X$Xl   * ; : : : : : : : : : : : ; = 7 9.C.Z.x.:.O._ 6 6 7 X.X.X.@.a.r.s.y.m.j.j.j.s.{ 0 .X$X$X=X&X$ pX8XR.",
"T.p.P a 1XXXXXXXl   * ; : : : : : : : : : : : ; = 8 9.C.C.S.P.g.;.` / <.^ 6 6 9 _ _ _ q.t.r.r.a.m.1.0 }.XXXX%X&X$ dX0X9X",
"U U L j >X`.).).A   ; ; ; : : : : : : : : : : ; = 8 0.C.C.S.P.g.d.#.' b.r.^ { 2.^ 6 ^ ^ 9 9 7 @.e.X.5 /.).). X&X$ sXS S ",
"1 u M j >X`.).).A   * ; : : : : : : : : : : : ; = 7 9.C.C.S.L.V.s.X.' b.s._ &.x.-.9 3.4._ 6 { / 6 4 X !.'.)..X&X$ fXu u ",
"u i M s 1X%X%X%XE.  * ; : : : : : : : : : : : ; = 7 9.C.C.S.L.k.s.X.( b.s._ &.b.r.9 3.c.*.^ 0.<._ 3 . [.%X%X=X&X$ fXu 1 ",
"! Y.L s <XXX|.|.G   * ; : : : : : : : : : : : ; = 8 9.C.C.S.P.r.V t ] b.s._ } b.s.^ 3.c.*.^ z.h.X.3 X (.|. X$X&X$ fXE E ",
"4X9XI h <X`.).).A   ; ; : : : : : : : : : : : ; = 7 9.C.C.S.P.M p.Q V b.s._  .b.d.^ <.v.*./ 0.j.O.2 X ^.).)..X&X$ fXpXyX",
"3X4XK h <X}.).`.A   * ; : : : : : : : : : : : ; = 7 9.C.C.S.P.m /.E t A.s._  .n.6.^ 3.z.*.^ 0.z.#.2 X !.`.`..X&X$ fXiX0X",
"3X8XK h 1X=X=X=XE.  : : : : : : : : : : : : ; ; = 9 9.C.C.S.P.w.C r ] b.h.`  .b.6.^ 3.v.-.^ 0.z.#.2 o [.=X=X:X&X$ fXpX7X",
"R.3XK j <X|.}. XG   * : : : : : : : : : : : ; ; = 7 9.C.C.A.P.V.B q ' b.j.' $.b.5.^ 3.x.;.^ 0.z.#.2 X ~.}.}.OX&X$ fXiX0X",
"R.4XK h <X`.).).A   * : : : : : : : : : : : : : = 8 9.C.C.S.P.j.t q [ 0.j.`  .x.>.^ 3.A.;.^ 0.z.O.3 X U.'.'..X&X$ fX0XiX",
"4X4XK h <X{.`.}.G   * : : : : : : : : : : : : ; = 8 9.C.C.S.P.V.B q [ Z.j.`  .x.>.9 3.z.*.^ 0.h.X.2 X U.`.`.OX&X$ fX0XiX",
"4X3XK s 1X=X=X=XE.  & : ; : : : : : : : : : : ; = 9 0.C.C.S.P.r.B q ( 0.j.` | b.6.^ 2.z.*.^ 0.z.#.2 o [.=X=X,X&X$ fX5X7X",
"4X3XK s <X{.`.}.k   & : : : : : : : : : : : : : = 8 9.C.A.S.P.w.Z v ] C.j.` | b.6.^ 2.z.*.^ 0.z.#.2 X (.`.`.OX&X$ fXR.R.",
"4X4XK h >X).).).A   * : : : : : : : : : : : : ; = 7 9.C.C.S.P.m /.~ B b.d.` | Z.6.^ 3.v.;./ 9.c.#.2 X U.).'..X&X$ fXR.3X",
"3X7XK h <X|.{. XG   * : : : : : : : : : : : : ; = 8 9.C.C.S.P.Z ~ Y t b.s.) | Z.5.^ 3.x.;.^ 0.z.#.3 X ~.}.}.OX&X$ fXp.3X",
"3X3XK h 1X=X=X=XE.  * : : : : : : : : : : : : ; = 8 9.C.C.S.P.r.q.t ` v.s.) | x.>.9 3.v.-./ 0.h.X.2 . oX-X%X:X&X$ fXp.R.",
"3X7XK h <X{.).).A   * : : : : : : : : : : : : ; = 7 0.C.C.S.P.g.d.%.( Z.d.`  .x.>.^ 3.c.*.^ 0.d.X.3 X U.`.'..X&X$ fXT.T.",
"R p.H j <X`.).).A   * : : : : : : : : : : : : ; = 7 9.C.C.S.P.k.f.%.( b.j.` | x.>.9 3.z.+.^ 7.&.` 6 5 U.).)..X&X* fXR.0X",
"v b C j 1XXX|.|.k   * : : : : : : : : : : : : ; = 7 0.C.C.S.P.j.s.O.( b.j.` | x.*.7 &.-.[ [ { 2.j.<.) 0 /. X$X&X% fXi i ",
"1 < K j 1X%X%X%Xl   ; : : : : : : : : : : : : ; = 9 9.C.C.S.P.V.s.X.( Z.$.^ [ &.&.#.&.4.j.j.j.l.l.r.-.9 (.$X-X&X$ fX- > ",
"z 1 M j <X'.).`.A   ; ; : : : : : : : : : : : : = 8 9.C.C.A.J.g.#.` ^ $.<.1.<.5.h.h.h.l.a.r.r.t.q._ ..P /.).XX&X$ fXU F ",
"M c K j ,X`.).).A   * : : : : : : : : : : : : ; = 8 9.0.1.} %.O.<.7.7.s.l.g.d.l.B.e.=.e.=.9 9 9 7 3 + U.).).OX&X$ fXeX8X",
"P c H j 1XOXXXOXJ   * : : : : : : : : : : : : ; = 7 9.}  .0.8.8.l.y.s.s.B.e.+.*.@.9 7 6 6 8 [ X.^ 3 . ].OXOXOX&X$ fXeXR.",
"L c C s 1X$X#X#Xl   * : : : : : : : : : : : : ; = 7 9.{  .x.,.,.a.e.X.] ` 9 6 6 6 6 } &.] ^ 9.j.O.3 o ].OXOX%X&X$ fXR.Y.",
"L c K s >X`.).).A   * : : : : : : : : : : : : ; = 8 9.9.1.[ _ ^ ) 7 6 ^ 7 6 { 3.-.9 3.x.;.^ 0.c.#.3 X U.'.).OX&X$ fXiXR.",
"C z H s <X}.).`.A   ; ; ; : * : : : : : : : : : = 9 0.Z.C.7.O.] ) 9 ( 9.s.)  .n.6.^ 6.x.<.^ x.f.O.3 X U.'.'.oX&X* fX0XT.",
"C c 0XW l g g g :   o O O o O O O O O O O O O O @ 9 9.C.C.S.H.V.s.#.( C.f.`  .b.6.^ 2.v.;.^ x.f.X.4   i A x A I.U.dXR.R.",
"N c p.wXaXeX0X7X0X7X6X0X9X9X7X0XwXeXaXwX0X! ~ I N.9 9.C.C.S.L.g.f.%.( b.j.`  .x.>.^ 3.z.*.^ 7.5.a.tXiXeXpXsXiXsXeXR.R.Y.",
"b c p.3XiX5Xp.Q R Q p.p.4X3X3Xp.3X9X0X0X4XS C < p._ 9.C.C.S.L.g.d.#.' b.j.`  .x.>.^ 3.z.*.@.e.T.R.Y.Y.Y.Y.U.Y.T.R.R.eXT.",
"v x ! 3XwX3XR I F U R i.R.R.R.R.3X8X9X9X3XC C 1 N.9 0.C.Z.S.J.V.d.#.' b.f.`  .b.6.^ #.s.rXR.R.F E E i.E Y.i.i.i.R.Y.R.T.",
"b c ! 3X0X! P C D D D U i.R.R.R.Y.3X3X4XR.C C e 3X9 0.Z.C.S.P.g.s.#.' b.s._ } 8.-.tXT.pXR.R.i.i.i.E E E Y.Y.Y.R Y.i.R.T.",
"b c Y.Y.5X! P D U F C F i.i.R.T.! Y.T.R.Y.C M w 3X_ 9.C.C.S.P.g.r.X.' b.;.X.@.u.R.sXpXR.R.R.T.i.E i.Y.i.E E R i.Y.Y.R.i.",
"n c p.T.8X! R P R U F F R i.U.! ! Y.T.R.T.S C w 6X9 9.C.C.S.P.g.r.X.^ 4.t.p.v i.R.pXR.R.R.R.R.U.U i.Y.i.U U R i.R.Y.R.Y.",
"C u T.4X4X9X0XT.! Y.Y.T.T.4X4X4X4X9X4X4XR.E N 1 3X_ 9.0.n.S.J.r.*.e.rXrX7XM 1 R 4XiXiX4X3XeX0X3XR.R.eXR.Y.Y.Y.Y.Y.Y.Y.i.",
"D b R.! L D F F F F P P P R R E R E P P L S N i E qXe.-.=.=.:.@.rXp.L S Q P z P ! ! E E Y.U.U.! F R i.Y.F F U U E E R i.",
"b i L n c u u v u i i i i i i c c b i i i i c u n i n C D P P L b z u 1 n n u N b u > i b c u i u u i i u i i u i i i S ",
"u 1 u 1 1 w 1 i u u u u 1 u u w 1 u 1 1 1 > 1 > 1 > < w u 1 1 w - < 1 < 1 1 > c 1 > > u u 1 > i u u u u u u u u u > > u "
};
