/* XPM */
static char *a34293a2d7484d31b460998eacd9a2c8DkgEvGCdbyIlCji9[] = {
/* columns rows colors chars-per-pixel */
"60 60 252 2 ",
"   c #020101",
".  c #0A0406",
"X  c #04000C",
"o  c #0C0B0B",
"O  c #130203",
"+  c #1C0100",
"@  c #160708",
"#  c #13130C",
"$  c #090516",
"%  c #170816",
"&  c #141413",
"*  c #18141A",
"=  c #1C1B1B",
"-  c #230101",
";  c #290507",
":  c #380702",
">  c #271706",
",  c #361706",
"<  c #290816",
"1  c #370817",
"2  c #291816",
"3  c #211D1D",
"4  c #1C280F",
"5  c #26221B",
"6  c #36241C",
"7  c #090327",
"8  c #180727",
"9  c #1D1424",
"0  c #0B063A",
"q  c #171132",
"w  c #2F1328",
"e  c #2A1B28",
"r  c #27083B",
"t  c #251936",
"y  c #1C2334",
"u  c #252424",
"i  c #2C2628",
"p  c #35292A",
"a  c #37352D",
"s  c #2B2837",
"d  c #342B33",
"f  c #382E34",
"g  c #362738",
"h  c #382E38",
"j  c #343434",
"k  c #3A3235",
"l  c #3C343A",
"z  c #3B3939",
"x  c #490A03",
"c  c #570900",
"v  c #451604",
"b  c #581A05",
"n  c #471A18",
"m  c #511213",
"M  c #6D1105",
"N  c #4F2B0A",
"B  c #562809",
"V  c #4A2519",
"C  c #5B2814",
"Z  c #662607",
"A  c #742C0B",
"S  c #653805",
"D  c #773403",
"F  c #642B17",
"G  c #541727",
"H  c #442A27",
"J  c #5A2B2E",
"K  c #473529",
"L  c #5C3825",
"P  c #452937",
"I  c #483835",
"U  c #40353C",
"Y  c #41383D",
"T  c #533C39",
"R  c #6E332D",
"E  c #724D1E",
"W  c #584229",
"Q  c #564735",
"!  c #655328",
"~  c #6F522C",
"^  c #654537",
"/  c #784638",
"(  c #131043",
")  c #1A1947",
"_  c #270945",
"`  c #2B1844",
"'  c #371943",
"]  c #38274A",
"[  c #3A364A",
"{  c #362B51",
"}  c #3B336E",
"|  c #461847",
" . c #443B42",
".. c #433A45",
"X. c #493D47",
"o. c #4F3350",
"O. c #453859",
"+. c #533468",
"@. c #454244",
"#. c #4A4146",
"$. c #4C434A",
"%. c #494748",
"&. c #4E494D",
"*. c #564845",
"=. c #534A4E",
"-. c #54574C",
";. c #494B55",
":. c #544756",
">. c #554B53",
",. c #584E56",
"<. c #5A4F58",
"1. c #585357",
"2. c #5D545B",
"3. c #724B4B",
"4. c #745341",
"5. c #6C5C56",
"6. c #60565D",
"7. c #62595E",
"8. c #705A58",
"9. c #5C625E",
"0. c #6A6359",
"q. c #7B6A53",
"w. c #777253",
"e. c #574663",
"r. c #4D5464",
"t. c #5C5861",
"y. c #645B61",
"u. c #685E64",
"i. c #615C68",
"p. c #695F68",
"a. c #6F5678",
"s. c #5C686E",
"d. c #6A6165",
"f. c #64616A",
"g. c #6C636A",
"h. c #70666C",
"j. c #72696C",
"k. c #7B6A6A",
"l. c #797369",
"z. c #6B6972",
"x. c #706670",
"c. c #756B72",
"v. c #786E76",
"b. c #7A7175",
"n. c #7D747A",
"m. c #7A777D",
"M. c #8C3300",
"N. c #8E3E00",
"B. c #953A00",
"V. c #8A3012",
"C. c #863A2C",
"Z. c #9B4B04",
"A. c #8E5316",
"S. c #A74C05",
"D. c #AD5411",
"F. c #AC6D0E",
"G. c #B96A19",
"H. c #924E2D",
"J. c #99592B",
"K. c #885435",
"L. c #AE5A2F",
"P. c #93692B",
"I. c #AE6A2C",
"U. c #B77933",
"Y. c #D57705",
"T. c #C56B14",
"R. c #CB702C",
"E. c #8A584C",
"W. c #AA4B49",
"Q. c #906E4C",
"!. c #8C7158",
"~. c #B1724C",
"^. c #876A6A",
"/. c #99756B",
"(. c #836D78",
"). c #8B7574",
"_. c #80777D",
"`. c #81797D",
"'. c #977C7A",
"]. c #D27B4F",
"[. c #E37C4C",
"{. c #C37A67",
"}. c #BF8933",
"|. c #EC8B19",
" X c #D28830",
".X c #EE9031",
"XX c #F9A829",
"oX c #F8AD34",
"OX c #FBB337",
"+X c #FFC53C",
"@X c #B08358",
"#X c #908A7B",
"$X c #A6896B",
"%X c #B19573",
"&X c #CF8B51",
"*X c #ED9C56",
"=X c #F7AF4B",
"-X c #FFB555",
";X c #D68D6D",
":X c #E78F69",
">X c #C8A57B",
",X c #F5AF6A",
"<X c #FFC54E",
"1X c #FFC765",
"2X c #705C91",
"3X c #6D6385",
"4X c #7B7486",
"5X c #857C82",
"6X c #887F84",
"7X c #8F738A",
"8X c #827E8C",
"9X c #8B8186",
"0X c #8A8784",
"qX c #8D848A",
"wX c #998A83",
"eX c #90878C",
"rX c #938A8E",
"tX c #8A8391",
"yX c #958C92",
"uX c #988F95",
"iX c #9B9295",
"pX c #9A9196",
"aX c #9D939A",
"sX c #9E959A",
"dX c #9F969D",
"fX c #9F9898",
"gX c #A88C8B",
"hX c #B49C89",
"jX c #AF9795",
"kX c #A0979F",
"lX c #A1999E",
"zX c #A29A9E",
"xX c #B3A095",
"cX c #9493AA",
"vX c #A49BA1",
"bX c #A69CA1",
"nX c #A89FA5",
"mX c #AAA1A6",
"MX c #ADA4AA",
"NX c #B1A7AD",
"BX c #B3A8AE",
"VX c #A9A2B2",
"CX c #B5ABB2",
"ZX c #CFAC84",
"AX c #D8B6A6",
"SX c #D0B3B1",
"DX c #EDC290",
"FX c #D8C6B7",
"GX c #EFCDAF",
"HX c #E9C5B6",
"JX c #E3BFC3",
"KX c #F5E6DA",
/* pixels */
"l.n.#X9XrXwXrXrXlXfXlXmXMXMXMXBXMXBXMXmXMXaXyXlXv.z g.iXiXrXlXeXaXkXvXnXvXaXiXaXkXkXyXuXy.g.qXeX5X6X0X0X6X'.n.c.j.#.d.`.",
"iXiXzXzXzXzXzXzXzXzXlXlXzXlXlXlXkXzXzXsXzXkXlXnXm.#.h.iXlXiXNXzXvXvXvXnXnXnXvXvXkXnXkX4X$.u.vXnXvXmXMXMXzXzXlXzXb.=.j.rX",
"yXrXiXiXiXiXiXiXrXrXyXiXiXiXiXfXyXiXyXyXuXyXyXsXj.k 7.qXyXuXzXlXlXyXuXkXvXvXuXyXaXkXeXh.l X.kXMXyXiXlXiXiXrXrXiXh.I d.9X",
"wX0X0X9XwXeXqXwXqXqXrXiXzXzXlXfXaXlXiXyXiXyXrXiXh.U d.rXlXkXlXyXuXeXeXeXyXtX7XyXyX .o . . o %.vXyXrXeXeXiXiXiXlXj.#.d.9X",
"rX0X5X9X9X#Xv.c.).n.#XeXrXeX6X6X0XqXqXrXlXiXyXkXg. .u.rXzXkXkXwXm._._._.n.%.g.qXo & u o   * tXkX0X`.b.9XqXrXyXiXj.Y j.wX",
"#X`.n.b.b.b.c.g.h.j.z.n.`._.v.c.v.b._.9XyXrXyXiXg.Y y.5XlXyXrX6Xg.g.j.v.2.z 4Xi = e o   & Q yXlXrX`.b.9XiXiXiXlXd.U u.qX",
"n.b.k.l.`.`.m.b.c.c.v._.5X_.v.v.n.m.`.9XyXyXrXyXd. .u.9XsXaXyX6Xx.v.m.`.&.>.1.= i o   o l =.uXkXqXb.b.9XuXiXrXrXc.#.h.eX",
"b.j.d.g.l.`.`.`.b.c.v.n._.v.c.h.b.b.b._.9XqX9XrX7. .y.0XmXyX9Xn.c.v.n.n.@.qXi u 5     o ;.&.qXkXqX`.b.eXiXrXrXiXj.X.d.eX",
"_._.l.b.b.b.b.b.`.`.n.b.v.c.x.x.c.b.b.n.`.5XrXyX7.l j.yXyXdX5Xn.b.b.4X=.%.7.= j *   o &.,.=.m.yXrX`.b.wXaXyXeXeXc.#.v.rX",
"`.`.`._._._.b.c.`.`.n.b.c.x.g.c.j.j.b.n.m.9XqXyXh.Y h.i.= u #._.9X4X`.j.= = & 3 = o o u = = d qXrX`._.9XeXeXqXeXj.U d.eX",
"yXiXuXiXiXrXeX9X`.5X6XeXyX6X6X`.9X9X9XqXeXrXyXsX0.l d.qX1.= u z c.yX@.j o   =   o = j 3 = & o d &.qX9XqXyXyXuXsX_.$.u.9X",
"0.d.d.d.d.7.6.2.y.:.X.&.=.:.=.X.#.%.$.#.=.=.=.*.d.#.d.m.v.2.& o j @.u o   o   o & o z %.j u #     i ,.>.<.y.y.p.c.$.2.c.",
"$.#.$.#.Y  .l U U l  .X.....X.[ l l l l z z l U  .f Y @.k [ @.3 = o i = o     & u   = j *     e e u  .U U  .U ..$.l ..X.",
"Y  .Y X.#.$.$.&...&.6.:.l ..<.:.2.2.2.2.6.7.6.6.2.&.@.%.%.%.&.  5 j *       o   & u   =   & = z [  .X. . .U U [ l l ..h ",
"eXrXyXsXzXzXmXmXNXMXkXg.X.y.yXdXmXbXzXbXmXmXmXmXmXY &.u     o   * o 5 o   o       j   = & j.aXiXuXuXiXaXiXuXeXyXqXqX6X6X",
"uXsXzXzXzXzXbXmXvXvXeXi.X.g.uXyXiXyXyXrXyXyXiXiXyXrXiX`.%.j j *   5 o . = 5     * & 3   u yXMXNXNXMXMXNXMXvXdXuXdXdXuXdX",
"uXuXuXaXaXaXaXuXuXvX_.:.X.h.6XyXiXlXlXiXfXiXiXiXwXfXj.c.#Xu # y   5 O O K w.4 a -.& * $ u i lXiXyXuXkXvXkXaXaXuXyXaXuXyX",
"uXaXuXuXyXuXaXvXaXvX6X6.X.x.eXyXrXyXiXwXiXwXiXiXwXiX9X  o a = o % p + > hX%X! #Xa   %   5 . =.eX5X6XqX7XyXeXeXqXyXaXuXyX",
"yXtXeXqX6X7XuXvXaXvX6X6.U g.eXyXiXiXfXfXzXsXiXiXiX(.#Xt.X X e * H SX2 6 KX~ ~ %X,   = u 5 * = 7.v.v.5X5X5X5X5X4X7XyXuXyX",
"yXtXqX6X5X5XtXuXuXaX6X6.U g.6XyXrXrXrXwXiXyXyXk.l.i X t 8 < < + H /.T SXKX!.$XGX$XO # j.mXlXyX`.v.v.5X5X5Xv.v.n.5XrXyXeX",
"uX6X5Xn.n.n.5X6XuXaX6Xy.U p.yXuX#X0XqXrXuXeX0.> , O g O.8 w J v + > ^ xXFXHXDXDXQ.# O = zXiXeXn.m.5XqXtX6X(.v.n.5XeXyXtX",
"6X_.p.p.y.p.c.5XyXyX7Xi.h p.eXeXv.m.5XqX5.# N Q.>XHX7X' O.8 Q.Q., Q.! /.AXHXZX$X!.K ,.sXvXrX9Xn.5X5XeXyX6Xv.v._.5XqXeXqX",
"5Xx.g.p.y.y.g.v.6XeX9Xp.h y.6X5X7.d.x.x.a K Q.DXE 4.X.{ g + >XI.> w.! L AX%X~ xXQ z 6.kXzXrXqX9X6X6XeXyXtX5X4X5X6XeXeXqX",
"5X5X5X5Xn.x.v.5X5XqXqXx...y.5Xn.d.h.b.v.4 w.>XDX>X: d O.8 2 >XE S 4 4.Q.E.JXhXK ,.k 6.zXbXyXyXiXyXeXyXkXvXuX6X6XuXkXuXyX",
"g.x.g.p.6.<.,.<.y.y.p.p.$.$.7.y.,.2.X.X.4 w.ZXDXGX7XX $ & O ; ~ w.  q.AX^.- K l.7.Y h.n.6.7.6.u.p.p.y.2.:.,.&.X.:.,.y.y.",
"U ..X...X.X.X.X. . .$.:. ...X...[ ..l X.j   $XGXSXJ s y   w.%XL < 3 < gX).@ 2 %.$.i #.$.k Y Y #...U  .X.X.U U >... . . .",
" ...X. ...h U U X.h ....h U  .h l U #.#.z a q.V gXr [ s -.FX$X/.w 7 O._ t % K W *.l =.@.Y #.I X.U l l .. .l l  . . . .h ",
"v.5X5X5X5X5X5X5X5X5Xn.5Xm._.6X_.5X`.5Xg.$.=.c.k.e.$ s $ #XhX/.7X3.$ +.+...< /., 0.`.eX5X5XqXn.m.v.v.c.y.x.g.2.h y.x.v.v.",
"eXuXaXvXvXnXnXMXvXvXvXnXmXmXmXdXyXeXqXd.Y I rXBXtX4XX o 0.hX/.m 3.n ' +. .X.^.6 I nXnXnXNXNXzXzXuXvXuX6XuX5Xg.h _.uXvXvX",
"6XqXtXuXuXuXuXyXuXuXdXuXuXyXyXyXyXeXqX7.#.Y m.eXsX9X5X*.; ^ b R ~.C P 1 - '.P  ...6XvXkXzXzXzXzXaXuXaXdXbXd.t.h h.aXnXuX",
"6XtXyXuXkXkXaXaXdXvXdXuXuXyXuXdXrXrXqX7.=.z j.`.dXm.yX^.n C K.@X,XA.c G R E.w _ { i.uXkXzXuXkXkXaXuXyXuXkXp.y...c.kXbXyX",
"6XqXqXyXeXqXqX7Xm.qXtXyXaXuXuXiXiXiXwX6.$.k j.rX9Xd.qX).H R Q.Z I.&XZ E./ , @ ) ) e.eXuXuXqXrXtXqX6X5X_.sXh.g.h h.aXvXuX",
"6XqXeXeXeX9Xn.u.g.j.l._.9XrXuXuXsXiXrXd.Y j c.rXrXc.tX,.$ * < , , E J 1 H > Q z o m.rXiXyXeX5Xm.9X9X`.`.eXc.7.Y d.rXiXzX",
"eX9X9X6X6X5X`.`.j.j.j._.9XrXiXiXyXiXqXu. .k c.rXrXb.4XX 9 O.g O + - - < T l.#Xw.Q iXyX5Xl.l.m.l._.`.n._.eXk.6.z j.iXiXzX",
"eX6X`.`.#Xm.5XwX`.`.l.n.`.rXrXrXrXiX9X7. .l j.uXeXv.).: ; ; P w P w ; 3.hXW hX1 @.VXcXs @ 5.`.n.l.b.b._.rXc.2.I l.iXeXrX",
"eX6X#XqXqX9X5X`.9X`.`.`.#X9X0XeXqXiX5X,.#.l j.iX9Xl.: B Z x 1 O % % ; R K.F GXJXo.$ 9 m.5.).=.n.n.`.`.5XrXl.2.Y b.yX`.9X",
"9XqX0X9XqXwX`.b.`.`.`.`.5X6X9XwX9XiX6X2.#.l g.9X).! A.D D.H.F < 9 w C F b : E.jXG 2X] g jXK 0.n.9XqX9X5XwXh.1.Y _.yX#X6X",
"9XqX9X`.`.5X_.j.l.b.`._._._.`.5X9XyXqXy.#.k u.4., P.F.1XS.L.~.- O.e / J.*XZ.c x 1 % (.BX^ 0.m.0X`.9X`.#XqXg.5.Y b.yX`.9X",
"9X9X9X`._.n.b.b.n._._.`.`.`.5X6XeXiXrXh.#.k 4.S U.oX<XXXT.G.H.- $ :.n &X XM.M.A m ; /.N , 5X9X9X5XqX0XqXrXj.7.#.b.rX`.9X",
"qXqXrXrX9Xn.`.9X6X`.5XqXeXyXuXiXrXsXsXb.#.T v A Z.XXXXOX<XA.; 1 0 } : D *XoX-XG.D A , >XmXzXzXiXiXzXiXrXyXz.,.U b.uX`.6X",
"v.`.j.p.h.h.p.p.7.7.u.d.c.b.v.h.h.j.5Xx.p v P.-XXXXXoX.X}.~.E.< ( ( < c D..X=XOXoX}.U.S #Xm.m.x.n.`.qX9Xm.`.g.k `.uX_.rX",
"&.=.&.&.#.Y Y U  .U  . .#.#. .Y X. .#.J C K.R.Y.|.XX|.G.P.N 2 $ ( _ % x R..XY.Y.+XoX=XS 9.Q #.X. .z X.#.$.2.>.l 6.g.>.6.",
"Y f h U k l X.X. . .Y  .Y U z k g  .| G C L.,X=X|.Y.B.Z , + 1.q 0 7 O.n C.L.R.oX<X<X*Xv #.h j d l f g g d l Y d k U e d ",
"X.U h.6XeX`.5X4X_.n.b.b.b.n.n.n.v.8.m C.c V.D.S.B.T.R.c *.t.t.X q { g @ m A M.D.Z.N.P.L k.g.d.g.v.g.g.h.h.c.v.c.v.v.p.u.",
"2.X.6XNXCXBXCXnXBXBXNXNXNXNXNXNXyXL R W.M.c M B.R.,XW./ bXmXMX;.2.,.& qX3.: c A D.L.~.m 0.zXkXmXvXkXkXvXvXvXvXnXuXuXuXyX",
"h.X.n.eXvXnXCXBXaXaXuXuXuXuXyXtX3.C c V.[.[.R.*XDXI.L n.rXrXrXm.tX-.s.qXk., {.:XR.M.].K.H iXaXnXvXvXaXaXaXuXeXaXkXaXkX6X",
"p.X.5XuXBXnXvXaXvXvXvXkXkXkXkX5.F ;XA c M.D..X].J.B k.qXiXiXiXeX9Xj.m.m.l.W Q.D.S.R.;Xm e uXqXyXuXuXyXuXaXuXtXuX5X5XeXv.",
"g.X.5XqXnXvXaXeXyXeXyXyXeXyXeXp : ~.;XI.R.S.S.M.v 5.yXuXyX9XqX9X9Xn.n.5X0.O b M H.].b : K dXuXkXuXuXuX7XaXeX5X6X5X5XkX6X",
"2.$.`.eXMXaXqX`.qXqXrXqXrXqXz.e - b ~.@X~.A.H.v ^ `.iXyXqX`.v.n.n.c.b.#X2.a . P | 1 m ; ).iXkXiXiXtXqXtXuXtX6X6X6X6XyX5X",
"6.&.`.9XnXuX9X_.0X9X6X6X6X6X;.$ P n : x v F - ^ >.9XiXyXqX5X`.`.#X`.n.9Xm.;.t 7 _ r ^.3.wXrXaXyXtXqX6X5X6X6X6X6X6X5XtX5X",
"2.&.`.9XzXyX6Xn.`.5X`.`.5X4X] t 7X2X@ < + : , d 7.5XyXqXqX5Xn.`.9X0X6X5Xb.2.s 7 _ +.^.6 rXiXuX9X5Xm.5X5X5X5X6X6X6X6XeX4X",
">.#._.9XzXrX`.b.j.b.`.9XqX;.y 3X2X+.r w X.P X.h y.6XyX9X9Xm.b._.9XqXeX9Xb.y.[ t o.a.7XH iXiXqXb.v.b.b.n.v.5X5X6XeX6XyX5X",
">.#._.6XsX9Xc.g.d.g.c.n.r.$ O.cX3X} 7 ] 5Xy.6.l u.9XuX9X5X_.v.n.`.eXqX9Xb.7.l t ` +.7XH #XqX9Xv.v.v.v.n.v.4Xm._.6X5XyX5X",
">.#._.5XuXn.g.7.d.u.d.r.X [ [ ) ( ( ) 4X5Xy.6.U p.qXyX9X6X6X_.5X5XqXqX9Xn.u.U t ` ' p T u c.5Xx.v.v.n.v.v.n.(.v.5X_.7Xm.",
":.$._.5XyXb.g.u.j.d.t.9 j s.4Xs y ) r.5X5X6.6.U g.eXyX5X5X6X5X6X0X9X6X6Xn.y.f s ' ] 2 wXI @.g.v.v.n._.v.c.v._.n._.v.6Xv.",
",.$.5X5XeXm.j.j.j.z.s $ s.8X;.;.o ;.5X6X5Xy.6.U c.eXuX_._.5X6XqXeXqX#X9Xn.y.h t t e.=.5.rX  &.m.x.5X5Xn.h.c.v.4X5X5XeX_.",
"7. .`.qX9XyXuX6Xv.5Xd $ * 9 $ =   %.tXqX6Xv.2.l x.aXMXuX6X6XeXqXqXqXsXqX5X6.l s $ q < . e o ;.6X6XyXuXeXm.n.5X6X5X_._.n.",
"u.>.6Xm.g.p.p.p.p.d.d.r.i.f.i.z.9.z.z.g.d.y.2. .c.n.v.x.x.v.v.c.`.d.7.7.b.g.#.,.n.i.g.2.g.c.t.j.g.x.v.v.u.g.x.h.x.c.v.n.",
":.X.p.,.#. .Y &. .#.#.X.X.X.X.X.$.>.#.X.X.#.$...:.X.U  .$.$.$.$.=.Y Y Y ,.,. .6.>...l @.:.&. ...X. .X.X.X.X.$.X.>.>.:.2.",
"X.U  .k U U U X. .Y  . .l .. ...l Y l l l h l f U d d ..U l l U p z Y k U U d #.l l h  ...l h X...l ..X.U  . .l f h h h "
};
