/* XPM */
static char *_d51288c0cbe4366e6dee7aa058434b9nh0aL7af7zm0JXW8[] = {
/* columns rows colors chars-per-pixel */
"60 60 238 2 ",
"   c #020202",
".  c #0A0403",
"X  c #060209",
"o  c #0B0B0B",
"O  c #140709",
"+  c #040518",
"@  c #131313",
"#  c #181012",
"$  c #18151A",
"%  c #1B1B1B",
"&  c #260707",
"*  c #330505",
"=  c #381A0B",
"-  c #251C17",
";  c #301A11",
":  c #312415",
">  c #382818",
",  c #050829",
"<  c #180A29",
"1  c #1A1825",
"2  c #060739",
"3  c #150B37",
"4  c #151731",
"5  c #2D1424",
"6  c #241B25",
"7  c #261835",
"8  c #242323",
"9  c #28232A",
"0  c #2B2B2B",
"q  c #352A27",
"w  c #37312C",
"e  c #292839",
"r  c #342C32",
"t  c #382E35",
"y  c #312D3E",
"u  c #382E38",
"i  c #343334",
"p  c #393335",
"a  c #3C333A",
"s  c #3C3B3B",
"d  c #490805",
"f  c #5B0B06",
"g  c #481806",
"h  c #5A1808",
"j  c #471D15",
"k  c #680A06",
"l  c #790B07",
"z  c #661505",
"x  c #7A1B08",
"c  c #6A1216",
"v  c #57250A",
"b  c #5A281A",
"n  c #493018",
"m  c #59391C",
"M  c #732C09",
"N  c #652719",
"B  c #4A0E39",
"V  c #6E1225",
"C  c #462A29",
"Z  c #493628",
"A  c #593A22",
"S  c #473536",
"D  c #40353C",
"F  c #41383D",
"G  c #543C32",
"H  c #692A29",
"J  c #78510C",
"K  c #74681A",
"L  c #584725",
"P  c #4C4030",
"I  c #584537",
"U  c #6D462A",
"Y  c #644B36",
"T  c #6A513B",
"R  c #775437",
"E  c #060A46",
"W  c #141745",
"Q  c #070C58",
"!  c #0C1152",
"~  c #3B1754",
"^  c #1D214B",
"/  c #1E2258",
"(  c #292845",
")  c #2A2A54",
"_  c #3B3851",
"`  c #050B68",
"'  c #10136E",
"]  c #181B6C",
"[  c #27146F",
"{  c #1D237C",
"}  c #292F6F",
"|  c #282B77",
" . c #4A1E5C",
".. c #403540",
"X. c #443B41",
"o. c #493D46",
"O. c #444244",
"+. c #4A4146",
"@. c #4C434A",
"#. c #4A474B",
"$. c #534A49",
"%. c #534A4F",
"&. c #53504B",
"*. c #474856",
"=. c #554B53",
"-. c #584E56",
";. c #5A4F58",
":. c #555254",
">. c #5B5356",
",. c #595758",
"<. c #5E545A",
"1. c #5E5A5C",
"2. c #6B4546",
"3. c #6D5D46",
"4. c #765B47",
"5. c #655855",
"6. c #60565D",
"7. c #62595E",
"8. c #7B624C",
"9. c #65605E",
"0. c #565669",
"q. c #645B61",
"w. c #685F64",
"e. c #695F68",
"r. c #5E6075",
"t. c #666264",
"y. c #6A6165",
"u. c #6C626A",
"i. c #6B676A",
"p. c #756866",
"a. c #70666C",
"s. c #72696D",
"d. c #756B72",
"f. c #726F73",
"g. c #786E76",
"h. c #736C79",
"j. c #7A7275",
"k. c #7A767A",
"l. c #7D747A",
"z. c #861808",
"x. c #901207",
"c. c #AA1A08",
"v. c #86290A",
"b. c #97370B",
"n. c #8E2E10",
"m. c #A82809",
"M. c #AF3009",
"N. c #B83609",
"B. c #C33709",
"V. c #8F500C",
"C. c #A94F0A",
"Z. c #B84709",
"A. c #B5590C",
"S. c #8E6E0A",
"D. c #B36C09",
"F. c #8B563A",
"G. c #93753C",
"H. c #C7470A",
"J. c #D44808",
"K. c #C6590A",
"L. c #DE5908",
"P. c #E05807",
"I. c #C6680C",
"U. c #D8670A",
"Y. c #D87A0A",
"T. c #EA6F06",
"R. c #EB7406",
"E. c #8D5A56",
"W. c #946C49",
"Q. c #876D54",
"!. c #867559",
"~. c #937151",
"^. c #A3724D",
"/. c #A87C56",
"(. c #8C7068",
"). c #80777D",
"_. c #827A7D",
"`. c #BD850B",
"'. c #DA870B",
"]. c #D18F0A",
"[. c #F18706",
"{. c #EB9508",
"}. c #EBAC07",
"|. c #F3A908",
" X c #EDB308",
".X c #F4B706",
"XX c #FAC703",
"oX c #AA815D",
"OX c #B2875A",
"+X c #998564",
"@X c #868077",
"#X c #AA8966",
"$X c #A79062",
"%X c #B89266",
"&X c #B4906C",
"*X c #C39870",
"=X c #CBA478",
"-X c #D4AB7E",
";X c #0D1687",
":X c #1B248B",
">X c #1B2391",
",X c #242A86",
"<X c #272F99",
"1X c #333B99",
"2X c #533F8B",
"3X c #3A4298",
"4X c #565282",
"5X c #585A9C",
"6X c #857C82",
"7X c #887F84",
"8X c #868184",
"9X c #8A8285",
"0X c #8D848A",
"qX c #8D888B",
"wX c #90878C",
"eX c #92898E",
"rX c #958C92",
"tX c #988F95",
"yX c #998F98",
"uX c #9A9295",
"iX c #999396",
"pX c #9D949A",
"aX c #A0979F",
"sX c #A2999E",
"dX c #A59CA2",
"fX c #A89FA5",
"gX c #A7A0A1",
"hX c #AAA1A6",
"jX c #ADA4AA",
"kX c #B1A7AD",
"lX c #B2A8AF",
"zX c #B5ABB2",
"xX c #D3B187",
"cX c #D8B385",
"vX c #E3BF8D",
"bX c #E6C28F",
"nX c #E6C491",
"mX c #DEDAD4",
/* pixels */
"d.j.@XeXeX@XuXrXsXsXsXgXjXjXhXlXhXlXhXhXdXpXiXpXj.s u.tXuXeXpXeXyXdXdXdXdXyXyXaXaXyX7XaX6.u.7XrX6X7X7XwX_._.(.).s.+.t._.",
"uXsXsXsXgXsXsXsXsXsXsXsXgXsXsXsXsXsXsXsXdXsXpXhX_.+.p.uXpXpXjXdXdXdXdXfXlXfXdXdXaXfXaX6Xo.e.fXfXdXfXhXfXfXsXsXsXg.%.s.rX",
"eXuXuXuXuXsXuXuXeXeXrXuXuXuXuXsXuXuXrXeXiXeXrXpXs.p 7.wXuXuXfXsXdXyXyXdXdXdXdXdXaXfXaXe.o.%.dXkXrXtXyXaXeXwXeXuXu.O.u.9X",
"qX@X@XeX+XeXeX@X0X0XeXuXsXsXsXuXs w wXuXuXiXeXuXu.F t.eXsXuXsXeXyX7X7X7X7X7X7X7X7X7XfX4XX._ 6XfXtXwXeXrXuXuXuXaXs.P p.9X",
"rX@X9X@X9X_.).d.l.l.8XwXrXqX9XX o 0 #.:.uXuXeXpXs.F u.eXsXuXpXeX6X6Xg.6X).).7X7X7X7XdX6Xo.o.7XdX@X_.)._.eXeXrXuXp.X.u.9X",
"9X_.).j._.).p.p.p.s.s._._.l.d.O.  $ i *.f.uXqXuXu.F q._.sXtXeX0Xe.w.d.d.a.g.6XwX7X7XyXe.;.o.yXpXrX_.).wXuXsXuXuXw.D w.0X",
"_.j.s.d.j._._.j.s.d.g._.6Xl.l.l.%   % P :.qXeXeXt.F t.0XdXuXrX0Xd.d.6X6X7X7XeXtX7X7XyX(.o.;.yXdXwXj.d.7XuXrXeXuXs.@.a.wX",
"j.p.t.p.j._._._.j.j.f.l.l.l.d.u.i   o 0 #.t.8X8X5.o.q.0XpXtX8Xj.d.d.6X7X7X7XwXrXyX7X7X7X6.o.7XdXwX_.(.eXuXeXeXuXd.@.u.0X",
"_.).j.j.j.j.j.j._._.l.g.j.d.u.d.d.@   8 s %.qX9Xs.a u.rXrXuX9Xl.g.l.6XeX@XwX7XtXrXwX0Xe.;.=.j.tXwX_.j.wXyXrXwXwXd.@.g.wX",
"_._.).).).l.j.d._._.l.j.d.t.1.t.,.@ o 8 8 $ s O.s.F s.uXrX6Xt.t.7X6X5X_.7X_.7XeX7XwXyXa.X.$.tXaXeX_._.9XeXwXwXwXa.D y.wX",
"rXuXrXuXuXrXqX9X_.).7X8Xt.@ % 8 8 0 % o         :.:.y.iXi.O.i eXyXrXwXrXsXtXtXyXyXrXyXd.D o.rX7XeXwX9X9XrXrXyXpX).@.7.wX",
"9.y.y.y.y.q.6.<.q.=.=.$   o % i s i @ @         @ p u.,.0 i @Xl.l.l.d.a.p.6.;.%.=.o.q.e.o.u 7.o.-.-.-.%.;.q.w.e.d.#.6.d.",
"I @.+.+.X.X...F a a o.=.*.    $ 0 $ o $         @ 8 8 % 8 ,._ p i u a a D X.X.X.X...X.=.@.u o.p F X.X.X.D X.X...@.S X.o.",
"X.P o.O.+.+.@.@.X.@.6.=.a =.0 . 8   $ @           $ 0 $ o 1.t.5.7.<.@.@.X.o.X.F X.u D u a r a _ D X.X.X.X...D u a a X.u ",
"qXwXtXpXpXsXhXhXzXkXaXu.o.6.rX8 @ o $ o     o .   % % @   % $   o.l.7X7XwXtXtX7X6.%.6XyXfXfXpXrXtXtXyXpXyXtXrXrX7X0X7X7X",
"yXpXpXsXdXsXgXhXdXaXwXq.o.u.yX_   @ @ # o   - %   o %   @ 0 O.i.fXfXdXdXfXdXtX7X7.6 a.aXhXjXhXzXlXkXjXkXfXdXyXaXaXpXyXaX",
"yXyXaXaXpXpXpXyXsXsX4X-.o.a.1.0 o o @ A C 8 3.A X X @   % o O.tXeXqXeXqXqXrXsX_.<.D 5.pXfXsXsXuXaX7XaXaXaXaXaX7XrXpXyXrX",
"yXyXyXaXrXyXpXdXsXhXeX<.o.t.% 0 o .   m /.3.&X#X- o q #   @ 0 . s rXeX8X9XeXdX8X<.s <.pXsXsXsX0X7X7X7X7X7XyX7X6XwXpXyXrX",
"7XyX7X7X7X7XyXaXuXsX7X6.%.O.o.#.O.8   0 #XR f.mX&.0 %Xn X $ O   k.rXrXk.6X9XpX_.1.a -.pXfXuXuX7X6X4X6X6X7X7X6X).7XyXrXrX",
"yX7X7X6X6X7X7XyXtXaX7X6.a w.0XrXqX8 @ @XcX$X@XmXxXP W.> . & * E / 1 s qX6X6X0Xs.6.a <.uXhXsXeX_.).(.6X6X6X6X).h.6XwXrXeX",
"yX7X6X).g.).6X7XtXaX7X5...e.rXyX1.w 8 !.bXbXcXnX=XR 8 O g z.# ' <Xe - w w 8XeXu.7.a >.sXfXuXwXl.6X6X7X7X6X6Xh.).6XeXrX7X",
"7X6Xe.q.e.e.d.6XwXrX7Xw.u e.0XwXj.k.k.(.OX-XbXcXoXI 4.d B.K.< >X/ Q.*X&X/.P $.f.7.a 6.pXsXeX0Xj.6X6XyX7X6X6Xh.).6X7XyX7X",
"6Xh.u.e.q.6.e.g.7XwX7Xe.a q.6X6X7.t.d.i.+XW.%X=XY R 8.f L.].9 >X) L R 3.-XW.U 9.7.S 1.pXsXeXwX7X7X7X7XaX7X7X6X6X7X7XrX7X",
"6X6X6X6X).d.g.6X6XwX7Xd.X.q.6Xl.y.d.g.l.5.OX=XQ.Q.F.% M H.`.8 Q Z > w *XbX=XF.$.>.p 6.sXdXrXrXuXaX7X7XaXaXyX7X7XaXaXyXrX",
"e.e.a.e.6.;.;.;.q.6.a.e.%.o.q.q.>.<.o.o.q.S q !.%XR X J J : o X o # Q.bXnX-XQ.S w.F a.j.6.7.7.9.h.e.w.<.=.;.o.o.-.-.q.q.",
"....o.o.o.o.o.o.F D %.%...D o..._ s a o.5.k & 8.^.q 2 - L +X8.o ^ ] S -XbXQ.w a @.9 +.#.p X.F +.o.....o.o...X.-.o.X.X.X.",
"o...o.....u ..D @.S _ X.D D X.a p D o.+.G n.< ( q | Q ; W.OX=XY } :Xe ~.I 9.,.#.@.S $.o.F +.S +...C _ ..S _ a X...X.D D ",
").).6X6X6X6X6X6XtX).r.6Xl.6X6X).6X_._.j.n S.2 { | ,X, G /./.%X!.1 ' , 5.8X_.8X8X6X6X0X6X7X0Xj.).).d.a.q.a.e.<.u q.d.g.d.",
"yXpXpXaXdXfXfXjXaXdXdXfXhXhXhXpXrX0X0X:.( K L { <X{ = U Z F.OXR   , qXsXdXfXdXhXgXjXjXhXkXkXsXsXtXaXyX7XtX6Xe.u ).yXfXaX",
"7X7X7XyXyXyXrXrXyXyXyXpXiXtXrXrXtXwXrX*.{ m D.< E { v I.V.n L - #.9XpXhXgXgXsXsXdXdXsXpXsXsXaXaXyXpXyXpXdXe.6.u d.yXsXyX",
"7X7XyXyXaXdXpXpXpXfXpXrXyXrXtXpXrXrX5X*.;X7 b.z.b 7 V.|.U.V.v g @XrXsXfXsXuXrXrXuXuXuXsXaXuXaXpXaXtXrXyXdXe.q...s.aXfXrX",
"7X7XrX7XrX7X7X7Xl.0XqXrXpXyXtXuXuXpXl.^ ! 2 = m.M.M U.I.m.V.M v _.eXsXsXrX6X_.6X9X8XwXuXtXwXwXwXwX7X6X6XtXa.u.a a.aXsXtX",
"7X7XyX7XwX9X).p.y.p.j._.8XeXrXrXuXuXrX% Z Z : g d z v.k d < W , :.6XgXeX_._._._.9X9XeXuXsXwX_._.@X9X_._.wXd.7.F t.rXtXsX",
"rX7X7X7X9X_._._.s.s.p.).9XeXuXsXuXpXqX,.4.OXF.$.% , + 1 , { | E O qXsXeX_._.9X9XeXrXuX@X_._._.p.)._.)._.wXp.5.p s.uXuXsX",
"eX7X7X7X9X_._.wX_.).j.j.@XqXj.# $.pXiX$.Z oXR qX*.2 4 ^ E } < * d 0XsX9X6Xj._.eXuXsXrX@X_.8X_.).d.j.)._.eXd.5.F p.uXwXeX",
"0X7X7XwX9X0X@X_.8X_._._.8X@X!.3.4.% 4 I -XxXY 1.S O X +   & k l l N hX@X@X_._.qX0XrXrXeX8X8Xk.(.)._._._.eXj.5.F l.uX9X@X",
"0X0X0X0XwXwX_.j._._._._.6X9XY oXS _ 1X( +XW.= > z.z 3 E . z.N.H.b.C.U tXeX@X_.qXwXrXuXuXeX@X_._.9X9X9X7XwXs.>.S ).eX7X0X",
"_.0X9X_._._._.p.d.j._.).)._.j.T &X8.E < & d M.'.A.b.) / . Z.L.K. XI.A.j p.9Xl.l.wX7X@XrXwX_._.7X_.9X@X9XwXi.5.D j.rX@X9X",
"0X_.0X_.(.j.l.g.j._._._._._.@X:.I 8.O k c.m.m.'.U.C ,X!   z.L.R.|.XX XU.b.qX0X8X9X_.)._.9X_.7X0X_.9X0X0XwXs.6.+.j.rX_.9X",
"eX0XeXeX0X)._.0X@X_.6X8XqXuXuXuXtXN x.m.U.}.}.[.M.7 | E , f Z..X.XXX.XN.m.b hXhXhXsXsXsXsXsXsXuXiXsXuXeXuXs.-.s j.rX_._.",
"g._.s.u.u.a.t.e.7.7.t.u.d.j.g.s.T K.[. X.XXX|.J.k < Q E 2 C.L.R.|.XXXX}.}.A.b ,.d.g.).l.j.).).d.g.6X7X7X)._.y.a _.eX6XrX",
"$.=.@.@.@.X.S S X.X.X.X.+.+.+.X.L  XXXXX{.R.R.L.j Q Q E 2 = x B.H.].XX[.R.T.A.x 5.S X.X.X.+.#.F D D o.@.@.6.=.a 6.e.=.5.",
"F r u D p p %.o.X.F F a F F D F A {.XXXX|.R.J.m.; ,XQ E 2 1.: g x.N.T.R.|..XZ.l c 6.t p p u w t D u r u r a D r p D 5 t ",
"o.a u.0XwX6XeX4X_.l.l.l.l.l.l._.m K.Z.Z.Z.m.x d O ^ | E W 8Xk.f.d D.T.N.Z.Z.z.k x.b l.u.a.u.e.a.h.a.u.a.a.d.g.d.g.g.u.e.",
"<.o.7XjXzXlXzXfXlXlXjXjXkXjXzX_.v.L.J.J.c.f O :.0X1 r.g.h.jXjXzXu.D.{.'.m.z.f z.B.z.2.pXdXdXpXfXaXaXaXdXdXdXdXfXtXtXyXrX",
"u.@.l.wXdXfXzXlXdXpXiXyXuXrXrXS M.Y.B.L.'.D.v 1.a.0Xt.pXpXwXeXeXsXR D..X{.].D.J.m.l v.(.dXsXpXfXfXfXpXpXaXyXeXyXdXyXaX7X",
"u.o.7XtXlXfXdXyXdXdXdXaXpXpXdXS z.I.Y.H.C.D.x t.d.rXtXeXpXuXuXwX9XwXH A.R.'.I.N.k M U.M 6XyX0XrXrXyXrXwXyXyXwXyX6X).wXg.",
"e.o.6X0XfXfXyXrXwX0XrXrXrXrX0XS d v K C.z.f d t.1.qXrXiXuX9X0X9X_._._.c c.B.H.I.D.].K.f D dXrXdXrXyXyXwXyXwX6X7X6X6XaX7X",
"<.@._.0XjXpX9X_.9XqXeX0XqXeXrX8Xj j E b k * C #.7.9XuXrXeX_.j.j._.).(.a.l m.C.D.Y.A.h , ) eXsXuXsX9X7XwXrXwX7X7X7X7XtX6X",
"6.@._.0XfXuX9Xl.9X9X9X9X6X7X9XuXA F.;X` , 1 l.a 6.7XuXeX0X6Xl._._._._.wX2.k k d k k h | ` 0.sXsXeX9X7X7X7X7X7X7X7X_.eX).",
"<.#.).9XdXrX7Xl._.6X_.6X6X6X6XrXA E.1X;X` _ <.t 7.7XrX0X0X6Xl.6X@X9X9X7X9XH * . 2 2 R 5X{ _ fXeX).).).6X6X6X6X7X7X7XsX4X",
">.@.).9XsXeX6Xj.d.j.l.9X9X9X7X0Xm ^.5X>X` k.<.i 6.7XrX0X6X_.j.).9XeXeX@Xk.k.F o.` ;X1XE.h.' r.4Xg.g.).).4X6X6X7X0X7XuX6X",
"-.$.4X8XpX9Xd.u.y.u.d.l.9XqX9XrXN G.2X{ ( d.q.s q.0XrX7X6X).g.l.@XwXwX9Xl.7.F _._ ' <X4XOX .4 k.g.g.g.g._.).).).7X6XwX6X",
"$.&.@X6XrXl.u.7.y.t.y.s.k.@XrXs M V V B y q.6.D w.wXtX7X7X7X).6X@X9X9X9Xl.7.F s.7X) ' B V H H 4 7X).g.g.).).).).6Xl.7X6X",
";.@.l.6XrXl.u.q.s.y.9.y.d.8X#._ ~.:X~ V q q.<.D u.wXrX6X6X7X7X7XwX9X0X0X_.q.s d.6XrXH [ ,Xh.+X,X) 7X).).a.).d.).).l.0Xg.",
";.@.6X6XeXl.d.s.d.u.y.u.+X5X4 +X4X3X3X[ e 7.7.D d.wXrX6X).6X7X7X9X0X_.8Xl.q.F d.).yXe.Q <X5X!.e.' *.6X).a.a.d.).6X).wXl.",
"6.F 6XwX0XrXtX7Xg.6X6X6X6X0X1 Z 9 e 9 1 O.d.<.a a.yXkXyX6X7XeXwXwX0XuX9X6X6.a d.wXdXk.6 y y s i 1 q.tXwX6Xg.6X6X5X_.).).",
"w.=.6X).e.e.e.e.e.e.e.e.y.d.d.4X0Xk.k.i.y.q.<.o.d.l.g.d.d.g.g.d._.u.7.7.j.u.@.e.l.l.h.h.l.l.d.a.u.a.g.d.u.u.d.a.(.j.g.j.",
"=.@.e.;.o.X.X.%.X.o.o.o.o.@.o.@.@.=.+.o.o.+.@.D -.X.a X.@.@.#.o.#.O.X.D -.-.D 6.=.X.a X.-.@._ o.o.X.o.@.X.o.@.o.%.%.$.6.",
"F D D a a F D o.X.X.X.X.....X...a s u _ a u D t D t r _ D D t D q S F p F D r @.a a u ..X.a t o.X.a X.X.D X.X...t u u D "
};
