/* XPM */
static char *Screen_Shot_2023_01_15_at_6_42_01_PM_removebg_preview1673804695[] = {
/* columns rows colors chars-per-pixel */
"60 60 252 2 ",
"   c #010101",
".  c #0B0908",
"X  c #170706",
"o  c #181609",
"O  c #070718",
"+  c #11051C",
"@  c #1A1817",
"#  c #230508",
"$  c #380504",
"%  c #2B190B",
"&  c #361508",
"*  c #271B16",
"=  c #2A101C",
"-  c #1D2118",
";  c #292506",
":  c #322B08",
">  c #3A3506",
",  c #292519",
"<  c #352617",
"1  c #383717",
"2  c #020224",
"3  c #010339",
"4  c #181332",
"5  c #241535",
"6  c #292725",
"7  c #362926",
"8  c #383329",
"9  c #2B2936",
"0  c #372D35",
"q  c #2F323B",
"w  c #393334",
"e  c #3C333A",
"r  c #3A3839",
"t  c #460605",
"y  c #53120B",
"u  c #670504",
"i  c #750504",
"p  c #651509",
"a  c #4D310F",
"s  c #73320A",
"d  c #5F0B33",
"f  c #4C2C28",
"g  c #47342A",
"h  c #543B27",
"j  c #4A3833",
"k  c #40353C",
"l  c #41383D",
"z  c #633029",
"x  c #49450D",
"c  c #524B09",
"v  c #5C5507",
"b  c #585418",
"n  c #6B540D",
"m  c #726A0B",
"M  c #494628",
"N  c #554B2A",
"B  c #575623",
"V  c #4F4439",
"C  c #654426",
"Z  c #674C38",
"A  c #735538",
"S  c #706E32",
"D  c #040647",
"F  c #181A49",
"G  c #020455",
"H  c #111057",
"J  c #290C5E",
"K  c #242348",
"L  c #383349",
"P  c #272557",
"I  c #030664",
"U  c #111467",
"Y  c #020475",
"T  c #2F2E71",
"R  c #443B41",
"E  c #493D47",
"W  c #5C245E",
"Q  c #533373",
"!  c #3E404D",
"~  c #4A4146",
"^  c #474748",
"/  c #4C434A",
"(  c #54494A",
")  c #534A4E",
"_  c #495240",
"`  c #5B5749",
"'  c #484856",
"]  c #554B53",
"[  c #584E56",
"{  c #564F59",
"}  c #5B5354",
"|  c #5E545A",
" . c #5A5858",
".. c #675548",
"X. c #70554F",
"o. c #695857",
"O. c #60565D",
"+. c #62595E",
"@. c #746B47",
"#. c #68645B",
"$. c #4A406A",
"%. c #5A5964",
"&. c #6E4167",
"*. c #645B61",
"=. c #685F64",
"-. c #695F68",
";. c #6A6165",
":. c #6C636A",
">. c #686568",
",. c #756864",
"<. c #70666C",
"1. c #72696D",
"2. c #6D6D70",
"3. c #756B72",
"4. c #786E76",
"5. c #7A7175",
"6. c #7B7779",
"7. c #7D747A",
"8. c #870D03",
"9. c #980601",
"0. c #951A01",
"q. c #A80700",
"w. c #B51501",
"e. c #8B2D06",
"r. c #972702",
"t. c #B52E03",
"y. c #9A1F2E",
"u. c #C81000",
"i. c #C51900",
"p. c #CA3003",
"a. c #D83A04",
"s. c #8D460D",
"d. c #AC500B",
"f. c #B75903",
"g. c #837B03",
"h. c #99740E",
"j. c #B36808",
"k. c #A24B32",
"l. c #84603E",
"z. c #D84704",
"x. c #CA5A08",
"c. c #D55803",
"v. c #E24404",
"b. c #E65704",
"n. c #DD6808",
"m. c #ED6606",
"M. c #F46903",
"N. c #E97408",
"B. c #F87604",
"V. c #90264A",
"C. c #86694B",
"Z. c #93704C",
"A. c #A1744B",
"S. c #A77B53",
"D. c #80666D",
"F. c #847877",
"G. c #80777D",
"H. c #81797D",
"J. c #A97579",
"K. c #6EBA59",
"L. c #948B08",
"P. c #AA8F0C",
"I. c #B5AA0A",
"U. c #918D2F",
"Y. c #A5833C",
"T. c #B0A928",
"R. c #D39208",
"E. c #E48B04",
"W. c #FD8503",
"Q. c #E79409",
"!. c #F79304",
"~. c #CDB00E",
"^. c #FDA806",
"/. c #EBB706",
"(. c #FAB706",
"). c #C2BA35",
"_. c #D6C50F",
"`. c #EAC80C",
"'. c #FAC607",
"]. c #FED404",
"[. c #FEE902",
"{. c #FEF200",
"}. c #D5CD30",
"|. c #FFF224",
" X c #A98458",
".X c #B2855A",
"XX c #B3B353",
"oX c #91916B",
"OX c #B19169",
"+X c #BA936A",
"@X c #B7B56F",
"#X c #C29A66",
"$X c #CDA77B",
"%X c #CECB4F",
"&X c #F4EE4F",
"*X c #D0CD75",
"=X c #F6F46C",
"-X c #010387",
";X c #151A8C",
":X c #020494",
">X c #363688",
",X c #0C0FAC",
"<X c #1C21AF",
"1X c #3234B4",
"2X c #543290",
"3X c #484493",
"4X c #4B47B1",
"5X c #6D5DA3",
"6X c #2F32C7",
"7X c #4A49CC",
"8X c #6661E1",
"9X c #857C81",
"0X c #887F84",
"qX c #97699B",
"wX c #A773A2",
"eX c #C57C83",
"rX c #8676D3",
"tX c #8B8286",
"yX c #8D848A",
"uX c #8A898E",
"iX c #90878C",
"pX c #938A8E",
"aX c #94948A",
"sX c #958C92",
"dX c #988F95",
"fX c #9B9295",
"gX c #9D949A",
"hX c #9F9898",
"jX c #A0979E",
"kX c #A2999E",
"lX c #B5B38E",
"zX c #AB94A7",
"xX c #A59BA1",
"cX c #A89FA5",
"vX c #A5A5A6",
"bX c #ABA1A6",
"nX c #ADA3AA",
"mX c #B1A8AD",
"MX c #B6B1B1",
"NX c #D1B087",
"BX c #E2BE8A",
"VX c #D0CB91",
"CX c #E8C792",
"ZX c #F4F28E",
"AX c #FCFD97",
"SX c #D7D3A8",
"DX c #F4F5AC",
"FX c #D8D7D1",
"GX c #FCFCC8",
"HX c #FCFDD1",
"JX c #FAF9EA",
"KX c #FDFDF9",
/* pixels */
"3.6.H.pXpXpXpXaXhXhXkXbXbXbXnXmXnXmXnXvXcXgXsXgX5.l >.fXfXpXgXpXgXjXjXxXxXgXgXgXgXgXdXdX+.:.iXiX9X0XyXtXoX9X7.3.1.~ ;.oX",
"aXkXkXkXcXkXkXkXkXkXkXbXxXkXjXxXxXxXkXgXvXhXgXbX7.~ <.fXgXgXbXcXzXjXcXnXjX' gXkXjXvXhX5XE -.xXcXxXbXnXbXcXxXjXgX5.( 1.pX",
"aXsXsXgXgXgXfXfXpXpXsXfXfXgXfXgXdXfXsXsXdXsXsXgX1.e +.yXfXfXcXgXgXdXgXaXw - uXdXgXkXhX,.r ] jXnXsXfXfXfXfXsXpXfX1.l ;.tX",
"iXtXoX0X0XsX0XoXyXyXpXfXhXhXhXhXgXgXfXdXfXsXpXfX<.l ;.pXhXfXkXsXsXuXoXM v b V uXpXyXfX5.( L yXcXsXpXpXsXfXsXfXjX,.~ ;.tX",
"pX0XoXH.0XF.F.4.7.F.0XiXpXiXyX0XtXyXyXsXgXfXdXgX:.R >.pXcXgXgXpX6.,.M m *X%X, uXyX>.6.6.| R yXgXyXF.F.0XpXaXsXdX,.R :.yX",
"0X9X7.F.F.F.3.:.,.1.3.7.H.G.3.1.3.6.G.0XsXsXsXfX;.l +.9XgXdXpXyX .M m }.AXDXS ` yX .6 %.] ] gXgXiXG.5.tXfXfXfXjX-.k ;.yX",
"G.5.1.3.7.F.F.F.1.3.4.G.9XG.4.5.7.H.7.tXsXpXpXsX;.E ;.tXkXdXsXtX` x }.=XAXJX*X, vX%.; B | ( fXhXyX5.3.0XdXsXpXaX3./ <.iX",
"5.1.;.:.4.G.G.G.5.4.3.7.7.7.1.1.5.5.6.G.yXyXtXpX+.l *.tX>.9XtX#.N L.|.&XAXJXHX@.` 6 #.XXS o.uXhXiXG.F.iXfXsXpXdX3.E :.0X",
"F.F.4.4.5.7.5.5.F.9X6.4.5XD.,.1.5.5.5.6.7.0XpXsX+.e <.sX0 8 6.` ; T.&X_.=XJXKX*Xm o oXDXoXr 6.dXiX7.7.iXdXdXiXiX3./ 4.pX",
"H.H.H.F.7.7.5.3.7.9X7.4.4.<.;.3.1.1.5.6.H.0XyXsX:.l 1.fXr ; ` ` v T.).v XXJXKXHX@.x B lX*XM ,.gXpX0X7.tXiXiXyXiX<.l =.iX",
"fXsXfXfXfXsXyXtX5X9XtXiXsX0X9X9X0X0XyXyXiXsXfXgX#.e ;.#.M U.U.v v L.v o L.AXKXKX^ S B M ).g.8 tXpXyXtXyXpXdXfXgXG./ =.yX",
";.;.;.;.;.*.+.| #.] / / ] { E E ~ / / / / / ) ( -.~ ;.6 L.=XAXS : c - S v T.ZXJX! @X@XB L.I.8 ~ [ ( [ ] { *.=.-.3./ | 1.",
"~ ~ ~ ~ R R l k M e R E R E E R e r e e e e r e R 8 L 8 L.&XGXlXB x S lX- g._.@XS lXGXoXx L.r ^ l , l k k R k R / e R E ",
"R l R ~ ~ ~ / / l / %.] L R { ] | | | | O.| +.+. .! V - > L.@XZXU.1 *XFXS v I.: L.=XHXuX: v -  ., o ~ R R R k L e e R e ",
"iXpXsXgXkXkXbXbXmXnXjX:.R *.sXjXbXkXkXcXbXbXbXvXxX^ . ; N  .M L.m b AXHXSXS c > m %XAXoX> > . 1 L., uXgXgXdXiXiXyXiX0X0X",
"fXfXhXxXkXkXcXcXcXxXiX*.R :.dXsXfXfXpXpXpXfXfXdXsXiX_ b XXDXaXN ; > }.ZXDXZXS v m L.I.L.B _ #.T.P.` vXmXbXxXgXgXgXgXdXjX",
"dXdXgXgXgXgXgXdXdXgX9X] E <.0XdXfXjXkXfXkXaXfXfXpXfXpX .b %XDX@X1 ; x I.T.XXXX, > B V ^ 5.MXMXXX7 0XjXjXjXdXjXdXsXgXdXsX",
"dXdXgXgXsXdXgXjXgXzX9X*.E 3.0XdXpXaXaXaXfXaXfXfXaXhX6.2.8 m _.%XU.v x . r : .   o U.DXHXlXr > v ^ 0X0XiXsXpXiXoXsXgXgXsX",
"qXsXsX0X0X0XdXxXgXjX0X| R -.iXsXfXfXjXfXkXhXlXaXaX1., . o 1 v b : o o ` SXS : < c v L.}.*XSXU.8 :.7.7.9X0X9X9X5X0XsXdXpX",
"sXuX0X9X9X9XyXdXgXgX9X| R -.0XpXpXpXpXaXsXfXF.5X1.4   X c P.c S XXx 1 %XT., @.+XN * ; o c }.XXm , 3.9X9X9X7.7.4.0X0XpXiX",
"sXyX5XoX7.7.9XiXdXgX0X*.k -.pXdXH.yX0XH.iXO.. @ K -X2 t & % . > c % 1 b o 6 r Z.OX+XZ.& . ; ; c , F.oXiX0X7.4.7.9XsXdX0X",
"tX7.:.+.*.-.3.G.iXdX0X*.e -.iXiX5.D.o.* 8 , = 9 4X,X:X+ 0.i #   < A.S.. w MXFXV A +XX.. : c . - @ 5XyXsX0X7.4.7.9X0XdX0X",
"5X3.:.;.+.*.:.F.0XiX0X-.e +.0X4.V % N A.+X+X@XC.K 7X,XO j.s X . < C.C.a lXFXJXK.XXNXNX*.; c r 2.9 9XiXdXiX9XoX5XyXuXqXiX",
"oX9XG.9XF.3.3.5X9XiX0X3.R *.H.l h l.S.BXZ.V l.C 6 7X;XO ~.Q.t.u   X < A $XCXCXVXBXBX+Xj . V aXdXsXiXiXjXjXpXtXtXdXgXgXsX",
",.:.:.-.*.{ [ { *.O.<.<.E ) O.6 C .X$XCXNXC.@ % h 4 -XO I.n.b.s   % h < +XCXCXBXCX.XS.Z l +.+.*.:.-.=.| [ [ / E [ [ *.=.",
"e R E E E E E E R R E ] R R E 7 C .XBXCXCX$XZ . o   O . < % P.m   8 S.C g +XBXS.A. XZ ` e R l ~ R e l ~ R R R ) E R R R ",
"R R R R e e k k E k R l 0 L k k j < OXBXBXZ.F ;X3XO o C.OXl.a o 3 H V S.h g @XNX.XZ +.~ l ~ l ~ k e e L l L e R L k R e ",
"7.9X9X9X9X9X9X9X0XG.G.G.7.9X0XG.H.1.#.8 C...3 <X4X= Z.NX.X.Xl.: D <X3X7 = I 9 g < 1.yXH.tXyX7.G.4.7.3.*.3.-.| 0 *.3.4.3.",
"iXsXgXzXzXcXcXnXkXkXcXbXnXbXcXjXdXyXyXO.#.* 3 ;X4 @ #X.XS.A.S.C   I 1X4X4X:XO u # 6 5XlXnXmXxXxXdXgXdX0XdXG.<.0 7.dXxXxX",
"0XyXiXsXdXdXdXdXaXhXjXdXdXsXsXsXsXpXyX#./ r ' 2   o Z..XA.h f C s F 7X<X<XF L.a H 2 >.kXxXxXgXgXgXgXgXgXjX<.O.e 3.gXcXdX",
"0XuXsXgXjXjXgXgXhXhXgXdXdXdXsXkXpXpXyXO.( e :.>.>.. % 8 < n h.Q.s.F ;X3 4 8.E.< Y :XP 2.jXdXjXjXgXsXdXdXxX-.O.R 3.gXcXsX",
"0X0XuXiXsXiX0X9X5XyXiXdXdXdXfXfXfXfXpX| / w 1.sX7., e.0.h.c.W.'.Q.z 5 s.0.z.s Q 7X<XD { dXyXiXiXiX0X9X9XdX<.:.0 <.fXxXfX",
"0XyXiXyXyXtXF.>.:.1.5.F.yXpXsXdXfXfXsX;.l w 4.pX0Xo a p n r.p.c.B.c.8.t.i.s   K P H O ' fXuX9X5XyXtX6.H.pX4.| l ;.pXfXxX",
"iXyX0X0XtXtXF.F.1.1.1.6.tXpXfXfXsXfXyX*.R w 3.sX~ O G T I = t u p s y $ t a f Z A , ^ 3.oX9XF.,.7.7.6.F.iX1.o.r 1.fXfXkX",
"iX0X9X0XF.H.H.yXH.7.5.7.H.aXpXpXpXfXtX| R e 1.G.. $ D T 6X;X2 4 F O 3 @ ;.h A.S.X.% >.tXH.H.` (  .6.6.H.pX3.o.l 3.dXiXaX",
"yX0X0XyXyXtXtX0XtX0X6.F.tXtXyXtXyXfX0X| ~ r :.X.u i t $ L U 2 K K 2 3 r FX9 S.OXC.M ..+.| ` g o A o.H.H.pX3.| l 4.sX9XoX",
"yXyXyXyXyXiXH.5.7.H.5XoXH.tXyXyXtXfXtX| / l ..e.q.q.t.q.u X   2 2 X t z :.o Z $XCXC.L T 4 * Z @.S.* 7.tXyX<.} k 7.dXH.tX",
"oXyXoX5X9XoXG.1.5.3.oXH.F.F.F.tXtXsXtXO.V ..e.x.j.n.b.v.z.y   U U & t.t.n s y Z C.7 U 4X$.V @..XN ( tXH.yX,.O.R 4.sX0XtX",
"0X0X0X9X7.7.7.4.7.7.7.7.6.H.9XtXyXfXF.Z s h.E.P.[.(.b.B.m.y   T 1Xh d.m.].m.u.u t t 5 3 h #XC.h ` tXyXyXpX1.+.E 4.sXH.H.",
"iXiXsXiX9X7.G.0X9XoX0XyXpXsXdXdXpXF.f e.z.E.{.{.[.^.^.m.w.$ 2 G 1X3Xy N.(.n.n.n.v.u.i $ z ..( } dXhXfXsXdX1.} r 7.sX0X0X",
"3.H.1.;.<.<.=.;.%.*.;.:.3.5.4.o.%.f s d.d.R.{.{.{.].'.c.t.& I D P >X$ w.M.'.[.{.(.B.c.v.t.N 1.4.G.H.yXtXG.F.=.w G.sX9XsX",
"/ ] ) / ~ l k l R R l l ~ ~ j f y e.R.].].].[.[.^.B.M.m.f.& I G G Y 4 i a.W.'.].].[.[.'.^.j.8 E l k E ~ /  .] e O.=.] [ ",
"R 0 w k e e E E R j r l L R y 9.b.!.^.^.!.^.].Q.p.c.9.u f @ I G D ,XU < b.M.W.W.!.].{.{.[.P.8 0 L 0 0 9 0 e k 0 e k 7 9 ",
"~ e :.yXyXH.oX5X5XF.6.5.o.y q.9.w.Q.(.(.!.B.B.z.q.u 7 < o.q I G G 1X>XX 9.i.c.m.^.'.'.`.^.f.7 <.3.<.:.2.<.3.4.3.4.3.:.*.",
"| E 0XnXMXmXMXnXmXmXmX4.y u.i.9.8.w.u.p.a.m.(.Q.p f kXcXvX{ U H T >X@ 6 < u i q.u.p.a.p.b.f.f fXgXgXjXxXcXzXxXzXdXdXdXdX",
":.~ 7.sXjXzXmXmXgXgX,.p q.u.b.p.r.r.p.N.(.]./.d.h pXdXpXpXyX' { %.. r 0X3.= % e.p.M.M.m.B.B.9.f zXzXjXgXgXdXiXgXxXdXjX0X",
":.E 9XdXmXcXxXgXzXo.s n.r.9.i.m./.`.'.'.].Q.e.f 1.sXpXsXgXfXfXiX| r G.9X4., f./.`.!.b.a.N.Q.9.* sXgXsXiXgXsX0XgX9X9XiX7.",
"-.E 9XyXnXxXgXiX%.y t.W.~.e.r.a.a.a.N.v.p.s h k +.iXsXdXdXtXyXtX9X4.7.9X9X6 q.r.r.i.E.`.R.w.u * sXgXdXuXgXiX9X9X9X9XgX0X",
"| / 7.yXnXgXyXH.' O t t.Q.`.`./.E.m.a.u.i h *.R *.tXgXsXyX9X3.7.7.5.F.oX7.* u i 9.z.C * * t y 7 dXpX0X0XsXsX0X0X0X0XdX9X",
"+./ 9XyXvXdXtX' H :XI t r.p.p.r.0.0.q.u ( &.O.e | 0XfXpXyX9X6.H.tX7.5X9X7.} = X # # H -XQ s.g F.iX0X0X0X0X0X0X0X0XF.sX9X",
"| / H.tXxXsX0X! I 6XqXk.X # # X u q.y X.0X*.| 0 | 0XsXyXtX0X7.tXyXyXtXoX4.| w 6 G :X,X6XwXf.r tX9X9X9X9X9X9X9X0X0X0XaX5X",
"[ ~ H.tXxXsX' U 1XqXeX5X-X-XY O X & o.dXyX*.O.e *.0XsXyXtX7.5.7.tXyXyXtX5.*.e 6 Y ,X6X8XwXf.r 5.4.4.4.7.5X9X9X0XyX0XpX9X",
"/ ~ 5X0XgX! U 1XzXNXrX7X,X:XF *.7.iXpXdX0X*.+.e *.yXdX0X9XG.4.7.0XyXiX0X5.+.l ;.K Y 7X8XzXP.r <.4.4.5.5.5.F.G.7.oX9XuX9X",
") ^ oXoX! O d V.k.y.W ,X-XF >.0X9X0X0X0X0X*.O.k -.yXdX0X9X9X9X9X9XyXiX0X7.*.l 1.9 G Q V.k.d.y w 4.5.5.5.3.F.G.4.F.F.0X9X",
"[ ~ 5XV Y 3X#XJ.2X;XW d P %.oXG.7.9X0X0XG.%.| k -.iXsX9X9X0X9X0XtXtX0X0X7.*.l 3.K d y.d J &.Y.U e 4.F.5.4.4.4.7.5XF.0X4.",
"} ^ L I 7XlXlXrX8X6XY z %.7.5X4.4.9X9X0X9X*.O.k 3.iXsX9X9X9X0XiXyXtXoXyX7.*.l 3.5 d 2X7X7X8XkXoXU L F.5X<.<.4.9X9X9XiX7.",
"%.k O 3 P B L P P F O q 0XyXyXiX0XsX0XiX0X3.O.e <.dXmXdX0X0XiX0XiXiXfXiX9X+.e 3.9 2 F P P P L M 3 O 0XyX5XF.oX9X9X9X4.5X",
"*.] %.{ ^ ' ' ' ' ' ' *.:.3.3.3.3.4.<.:.-.*.| E 3.7.4.3.1.4.4.3.7.>.*.*.5.:.E :.*.' E ' ' { ' / ^ ) 5.3.:.:.<.:.3.1.5.F.",
"] / ;.[ ~ R R / R E E E E ~ E ~ / ] E E E E / k [ E L k E / / E / E l l [ { R +.( E L R ] / R E E R ~ ~ R E / E ] ( ` } ",
"R e l e e R e E R R R R k k R L e k k L e e k 0 k 0 0 k R k e k 7 e r w e e 0 ~ e w 0 L R L 0 E R e R R R R R e w 0 0 k "
};
