/* XPM */
static char *image1673804804[] = {
/* columns rows colors chars-per-pixel */
"60 60 251 2 ",
"   c #010101",
".  c #0B0908",
"X  c #170706",
"o  c #181609",
"O  c #070718",
"+  c #11051C",
"@  c #1A1817",
"#  c #230508",
"$  c #380504",
"%  c #2B190B",
"&  c #361508",
"*  c #271B16",
"=  c #2A101C",
"-  c #1D2118",
";  c #292506",
":  c #322B08",
">  c #3A3506",
",  c #292519",
"<  c #352617",
"1  c #383717",
"2  c #020224",
"3  c #010339",
"4  c #181332",
"5  c #241535",
"6  c #292725",
"7  c #362926",
"8  c #383329",
"9  c #2B2936",
"0  c #372D35",
"q  c #2F323B",
"w  c #393334",
"e  c #3C333A",
"r  c #3A3839",
"t  c #460605",
"y  c #53120B",
"u  c #670504",
"i  c #750504",
"p  c #651509",
"a  c #4D310F",
"s  c #73320A",
"d  c #5F0B33",
"f  c #4C2C28",
"g  c #47342A",
"h  c #543B27",
"j  c #4A3833",
"k  c #40353C",
"l  c #41383D",
"z  c #633029",
"x  c #49450D",
"c  c #524B09",
"v  c #5C5507",
"b  c #585418",
"n  c #6B540D",
"m  c #726A0B",
"M  c #494628",
"N  c #554B2A",
"B  c #575623",
"V  c #4F4439",
"C  c #654426",
"Z  c #674C38",
"A  c #735538",
"S  c #706E32",
"D  c #040647",
"F  c #181A49",
"G  c #020455",
"H  c #111057",
"J  c #290C5E",
"K  c #242348",
"L  c #383349",
"P  c #272557",
"I  c #030664",
"U  c #111467",
"Y  c #020475",
"T  c #2F2E71",
"R  c #443B41",
"E  c #493D47",
"W  c #533741",
"Q  c #5C245E",
"!  c #533373",
"~  c #3E404D",
"^  c #4A4146",
"/  c #474748",
"(  c #4C434A",
")  c #54494A",
"_  c #534A4E",
"`  c #495240",
"'  c #5B5749",
"]  c #484856",
"[  c #554B53",
"{  c #584E56",
"}  c #564F59",
"|  c #5B5354",
" . c #5E545A",
".. c #5A5858",
"X. c #675548",
"o. c #70554F",
"O. c #695857",
"+. c #60565D",
"@. c #62595E",
"#. c #746B47",
"$. c #68645B",
"%. c #4A406A",
"&. c #5A5964",
"*. c #6E4167",
"=. c #645B61",
"-. c #685F64",
";. c #695F68",
":. c #6A6165",
">. c #6C636A",
",. c #686568",
"<. c #756864",
"1. c #70666C",
"2. c #72696D",
"3. c #6D6D70",
"4. c #756B72",
"5. c #786E76",
"6. c #7A7175",
"7. c #7B7779",
"8. c #7D747A",
"9. c #870D03",
"0. c #980601",
"q. c #951A01",
"w. c #A80700",
"e. c #B51501",
"r. c #8B2D06",
"t. c #972702",
"y. c #B52E03",
"u. c #9A1F2E",
"i. c #C81000",
"p. c #C51900",
"a. c #CA3003",
"s. c #D83A04",
"d. c #8D460D",
"f. c #AC500B",
"g. c #B75903",
"h. c #837B03",
"j. c #99740E",
"k. c #B36808",
"l. c #A24B32",
"z. c #84603E",
"x. c #D84704",
"c. c #CA5A08",
"v. c #D55803",
"b. c #E24404",
"n. c #E65704",
"m. c #DD6808",
"M. c #ED6606",
"N. c #F46903",
"B. c #E97408",
"V. c #F87604",
"C. c #90264A",
"Z. c #86694B",
"A. c #93704C",
"S. c #A1744B",
"D. c #A77B53",
"F. c #847877",
"G. c #80777D",
"H. c #81797D",
"J. c #A97579",
"K. c #6EBA59",
"L. c #948B08",
"P. c #AA8F0C",
"I. c #B5AA0A",
"U. c #918D2F",
"Y. c #B0A928",
"T. c #D39208",
"R. c #E48B04",
"E. c #FD8503",
"W. c #E79409",
"Q. c #F79304",
"!. c #CDB00E",
"~. c #FDA806",
"^. c #EBB706",
"/. c #FAB706",
"(. c #C2BA35",
"). c #D6C50F",
"_. c #EAC80C",
"`. c #FAC607",
"'. c #FED404",
"]. c #FEE902",
"[. c #FEF200",
"{. c #D5CD30",
"}. c #FFF224",
"|. c #988C4F",
" X c #A98458",
".X c #B2855A",
"XX c #B3B353",
"oX c #91916B",
"OX c #B19169",
"+X c #BA936A",
"@X c #B7B56F",
"#X c #C29A66",
"$X c #CDA77B",
"%X c #CECB4F",
"&X c #F4EE4F",
"*X c #D0CD75",
"=X c #F6F46C",
"-X c #010387",
";X c #151A8C",
":X c #020494",
">X c #363688",
",X c #0C0FAC",
"<X c #1C21AF",
"1X c #3234B4",
"2X c #543290",
"3X c #484493",
"4X c #4B47B1",
"5X c #6D5DA3",
"6X c #2F32C7",
"7X c #4A49CC",
"8X c #6661E1",
"9X c #857C81",
"0X c #887F84",
"qX c #97699B",
"wX c #A773A2",
"eX c #8676D3",
"rX c #8B8286",
"tX c #8D848A",
"yX c #8A898E",
"uX c #90878C",
"iX c #938A8E",
"pX c #94948A",
"aX c #958C92",
"sX c #988F95",
"dX c #9B9295",
"fX c #9D949A",
"gX c #9F9898",
"hX c #A0979E",
"jX c #A2999E",
"kX c #B5B38E",
"lX c #AB94A7",
"zX c #A59BA1",
"xX c #A89FA5",
"cX c #A5A5A6",
"vX c #ABA1A6",
"bX c #ADA3AA",
"nX c #B1A8AD",
"mX c #B6B1B1",
"MX c #D1B087",
"NX c #E2BE8A",
"BX c #D0CB91",
"VX c #E8C792",
"CX c #F4F28E",
"ZX c #FCFD97",
"AX c #D7D3A8",
"SX c #F4F5AC",
"DX c #D8D7D1",
"FX c #FCFCC8",
"GX c #FCFDD1",
"HX c #FAF9EA",
"JX c #FDFDF9",
/* pixels */
"H.:.^ 2.6.6.F.oXrXtXoX9XaXuX>.=.sXsXfXfXfXfXfXzXzXzXhXfXuXfXaXfXsX:.l 5.fXsXfXcXxXbXnXbXnXnXbXbXvXjXjXdXiXpXiXiXiXoX5.2.",
"iX2./ 6.jXjXhXlXvXvXlXzXxXhX;.E 9XfXlXzXjXfX/ jXbXzXzXzXzXbXfXfXdX2.^ F.vXgXgXzXhXhXzXgXzXhXgXzXcXjXjXjXjXjXjXjXjXjXhXdX",
"tX:.V 1.dXiXaXsXdXhXdXsXbXhX] k >.fXfXfXaXyX@ 8 iXfXfXfXgXzXsXsXtX@.w 2.fXaXaXsXiXaXdXsXfXfXdXfXdXaXiXiXdXdXgXdXdXpXaXaX",
"tX:.E 1.gXdXdXsXpXuXuXiXzXuXR ( 5.fXtXaXyX` b v M 7.uXaXaXhXfXgXiX:.l 1.fXiXaXsXsXdXfXfXgXfXfXgXdXiXtXtX0XuXaXoXrXrXrXtX",
"uX1.l >.sXaXiXiXrX7.7.tXfXtXE | 5X7.,.yXyX, %X*Xm M <.8.iXfXfXzXiX:.E 1.fXdXdXfXaXtXtXrXrXrXtXaXuXrXF.H.5.G.H.H.oX0X0XiX",
"rX:.l :.gXdXgXgXrX6.H.iXgXfX_ _ .., ..yX' S SXZX{.m M $.yXaXsXfX0X@.l =.dXaXaXaXrX7.8.5.2.4.6.8.7.2.1.>.<.4.F.F.7.7.9X0X",
"iX<.^ 4.dXiXaXaXrX5.6.tXgXfX_ ..B ; @.cX: *XHXZX=X{.> ' rXiXdXjXrX:.E :.sXiXaXaXrX8.H.8.6.6.5XoXH.6.4.4.8.H.G.G.4.<.6.H.",
"tX:.^ 2.sXiXaXdXiX8.8.uXfXtX' U.@X#.6 ' S GXJXZX&X}.L.M $.rX9X,.rX=.l @.yXrXtXrXH.6.6.6.3.4.F.F.6.4.4.6.F.H.F.4.1.>.<.6.",
"iX4.^ 4.aXuXsXfXuX5.F.iXdX7.r oXFXoXo m *XJXJX=X).&XY.: ' H.r q aX1.r =.dXiXrX7.G.5.5.5.1.1.4.5.6.8.9X8.6.6.7.5.6.4.7.F.",
"tX:.l 2.uX0XuXuX0XG.9XiXgX<.M kX@XB x S GXJXHXY.v %XY.v ' B ; r sX1.r >.aXtXrX7.G.5.4.5.4.>.1.4.6.8.9X7.4.6.7.F.F.H.H.9X",
"tX:.( H.fXsXsXiX0X0XtXaXrX6 h.(.B B S _ JXJXZXU.o v L.v v U.U.M $.,.e &.fXsXaXiX0X0X0X0X9X9X0XaXuX9X9X9XrXuXiXdXdXdXsXsX",
"4. .( 4.;.=.=.[ { [ ) { / 8 I.L.b kXoX] HXZXY.v B - c : S CX=XL.7 =.^ ,._ ) ( ( ( ( [ E E E [ [ ( E [ =. .@.@.:.:.>.=.:.",
"( R e E R l R L R R 6 l ^ r L.x oXFXBXS @X).h.o kXS x B kXGX&XP.8 L w V w e e w l k e e R E R k E E r R l l l E ^ ^ ^ ^ ",
"e R k L e k R R R R . ; ..6 v : yXGX=XL.: I.v #.DX*X1 U.CX@Xh.> @ V R ..@.@.@.+.+.{ | +.{ } R L [ &.( L ( ( ^ E ^ l E l ",
"9X0XtX0XaXiXsXfXfX0X* L.a . > > OXZX%Xv 1 x S SXGXZXB m L.B ' M ; . / zXvXvXvXxXzXjXzXzXfXaX=.E >.hXbXnXxXxXzXfXgXsXuXtX",
"fXsXhXhXfXfXzXxXnXbXX.Y.Y.' ` B h.I.L.m x S CXSX=X{.1 : B pXSXXXb / iXiXsXdXdXdXaXiXsXdXaXsX;.E =.iXhXlXxXxXzXzXhXjXgXaX",
"aXsXfXsXsXsXfXfXhXfXtX6 XXkXmX7.` M B > , XXXXY.I.c ; 1 oXSX%XB $.iXdXuXdXdXdXgXgXgXdXdXaX0X4.R ' 5XhXsXsXsXfXfXfXfXsXsX",
"sXsXfXiXtXiXaXaXaXtXrX` B 1 r kXGXSXU.o   . , r o x v U.%X).h.r 3.7.gXpXdXdXdXdXpXpXpXiXaXuX4.E +.9XlXfXzXlXsXaXsXsXsXsX",
"uXsXaX0X5XoX9X9X9X8.6.:.M S AX*X{.P.m x < < S AXZ . o : b v > o . @ 3.aXgXfXfXfXdXhXdXdXiX0X1.l +.H.hXfXhXaX0X0X0XaXiXuX",
"uXaXuX9X5.5.F.H.9X9X3.- m %X{.v . ; , V .X#.; Y.%XM > XXS c P.c X   4 4.F.oXaXsXpXiXiXiXiXuX;.k +.0XhXfXfX0X9X9X0X0XuXiX",
"0XsX0X0X6.6.6.H.tXtX8., c ; o . , Z.+X.XA.r 6 o b 1 % c x . % & t 2 -XF @ o ..yXF.tXoX0XsXaX;.L @.0XhXfX0X0X9X5.5XG.uXaX",
"0XsX0X9XF.F.6.rXaXtX5X@ , . c : X #..XZ ` DXmX9 o |.S.< . X i q.@ :X<X4X9 @ 7 q 6 X.6.4.aX0X;.e =.rXsXuX9X4.;.=.$.<.G.0X",
"0X0XsX0X9X5X9XuXaXtXoX0 3.r c ; @.MXMX@XK.HXDXMX< Z.A.&   X s g.2 ,X7XK #.+X+X+XS.C 6 V 5.9X=.e ;.0XtX0X5.;.=.=.;.;.5.9X",
"fXsXhXfX0X0XaXzXhXaXtXuXaXdXV . h +XNXVXBXVXVX$XA < o   y a.R.!.+ ;X7X5 C z.h A.MXD.A z R 9X=.R 4.uX0X9X9X4.4.5.9X9XG.9X",
";.&.} } E E } {  .=.;.1.=.@.@.R Z D..XNXNXVXNX+Xg h %   s n.m.I.2 -X4 h % o #.NXVX$X.XC 6  .( ) ;.1. .=.}  .} *.;.1.1.1.",
"R E R E E E R E E R L l E l R w ' Z D.S..XNX+Xg C D.8   m P.& < . O   @ . Z $XVXVXNX.XC 8 E R l [ _ R R E E E E E E R k ",
"R R R R R R R R R e w L ^ l ^ l ( @.Z +X$X$X8 h S.N H 3 % a A OXZ.o O 3X;X4 A.NXVX X< l 0 E M w R R 0 E e e e L l E E R ",
"4.5.1.+.0 +.;.>.=.4.6.5.F.8.tX0X9XtX2.< 1 9 Y @ 7 3X<XD ; Z..X.XMXA.@ 4X<XD o.Z.8 $.2.9X8.9X5X8.9X8.9X0X9XH.9XH.G.oX5X8.",
"hXzXsX8.0 ;.9XsXrXsXfXsXjXhXnXbXvX7.9 # u O :X4X4X1XU   N D.S..X.X#X@ 4 :X3 * $.@.tXuXaXzXlXxXbXxXzXhXhXbXbXxXxXzXfXaXiX",
"sXlXfX4.0 +.;.lXfXsXfXfXhXgXzXzXgX,.2 H s U.4 <X<X7XF s d.7 g S..XZ.o   2 ] r ^ @.tXtXdXaXaXaXsXhXfXfXsXaXaXsXsXaXuXtX0X",
"aXzXfX4.L =.;.zXfXaXdXfXfXfXfXfX3.P -XY : R.9.4 D ;X4 d.W.j.s < 8 % . ,.3.2.e ) @.tXiXiXfXaXaXsXsXfXjXhXfXzXzXfXfXaXuX0X",
"sXzXfX1.e >.>.sX9X9XrXtXyXaXtXaX} D <X7X3Xs x.q.d.5 z T.`.E.m.j.q.d., 7.pX2.7 ) +.iXhXpXfXsXsXfXaXuXoX5X0X0XtXiXuXuXrXrX",
"zXdXaX=.l O.6.iXH.H.rXrX7.H.iXdX} O H P P . s e.y.q.v.V.v.a.r.n y p @ rXiX4.w l :.iXdXdXdXaXiXrXG.6.1.>.>.7.rXtXtXuXrX0X",
"hXdXdX2.k | 2.uXH.7.H.F.4.7.9XoX4./ ; X.Z a a t t t s p u t = I T G O / aX4.w R =.tXdXaXdXdXiXrXF.2.2.2.H.H.9X0XrXrXrXtX",
"aXiXdX4.l +.2.iXF.7.6.| ) ' 9X5X9X1.% o.D.S.h ,.@ 3 O F 5 2 ;X4XT D $ . F.1.w ^  .rXdXiXiXiXuXrX7.6.7.H.tX9X9X9X9X9XrXuX",
"oXH.aX6.l @.4.iXH.H.O.X.. g ' X.=.' h Z.+X.X6 DXq 3 2 K F O U P $ t i p o.1.k ^  .9XfXtXtXtXtXH.H.F.H.rXoX9X0XtX0X0XoXtX",
"0X0XsX8.k | <.uXrX7.*  X#.X.% 4 T R Z.NX$XN @ 1.z $ X 2 2   X u 0.y.w.w.s o.k ^  .0XdXrXuXoXrXH.H.H.H.F.6.H.uXtXtXtXtXtX",
"0X0XaX6.l | 1.uXH.rX) h .X#.V %.7XU 7 Z.Z y s n e.a.& P U   y x.b.n.B.k.c.r.o.h +.tXaXrXoX5XH.F.H.7.7.6.2.7.0XH.G.0XtXrX",
"9X9XiX6.^ @.2.iXrXtXtX' h Z.+Xh 3 5 t t u i.M.'.M.f.W 1XT   y M.V.n./.].P.R.k.a Z F.dXuX0XH.H.H.H.H.8.8.6.F.7.F.9XrXtXrX",
"9X9XaX8.l | 2.sXiXgXfXdX' ) X.z t 9.i.x.m.v.B./.B.& 3X1XG O $ e.N.~.~.].].].W.v.r.f F.aXdXdXsXiXrX9X9X9XrXF.8.rXuXuXtXtX",
"aX9XaX9Xw =.G.G.rXrX9X8.4.<.C t.x.m.B./.[.].`.N.e.$ >XU D I & y.n.`.'.[.[.[.T.f.f.s g ' +.4.4.4.:.=.@. .:.:.>.1.:.2.9X4.",
"| _ ;.@.e [ +.( ^ ^ e R E 8 k.~.`.[.].`.'.`.E.x.i + -XD G I & g.n.N.E.~.].[.'.'.'.W.r.y f j E E E E R E l r l E ( ) [ ( ",
"0 6 e w 0 k L 9 0 0 0 e 0 8 P.].[.[.'.Q.E.E.N.M.& ;X,XD D I @ g u q.v.a.W.'.~.Q.~.Q.Q.n.w.d j e r r V V ^ E w e r e 0 e ",
";.;.5.5.4.5.4.3.1.>.2.4.1.7 g./.`.`.`.~.N.n.e.0.# >X1XD G I r O.< 7 u w.x.B.V.Q.`.`.W.e.9.w.y  .6.6.6.5X8.0X9XtXtX>.e ( ",
"aXsXsXsXlXhXhXzXzXhXhXhXaXf g.n.s.s.a.i.w.u p a 6 o >XT H U } cXlXhXf p T./.M.s.a.p.w.9.0.p.i.y 5.nXnXnXbXmXnXmXbX9XE  .",
"0XhXsXzXfXsXfXhXfXfXzXzXf 0.N.V.N.N.n.a.r.& @ <.tXr @ ..} ] yXiXiXsXuXh f.~.'.`.M.a.t.t.a.n.p.w.p 2.hXhXnXnXlXzXaX8.E >.",
"9X0X9X9XfX0XsXfXyXaXfXaX* 0.Q.B.x.n.Q.^.^.g.< 5XoX5Xr ..uXsXdXfXiXiXaX4.f u.W.'.'.`._.^.M.p.0.t.v.s -.lXfXhXxXnXsX0XE >.",
"0XfX9X9X9X9XuXsXuXsXhXaX= u y.T.).B.y.t.t.w.* H.H.7.5.9X0XyXrXdXsXaXuX+.R j s a.n.M.s.s.s.t.t.!.Q.y.y } aXfXxXxXtX9X( ;.",
"9XuX9XtX9X0XuXaXtXtXuXfX7 u t ; , n x.0.i u * 8.9X6.6.H.F.4.H.uXaXhXrX@.l @.h i i.s.n.B.^._._.Q.t.t . %.G.uXhXvXtXH.( | ",
"9XuX9X9XrX0X0X0XrXrX0XuXG.0 d.! :XH = X X = | 7.0XG.H.H.H.8.9XtXiXaX0X@.e +.+.) i w.q.t.r.a.a.t.t U :XH ] rXsXxXtXH._  .",
"9XsX9XyX0X9X9X9XH.H.F.5X0Xr g.wX6X:X:XG 6 w +.6.0XrXtX0X9X8.9XrXuXaX0X+.k +.=.0Xo.y 0.u # # # X d.qX6XG ] 9XsXjXrXH.(  .",
"9X0X0XqX9XoXF.5X7.F.6.5.5.r g.wX8X6X,XY 9 k @.6.0XtXaX0XH.6.H.rX0XaX0X@.0 +.;.0XsXO.& # O Y -X-X5XlXqX1XU ] iXjXrXH.( | ",
"9XiX9X0X5XF.6.7.8.5.5.5.4.l P.lX8X7XY K =.l =.7.rXuXuXoX8.8.H.H.0XsX0X=.k +.O.0XiXaXrX8.&.F -X,X7XeXkXlX1XU L gX9X5XV _ ",
"8.tXG.G.F.F.6.6.6.6.8.4.e y c.C.C.Q I 9 >.l @.7.rXrXrXF.H.G.0X0X0XsXuX;.k  .=.0XtXrXrXH.rX;.F -X<X! u.l.C.d . ~ oXoX` ) ",
"8.0X8.G.8.6.5.4.8.F.6.q U S.*.J d u.d 9 4.L =.F.rXrXrXrX0X9X0X9X0XaXuX>.L  .=.9XrXH.9X8.5XoX$.L d Q J 2XJ..X3XU ~ 5X( [ ",
"5X0XF.oX5X6.4.2.7.7.L U oXxX8X7X7X2X5 9 4.e =.F.rX0XrXuXrX0XoX5XG.aXaX1.k  .=.9XrXoX5X7.8.8.5X&.Q J 6X8XeXvXkX7XY L ( | ",
"F.6.H.H.9X9X8.5XoX9XO 3 x L P P J J 2 9 4.e @.9XtXgXtXtX0XiX0X9XsXnXfX4.e  .4.0XtXtXaX0XuXuX0X9X0 2 H P P L b K 3 O r =.",
"F.6.4.2.1.4.;.;.5.F._ ( ] _ ] ] [ W ] =.;.E >.6.@.=.>.F.4.5.5.4.4.5.5.4.E  .=.;.;.1.5.4.4.4.4.1.;.E ] ] ] _ ] ] } &.[ =.",
" .[ _ _ E ( E E ( E R E E L ( [ E e E [  .R | [ r R E ( ( ( ( ( R k E [ R E E E E E [ ( E E E R E ^ ( E ( l R ( [ ;.( [ ",
"e 0 e e k R R k R R e l E 0 e E L 0 e e ^ 0 k l e e w 7 e e e R k 0 0 k 0 R 0 e k L R e k R R k l E l l E k L e e l e E "
};
