/* XPM */
static char *_2ed3cc0b51c4a49b14b14100636087ejkISIEHjxOI5EsvA[] = {
/* columns rows colors chars-per-pixel */
"60 60 233 2 ",
"   c #2A0E00",
".  c #341806",
"X  c #29100B",
"o  c #492916",
"O  c #5C3B1C",
"+  c #5A3113",
"@  c #633E1C",
"#  c #5C3D22",
"$  c #553B22",
"%  c #61441C",
"&  c #5B452B",
"*  c #5B4631",
"=  c #654423",
"-  c #6A4C26",
";  c #6A4629",
":  c #6C4B2B",
">  c #674825",
",  c #704E2E",
"<  c #744824",
"1  c #6E522D",
"2  c #7B562C",
"3  c #775529",
"4  c #664A34",
"5  c #724F31",
"6  c #6D5331",
"7  c #6C533A",
"8  c #655639",
"9  c #735434",
"0  c #795533",
"q  c #7B5C35",
"w  c #725A3C",
"e  c #7B5C3B",
"r  c #735838",
"t  c #6E5745",
"y  c #745A43",
"u  c #7C5D44",
"i  c #765B4A",
"p  c #775A48",
"a  c #745E51",
"s  c #736444",
"d  c #7D644B",
"f  c #7B694B",
"g  c #7B6246",
"h  c #7E7258",
"j  c #855D34",
"k  c #8B622F",
"l  c #8C6236",
"z  c #84623D",
"x  c #8F6339",
"c  c #8B693E",
"v  c #906A37",
"b  c #906C3B",
"n  c #906231",
"m  c #91733D",
"M  c #826345",
"N  c #8A6B46",
"B  c #84654A",
"V  c #856B4B",
"C  c #8B6C4B",
"Z  c #866946",
"A  c #936C42",
"S  c #906E48",
"D  c #8E704E",
"F  c #95754E",
"G  c #9B7A4D",
"H  c #967648",
"J  c #856C52",
"K  c #866D59",
"L  c #926F53",
"P  c #8C7255",
"I  c #8F7A59",
"U  c #897859",
"Y  c #997452",
"T  c #957A54",
"R  c #9B7C53",
"E  c #937B5B",
"W  c #9A7C5B",
"Q  c #947558",
"!  c #A27E4F",
"~  c #A27D52",
"^  c #A77E5B",
"/  c #8E7A64",
"(  c #927A62",
")  c #927965",
"_  c #9B825C",
"`  c #988157",
"'  c #A48355",
"]  c #AB8454",
"[  c #AB8A56",
"{  c #A3845B",
"}  c #AB855C",
"|  c #A68A5D",
" . c #AB8A5B",
".. c #A58957",
"X. c #B28C5C",
"o. c #B9925D",
"O. c #A9814E",
"+. c #9C8463",
"@. c #9D8865",
"#. c #9E866A",
"$. c #9D8B6C",
"%. c #958365",
"&. c #9F9069",
"*. c #8F8373",
"=. c #9C8D70",
"-. c #A38564",
";. c #A48A64",
":. c #AB8C64",
">. c #A3866A",
",. c #A48C6B",
"<. c #AA8C6B",
"1. c #AE8663",
"2. c #B48C62",
"3. c #B98F65",
"4. c #AD9364",
"5. c #A4916E",
"6. c #AD946B",
"7. c #AF986E",
"8. c #B49364",
"9. c #BB9464",
"0. c #BC9A66",
"q. c #B2956C",
"w. c #BB956A",
"e. c #B3996C",
"r. c #BC9B6C",
"t. c #B69C64",
"y. c #A58E72",
"u. c #AA8D73",
"i. c #A59274",
"p. c #AC9473",
"a. c #A6957B",
"s. c #AB957B",
"d. c #AC997C",
"f. c #AF9A73",
"g. c #B39673",
"h. c #B49A74",
"j. c #BB9C73",
"k. c #B39779",
"l. c #B39B7B",
"z. c #BA9D7A",
"x. c #B89670",
"c. c #BBA36D",
"v. c #B4A076",
"b. c #BCA375",
"n. c #BDA37C",
"m. c #BFAB7D",
"M. c #B4A57A",
"N. c #C29C6C",
"B. c #C49869",
"V. c #C29E72",
"C. c #C99F75",
"Z. c #C4A26E",
"A. c #C9A26F",
"S. c #C4A374",
"D. c #CAA574",
"F. c #C5AA76",
"G. c #CAAB76",
"H. c #C4A57B",
"J. c #CAA67A",
"K. c #C5AB7C",
"L. c #CBAB7C",
"P. c #D2AE7E",
"I. c #D1AC75",
"U. c #C7B17E",
"Y. c #CBB17D",
"T. c #CFB97F",
"R. c #C6B077",
"E. c #D2B37E",
"W. c #DAB27F",
"Q. c #D3A66F",
"!. c #AB9A81",
"~. c #B39E83",
"^. c #B59B81",
"/. c #BBA585",
"(. c #C3A682",
"). c #C5AC82",
"_. c #CBAD83",
"`. c #C5AD89",
"'. c #CAAE8B",
"]. c #C9A782",
"[. c #D2AD82",
"{. c #D0AF8C",
"}. c #C7B084",
"|. c #CBB284",
" X c #CEB985",
".X c #CBB489",
"XX c #CDB58A",
"oX c #CEB58D",
"OX c #CCB48A",
"+X c #CEB98D",
"@X c #C4B58A",
"#X c #D3B484",
"$X c #D4BB85",
"%X c #DABC85",
"&X c #D3B58A",
"*X c #D8B78A",
"=X c #D4BB8C",
"-X c #D9BC8C",
";X c #C7AE90",
":X c #CEB691",
">X c #CCB692",
",X c #CEBA93",
"<X c #C6B798",
"1X c #D1B691",
"2X c #D9B793",
"3X c #D5BD91",
"4X c #D7BE95",
"5X c #D4BC92",
"6X c #DABD94",
"7X c #D5BE9A",
"8X c #DABB9C",
"9X c #D6C18E",
"0X c #DAC28D",
"qX c #D9C286",
"wX c #CFC298",
"eX c #D6C194",
"rX c #DAC294",
"tX c #DDC995",
"yX c #D5C39B",
"uX c #DBC49B",
"iX c #DCC99D",
"pX c #E2C695",
"aX c #E3CA94",
"sX c #E1C69B",
"dX c #E2CA9C",
"fX c #D7C5A3",
"gX c #DBC5A2",
"hX c #DCCAA2",
"jX c #E3CBA3",
"kX c #E4CDAB",
"lX c #EACFA4",
"zX c #E8D2A9",
"xX c #EDD6B4",
/* pixels */
"`.|.|..X`.}.Y.).L.|.|.).}.|._.}._.]._._._.OXXXXX>X,X,X,X>X>X>XoX>X>XoXoXoXoX>X1X1X>X.XOX_.`.oX|.).`.|.XXOXoXoXOX.X.X}.7X",
"|.@.5.}.K.`.|.).}.K.K._.|.|._.L.|.OX_..X.X@X}.`._._._._.`.L._.L._._.}._._._._.).K._._.H.K._.}._.L.}._.`.).].).K.}.;.,.,X",
"K.h.z._._..X`._.L._.|._._._._.}.K.L._.L.L.L._._._.L.L.J.L.L.L.L.J.L.L.L.L.L.L.J.L.K.H.H._._.H._.L.L.K.L.K.K.L.K.J.K.z.|.",
"H.K.G.J.H.Z.J.J.J.F.F.H.S.K.L.S.K.F.J.K.K.L.L.L.L._._._._.)._.)._.).L.L.L.K.K.L.K.G.L.J.K.L.H.F.F.H.F.L.H.F.G.S.J.Y.J.|.",
"K.|.K.}.Y.F.R.K.L.K.Y.|._.K.L.K.|._._._._._._.#X.X|.XXoXOXoXoXoXOXOXOXOX|.#X|.OX&X_._.OXOX&X|.|._.|.|._._.L.&X_.|.U.K.=X",
"`.5.5.XX}..X}.|.K.|.|.|.}._.|._.|..X}.|..X.XXXXX.X.XXXoXOXXX.X+XXXXXXX.X|.}.OX|._.`..X.X`.).@X.X#X|.|.|.|.|.Y.|.+X;.5.=X",
"K.).K.|.F._._.|.$X=X|.+X=X9XrX=X=X=X5X3X3X3X4X3XeX3X2X6X2X4X3XeXuX7X4X4X7X6X=X3XeXrXeX=XeXeX=X XXX}..X+X.XoX)..X|.`.(.XX",
"=.i.5.i.a.i.p.K y B f J d w y g z M M N C C D C D C Z Z C N C N C V Z Z C N Z M g y d i y 4 4 K E E P J V #.,.,.y.5.,.!.",
">XT.G.|.E.5X=XE -.e.8.4.6.C + < j j 9 z m H b v A m : x j l l l x 5 z n b b k j 1 4 3 1 = X s b.K.Z.t.4.a S._.L.}.L.K.5X",
"`.m.S.|.|.).XX%.0.#X&Xh.I eXj.b ! w.W z.G.S.S.S.G.n.>.N.B.B.N.r.V.-.x.N.V.S.9.w.;.T t.-.& U -X%.n.G.).6.f J.z.S._.S.H.OX",
".X_ r.Y.Y._ K.@.c.I.+X>X}.}. Xj.Y 8.{ k.}.G.F.J._.).>.S.N.V.V.V.L.+.z.S.H.K.8.8.;.Q ..7 U 0X X.XK.J.|.e.s K.I F.`.V.F 1X",
"'.|.|.|.K.+X=X+.e.M.Y.|.>X9X|.,XV.] _ l.|.Y.F._.#X}.i.L.J.J.H.).K.p.n.D.).H.r.r.;.P w I 9X.X|.].|.H.z.e.s (.'.H.OXH._.>X",
";XU.G.L.|..X=X#.b.T K.|.+X,X1X@X4XH.P e. X.X}.|.3X|.s._.J.L.].[.[.u./._.(.H.e.:.R * %.=X=X>XR.|.T.).T z.s ].|._.|.H.K.1X",
"OXT.Y.XX#XoXrXd i %X=X,X#XoXyX#X.XuX^.;.U._.&XY.&X'.s.[.[.]._.'.'.k._.F.(.n.r.{ 6 / uX+X,X[.#XY..X}.7Xf & =X].L._.J.K.5X",
"'.|.G.K.L..XrX-.o H E._.=XT..X7X+X|.uX.Xr.|.K.#X3XOXs.#X[._.[.'.&Xs.m.F.H.l.:.- _ rX5X+XL.&XY.|.|.rX-.  8 2X}.K._.K.J.5X",
">X}._.#XE.+X=Xe.v @ Y -X+X,X.X+XyX X>X6X|.e.J.|.5XOXd.&X].[._._.1Xi.n.Z.h.h.q %.4XwX9XR.&XY.$X|.=Xz.> o a &X}.K.|.J.J.4X",
".X=XL._.|.+X$Xj.! ! - ) uX&X=X|.+XeX=X+XyXOXr.).&X.Xa.&X_.[._.&X_.u.l.c.8.u #.9XeX5X@X$X|.$X.XeXp.F 0 O i 5X_.L.|.F.K.4X",
"OX&XL.#X X+X=Xz.] 8.:.$ ^ iX.X3XXXoXeX=X&XyXoXr.|.oXp.&X_.].`.'.L.+.l.8.q >.eXyX5X.X#X|.XX+X=XH.V W F & p =XOXL.OXD.L.7X",
".XOXR.&X|.+X5Xn.3.B.e.C > W jX&X5X#XeXfX=X=XyX$XV.n.u._.H.[.].V.j.@.6.e +.rX5X8X+X$XP.#X1X7X.X8.E ;.Y # d 3X_._.OXG.L.1X",
"OX|.G.&X|.+X5X(.o.B.r.W 2.= @.hX5X+X|.9XfX=X=X7X=X6.u._.H.S.z.j.r.T 7 ;.uX7XyX=X+X#X=X|.4X).6.j.>.6.F # u =X|.L.#XJ.L.7X",
"'.#XG.&X|.+XeX(.o.0.S.+.w.1.- ,.pXyX5X|.rXhX3X3XrX>XE H.C.N.N.q.:.7 $.rX7X7X$X#X#X&X+XuXL...S.).#.q.R # u =X&X_.OXJ.L.7X",
"oX&XL.&X.X+X=XK.o.Z.J.>.B.r.| : _ rXeXyX+X5XfXrX,XgX;Xq.x.3.3.1.e #.uX3XfX,X=XE.-X3X5XoX8.8._.`.5.q.F = u &XXX_.OXG._.4X",
"OX&XL.#X|.=X6X(.9.Z.H.,.V.w.b.1.1 R pXyXgXyXyXfXfX5XjX`.Y ] } 9 +.uX7XuX&X&X X&X1XuXOXr.S.G.K.OX#.e.R = u $X&X_.&XL.L.4X",
"OX=XG.#X.X$XrXH.9.Z.S.:.D.V.N.B.1.6 _ 6XeXhXfXyXgX=X&XjX].b = #.dXyXeXXX4X$X=X4X4X|.b.J.#X_.H.5X,.z.G = u #XOX[.XXL._.8X",
"OX+XL.#X$X5X3X).0.A.D.;.J.S.V.V.N.3.& $.tX3XrXgXfXyXrX+XjXJ ( dX5XuX=X6X&X&X2XeX'.+.#X=X+X.XOXoX,.z.R = M &X&X_.XXL.L.4X",
"OX=XY.&X|.5X4XH.0.A.J.>.J.D.D.F.r.].E 6 5.uXeX7XyXyXyX6X$.5.aXyXfX=X3X&X#X5X4XP.<.>.6X&X=X,XOX4X5.z.` ; M &X&X#X&XL.L.6X",
"OX1XL.&X|.5XrXH.0.A.J.;.J.J.J.D.N.].<.<.M ;.tX1X6XuXgXi.@.rXuXrX8X#X-X4XeXuXOX9.e.l.rX4XeXyX&X7Xi.n.' ; M &X|.[.&XL.L.4X",
"OX5XY.&X+X5X4XK.0.D.J.<.J.J.J.J.J.J.;.(.n.1 ' dX$X=Xi.$.iX7XyX4X-X6X&X3XeXOXV.D.H.l.rXuXeX5X&XfXi.n.' ; M =X|.&X&X#X].rX",
"OX1XY.&X$X5XeXH.0.D.J.5.J.J.D.H.H.L.6.n.OXz.1 ` iX@.5.eXuXgX&X4X$X6X3XuX#X9.J.|.H.l.uXuXyX+X3XyXa.).' : M 6XXX#X&X_.].7X",
"OX=XI.&X X5XeXH.r.Q.J.<.P.L.D.J.J.{.g.n.oXn. .O t a.eXuX7X=X4X-X#X+XgX(.X.Z.[.Y.].~.iXfXuX=X&X7X!.).' ; M 6XXX&X=X[.[.rX",
"OX=XI.=X XeX6XH.0.D.J.6.J.J.D.J.J.&Xy.z.|.H.t.4 ) sXuXuX2X4X=X$X3XtXl.k. .S.&X[.H.~.jXuXuX=X&XhX!.(...; B uXXX&X3X[._.rX",
"oX=XY.=X|.4XeXH.w.D.D.p.J.J.J.J.J.|.u.h.U.e.q >.dXyXrX=XrX4X&X=XgXp.g.jX_.e.[.].L./.hXfXrX-X&XfX!./.' , B uX>X=X&X#XL.4X",
".X=X#X|.=X5X6XH.r.D.J.:.J.L.F.H.H.'.-.g.z.M >.tXgXeX$X9X6X*X&XiXp.l.iX=XiX<Xl.Q.H.l.tXhXgX=X1XrX!./...: M hXoX5X&X#XL.6X",
"oX=X#X#X=X3XrXH.0.G.S.<.D.J.J.J.V.S.{ 6.J ;.pXgXuX5X6XrX&X#XjXs.h.hXyXuX4XfX&Xw.r.l.jX8X7X#X3XyXd.(.} ; M iX&X3X1X#XL.3X",
"&X=X#X#X=X3XrXK.N.D.J.,.J.J.V.j.w.h.T y p.rXuX=X=X4X6X|.OXkX^.^.uXyXyXiXuXrXjX6X;.p.3XhXuXT.3X4Xa.n.{ ; B 8X&X&X3X#XP.rX",
"+X=X#X$X=X4XrXJ.9.I.J.;.J.J.N.r.8.2.7 $.rXuXuX=X=XrX#X-XlXy.B jXdXyX5X6XjXrXeXjX'._ =XeX4X=XoX6Xa.H.{ : B 3X|.&X1X#XL.3X",
"+X=X*X$X=X3XrXH.B.A.S.p.J.C.3.3.2.r >.dX9XrX*X1X4X#X-XuX_.x < >.jXyXrXrXsXiXiXeXjX.Xb.&X5X}.|.6Xd.M.{ : B 5X[.&X=X#XL.-X",
"&X=X#X#X=X3X6XH.8.J.J.@.V.r.2.2.0 ;.uXrXrX$X2XuX&X=XuX{.' o.X.0 :.uXrX2XrXhXiXuXuXjX5X/.&XG.K.5Xa.n.' : C 6X_.#X&X#XL.6X",
"oX=X#X$X=X5XrXn.w.D.V.@.w.3.} 9 >.aXuXeX#X-X=X&X2XhX.X3.C.w.H.2.0 ,.uX#X0XgXyXuXeXeXjX1Xn.K.K.=X=.v.^ : B rX|.#X3X#XL.=X",
"+X=X#X#X=X=XrXS.r.Z.r._ 2.2.2 -.pX7X3X=X4XuX#X$XeX6XL J.D.D.C.J.w.> p.dX$XrXjXhXrX0X3XjX&X6.F.Y.i.z.R ; M rXL.#X2X#XI.-X",
",X%X#X*X$X5XuXS.q.B.8.Q } 0 @.pXeXrX*X=X-X=X=XiX#Xj.u.[.[.C.J.C.L.W q p.xXyXiXgXrX0X0XuXiX}. .J.i.h.W = u rX#XP.3X#XL.=X",
",X=X*X#X+XeXuXj. .o.8.L 9 _ aX7XrX X$X-X*X#XuX&XK.J.p.#XL.P.#XP.L.,.h.q <.xXyXiXuXrX=X-XrXjX|.6.#.q.H = j -X].*X3X#XI.3X",
"1X=X=X$X$X,XuXr.] o.~ 4 { rX=X-X#X=X$X*X&XdX&Xr.|.&Xs.-X_.[.*XP.#Xu.`.r.2 p.xXyXiXhXrX-X=X4XjX`.P <.H @ u %X&X[.3X#XE.-X",
"3X-X&X=X$XyXuX8.G } , W pX=XrX$X*X-X$X|.uX2XS.F.6X=Xp.2X2X[.*X[.=Xk._.#Xr.0 <.zXiXhXtXrXrX5X4XdXl.F S O u $X&X#X6X#XL.6X",
"oX=X3X#X XrXrXx.A 5 ' pXeXyX#X$X%X#X#XrX&Xj.#XE.6X=X^.*X*X{.-X&X2Xh.|.[.H.j.q <.jXrXrXuXeXrXqX=XiXv.- o u rX&X$X=X#XI.2X",
"5XeX=X$X&X3XrX-.O E 0X-X9X$X&X-X#X|.pX_.j.#X*X#XrX3X~.*X-X[.*X[.2Xz.|.#X[.L.r.2 { tX9XiXyX=X-X6X$X5X@.. t rX|.#X=X#XL.6X",
"5X,X&XY.&XrXdXJ V jX3X6X*X-X%XE.#XpXb.<.#X$X$X*XuX&Xl.*X-X{.&X#X6Xp.oX$X[.K.L.9.- R pX=XrX6X0X-X|.$X7Xt 4 rX&X*X=XE.I.0X",
"`.;.&X%X=X3XtX$.R.%.3X*X#X*X#XY.=X&XY x.$XE.-XXXrX&Xk.*X[.[.#X[.*Xu.&X#XG.#XJ.D.-.=  .0XE.rXrX0X-Xb.` $.7 0X*X#X&X#XL.-X",
"/.=.0X$X*XiXrXi.}.|.#X*XT.E.#X0XJ...;.H.#X&X=X&X=X=X^.#X_.J._.L.*X<.'.#XG.#XJ.Z.6.T e @.qX=XrX9X-XY.c.` i qX2X*X&X*XE.=X",
"@XU |.T.*X6.5Xp.E.*X*X#X_.#X6XJ.~ 8.:.e.#XXXL.Y.#X_.u.L.L.D.J.J.I.;.).J.S._.L.Z.:.-.r.r W 0X XOX&XR.qXF 7 $X:.|.$X_.:.5X",
"K.%./.$X$Xh..X&.G.$X=X/._ uXJ.b ^ o.1.g.K.L.I.D.|.).>.S.D.N.D.N.J.1.b.S.S.J.H.V.6.-.H. .% Q qXW XXK.|.` y |.h.|.%XK.6.uX",
"`.i.eX=X=XdXdX@.Z.G.K.F.Y. .< n ! ! N R 4.8.[ [ 8. .L ..] ~ } ] } F {  .] [  .O.G D 1.{ c . 7 c.8.r.e.z ; -X2XP.#XY.$XyX",
"~.*.d.h.k.a.g.) W +.+._ @.Q _ ,.<.p.u.:.h.x.q.g.c.e.<.r.8.8.8.8.x.;.p.x.8.e.e.8.:.` t.| 4.( i E %.I W f f f.a.l.!./.d./.",
".X=.K.$X$X=X-XrX-X-X-X$XrXdXhXkXjXuXdX0X%X%XaXuXdXdXkXdXrXpXrXrXaXrXtXpXrXrXuXdXkXdXpXjXsXkXzXtXpXpXrXuXdX6X=X=XtX,X/.zX",
"5Xh v.tXqXyX-XrX=X0X0XrXrXtXeXwXrXrXuXqX-X=XqXrXrXrXiXrX0XuXrXeX6XeXeX6X6XrXiXjXuXfX-X=X$X$X$X$XqX=XrX6X=X=X$X$XtXe.6.dX",
";Xd.=X9X=X=XqX=XeX$X3X5X5X=X-X$X3XhXyXeXrXrX%X6X=XrXuXuXrX7XuXrXrXuXyXuXuXeXeXuXeX$XqX6X-X=X$X3X=XeX=XrX=X4XrX4XwXeXtXyX",
"@X=.+X$X XY.=XT.#X#X|. X X X|.$X$X=X=X=X$X=X9X=X=X=X-X$X=X=X=X3X3X=X+X=X-X3X=X9X6X4X4X4X4X3X4X4X=X3X3X3XeX9X9X=X=XeX=XeX",
"M.I m.U.Y.}.L.|.T.}.|.|..X|.Y.|.}.|.|.|..X.X|..X.X|.|.Y.}.|.K.|.|.|.}.|.|.}.|..XU.Y.U.T.U.U.R.Y.Y.|.`.|.|.}.}.}.@Xb.m.5X",
"/.V ;.}.).K.}.U.U.}.Y.U.U.U.}.Y._.Y.}.}.|.}.}.U.}.K.Y.K.}.U.U.}.U.}.L.L.Y.U.K.U.U.U.).}.}.Y.Y.}.`.|.}.}.}.U.}.}..X4.;.+X",
"4.5.7.4.6.4.4.6.4.6.6.6.6.6.6.7.4.6.e.e.7.e.6.7.e.e.e.6.7.e.6.7.e.6.6.e.e.6.7.6.6.6.6.7.h.6.6.6.4.e.7.7.6.6.6.6.4.6.6.h."
};
